<svg width="205" height="205" viewBox="0 0 205 205" fill="none" xmlns="http://www.w3.org/2000/svg">
<path d="M102.495 202.894C157.942 202.894 202.892 157.944 202.892 102.497C202.892 47.0489 157.942 2.09961 102.495 2.09961C47.0469 2.09961 2.09766 47.0489 2.09766 102.497C2.09766 157.944 47.0469 202.894 102.495 202.894Z" fill="white"/>
<path d="M102.496 205C45.9769 205 0 159.015 0 102.496C0 45.9769 45.9769 0 102.496 0C159.015 0 205 45.9769 205 102.496C205 159.015 159.023 204.992 102.496 204.992V205ZM102.496 4.21377C48.3023 4.21377 4.21377 48.3023 4.21377 102.496C4.21377 156.69 48.3023 200.786 102.496 200.786C156.69 200.786 200.786 156.698 200.786 102.496C200.786 48.2945 156.69 4.21377 102.496 4.21377Z" fill="#3C797E"/>
<path d="M152.985 142.402C162.833 129.964 168.186 113.811 166.579 96.3707C163.809 66.4295 139.704 41.8335 109.818 38.5406C70.9963 34.2566 38.1445 64.5411 38.1445 102.496C38.1445 117.588 43.3493 131.462 52.05 142.441C54.7577 145.851 58.8935 147.826 63.2477 147.826H141.757C146.126 147.826 150.27 145.836 152.985 142.402Z" fill="#3C797E"/>
<path d="M111.064 140.436H86.7175L95.4026 137.962C97.7358 137.291 98.1025 132.469 98.0401 130.83V111.642C98.0401 109.987 97.4549 108.754 96.6979 107.849C95.1685 113.148 90.3851 116.917 84.8057 116.917C77.9076 116.917 72.2893 111.329 72.2425 104.439C68.2862 102.2 65.8594 98.1263 65.8594 93.5926C65.8594 92.3363 66.1793 91.1814 66.4836 90.2216C66.1793 89.2618 65.8594 88.1069 65.8594 86.8427C65.8594 81.6223 69.0821 77.1277 73.9982 75.2939C73.7173 74.2951 73.5144 73.2806 73.5144 72.1726C73.5144 64.3849 79.8507 58.0564 87.6383 58.0564C90.8533 58.0564 93.92 59.1411 96.4248 61.1387C98.8126 58.0408 102.348 56.2305 106.148 56.2305C111.009 56.2305 115.356 59.1099 117.4 63.5343C119.234 62.5511 121.052 62.0595 122.917 62.0595C129.846 62.0595 135.488 67.6935 135.488 74.6228C135.488 76.4332 135.012 78.2279 134.029 80.0773C137.244 82.4651 139.124 86.0702 139.124 89.9328C139.124 94.2949 136.83 98.2745 133.061 100.561C133.459 101.794 133.654 103.058 133.654 104.338C133.654 111.267 128.013 116.901 121.091 116.901C117.509 116.901 114.13 115.364 111.735 112.656C107.342 112.687 106.881 115.45 106.85 115.77V129.488C106.858 135.044 111.516 137.946 111.711 138.071L115.558 140.412H111.064V140.436ZM99.1092 137.915H107.677C106.054 136.128 104.33 133.327 104.33 129.511V115.66C104.439 114.498 105.079 112.851 106.647 111.657C106.327 111.681 105.664 111.532 105.172 111.127C104.205 110.331 103.752 108.793 103.791 106.367C103.198 107.287 102.457 107.841 101.583 108.021C100.974 108.146 100.342 108.091 99.6944 107.826C100.28 108.981 100.584 110.276 100.584 111.649V130.791C100.6 131.353 100.685 135.207 99.1092 137.915ZM112.492 109.597L113.233 110.526C115.168 112.992 118.032 114.396 121.099 114.396C126.631 114.396 131.134 109.886 131.134 104.353C131.134 103.027 130.869 101.724 130.354 100.475L129.901 99.3826L130.962 98.8598C134.442 97.1353 136.604 93.7174 136.604 89.9484C136.604 86.5774 134.77 83.4405 131.703 81.5521L130.619 80.8888L131.29 79.812C132.429 77.9704 132.96 76.3317 132.96 74.6384C132.96 69.1059 128.45 64.6034 122.917 64.6034C121.114 64.6034 119.335 65.212 117.462 66.4606L116.073 67.397L115.566 65.8051C114.209 61.5991 110.424 58.7743 106.148 58.7743C102.761 58.7743 99.6164 60.6159 97.7358 63.706L96.9086 65.0638L95.7772 63.9479C93.5844 61.7864 90.6972 60.6003 87.6539 60.6003C81.2631 60.6003 76.0661 65.8051 76.0661 72.1882C76.0661 73.3899 76.4094 74.5526 76.7996 75.7465L77.2131 77.0106L75.9334 77.354C71.4387 78.5479 68.4189 82.3715 68.4189 86.8583C68.4189 87.8962 68.7466 88.934 69.0353 89.8548L69.1602 90.2372L69.0353 90.6195C68.7466 91.5403 68.4189 92.5704 68.4189 93.6082C68.4189 97.463 70.6272 100.912 74.2011 102.613L74.9502 102.964L74.8097 104.408C74.8019 109.894 79.2966 114.404 84.837 114.404C89.8467 114.404 94.0604 110.549 94.6379 105.446L94.6925 104.946L95.7459 104.213L95.7069 104.158L96.5809 103.354C97.5797 102.449 98.2352 101.622 98.6722 100.74L99.4213 99.2188L100.662 100.366C101.637 101.271 102.785 101.973 104.056 102.449L105.484 102.894C106.647 103.136 107.607 103.183 108.887 102.832C109.129 102.761 109.37 102.699 109.62 102.637L111.251 102.262L111.072 104.463C111.079 105.805 111.399 107.233 112.047 108.622L112.515 109.621L112.492 109.597ZM106.351 105.571C106.234 107.537 106.452 108.466 106.616 108.879C107.108 108.59 107.88 108.286 109.113 108.075C108.84 107.225 108.66 106.359 108.575 105.493C107.903 105.625 107.131 105.633 106.343 105.563L106.351 105.571ZM99.1482 104.346C100.077 105.313 100.795 105.594 101.068 105.547C101.325 105.493 101.684 105.134 102.02 104.322C101.349 103.994 100.709 103.612 100.108 103.183C99.8271 103.573 99.5071 103.963 99.1482 104.346Z" fill="white"/>
<path d="M120.272 140.436H95.9258V137.908H107.412C105.485 135.52 104.681 132.391 104.634 132.203L107.084 131.587C107.475 133.109 109.027 137.229 111.579 137.962L120.264 140.436H120.272Z" fill="white"/>
<path d="M62.1094 179.328V165.758H67.2049V175.449H72.7453V179.328H62.1094Z" fill="black"/>
<path d="M73.9102 179.328V165.758H84.7645V169.425H79.0135V170.65H83.9686V174.443H79.0135V175.668H84.7645V179.336H73.9102V179.328Z" fill="black"/>
<path d="M85.6055 179.328L90.8337 165.758H96.1243L101.352 179.328H96.0463L95.0787 176.799H91.8949L90.9273 179.328H85.6211H85.6055ZM92.4333 173.327H94.5012L93.4712 170.736L92.4411 173.327H92.4333Z" fill="black"/>
<path d="M110.295 179.538C107.736 179.538 105.785 178.945 104.427 177.767C103.07 176.589 102.391 174.848 102.391 172.539C102.391 170.229 103.101 168.497 104.521 167.31C105.941 166.132 107.986 165.539 110.654 165.539C111.528 165.539 112.309 165.586 113.003 165.68C113.698 165.773 114.369 165.929 115.016 166.156V170.494C114.369 170.244 113.713 170.073 113.05 169.979C112.379 169.885 111.7 169.839 110.998 169.839C110.014 169.839 109.203 170.034 108.563 170.416C107.923 170.806 107.603 171.509 107.603 172.531C107.603 173.553 107.83 174.263 108.29 174.645C108.75 175.028 109.406 175.223 110.256 175.223C110.709 175.223 111.13 175.176 111.52 175.075V174.255H109.265V171.181H115.734V178.196C115.157 178.547 114.423 178.859 113.526 179.125C112.629 179.39 111.552 179.523 110.303 179.523L110.295 179.538Z" fill="black"/>
<path d="M124.101 179.538C122.822 179.538 121.675 179.328 120.645 178.906C119.622 178.485 118.811 177.861 118.21 177.034C117.617 176.206 117.312 175.184 117.312 173.975V165.758H122.408V173.319C122.408 174.583 122.97 175.215 124.094 175.215C125.217 175.215 125.779 174.583 125.779 173.319V165.758H130.875V173.975C130.875 175.184 130.578 176.199 129.977 177.034C129.376 177.861 128.573 178.485 127.543 178.906C126.52 179.328 125.365 179.538 124.086 179.538H124.101Z" fill="black"/>
<path d="M132.676 179.328V165.758H143.522V169.425H137.771V170.65H142.726V174.443H137.771V175.668H143.522V179.336H132.676V179.328Z" fill="black"/>
<path d="M61.6526 42.0516L55.2148 29.2464L62.4095 25.6257C63.5097 25.0717 64.532 24.8376 65.4762 24.9312C66.4204 25.0249 67.2553 25.3526 67.9888 25.9378C68.7223 26.5153 69.3154 27.2644 69.7758 28.1774C70.244 29.106 70.4625 30.0424 70.4312 30.9944C70.4 31.9464 70.1347 32.8281 69.6197 33.6319C69.1047 34.4434 68.34 35.0989 67.3333 35.6061L65.0236 36.7688L66.4672 39.6326L61.6526 42.0516ZM63.1352 33.0076L64.3057 32.4146C64.688 32.2195 64.9299 31.9698 65.0236 31.6576C65.1172 31.3455 65.0704 31.0022 64.8831 30.6354C64.4695 29.8161 63.8999 29.5898 63.1664 29.9487L61.9101 30.5808L63.1274 33.0076H63.1352Z" fill="#151716"/>
<path d="M74.2256 35.8411L70.082 22.123L77.7917 19.7898C78.97 19.4308 80.0078 19.3606 80.913 19.5791C81.8182 19.7976 82.5673 20.2346 83.1837 20.89C83.7924 21.5533 84.245 22.3727 84.5415 23.3481C84.8224 24.2689 84.8302 25.1506 84.5649 25.9934C84.2996 26.8361 83.9016 27.5774 83.371 28.2407C83.5583 28.2954 83.7144 28.3656 83.8314 28.4592C83.9563 28.5529 84.0577 28.6543 84.1592 28.7635L86.9059 32.0019L81.5372 33.625L79.2743 30.9875C79.1494 30.8392 79.0402 30.7456 78.931 30.7066C78.8217 30.6675 78.6969 30.6754 78.5408 30.7222L78.3301 30.7846L79.3835 34.2805L74.2256 35.8411ZM77.105 26.7659L78.3613 26.3835C79.1963 26.1338 79.5084 25.65 79.2977 24.9399C79.1807 24.542 78.9934 24.2845 78.7515 24.1752C78.5096 24.066 78.1896 24.066 77.7917 24.183L76.4495 24.5888L77.105 26.7659Z" fill="#151716"/>
<path d="M88.1306 31.8535L86.25 17.6437L97.6116 16.1377L98.1188 19.9769L92.0947 20.7728L92.2663 22.0526L97.4477 21.3659L97.9705 25.3378L92.7892 26.0245L92.9608 27.3042L98.985 26.5083L99.4922 30.3475L88.1306 31.8535Z" fill="#151716"/>
<path d="M100.215 30.152L100.863 15.833L105.974 16.0593L108.619 22.1068L111.772 16.3246L116.883 16.5509L116.243 30.8699L110.859 30.628L111.085 25.6027L109.704 28.1232L106.972 27.9983L105.818 25.3608L105.591 30.3861L100.207 30.1442L100.215 30.152Z" fill="#151716"/>
<path d="M117.695 31.4316L120.426 17.3623L125.717 18.3923L122.986 32.4617L117.695 31.4316Z" fill="#151716"/>
<path d="M124.547 32.6958L128.909 19.04L139.826 22.5281L138.647 26.2191L132.857 24.3697L132.467 25.6026L137.446 27.1945L136.228 31.0103L131.25 29.4184L130.86 30.6513L136.65 32.5007L135.471 36.1917L124.555 32.7036L124.547 32.6958Z" fill="#151716"/>
<path d="M136.203 36.4576L142.711 23.6914L149.89 27.3511C150.99 27.913 151.786 28.5841 152.286 29.3644C152.785 30.1447 153.027 30.9875 153.011 31.8849C152.996 32.7822 152.754 33.6874 152.286 34.6004C151.849 35.4588 151.24 36.0986 150.468 36.52C149.695 36.9414 148.891 37.2067 148.056 37.3081C148.158 37.472 148.212 37.6359 148.236 37.7841C148.259 37.9402 148.267 38.0885 148.259 38.2289L147.994 42.4661L143 39.9222L143.195 36.4498C143.21 36.2547 143.195 36.1142 143.14 36.0128C143.093 35.9113 142.992 35.8255 142.852 35.7553L142.656 35.6538L141.002 38.9078L136.203 36.4654V36.4576ZM144.576 31.9005L145.747 32.4935C146.527 32.8915 147.081 32.7588 147.424 32.0955C147.612 31.7288 147.658 31.4167 147.565 31.1669C147.471 30.9172 147.229 30.6988 146.862 30.5115L145.614 29.8716L144.584 31.8927L144.576 31.9005Z" fill="#151716"/>
<path d="M168.61 53.7178C169.281 53.7178 169.952 54.0533 170.288 54.6464C170.959 55.575 170.717 56.8313 169.788 57.5102C168.86 58.1813 167.51 57.9316 166.846 57.003C166.175 56.0744 166.417 54.7322 167.432 54.0611C167.767 53.8036 168.189 53.7256 168.618 53.7256L168.61 53.7178ZM172.566 60.0306C173.323 60.0306 173.994 60.452 174.416 61.1231C174.923 62.1375 174.587 63.3938 173.581 63.9869C172.566 64.5799 171.302 64.1586 170.717 63.1441C170.124 62.1375 170.545 60.8734 171.474 60.2803C171.809 60.1087 172.231 60.0306 172.566 60.0306ZM175.929 66.6868C176.694 66.6868 177.451 67.194 177.872 67.951C178.294 69.0434 177.872 70.3076 176.78 70.7289C175.688 71.2361 174.501 70.7289 174.002 69.7145C173.503 68.622 174.002 67.3579 175.094 66.9365C175.352 66.7649 175.602 66.6868 175.929 66.6868ZM178.629 73.6708C179.48 73.6708 180.315 74.2638 180.65 75.1066C180.986 76.199 180.393 77.4632 179.3 77.7987C178.208 78.1342 177.03 77.549 176.601 76.4487C176.265 75.3563 176.858 74.178 177.95 73.8346C178.208 73.7488 178.372 73.663 178.622 73.663L178.629 73.6708ZM180.65 80.8342C181.665 80.8342 182.5 81.5053 182.757 82.5197C183.015 83.6122 182.336 84.7904 181.15 85.048C180.057 85.3055 178.879 84.6266 178.622 83.4483C178.364 82.3558 179.043 81.1775 180.229 80.92C180.393 80.92 180.565 80.8342 180.65 80.8342ZM182.078 88.2473C183.093 88.2473 184.021 89.0042 184.099 90.0186H184.185C184.271 91.1969 183.514 92.2894 182.336 92.4611C181.15 92.6249 180.143 91.79 179.979 90.6039C179.815 89.5114 180.65 88.4112 181.751 88.2473H182.086H182.078ZM182.757 95.6526C183.85 95.6526 184.778 96.5812 184.864 97.6737C184.864 98.852 184.029 99.8664 182.843 99.8664C181.665 99.9522 180.736 99.0236 180.658 97.8453C180.572 96.7529 181.493 95.7384 182.679 95.6604H182.765L182.757 95.6526ZM182.757 103.144H182.843C184.029 103.23 184.864 104.158 184.864 105.336C184.778 106.515 183.85 107.443 182.679 107.358C181.493 107.358 180.572 106.351 180.658 105.173C180.744 104.08 181.587 103.152 182.765 103.152L182.757 103.144ZM182.078 110.565C182.164 110.565 182.242 110.651 182.336 110.651C183.514 110.822 184.271 111.829 184.185 113.007H184.099C183.928 114.185 182.913 114.942 181.743 114.778C180.65 114.607 179.808 113.6 179.972 112.422C180.135 111.415 180.986 110.572 182.078 110.572V110.565ZM180.65 117.97H181.15C182.336 118.306 183.007 119.398 182.757 120.584C182.5 121.677 181.329 122.355 180.143 122.098C179.051 121.848 178.372 120.67 178.629 119.57C178.887 118.555 179.722 117.97 180.65 117.97ZM178.629 125.133C178.887 125.133 179.051 125.133 179.3 125.219C180.393 125.641 180.986 126.819 180.65 127.919C180.229 129.012 179.043 129.605 177.95 129.261C176.858 128.84 176.265 127.662 176.601 126.569C176.936 125.726 177.787 125.141 178.622 125.141L178.629 125.133ZM175.929 132.117C176.187 132.117 176.522 132.117 176.78 132.289C177.872 132.71 178.294 133.975 177.872 135.067C177.373 136.081 176.101 136.581 175.009 136.167C173.994 135.66 173.495 134.396 173.994 133.389V133.303C174.33 132.547 175.087 132.125 175.929 132.125V132.117ZM172.566 138.774C172.902 138.774 173.237 138.859 173.581 139.023C174.595 139.609 174.931 140.88 174.338 141.887C173.83 142.901 172.488 143.237 171.474 142.73C170.545 142.145 170.124 140.88 170.717 139.866C171.138 139.109 171.809 138.774 172.566 138.774ZM168.61 145.086C169.031 145.086 169.445 145.25 169.788 145.508C170.717 146.179 170.967 147.443 170.288 148.372C169.617 149.386 168.352 149.55 167.346 148.965C166.417 148.294 166.168 146.944 166.846 146.015C167.268 145.422 167.939 145.086 168.618 145.086H168.61ZM164.061 151.072C164.482 151.072 164.981 151.243 165.403 151.571C166.253 152.242 166.417 153.592 165.66 154.521C164.903 155.363 163.553 155.535 162.718 154.778C161.79 154.021 161.704 152.671 162.383 151.828C162.882 151.321 163.475 151.072 164.068 151.072H164.061ZM159.004 156.542C159.511 156.542 160.019 156.713 160.432 157.127C161.283 157.97 161.283 159.32 160.432 160.155C159.597 160.997 158.247 160.911 157.49 160.155C156.655 159.32 156.655 157.97 157.49 157.127C157.912 156.705 158.419 156.542 159.004 156.542ZM153.448 161.505C154.041 161.505 154.634 161.762 155.056 162.347C155.813 163.19 155.649 164.532 154.72 165.297C153.885 166.054 152.535 165.882 151.778 164.961C151.014 164.119 151.185 162.769 152.114 162.012C152.449 161.676 152.949 161.505 153.456 161.505H153.448Z" fill="#3C797E"/>
<path d="M163.978 47.6543C163.393 47.6543 162.886 47.9118 162.464 48.2473C162.3 48.4971 162.129 48.7468 162.043 48.9184C161.957 49.254 161.871 49.5115 161.871 49.7612C161.871 50.3542 162.129 50.8536 162.464 51.275C163.221 52.0319 164.649 52.0319 165.5 51.275C165.835 50.8536 166.085 50.3464 166.085 49.7612C166.085 49.254 165.835 48.6687 165.5 48.2473C165.078 47.9118 164.485 47.6543 163.978 47.6543Z" fill="#3C797E"/>
<path d="M41.6967 46.8975C41.1895 46.8975 40.6043 47.0691 40.1829 47.4827C39.8474 47.9041 39.5898 48.4113 39.5898 48.9965C39.5898 49.5037 39.8474 50.089 40.1829 50.4245C41.0178 51.1815 42.4536 51.1815 43.2106 50.4245C43.6319 50.089 43.8036 49.4959 43.8036 48.9965C43.8036 48.4035 43.6319 47.8182 43.2106 47.4827C43.0467 47.311 42.7892 47.1472 42.5395 46.9755C42.2898 46.8896 41.9542 46.8896 41.7045 46.8896L41.6967 46.8975Z" fill="#3C797E"/>
<path d="M37.0714 52.7891C37.4928 52.7891 37.9064 52.9607 38.3277 53.2104C39.2563 53.8815 39.4202 55.1457 38.7569 56.0742C38.0858 57.0887 36.8139 57.2525 35.8073 56.5815C34.8787 55.9104 34.7148 54.6462 35.3859 53.7176C35.8073 53.1246 36.4003 52.7891 37.0714 52.7891ZM33.0215 59.1019C33.357 59.1019 33.6926 59.1878 34.0359 59.4375C35.0504 59.9447 35.3859 61.2946 34.7929 62.3013C34.2076 63.3079 32.9435 63.6434 31.929 63.0582C30.9146 62.4729 30.5791 61.201 31.1721 60.1944C31.5077 59.5233 32.2646 59.0941 33.0215 59.0941V59.1019ZM29.4866 65.8439C29.8222 65.8439 30.0797 65.844 30.4152 66.0156C31.4296 66.5228 31.929 67.787 31.4296 68.7936C30.9224 69.8002 29.6583 70.3074 28.6517 69.8002C27.5592 69.3008 27.13 68.1147 27.5592 67.0222C27.9806 66.2653 28.7375 65.8439 29.4944 65.8439H29.4866ZM26.7087 72.7499C26.8803 72.7499 27.13 72.8357 27.3797 72.9215C28.4722 73.2571 29.0652 74.5212 28.6439 75.6215C28.3083 76.7139 27.1222 77.2211 25.9439 76.8856C24.9295 76.4642 24.3365 75.2859 24.6798 74.1857C25.0153 73.3507 25.7801 72.7577 26.7008 72.7577L26.7087 72.7499ZM24.5237 79.9913C24.6876 79.9913 24.8593 79.9913 25.0231 80.0771C26.2092 80.3268 26.8803 81.5051 26.5448 82.6054C26.2873 83.7837 25.1168 84.4626 24.0165 84.1192C22.9163 83.8695 22.2374 82.7693 22.4949 81.591C22.7524 80.6624 23.5873 79.9835 24.5159 79.9835L24.5237 79.9913ZM23.0879 87.4044H23.3454C24.5237 87.5761 25.2806 88.6685 25.1168 89.8468C25.0231 90.9393 23.9307 91.7821 22.7602 91.6182C21.5819 91.4465 20.8172 90.3541 20.9888 89.1758C21.1527 88.1613 22.0033 87.4044 23.0957 87.4044H23.0879ZM22.2452 94.8956H22.4168C23.5951 94.9814 24.4379 95.91 24.4379 97.0883C24.3443 98.2666 23.3454 99.1952 22.1593 99.1093C20.981 99.0235 20.1383 98.0169 20.2241 96.8386C20.2241 95.7461 21.1449 94.9034 22.2374 94.9034L22.2452 94.8956ZM22.2452 102.395C23.3454 102.395 24.2662 103.323 24.3521 104.416C24.3521 105.594 23.5171 106.6 22.3388 106.6C21.1527 106.686 20.1461 105.758 20.1461 104.579C20.0603 103.401 20.9966 102.473 22.1671 102.387H22.253L22.2452 102.395ZM22.9163 109.972C23.9307 109.972 24.7734 110.728 24.9373 111.743C25.109 112.921 24.2662 113.936 23.166 114.099C21.9877 114.271 20.8952 113.514 20.7235 112.328C20.6377 111.15 21.3946 110.057 22.5729 109.972H22.9085H22.9163ZM24.1882 117.299C25.2026 117.299 26.0376 117.97 26.2951 118.984H26.2092C26.4589 120.163 25.7879 121.255 24.6876 121.513C23.5093 121.77 22.4168 121.005 22.1593 119.913C21.8238 118.82 22.5807 117.642 23.681 117.385C23.8448 117.385 24.0165 117.299 24.1804 117.299H24.1882ZM26.2092 124.626C27.13 124.626 27.8948 125.133 28.2303 126.054C28.558 127.147 27.9728 128.325 26.8803 128.668C25.7879 129.09 24.6018 128.497 24.1804 127.404C23.8448 126.304 24.4379 125.047 25.5304 124.704C25.7879 124.618 26.0298 124.618 26.2014 124.618L26.2092 124.626ZM28.8936 131.618C29.7441 131.618 30.501 132.125 30.8366 132.882C31.258 133.974 30.8366 135.239 29.7441 135.66C28.6517 136.167 27.4656 135.66 26.9662 134.567C26.5448 133.553 26.9662 132.297 28.0586 131.789C28.3161 131.704 28.6517 131.618 28.8936 131.618ZM32.2646 138.438C33.0215 138.438 33.6926 138.773 34.114 139.445C34.707 140.459 34.2856 141.801 33.279 142.308C32.2646 142.894 31.0005 142.558 30.4152 141.551C29.8222 140.545 30.2435 139.195 31.2502 138.688C31.5857 138.516 31.9212 138.438 32.2646 138.438ZM36.2208 144.837C36.8919 144.837 37.5708 145.094 37.9922 145.765C38.6633 146.694 38.4214 147.958 37.4069 148.629C36.4784 149.3 35.1284 149.05 34.4573 148.122C33.7862 147.107 34.0359 145.851 35.0504 145.172C35.3859 144.922 35.8073 144.837 36.2287 144.837H36.2208ZM40.7702 150.814C41.3632 150.814 41.9563 151.071 42.3776 151.571C43.1346 152.414 43.0487 153.764 42.1201 154.52C41.1915 155.277 39.9352 155.192 39.1783 154.271C38.4214 153.342 38.5072 152 39.428 151.321C39.8572 150.986 40.2786 150.814 40.778 150.814H40.7702ZM45.8267 156.37C46.4119 156.37 46.9191 156.541 47.3405 156.955C48.1755 157.798 48.1755 159.148 47.3405 159.983C46.5836 160.74 45.2336 160.74 44.3987 159.983C43.5481 159.148 43.5481 157.798 44.3987 156.955C44.8201 156.534 45.3195 156.37 45.8267 156.37ZM51.4685 161.426C51.8898 161.426 52.3893 161.598 52.8184 161.934C53.6534 162.605 53.8251 163.955 53.0681 164.875C52.3112 165.718 50.9613 165.89 50.1263 165.133C49.1977 164.376 49.1119 163.112 49.7908 162.183C50.2121 161.676 50.8832 161.426 51.4763 161.426H51.4685Z" fill="#3C797E"/>
</svg>
