<svg width="205" height="205" viewBox="0 0 205 205" fill="none" xmlns="http://www.w3.org/2000/svg">
<path d="M102.497 202.894C157.944 202.894 202.894 157.944 202.894 102.497C202.894 47.0489 157.944 2.09961 102.497 2.09961C47.0489 2.09961 2.09961 47.0489 2.09961 102.497C2.09961 157.944 47.0489 202.894 102.497 202.894Z" fill="white"/>
<path d="M102.496 205C45.9769 205 0 159.015 0 102.496C0 45.9769 45.9769 0 102.496 0C159.015 0 205 45.9769 205 102.496C205 159.015 159.023 204.992 102.496 204.992V205ZM102.496 4.21377C48.3023 4.21377 4.21377 48.3023 4.21377 102.496C4.21377 156.69 48.3023 200.786 102.496 200.786C156.69 200.786 200.786 156.698 200.786 102.496C200.786 48.2945 156.69 4.21377 102.496 4.21377Z" fill="#EC5E25"/>
<path d="M152.983 142.402C162.831 129.963 168.184 113.811 166.577 96.3702C163.807 66.429 139.702 41.8331 109.816 38.5401C70.9944 34.2561 38.1426 64.5406 38.1426 102.496C38.1426 117.587 43.3474 131.462 52.048 142.441C54.7558 145.851 58.8915 147.825 63.2457 147.825H141.755C146.124 147.825 150.268 145.835 152.983 142.402Z" fill="#EC5E25"/>
<path d="M111.064 140.435H86.7175L95.4026 137.962C97.7358 137.29 98.1025 132.468 98.0401 130.829V111.641C98.0401 109.987 97.4549 108.754 96.6979 107.849C95.1685 113.147 90.3851 116.916 84.8057 116.916C77.9076 116.916 72.2893 111.329 72.2425 104.439C68.2862 102.199 65.8594 98.1258 65.8594 93.5921C65.8594 92.3358 66.1793 91.1809 66.4836 90.2211C66.1793 89.2613 65.8594 88.1064 65.8594 86.8423C65.8594 81.6219 69.0821 77.1272 73.9982 75.2934C73.7173 74.2946 73.5144 73.2802 73.5144 72.1721C73.5144 64.3844 79.8507 58.056 87.6383 58.056C90.8533 58.056 93.92 59.1406 96.4248 61.1382C98.8126 58.0403 102.348 56.23 106.148 56.23C111.009 56.23 115.356 59.1094 117.4 63.5339C119.234 62.5506 121.052 62.059 122.917 62.059C129.846 62.059 135.488 67.693 135.488 74.6223C135.488 76.4327 135.012 78.2274 134.029 80.0768C137.244 82.4646 139.124 86.0697 139.124 89.9324C139.124 94.2944 136.83 98.2741 133.061 100.56C133.459 101.793 133.654 103.057 133.654 104.337C133.654 111.267 128.013 116.9 121.091 116.9C117.509 116.9 114.13 115.363 111.735 112.656C107.342 112.687 106.881 115.449 106.85 115.769V129.487C106.858 135.043 111.516 137.946 111.711 138.071L115.558 140.412H111.064V140.435ZM99.1092 137.915H107.677C106.054 136.128 104.33 133.326 104.33 129.511V115.66C104.439 114.497 105.079 112.851 106.647 111.657C106.327 111.68 105.664 111.532 105.172 111.126C104.205 110.33 103.752 108.793 103.791 106.366C103.198 107.287 102.457 107.841 101.583 108.02C100.974 108.145 100.342 108.091 99.6944 107.825C100.28 108.98 100.584 110.276 100.584 111.649V130.79C100.6 131.352 100.685 135.207 99.1092 137.915ZM112.492 109.597L113.233 110.525C115.168 112.991 118.032 114.396 121.099 114.396C126.631 114.396 131.134 109.885 131.134 104.353C131.134 103.026 130.869 101.723 130.354 100.475L129.901 99.3821L130.962 98.8593C134.442 97.1348 136.604 93.7169 136.604 89.948C136.604 86.5769 134.77 83.44 131.703 81.5516L130.619 80.8884L131.29 79.8115C132.429 77.9699 132.96 76.3312 132.96 74.6379C132.96 69.1054 128.45 64.6029 122.917 64.6029C121.114 64.6029 119.335 65.2116 117.462 66.4601L116.073 67.3965L115.566 65.8046C114.209 61.5986 110.424 58.7739 106.148 58.7739C102.761 58.7739 99.6164 60.6154 97.7358 63.7055L96.9086 65.0633L95.7772 63.9474C93.5844 61.7859 90.6972 60.5998 87.6539 60.5998C81.2631 60.5998 76.0661 65.8046 76.0661 72.1877C76.0661 73.3894 76.4094 74.5521 76.7996 75.746L77.2131 77.0101L75.9334 77.3535C71.4387 78.5474 68.4189 82.371 68.4189 86.8579C68.4189 87.8957 68.7466 88.9335 69.0353 89.8543L69.1602 90.2367L69.0353 90.619C68.7466 91.5398 68.4189 92.5699 68.4189 93.6077C68.4189 97.4625 70.6272 100.912 74.2011 102.613L74.9502 102.964L74.8097 104.407C74.8019 109.893 79.2966 114.403 84.837 114.403C89.8467 114.403 94.0604 110.549 94.6379 105.445L94.6925 104.946L95.7459 104.212L95.7069 104.158L96.5809 103.354C97.5797 102.449 98.2352 101.622 98.6722 100.74L99.4213 99.2183L100.662 100.365C101.637 101.271 102.785 101.973 104.056 102.449L105.484 102.894C106.647 103.136 107.607 103.182 108.887 102.831C109.129 102.761 109.37 102.699 109.62 102.636L111.251 102.262L111.072 104.462C111.079 105.804 111.399 107.232 112.047 108.621L112.515 109.62L112.492 109.597ZM106.351 105.57C106.234 107.537 106.452 108.465 106.616 108.879C107.108 108.59 107.88 108.286 109.113 108.075C108.84 107.224 108.66 106.358 108.575 105.492C107.903 105.625 107.131 105.633 106.343 105.562L106.351 105.57ZM99.1482 104.345C100.077 105.313 100.795 105.594 101.068 105.547C101.325 105.492 101.684 105.133 102.02 104.322C101.349 103.994 100.709 103.612 100.108 103.182C99.8271 103.572 99.5071 103.963 99.1482 104.345Z" fill="white"/>
<path d="M120.272 140.435H95.9258V137.907H107.412C105.485 135.519 104.681 132.39 104.634 132.203L107.084 131.586C107.475 133.108 109.027 137.228 111.579 137.962L120.264 140.435H120.272Z" fill="white"/>
<path d="M62.1094 179.327V165.757H67.2049V175.449H72.7453V179.327H62.1094Z" fill="black"/>
<path d="M73.9102 179.327V165.757H84.7645V169.424H79.0135V170.649H83.9686V174.442H79.0135V175.667H84.7645V179.335H73.9102V179.327Z" fill="black"/>
<path d="M85.6055 179.327L90.8337 165.757H96.1243L101.352 179.327H96.0463L95.0787 176.798H91.8949L90.9273 179.327H85.6211H85.6055ZM92.4333 173.326H94.5012L93.4712 170.735L92.4411 173.326H92.4333Z" fill="black"/>
<path d="M110.293 179.538C107.734 179.538 105.783 178.945 104.425 177.766C103.068 176.588 102.389 174.848 102.389 172.538C102.389 170.228 103.099 168.496 104.519 167.31C105.939 166.132 107.984 165.539 110.652 165.539C111.526 165.539 112.307 165.585 113.001 165.679C113.696 165.773 114.367 165.929 115.014 166.155V170.494C114.367 170.244 113.711 170.072 113.048 169.979C112.377 169.885 111.698 169.838 110.996 169.838C110.012 169.838 109.201 170.033 108.561 170.416C107.921 170.806 107.601 171.508 107.601 172.53C107.601 173.553 107.828 174.263 108.288 174.645C108.748 175.027 109.404 175.222 110.254 175.222C110.707 175.222 111.128 175.176 111.519 175.074V174.255H109.263V171.18H115.732V178.195C115.155 178.547 114.421 178.859 113.524 179.124C112.627 179.389 111.55 179.522 110.301 179.522L110.293 179.538Z" fill="black"/>
<path d="M124.101 179.537C122.822 179.537 121.675 179.327 120.645 178.905C119.622 178.484 118.811 177.86 118.21 177.033C117.617 176.205 117.312 175.183 117.312 173.974V165.757H122.408V173.318C122.408 174.582 122.97 175.214 124.094 175.214C125.217 175.214 125.779 174.582 125.779 173.318V165.757H130.875V173.974C130.875 175.183 130.578 176.198 129.977 177.033C129.376 177.86 128.573 178.484 127.543 178.905C126.52 179.327 125.365 179.537 124.086 179.537H124.101Z" fill="black"/>
<path d="M132.676 179.327V165.757H143.522V169.424H137.771V170.649H142.726V174.442H137.771V175.667H143.522V179.335H132.676V179.327Z" fill="black"/>
<path d="M61.6526 42.0521L55.2148 29.2469L62.4095 25.6262C63.5097 25.0722 64.532 24.8381 65.4762 24.9317C66.4204 25.0253 67.2553 25.3531 67.9888 25.9383C68.7223 26.5158 69.3154 27.2649 69.7758 28.1779C70.244 29.1065 70.4625 30.0429 70.4312 30.9949C70.4 31.9469 70.1347 32.8286 69.6197 33.6324C69.1047 34.4439 68.34 35.0994 67.3333 35.6066L65.0236 36.7693L66.4672 39.6331L61.6526 42.0521ZM63.1352 33.0081L64.3057 32.4151C64.688 32.22 64.9299 31.9703 65.0236 31.6581C65.1172 31.346 65.0704 31.0027 64.8831 30.6359C64.4695 29.8166 63.8999 29.5903 63.1664 29.9492L61.9101 30.5813L63.1274 33.0081H63.1352Z" fill="#151716"/>
<path d="M74.2256 35.8406L70.082 22.1225L77.7917 19.7893C78.97 19.4303 80.0078 19.3601 80.913 19.5786C81.8182 19.7971 82.5673 20.2341 83.1837 20.8896C83.7924 21.5528 84.245 22.3722 84.5415 23.3476C84.8224 24.2684 84.8302 25.1501 84.5649 25.9929C84.2996 26.8357 83.9016 27.577 83.371 28.2402C83.5583 28.2949 83.7144 28.3651 83.8314 28.4587C83.9563 28.5524 84.0577 28.6538 84.1592 28.7631L86.9059 32.0014L81.5372 33.6245L79.2743 30.987C79.1494 30.8387 79.0402 30.7451 78.931 30.7061C78.8217 30.6671 78.6969 30.6749 78.5408 30.7217L78.3301 30.7841L79.3835 34.28L74.2256 35.8406ZM77.105 26.7654L78.3613 26.3831C79.1963 26.1334 79.5084 25.6496 79.2977 24.9395C79.1807 24.5415 78.9934 24.284 78.7515 24.1747C78.5096 24.0655 78.1896 24.0655 77.7917 24.1825L76.4495 24.5883L77.105 26.7654Z" fill="#151716"/>
<path d="M88.1306 31.8535L86.25 17.6437L97.6116 16.1377L98.1188 19.9769L92.0947 20.7728L92.2663 22.0526L97.4477 21.3659L97.9705 25.3378L92.7892 26.0245L92.9608 27.3042L98.985 26.5083L99.4922 30.3475L88.1306 31.8535Z" fill="#151716"/>
<path d="M100.215 30.152L100.863 15.833L105.974 16.0593L108.619 22.1068L111.772 16.3246L116.883 16.5509L116.243 30.8699L110.859 30.628L111.085 25.6027L109.704 28.1232L106.972 27.9983L105.818 25.3608L105.591 30.3861L100.207 30.1442L100.215 30.152Z" fill="#151716"/>
<path d="M117.697 31.4316L120.428 17.3623L125.719 18.3923L122.988 32.4617L117.697 31.4316Z" fill="#151716"/>
<path d="M124.545 32.6958L128.907 19.04L139.824 22.5281L138.645 26.2191L132.855 24.3697L132.465 25.6026L137.444 27.1945L136.226 31.0103L131.248 29.4184L130.858 30.6513L136.648 32.5007L135.47 36.1917L124.553 32.7036L124.545 32.6958Z" fill="#151716"/>
<path d="M136.205 36.4571L142.713 23.6909L149.892 27.3507C150.992 27.9125 151.788 28.5836 152.288 29.3639C152.787 30.1442 153.029 30.987 153.013 31.8844C152.998 32.7817 152.756 33.6869 152.288 34.5999C151.851 35.4583 151.242 36.0981 150.469 36.5195C149.697 36.9409 148.893 37.2062 148.058 37.3076C148.16 37.4715 148.214 37.6354 148.238 37.7836C148.261 37.9397 148.269 38.088 148.261 38.2284L147.996 42.4656L143.002 39.9217L143.197 36.4493C143.212 36.2542 143.197 36.1137 143.142 36.0123C143.095 35.9109 142.994 35.825 142.853 35.7548L142.658 35.6533L141.004 38.9073L136.205 36.4649V36.4571ZM144.578 31.9L145.748 32.493C146.529 32.891 147.083 32.7583 147.426 32.0951C147.613 31.7283 147.66 31.4162 147.567 31.1665C147.473 30.9168 147.231 30.6983 146.864 30.511L145.616 29.8711L144.586 31.8922L144.578 31.9Z" fill="#151716"/>
<path d="M168.612 53.7173C169.283 53.7173 169.954 54.0528 170.29 54.6459C170.961 55.5745 170.719 56.8308 169.79 57.5097C168.862 58.1808 167.512 57.9311 166.848 57.0025C166.177 56.0739 166.419 54.7317 167.434 54.0606C167.769 53.8031 168.191 53.7251 168.62 53.7251L168.612 53.7173ZM172.568 60.0301C173.325 60.0301 173.996 60.4515 174.418 61.1226C174.925 62.137 174.589 63.3934 173.583 63.9864C172.568 64.5795 171.304 64.1581 170.719 63.1437C170.126 62.137 170.547 60.8729 171.476 60.2798C171.811 60.1082 172.233 60.0301 172.568 60.0301ZM175.931 66.6863C176.696 66.6863 177.453 67.1936 177.874 67.9505C178.296 69.0429 177.874 70.3071 176.782 70.7284C175.689 71.2357 174.503 70.7284 174.004 69.714C173.505 68.6216 174.004 67.3574 175.096 66.936C175.354 66.7644 175.604 66.6863 175.931 66.6863ZM178.631 73.6703C179.482 73.6703 180.317 74.2633 180.652 75.1061C180.988 76.1985 180.395 77.4627 179.302 77.7982C178.21 78.1338 177.032 77.5485 176.602 76.4482C176.267 75.3558 176.86 74.1775 177.952 73.8342C178.21 73.7483 178.374 73.6625 178.624 73.6625L178.631 73.6703ZM180.652 80.8337C181.667 80.8337 182.502 81.5048 182.759 82.5192C183.017 83.6117 182.338 84.79 181.152 85.0475C180.059 85.305 178.881 84.6261 178.624 83.4478C178.366 82.3553 179.045 81.177 180.231 80.9195C180.395 80.9195 180.567 80.8337 180.652 80.8337ZM182.08 88.2468C183.095 88.2468 184.023 89.0037 184.101 90.0182H184.187C184.273 91.1965 183.516 92.2889 182.338 92.4606C181.152 92.6245 180.145 91.7895 179.981 90.6034C179.817 89.5109 180.652 88.4107 181.753 88.2468H182.088H182.08ZM182.759 95.6521C183.852 95.6521 184.78 96.5807 184.866 97.6732C184.866 98.8515 184.031 99.8659 182.845 99.8659C181.667 99.9517 180.738 99.0231 180.66 97.8448C180.574 96.7524 181.495 95.738 182.681 95.6599H182.767L182.759 95.6521ZM182.759 103.143H182.845C184.031 103.229 184.866 104.158 184.866 105.336C184.78 106.514 183.852 107.443 182.681 107.357C181.495 107.357 180.574 106.35 180.66 105.172C180.746 104.08 181.589 103.151 182.767 103.151L182.759 103.143ZM182.08 110.564C182.166 110.564 182.244 110.65 182.338 110.65C183.516 110.822 184.273 111.828 184.187 113.007H184.101C183.93 114.185 182.915 114.942 181.745 114.778C180.652 114.606 179.81 113.6 179.973 112.421C180.137 111.415 180.988 110.572 182.08 110.572V110.564ZM180.652 117.97H181.152C182.338 118.305 183.009 119.398 182.759 120.584C182.502 121.676 181.331 122.355 180.145 122.097C179.053 121.848 178.374 120.669 178.631 119.569C178.889 118.555 179.724 117.97 180.652 117.97ZM178.631 125.133C178.889 125.133 179.053 125.133 179.302 125.219C180.395 125.64 180.988 126.818 180.652 127.919C180.231 129.011 179.045 129.604 177.952 129.261C176.86 128.839 176.267 127.661 176.602 126.569C176.938 125.726 177.789 125.141 178.624 125.141L178.631 125.133ZM175.931 132.117C176.189 132.117 176.524 132.117 176.782 132.289C177.874 132.71 178.296 133.974 177.874 135.066C177.375 136.081 176.103 136.58 175.011 136.167C173.996 135.66 173.497 134.395 173.996 133.389V133.303C174.332 132.546 175.089 132.125 175.931 132.125V132.117ZM172.568 138.773C172.904 138.773 173.239 138.859 173.583 139.023C174.597 139.608 174.933 140.88 174.34 141.887C173.832 142.901 172.49 143.237 171.476 142.729C170.547 142.144 170.126 140.88 170.719 139.866C171.14 139.109 171.811 138.773 172.568 138.773ZM168.612 145.086C169.033 145.086 169.447 145.25 169.79 145.507C170.719 146.178 170.968 147.443 170.29 148.371C169.619 149.386 168.354 149.549 167.348 148.964C166.419 148.293 166.169 146.943 166.848 146.015C167.27 145.421 167.941 145.086 168.62 145.086H168.612ZM164.063 151.071C164.484 151.071 164.983 151.243 165.405 151.57C166.255 152.242 166.419 153.591 165.662 154.52C164.905 155.363 163.555 155.535 162.72 154.778C161.792 154.021 161.706 152.671 162.385 151.828C162.884 151.321 163.477 151.071 164.07 151.071H164.063ZM159.006 156.541C159.513 156.541 160.02 156.713 160.434 157.126C161.285 157.969 161.285 159.319 160.434 160.154C159.599 160.997 158.249 160.911 157.492 160.154C156.657 159.319 156.657 157.969 157.492 157.126C157.914 156.705 158.421 156.541 159.006 156.541ZM153.45 161.504C154.043 161.504 154.636 161.762 155.058 162.347C155.815 163.19 155.651 164.532 154.722 165.296C153.887 166.053 152.537 165.882 151.78 164.961C151.015 164.118 151.187 162.768 152.116 162.011C152.451 161.676 152.951 161.504 153.458 161.504H153.45Z" fill="#EC5E25"/>
<path d="M163.978 47.6543C163.393 47.6543 162.886 47.9118 162.464 48.2473C162.3 48.4971 162.129 48.7468 162.043 48.9184C161.957 49.254 161.871 49.5115 161.871 49.7612C161.871 50.3542 162.129 50.8536 162.464 51.275C163.221 52.0319 164.649 52.0319 165.5 51.275C165.835 50.8536 166.085 50.3464 166.085 49.7612C166.085 49.254 165.835 48.6687 165.5 48.2473C165.078 47.9118 164.485 47.6543 163.978 47.6543Z" fill="#EC5E25"/>
<path d="M41.6987 46.897C41.1915 46.897 40.6062 47.0686 40.1848 47.4822C39.8493 47.9036 39.5918 48.4108 39.5918 48.996C39.5918 49.5033 39.8493 50.0885 40.1848 50.424C41.0198 51.181 42.4556 51.181 43.2125 50.424C43.6339 50.0885 43.8056 49.4955 43.8056 48.996C43.8056 48.403 43.6339 47.8177 43.2125 47.4822C43.0487 47.3105 42.7911 47.1467 42.5414 46.975C42.2917 46.8892 41.9562 46.8892 41.7065 46.8892L41.6987 46.897Z" fill="#EC5E25"/>
<path d="M37.0734 52.7886C37.4947 52.7886 37.9083 52.9602 38.3297 53.21C39.2583 53.881 39.4221 55.1452 38.7589 56.0738C38.0878 57.0882 36.8159 57.2521 35.8092 56.581C34.8806 55.9099 34.7168 54.6458 35.3879 53.7172C35.8092 53.1241 36.4023 52.7886 37.0734 52.7886ZM33.0235 59.1014C33.359 59.1014 33.6945 59.1873 34.0379 59.437C35.0523 59.9442 35.3879 61.2941 34.7948 62.3008C34.2096 63.3074 32.9454 63.6429 31.931 63.0577C30.9166 62.4724 30.581 61.2005 31.1741 60.1939C31.5096 59.5228 32.2665 59.0936 33.0235 59.0936V59.1014ZM29.4886 65.8435C29.8241 65.8435 30.0816 65.8435 30.4172 66.0151C31.4316 66.5223 31.931 67.7865 31.4316 68.7931C30.9244 69.7997 29.6602 70.3069 28.6536 69.7997C27.5612 69.3003 27.132 68.1142 27.5612 67.0218C27.9825 66.2648 28.7395 65.8435 29.4964 65.8435H29.4886ZM26.7106 72.7494C26.8823 72.7494 27.132 72.8352 27.3817 72.921C28.4741 73.2566 29.0672 74.5207 28.6458 75.621C28.3103 76.7134 27.1242 77.2206 25.9459 76.8851C24.9315 76.4637 24.3384 75.2854 24.6818 74.1852C25.0173 73.3502 25.782 72.7572 26.7028 72.7572L26.7106 72.7494ZM24.5257 79.9908C24.6896 79.9908 24.8612 79.9908 25.0251 80.0767C26.2112 80.3264 26.8823 81.5047 26.5467 82.6049C26.2892 83.7832 25.1187 84.4621 24.0185 84.1188C22.9182 83.869 22.2393 82.7688 22.4968 81.5905C22.7543 80.6619 23.5893 79.983 24.5179 79.983L24.5257 79.9908ZM23.0899 87.4039H23.3474C24.5257 87.5756 25.2826 88.6681 25.1187 89.8464C25.0251 90.9388 23.9326 91.7816 22.7621 91.6177C21.5838 91.446 20.8191 90.3536 20.9908 89.1753C21.1547 88.1608 22.0052 87.4039 23.0977 87.4039H23.0899ZM22.2471 94.8951H22.4188C23.5971 94.9809 24.4398 95.9095 24.4398 97.0878C24.3462 98.2661 23.3474 99.1947 22.1613 99.1089C20.983 99.023 20.1402 98.0164 20.2261 96.8381C20.2261 95.7456 21.1469 94.9029 22.2393 94.9029L22.2471 94.8951ZM22.2471 102.394C23.3474 102.394 24.2682 103.323 24.354 104.415C24.354 105.593 23.5191 106.6 22.3408 106.6C21.1547 106.686 20.148 105.757 20.148 104.579C20.0622 103.401 20.9986 102.472 22.1691 102.386H22.2549L22.2471 102.394ZM22.9182 109.971C23.9326 109.971 24.7754 110.728 24.9393 111.742C25.1109 112.921 24.2682 113.935 23.1679 114.099C21.9896 114.271 20.8972 113.514 20.7255 112.328C20.6397 111.149 21.3966 110.057 22.5749 109.971H22.9104H22.9182ZM24.1901 117.298C25.2046 117.298 26.0395 117.969 26.297 118.984H26.2112C26.4609 120.162 25.7898 121.255 24.6896 121.512C23.5113 121.77 22.4188 121.005 22.1613 119.912C21.8257 118.82 22.5827 117.642 23.6829 117.384C23.8468 117.384 24.0185 117.298 24.1823 117.298H24.1901ZM26.2112 124.626C27.132 124.626 27.8967 125.133 28.2322 126.054C28.56 127.146 27.9747 128.324 26.8823 128.668C25.7898 129.089 24.6037 128.496 24.1823 127.404C23.8468 126.303 24.4399 125.047 25.5323 124.704C25.7898 124.618 26.0317 124.618 26.2034 124.618L26.2112 124.626ZM28.8955 131.617C29.7461 131.617 30.503 132.125 30.8385 132.881C31.2599 133.974 30.8385 135.238 29.7461 135.659C28.6536 136.167 27.4675 135.659 26.9681 134.567C26.5467 133.553 26.9681 132.296 28.0606 131.789C28.3181 131.703 28.6536 131.617 28.8955 131.617ZM32.2665 138.437C33.0235 138.437 33.6945 138.773 34.1159 139.444C34.709 140.458 34.2876 141.801 33.281 142.308C32.2665 142.893 31.0024 142.558 30.4172 141.551C29.8241 140.544 30.2455 139.194 31.2521 138.687C31.5877 138.515 31.9232 138.437 32.2665 138.437ZM36.2228 144.836C36.8939 144.836 37.5728 145.094 37.9941 145.765C38.6652 146.693 38.4233 147.957 37.4089 148.628C36.4803 149.3 35.1303 149.05 34.4593 148.121C33.7882 147.107 34.0379 145.851 35.0523 145.172C35.3879 144.922 35.8092 144.836 36.2306 144.836H36.2228ZM40.7721 150.813C41.3652 150.813 41.9582 151.071 42.3796 151.57C43.1365 152.413 43.0507 153.763 42.1221 154.52C41.1935 155.277 39.9372 155.191 39.1802 154.27C38.4233 153.342 38.5092 151.999 39.43 151.321C39.8591 150.985 40.2805 150.813 40.7799 150.813H40.7721ZM45.8286 156.369C46.4139 156.369 46.9211 156.541 47.3425 156.955C48.1774 157.797 48.1774 159.147 47.3425 159.982C46.5856 160.739 45.2356 160.739 44.4006 159.982C43.5501 159.147 43.5501 157.797 44.4006 156.955C44.822 156.533 45.3214 156.369 45.8286 156.369ZM51.4704 161.426C51.8918 161.426 52.3912 161.598 52.8204 161.933C53.6553 162.604 53.827 163.954 53.0701 164.875C52.3132 165.718 50.9632 165.889 50.1283 165.132C49.1997 164.376 49.1138 163.111 49.7927 162.183C50.2141 161.676 50.8852 161.426 51.4782 161.426H51.4704Z" fill="#EC5E25"/>
</svg>
