<svg width="59" height="67" viewBox="0 0 59 67" fill="none" xmlns="http://www.w3.org/2000/svg">
<g clip-path="url(#clip0_3839_19661)">
<path d="M47.535 16.1464C47.6056 18.825 49.7151 21.0571 52.452 21.0571C55.1889 21.0571 57.3611 18.825 57.369 16.1464C57.3768 13.4678 55.1261 11.2356 52.452 11.2356C49.7151 11.2356 47.6095 13.4678 47.535 16.1464C47.5075 17.2194 45.8333 17.2233 45.8607 16.1464C45.9352 13.4208 47.5428 10.9693 50.1268 9.99032C52.7108 9.01131 55.7378 9.80627 57.5023 11.9288C61.3567 16.5576 57.2161 23.6535 51.2914 22.6236C48.1271 22.0753 45.943 19.2949 45.8568 16.1464C45.8293 15.0695 47.4997 15.0734 47.5311 16.1464H47.535Z" fill="#EC5E25"/>
<path d="M47.535 35.6835C47.6056 38.3621 49.7151 40.5942 52.452 40.5942C55.1889 40.5942 57.3611 38.3621 57.369 35.6835C57.3768 33.0049 55.1261 30.7727 52.452 30.7727C49.7151 30.7727 47.6095 33.0049 47.535 35.6835C47.5075 36.7565 45.8333 36.7604 45.8607 35.6835C45.9352 32.9579 47.5428 30.5064 50.1268 29.5274C52.7108 28.5484 55.7378 29.3434 57.5023 31.4659C61.3567 36.0947 57.2161 43.1906 51.2914 42.1607C48.1271 41.6124 45.943 38.832 45.8568 35.6835C45.8293 34.6066 47.4997 34.6105 47.5311 35.6835H47.535Z" fill="#EC5E25"/>
<path d="M47.535 55.2206C47.6056 57.8992 49.7151 60.1313 52.452 60.1313C55.1889 60.1313 57.3611 57.8992 57.369 55.2206C57.3768 52.542 55.1261 50.3099 52.452 50.3099C49.7151 50.3099 47.6095 52.542 47.535 55.2206C47.5075 56.2936 45.8333 56.2975 45.8607 55.2206C45.9352 52.495 47.5428 50.0436 50.1268 49.0645C52.7108 48.0855 55.7378 48.8805 57.5023 51.003C61.3567 55.6318 57.2161 62.7277 51.2914 61.6978C48.1271 61.1495 45.943 58.3691 45.8568 55.2206C45.8293 54.1437 47.4997 54.1476 47.5311 55.2206H47.535Z" fill="#EC5E25"/>
<path d="M51.6162 29.9348V21.8912C51.6162 20.8182 53.2905 20.8143 53.2905 21.8912V29.9348C53.2905 31.0117 51.6162 31.0117 51.6162 29.9348Z" fill="#EC5E25"/>
<path d="M51.6162 66.1933V60.9693C51.6162 59.8963 53.2905 59.8924 53.2905 60.9693V66.1933C53.2905 67.2703 51.6162 67.2703 51.6162 66.1933Z" fill="#EC5E25"/>
<path d="M51.6162 49.4753C51.6162 46.7928 51.6162 44.1103 51.6162 41.4278C51.6162 40.3509 53.2905 40.3509 53.2905 41.4278C53.2905 44.1103 53.2905 46.7928 53.2905 49.4753C53.2905 50.5483 51.6162 50.5522 51.6162 49.4753Z" fill="#EC5E25"/>
<path d="M51.6162 10.4015C51.6162 7.21381 51.6162 4.02613 51.6162 0.838448C51.6162 -0.234555 53.2905 -0.238471 53.2905 0.838448C53.2905 4.02613 53.2905 7.21381 53.2905 10.4015C53.2905 11.4745 51.6162 11.4784 51.6162 10.4015Z" fill="#EC5E25"/>
<path d="M46.7902 3.7281C48.5351 2.52586 50.2839 1.32363 52.0288 0.117482C52.2562 -0.0391607 52.6444 -0.0391607 52.8718 0.117482C54.6166 1.31971 56.3654 2.52195 58.1103 3.7281C58.9925 4.33509 58.1534 5.78403 57.2673 5.16921C55.5224 3.96698 53.7736 2.76474 52.0288 1.55859H52.8718C51.1269 2.76083 49.3781 3.96306 47.6333 5.16921C46.7432 5.78012 45.908 4.33509 46.7902 3.7281Z" fill="#EC5E25"/>
<path d="M40.8304 13.3851C36.3251 13.3851 31.8237 13.3851 27.3184 13.3851H5.77227C4.11759 13.3851 2.4629 13.3851 0.808223 13.3851C-0.266144 13.3851 -0.270065 11.7129 0.808223 11.7129C5.31351 11.7129 9.81487 11.7129 14.3202 11.7129H35.8702C37.5249 11.7129 39.1796 11.7129 40.8343 11.7129C41.9086 11.7129 41.9126 13.3851 40.8343 13.3851H40.8304Z" fill="#EC5E25"/>
<path d="M40.8295 20.5755H18.4756C17.409 20.5755 16.3425 20.5755 15.276 20.5755C14.2095 20.5755 14.1977 18.9033 15.276 18.9033H37.6299C38.6964 18.9033 39.7629 18.9033 40.8295 18.9033C41.896 18.9033 41.9077 20.5755 40.8295 20.5755Z" fill="#EC5E25"/>
<path d="M40.8304 32.9222C36.3251 32.9222 31.8237 32.9222 27.3184 32.9222H5.77227C4.11759 32.9222 2.4629 32.9222 0.808223 32.9222C-0.266144 32.9222 -0.270065 31.25 0.808223 31.25C5.31351 31.25 9.81487 31.25 14.3202 31.25H35.8702C37.5249 31.25 39.1796 31.25 40.8343 31.25C41.9086 31.25 41.9126 32.9222 40.8343 32.9222H40.8304Z" fill="#EC5E25"/>
<path d="M40.8295 40.1126H18.4756C17.409 40.1126 16.3425 40.1126 15.276 40.1126C14.2095 40.1126 14.1977 38.4404 15.276 38.4404H37.6299C38.6964 38.4404 39.7629 38.4404 40.8295 38.4404C41.896 38.4404 41.9077 40.1126 40.8295 40.1126Z" fill="#EC5E25"/>
<path d="M40.8304 52.4593C36.3251 52.4593 31.8237 52.4593 27.3184 52.4593H5.77227C4.11759 52.4593 2.4629 52.4593 0.808223 52.4593C-0.266144 52.4593 -0.270065 50.7871 0.808223 50.7871C5.31351 50.7871 9.81487 50.7871 14.3202 50.7871H35.8702C37.5249 50.7871 39.1796 50.7871 40.8343 50.7871C41.9086 50.7871 41.9126 52.4593 40.8343 52.4593H40.8304Z" fill="#EC5E25"/>
<path d="M40.8295 59.6497H18.4756C17.409 59.6497 16.3425 59.6497 15.276 59.6497C14.2095 59.6497 14.1977 57.9775 15.276 57.9775H37.6299C38.6964 57.9775 39.7629 57.9775 40.8295 57.9775C41.896 57.9775 41.9077 59.6497 40.8295 59.6497Z" fill="#EC5E25"/>
</g>
<defs>
<clipPath id="clip0_3839_19661">
<rect width="59" height="67" fill="white"/>
</clipPath>
</defs>
</svg>
