<svg width="75" height="49" viewBox="0 0 75 49" fill="none" xmlns="http://www.w3.org/2000/svg">
<mask id="path-1-outside-1_1417_701" maskUnits="userSpaceOnUse" x="0" y="0" width="75" height="49" fill="black">
<rect fill="white" width="75" height="49"/>
<path d="M23.8 47.7C15.7267 47.7 9.91667 45.6933 6.37 41.68C2.82333 37.6667 1.05 31.9267 1.05 24.46C1.05 16.9467 2.82333 11.2067 6.37 7.24C9.91667 3.22666 15.7267 1.22 23.8 1.22C31.8733 1.22 37.6833 3.22666 41.23 7.24C44.7767 11.2067 46.55 16.9467 46.55 24.46C46.55 31.9267 44.7767 37.6667 41.23 41.68C37.6833 45.6933 31.8733 47.7 23.8 47.7ZM23.8 33.28C25.8067 33.28 27.2067 32.5567 28 31.11C28.84 29.6633 29.26 27.4467 29.26 24.46C29.26 21.4733 28.84 19.2567 28 17.81C27.2067 16.3633 25.8067 15.64 23.8 15.64C21.7933 15.64 20.37 16.3633 19.53 17.81C18.7367 19.2567 18.34 21.4733 18.34 24.46C18.34 27.4467 18.7367 29.6633 19.53 31.11C20.37 32.5567 21.7933 33.28 23.8 33.28ZM56.2581 47V17.67L48.6281 18.79V4.72L73.1981 1.22V47H56.2581Z"/>
</mask>
<path d="M6.37 41.68L7.11933 41.0178L7.11933 41.0178L6.37 41.68ZM6.37 7.24L7.11548 7.90655L7.11933 7.9022L6.37 7.24ZM41.23 7.24L40.4807 7.90221L40.4845 7.90654L41.23 7.24ZM41.23 41.68L41.9793 42.3422L41.9793 42.3422L41.23 41.68ZM28 31.11L27.1352 30.6079L27.1291 30.6184L27.1232 30.6292L28 31.11ZM28 17.81L27.1232 18.2908L27.1291 18.3016L27.1352 18.3121L28 17.81ZM19.53 17.81L18.6652 17.3079L18.6591 17.3184L18.6532 17.3292L19.53 17.81ZM19.53 31.11L18.6532 31.5908L18.6591 31.6016L18.6652 31.6121L19.53 31.11ZM23.8 46.7C15.867 46.7 10.3971 44.7268 7.11933 41.0178L5.62067 42.3422C9.43625 46.6598 15.5863 48.7 23.8 48.7V46.7ZM7.11933 41.0178C3.78807 37.2482 2.05 31.7787 2.05 24.46H0.05C0.05 32.0746 1.8586 38.0851 5.62067 42.3422L7.11933 41.0178ZM2.05 24.46C2.05 17.0918 3.78936 11.6265 7.11547 7.90654L5.62453 6.57346C1.85731 10.7868 0.05 16.8016 0.05 24.46H2.05ZM7.11933 7.9022C10.3971 4.19316 15.867 2.22 23.8 2.22V0.219997C15.5863 0.219997 9.43625 2.26017 5.62067 6.5778L7.11933 7.9022ZM23.8 2.22C31.733 2.22 37.2029 4.19316 40.4807 7.9022L41.9793 6.5778C38.1637 2.26017 32.0137 0.219997 23.8 0.219997V2.22ZM40.4845 7.90654C43.8106 11.6265 45.55 17.0918 45.55 24.46H47.55C47.55 16.8016 45.7427 10.7868 41.9755 6.57346L40.4845 7.90654ZM45.55 24.46C45.55 31.7787 43.8119 37.2482 40.4807 41.0178L41.9793 42.3422C45.7414 38.0851 47.55 32.0746 47.55 24.46H45.55ZM40.4807 41.0178C37.2029 44.7268 31.733 46.7 23.8 46.7V48.7C32.0137 48.7 38.1637 46.6598 41.9793 42.3422L40.4807 41.0178ZM23.8 34.28C26.0781 34.28 27.867 33.4322 28.8768 31.5908L27.1232 30.6292C26.5463 31.6811 25.5353 32.28 23.8 32.28V34.28ZM28.8648 31.6121C29.8385 29.9353 30.26 27.5038 30.26 24.46H28.26C28.26 27.3895 27.8415 29.3914 27.1352 30.6079L28.8648 31.6121ZM30.26 24.46C30.26 21.4162 29.8385 18.9847 28.8648 17.3079L27.1352 18.3121C27.8415 19.5286 28.26 21.5305 28.26 24.46H30.26ZM28.8768 17.3292C27.867 15.4878 26.0781 14.64 23.8 14.64V16.64C25.5353 16.64 26.5463 17.2389 27.1232 18.2908L28.8768 17.3292ZM23.8 14.64C21.5208 14.64 19.7226 15.4868 18.6652 17.3079L20.3948 18.3121C21.0174 17.2399 22.0658 16.64 23.8 16.64V14.64ZM18.6532 17.3292C17.7373 18.9993 17.34 21.4212 17.34 24.46H19.34C19.34 21.5254 19.736 19.514 20.4068 18.2908L18.6532 17.3292ZM17.34 24.46C17.34 27.4988 17.7373 29.9207 18.6532 31.5908L20.4068 30.6292C19.736 29.406 19.34 27.3946 19.34 24.46H17.34ZM18.6652 31.6121C19.7226 33.4332 21.5208 34.28 23.8 34.28V32.28C22.0658 32.28 21.0174 31.6801 20.3948 30.6079L18.6652 31.6121ZM56.2581 47H55.2581V48H56.2581V47ZM56.2581 17.67H57.2581V16.5125L56.1129 16.6806L56.2581 17.67ZM48.6281 18.79H47.6281V19.9475L48.7734 19.7794L48.6281 18.79ZM48.6281 4.72L48.4871 3.72999L47.6281 3.85235V4.72H48.6281ZM73.1981 1.22H74.1981V0.0674517L73.0571 0.229991L73.1981 1.22ZM73.1981 47V48H74.1981V47H73.1981ZM57.2581 47V17.67H55.2581V47H57.2581ZM56.1129 16.6806L48.4829 17.8006L48.7734 19.7794L56.4034 18.6594L56.1129 16.6806ZM49.6281 18.79V4.72H47.6281V18.79H49.6281ZM48.7692 5.71L73.3392 2.21L73.0571 0.229991L48.4871 3.72999L48.7692 5.71ZM72.1981 1.22V47H74.1981V1.22H72.1981ZM73.1981 46H56.2581V48H73.1981V46Z" fill="black" mask="url(#path-1-outside-1_1417_701)"/>
</svg>
