<svg width="77" height="52" viewBox="0 0 77 52" fill="none" xmlns="http://www.w3.org/2000/svg">
<mask id="path-1-outside-1_1010_218" maskUnits="userSpaceOnUse" x="0" y="0" width="77" height="52" fill="black">
<rect fill="white" width="77" height="52"/>
<path d="M24.8 49.7C16.7267 49.7 10.9167 47.6933 7.37 43.68C3.82333 39.6667 2.05 33.9267 2.05 26.46C2.05 18.9467 3.82333 13.2067 7.37 9.24C10.9167 5.22666 16.7267 3.22 24.8 3.22C32.8733 3.22 38.6833 5.22666 42.23 9.24C45.7767 13.2067 47.55 18.9467 47.55 26.46C47.55 33.9267 45.7767 39.6667 42.23 43.68C38.6833 47.6933 32.8733 49.7 24.8 49.7ZM24.8 35.28C26.8067 35.28 28.2067 34.5567 29 33.11C29.84 31.6633 30.26 29.4467 30.26 26.46C30.26 23.4733 29.84 21.2567 29 19.81C28.2067 18.3633 26.8067 17.64 24.8 17.64C22.7933 17.64 21.37 18.3633 20.53 19.81C19.7367 21.2567 19.34 23.4733 19.34 26.46C19.34 29.4467 19.7367 31.6633 20.53 33.11C21.37 34.5567 22.7933 35.28 24.8 35.28ZM57.2581 49V19.67L49.6281 20.79V6.72L74.1981 3.22V49H57.2581Z"/>
</mask>
<path d="M7.37 43.68L8.86866 42.3556L8.86866 42.3556L7.37 43.68ZM7.37 9.24L8.86097 10.5731L8.86866 10.5644L7.37 9.24ZM42.23 9.24L40.7313 10.5644L40.7391 10.5731L42.23 9.24ZM42.23 43.68L43.7287 45.0044L43.7287 45.0044L42.23 43.68ZM29 33.11L27.2704 32.1057L27.2581 32.1269L27.2464 32.1483L29 33.11ZM29 19.81L27.2464 20.7717L27.2581 20.7931L27.2704 20.8143L29 19.81ZM20.53 19.81L18.8004 18.8057L18.7881 18.8269L18.7764 18.8483L20.53 19.81ZM20.53 33.11L18.7764 34.0717L18.7881 34.0931L18.8004 34.1143L20.53 33.11ZM24.8 47.7C17.0074 47.7 11.8775 45.7603 8.86866 42.3556L5.87134 45.0044C9.95584 49.6263 16.4459 51.7 24.8 51.7V47.7ZM8.86866 42.3556C5.75281 38.8298 4.05 33.6307 4.05 26.46H0.05C0.05 34.2226 1.89386 40.5036 5.87134 45.0044L8.86866 42.3556ZM4.05 26.46C4.05 19.2368 5.75538 14.0464 8.86094 10.5731L5.87906 7.90692C1.89129 12.3669 0.05 18.6565 0.05 26.46H4.05ZM8.86866 10.5644C11.8775 7.15966 17.0074 5.22 24.8 5.22V1.22C16.4459 1.22 9.95584 3.29367 5.87134 7.9156L8.86866 10.5644ZM24.8 5.22C32.5926 5.22 37.7225 7.15966 40.7313 10.5644L43.7287 7.9156C39.6442 3.29367 33.1541 1.22 24.8 1.22V5.22ZM40.7391 10.5731C43.8446 14.0464 45.55 19.2368 45.55 26.46H49.55C49.55 18.6565 47.7087 12.3669 43.7209 7.90692L40.7391 10.5731ZM45.55 26.46C45.55 33.6307 43.8472 38.8298 40.7313 42.3556L43.7287 45.0044C47.7061 40.5036 49.55 34.2226 49.55 26.46H45.55ZM40.7313 42.3556C37.7225 45.7603 32.5926 47.7 24.8 47.7V51.7C33.1541 51.7 39.6442 49.6263 43.7287 45.0044L40.7313 42.3556ZM24.8 37.28C27.3495 37.28 29.5274 36.3077 30.7536 34.0717L27.2464 32.1483C26.8859 32.8056 26.2638 33.28 24.8 33.28V37.28ZM30.7296 34.1143C31.8369 32.2072 32.26 29.5609 32.26 26.46H28.26C28.26 29.3324 27.8431 31.1195 27.2704 32.1057L30.7296 34.1143ZM32.26 26.46C32.26 23.3591 31.8369 20.7128 30.7296 18.8057L27.2704 20.8143C27.8431 21.8005 28.26 23.5876 28.26 26.46H32.26ZM30.7536 18.8483C29.5274 16.6123 27.3495 15.64 24.8 15.64V19.64C26.2638 19.64 26.8859 20.1144 27.2464 20.7717L30.7536 18.8483ZM24.8 15.64C22.2483 15.64 20.0753 16.6102 18.8004 18.8057L22.2596 20.8143C22.6647 20.1165 23.3383 19.64 24.8 19.64V15.64ZM18.7764 18.8483C17.7379 20.742 17.34 23.3691 17.34 26.46H21.34C21.34 23.5775 21.7354 21.7714 22.2836 20.7717L18.7764 18.8483ZM17.34 26.46C17.34 29.5509 17.7379 32.178 18.7764 34.0717L22.2836 32.1483C21.7354 31.1486 21.34 29.3425 21.34 26.46H17.34ZM18.8004 34.1143C20.0753 36.3098 22.2483 37.28 24.8 37.28V33.28C23.3383 33.28 22.6647 32.8035 22.2596 32.1057L18.8004 34.1143ZM57.2581 49H55.2581V51H57.2581V49ZM57.2581 19.67H59.2581V17.355L56.9677 17.6912L57.2581 19.67ZM49.6281 20.79H47.6281V23.105L49.9186 22.7688L49.6281 20.79ZM49.6281 6.72L49.3461 4.73999L47.6281 4.98471V6.72H49.6281ZM74.1981 3.22H76.1981V0.914906L73.9161 1.23999L74.1981 3.22ZM74.1981 49V51H76.1981V49H74.1981ZM59.2581 49V19.67H55.2581V49H59.2581ZM56.9677 17.6912L49.3377 18.8112L49.9186 22.7688L57.5486 21.6488L56.9677 17.6912ZM51.6281 20.79V6.72H47.6281V20.79H51.6281ZM49.9102 8.70001L74.4802 5.20001L73.9161 1.23999L49.3461 4.73999L49.9102 8.70001ZM72.1981 3.22V49H76.1981V3.22H72.1981ZM74.1981 47H57.2581V51H74.1981V47Z" fill="#F29DAA" mask="url(#path-1-outside-1_1010_218)"/>
</svg>
