<svg width="87" height="51" viewBox="0 0 87 51" fill="none" xmlns="http://www.w3.org/2000/svg">
<mask id="path-1-outside-1_1010_219" maskUnits="userSpaceOnUse" x="0" y="0" width="87" height="51" fill="black">
<rect fill="white" width="87" height="51"/>
<path d="M24.8 48.7C16.7267 48.7 10.9167 46.6933 7.37 42.68C3.82333 38.6667 2.05 32.9267 2.05 25.46C2.05 17.9467 3.82333 12.2067 7.37 8.24C10.9167 4.22666 16.7267 2.22 24.8 2.22C32.8733 2.22 38.6833 4.22666 42.23 8.24C45.7767 12.2067 47.55 17.9467 47.55 25.46C47.55 32.9267 45.7767 38.6667 42.23 42.68C38.6833 46.6933 32.8733 48.7 24.8 48.7ZM24.8 34.28C26.8067 34.28 28.2067 33.5567 29 32.11C29.84 30.6633 30.26 28.4467 30.26 25.46C30.26 22.4733 29.84 20.2567 29 18.81C28.2067 17.3633 26.8067 16.64 24.8 16.64C22.7933 16.64 21.37 17.3633 20.53 18.81C19.7367 20.2567 19.34 22.4733 19.34 25.46C19.34 28.4467 19.7367 30.6633 20.53 32.11C21.37 33.5567 22.7933 34.28 24.8 34.28ZM49.6281 48V40.51C50.9815 38.3167 52.4981 36.31 54.1781 34.49C55.8581 32.6233 57.7715 30.7567 59.9181 28.89C62.5315 26.65 64.4215 24.9233 65.5881 23.71C66.7548 22.4967 67.3381 21.2367 67.3381 19.93C67.3381 17.7367 65.7281 16.64 62.5081 16.64C60.4081 16.64 58.3781 16.8733 56.4181 17.34C54.5048 17.8067 52.6848 18.4133 50.9581 19.16V5.09C53.0115 4.20333 55.4381 3.50333 58.2381 2.99C61.0381 2.47666 63.9548 2.22 66.9881 2.22C72.9615 2.22 77.3948 3.57333 80.2881 6.28C83.1815 8.98666 84.6281 12.5333 84.6281 16.92C84.6281 18.8333 84.4181 20.49 83.9981 21.89C83.5781 23.29 82.8781 24.62 81.8981 25.88C80.9648 27.0933 79.6815 28.4233 78.0481 29.87C77.1148 30.71 76.0881 31.62 74.9681 32.6C73.8481 33.5333 73.0315 34.3733 72.5181 35.12H84.9781V48H49.6281Z"/>
</mask>
<path d="M7.37 42.68L8.86866 41.3556L8.86866 41.3556L7.37 42.68ZM7.37 8.24L8.86097 9.5731L8.86866 9.56439L7.37 8.24ZM42.23 8.24L40.7313 9.56442L40.7391 9.57308L42.23 8.24ZM42.23 42.68L43.7287 44.0044L43.7287 44.0044L42.23 42.68ZM29 32.11L27.2704 31.1057L27.2581 31.1269L27.2464 31.1483L29 32.11ZM29 18.81L27.2464 19.7717L27.2581 19.7931L27.2704 19.8143L29 18.81ZM20.53 18.81L18.8004 17.8057L18.7881 17.8269L18.7764 17.8483L20.53 18.81ZM20.53 32.11L18.7764 33.0717L18.7881 33.0931L18.8004 33.1143L20.53 32.11ZM24.8 46.7C17.0074 46.7 11.8775 44.7603 8.86866 41.3556L5.87134 44.0044C9.95584 48.6263 16.4459 50.7 24.8 50.7V46.7ZM8.86866 41.3556C5.75281 37.8298 4.05 32.6307 4.05 25.46H0.05C0.05 33.2226 1.89386 39.5036 5.87134 44.0044L8.86866 41.3556ZM4.05 25.46C4.05 18.2368 5.75538 13.0464 8.86094 9.57308L5.87906 6.90692C1.89129 11.3669 0.05 17.6565 0.05 25.46H4.05ZM8.86866 9.56439C11.8775 6.15966 17.0074 4.22 24.8 4.22V0.219997C16.4459 0.219997 9.95584 2.29367 5.87134 6.9156L8.86866 9.56439ZM24.8 4.22C32.5926 4.22 37.7225 6.15966 40.7313 9.56439L43.7287 6.9156C39.6442 2.29367 33.1541 0.219997 24.8 0.219997V4.22ZM40.7391 9.57308C43.8446 13.0464 45.55 18.2368 45.55 25.46H49.55C49.55 17.6565 47.7087 11.3669 43.7209 6.90692L40.7391 9.57308ZM45.55 25.46C45.55 32.6307 43.8472 37.8298 40.7313 41.3556L43.7287 44.0044C47.7061 39.5036 49.55 33.2226 49.55 25.46H45.55ZM40.7313 41.3556C37.7225 44.7603 32.5926 46.7 24.8 46.7V50.7C33.1541 50.7 39.6442 48.6263 43.7287 44.0044L40.7313 41.3556ZM24.8 36.28C27.3495 36.28 29.5274 35.3077 30.7536 33.0717L27.2464 31.1483C26.8859 31.8056 26.2638 32.28 24.8 32.28V36.28ZM30.7296 33.1143C31.8369 31.2072 32.26 28.5609 32.26 25.46H28.26C28.26 28.3324 27.8431 30.1195 27.2704 31.1057L30.7296 33.1143ZM32.26 25.46C32.26 22.3591 31.8369 19.7128 30.7296 17.8057L27.2704 19.8143C27.8431 20.8005 28.26 22.5876 28.26 25.46H32.26ZM30.7536 17.8483C29.5274 15.6123 27.3495 14.64 24.8 14.64V18.64C26.2638 18.64 26.8859 19.1144 27.2464 19.7717L30.7536 17.8483ZM24.8 14.64C22.2483 14.64 20.0753 15.6102 18.8004 17.8057L22.2596 19.8143C22.6647 19.1165 23.3383 18.64 24.8 18.64V14.64ZM18.7764 17.8483C17.7379 19.742 17.34 22.3691 17.34 25.46H21.34C21.34 22.5775 21.7354 20.7714 22.2836 19.7717L18.7764 17.8483ZM17.34 25.46C17.34 28.5509 17.7379 31.178 18.7764 33.0717L22.2836 31.1483C21.7354 30.1486 21.34 28.3425 21.34 25.46H17.34ZM18.8004 33.1143C20.0753 35.3098 22.2483 36.28 24.8 36.28V32.28C23.3383 32.28 22.6647 31.8035 22.2596 31.1057L18.8004 33.1143ZM49.6281 48H47.6281V50H49.6281V48ZM49.6281 40.51L47.9261 39.4598L47.6281 39.9426V40.51H49.6281ZM54.1781 34.49L55.6477 35.8466L55.6563 35.8373L55.6647 35.8279L54.1781 34.49ZM59.9181 28.89L58.6165 27.3715L58.6111 27.3761L58.6058 27.3808L59.9181 28.89ZM65.5881 23.71L67.0298 25.0962L67.0298 25.0962L65.5881 23.71ZM56.4181 17.34L55.9549 15.3944L55.9442 15.397L56.4181 17.34ZM50.9581 19.16H48.9581V22.2039L51.7519 20.9957L50.9581 19.16ZM50.9581 5.09L50.1653 3.25387L48.9581 3.77513V5.09H50.9581ZM58.2381 2.99L58.5988 4.95721L58.5988 4.95721L58.2381 2.99ZM80.2881 6.28L78.9218 7.74054L78.9218 7.74054L80.2881 6.28ZM83.9981 21.89L85.9138 22.4647L85.9138 22.4647L83.9981 21.89ZM81.8981 25.88L80.3194 24.6521L80.3129 24.6606L81.8981 25.88ZM78.0481 29.87L76.7221 28.3728L76.7161 28.3781L76.7102 28.3834L78.0481 29.87ZM74.9681 32.6L76.2485 34.1364L76.267 34.121L76.2851 34.1052L74.9681 32.6ZM72.5181 35.12L70.87 33.9869L68.7161 37.12H72.5181V35.12ZM84.9781 35.12H86.9781V33.12H84.9781V35.12ZM84.9781 48V50H86.9781V48H84.9781ZM51.6281 48V40.51H47.6281V48H51.6281ZM51.3302 41.5602C52.6188 39.4718 54.0583 37.5684 55.6477 35.8466L52.7085 33.1334C50.9379 35.0516 49.3441 37.1615 47.9261 39.4598L51.3302 41.5602ZM55.6647 35.8279C57.2836 34.0292 59.1374 32.2193 61.2305 30.3992L58.6058 27.3808C56.4055 29.2941 54.4327 31.2175 52.6915 33.1521L55.6647 35.8279ZM61.2197 30.4085C63.8425 28.1604 65.7932 26.3823 67.0298 25.0962L64.1465 22.3238C63.0497 23.4644 61.2204 25.1396 58.6165 27.3715L61.2197 30.4085ZM67.0298 25.0962C68.4474 23.6219 69.3381 21.89 69.3381 19.93H65.3381C65.3381 20.5833 65.0622 21.3714 64.1465 22.3238L67.0298 25.0962ZM69.3381 19.93C69.3381 18.2689 68.6841 16.7819 67.2566 15.8095C65.9666 14.9309 64.2827 14.64 62.5081 14.64V18.64C63.9535 18.64 64.6847 18.8975 65.0047 19.1155C65.1871 19.2397 65.3381 19.3977 65.3381 19.93H69.3381ZM62.5081 14.64C60.2587 14.64 58.0729 14.8901 55.9549 15.3944L56.8814 19.2856C58.6833 18.8566 60.5575 18.64 62.5081 18.64V14.64ZM55.9442 15.397C53.9265 15.8891 51.9991 16.5309 50.1643 17.3243L51.7519 20.9957C53.3705 20.2958 55.0831 19.7242 56.892 19.283L55.9442 15.397ZM52.9581 19.16V5.09H48.9581V19.16H52.9581ZM51.751 6.92612C53.6341 6.11297 55.9092 5.45031 58.5988 4.95721L57.8775 1.02279C54.9671 1.55636 52.3888 2.29369 50.1653 3.25387L51.751 6.92612ZM58.5988 4.95721C61.2723 4.46706 64.0679 4.22 66.9881 4.22V0.219997C63.8417 0.219997 60.8039 0.486267 57.8775 1.02279L58.5988 4.95721ZM66.9881 4.22C72.7056 4.22 76.549 5.52077 78.9218 7.74054L81.6544 4.81946C78.2406 1.62589 73.2173 0.219997 66.9881 0.219997V4.22ZM78.9218 7.74054C81.3652 10.0263 82.6281 13.0211 82.6281 16.92H86.6281C86.6281 12.0455 84.9977 7.94699 81.6544 4.81946L78.9218 7.74054ZM82.6281 16.92C82.6281 18.6952 82.4324 20.149 82.0825 21.3153L85.9138 22.4647C86.4039 20.8309 86.6281 18.9715 86.6281 16.92H82.6281ZM82.0825 21.3153C81.7397 22.4577 81.1617 23.5692 80.3194 24.6521L83.4768 27.1079C84.5945 25.6708 85.4165 24.1223 85.9138 22.4647L82.0825 21.3153ZM80.3129 24.6606C79.4819 25.7409 78.2969 26.978 76.7221 28.3728L79.3742 31.3672C81.0661 29.8687 82.4477 28.4458 83.4834 27.0994L80.3129 24.6606ZM76.7102 28.3834C75.7849 29.2162 74.7653 30.1199 73.6511 31.0948L76.2851 34.1052C77.4109 33.1201 78.4447 32.2038 79.3861 31.3566L76.7102 28.3834ZM73.6878 31.0636C72.5015 32.0521 71.5302 33.0267 70.87 33.9869L74.1662 36.2531C74.5327 35.72 75.1947 35.0146 76.2485 34.1364L73.6878 31.0636ZM72.5181 37.12H84.9781V33.12H72.5181V37.12ZM82.9781 35.12V48H86.9781V35.12H82.9781ZM84.9781 46H49.6281V50H84.9781V46Z" fill="#F29DAA" mask="url(#path-1-outside-1_1010_219)"/>
</svg>
