<svg width="85" height="49" viewBox="0 0 85 49" fill="none" xmlns="http://www.w3.org/2000/svg">
<mask id="path-1-outside-1_1417_702" maskUnits="userSpaceOnUse" x="0" y="0" width="85" height="49" fill="black">
<rect fill="white" width="85" height="49"/>
<path d="M23.8 47.7C15.7267 47.7 9.91667 45.6933 6.37 41.68C2.82333 37.6667 1.05 31.9267 1.05 24.46C1.05 16.9467 2.82333 11.2067 6.37 7.24C9.91667 3.22666 15.7267 1.22 23.8 1.22C31.8733 1.22 37.6833 3.22666 41.23 7.24C44.7767 11.2067 46.55 16.9467 46.55 24.46C46.55 31.9267 44.7767 37.6667 41.23 41.68C37.6833 45.6933 31.8733 47.7 23.8 47.7ZM23.8 33.28C25.8067 33.28 27.2067 32.5567 28 31.11C28.84 29.6633 29.26 27.4467 29.26 24.46C29.26 21.4733 28.84 19.2567 28 17.81C27.2067 16.3633 25.8067 15.64 23.8 15.64C21.7933 15.64 20.37 16.3633 19.53 17.81C18.7367 19.2567 18.34 21.4733 18.34 24.46C18.34 27.4467 18.7367 29.6633 19.53 31.11C20.37 32.5567 21.7933 33.28 23.8 33.28ZM48.6281 47V39.51C49.9815 37.3167 51.4981 35.31 53.1781 33.49C54.8581 31.6233 56.7715 29.7567 58.9181 27.89C61.5315 25.65 63.4215 23.9233 64.5881 22.71C65.7548 21.4967 66.3381 20.2367 66.3381 18.93C66.3381 16.7367 64.7281 15.64 61.5081 15.64C59.4081 15.64 57.3781 15.8733 55.4181 16.34C53.5048 16.8067 51.6848 17.4133 49.9581 18.16V4.09C52.0115 3.20333 54.4381 2.50333 57.2381 1.99C60.0381 1.47666 62.9548 1.22 65.9881 1.22C71.9615 1.22 76.3948 2.57333 79.2881 5.28C82.1815 7.98666 83.6281 11.5333 83.6281 15.92C83.6281 17.8333 83.4181 19.49 82.9981 20.89C82.5781 22.29 81.8781 23.62 80.8981 24.88C79.9648 26.0933 78.6815 27.4233 77.0481 28.87C76.1148 29.71 75.0881 30.62 73.9681 31.6C72.8481 32.5333 72.0315 33.3733 71.5181 34.12H83.9781V47H48.6281Z"/>
</mask>
<path d="M6.37 41.68L7.11933 41.0178L7.11933 41.0178L6.37 41.68ZM6.37 7.24L7.11548 7.90655L7.11933 7.9022L6.37 7.24ZM41.23 7.24L40.4807 7.90221L40.4845 7.90654L41.23 7.24ZM41.23 41.68L41.9793 42.3422L41.9793 42.3422L41.23 41.68ZM28 31.11L27.1352 30.6079L27.1291 30.6184L27.1232 30.6292L28 31.11ZM28 17.81L27.1232 18.2908L27.1291 18.3016L27.1352 18.3121L28 17.81ZM19.53 17.81L18.6652 17.3079L18.6591 17.3184L18.6532 17.3292L19.53 17.81ZM19.53 31.11L18.6532 31.5908L18.6591 31.6016L18.6652 31.6121L19.53 31.11ZM23.8 46.7C15.867 46.7 10.3971 44.7268 7.11933 41.0178L5.62067 42.3422C9.43625 46.6598 15.5863 48.7 23.8 48.7V46.7ZM7.11933 41.0178C3.78807 37.2482 2.05 31.7787 2.05 24.46H0.05C0.05 32.0746 1.8586 38.0851 5.62067 42.3422L7.11933 41.0178ZM2.05 24.46C2.05 17.0918 3.78936 11.6265 7.11547 7.90654L5.62453 6.57346C1.85731 10.7868 0.05 16.8016 0.05 24.46H2.05ZM7.11933 7.9022C10.3971 4.19316 15.867 2.22 23.8 2.22V0.219997C15.5863 0.219997 9.43625 2.26017 5.62067 6.5778L7.11933 7.9022ZM23.8 2.22C31.733 2.22 37.2029 4.19316 40.4807 7.9022L41.9793 6.5778C38.1637 2.26017 32.0137 0.219997 23.8 0.219997V2.22ZM40.4845 7.90654C43.8106 11.6265 45.55 17.0918 45.55 24.46H47.55C47.55 16.8016 45.7427 10.7868 41.9755 6.57346L40.4845 7.90654ZM45.55 24.46C45.55 31.7787 43.8119 37.2482 40.4807 41.0178L41.9793 42.3422C45.7414 38.0851 47.55 32.0746 47.55 24.46H45.55ZM40.4807 41.0178C37.2029 44.7268 31.733 46.7 23.8 46.7V48.7C32.0137 48.7 38.1637 46.6598 41.9793 42.3422L40.4807 41.0178ZM23.8 34.28C26.0781 34.28 27.867 33.4322 28.8768 31.5908L27.1232 30.6292C26.5463 31.6811 25.5353 32.28 23.8 32.28V34.28ZM28.8648 31.6121C29.8385 29.9353 30.26 27.5038 30.26 24.46H28.26C28.26 27.3895 27.8415 29.3914 27.1352 30.6079L28.8648 31.6121ZM30.26 24.46C30.26 21.4162 29.8385 18.9847 28.8648 17.3079L27.1352 18.3121C27.8415 19.5286 28.26 21.5305 28.26 24.46H30.26ZM28.8768 17.3292C27.867 15.4878 26.0781 14.64 23.8 14.64V16.64C25.5353 16.64 26.5463 17.2389 27.1232 18.2908L28.8768 17.3292ZM23.8 14.64C21.5208 14.64 19.7226 15.4868 18.6652 17.3079L20.3948 18.3121C21.0174 17.2399 22.0658 16.64 23.8 16.64V14.64ZM18.6532 17.3292C17.7373 18.9993 17.34 21.4212 17.34 24.46H19.34C19.34 21.5254 19.736 19.514 20.4068 18.2908L18.6532 17.3292ZM17.34 24.46C17.34 27.4988 17.7373 29.9207 18.6532 31.5908L20.4068 30.6292C19.736 29.406 19.34 27.3946 19.34 24.46H17.34ZM18.6652 31.6121C19.7226 33.4332 21.5208 34.28 23.8 34.28V32.28C22.0658 32.28 21.0174 31.6801 20.3948 30.6079L18.6652 31.6121ZM48.6281 47H47.6281V48H48.6281V47ZM48.6281 39.51L47.7771 38.9849L47.6281 39.2263V39.51H48.6281ZM53.1781 33.49L53.913 34.1683L53.9214 34.159L53.1781 33.49ZM58.9181 27.89L58.2673 27.1307L58.2619 27.1354L58.9181 27.89ZM64.5881 22.71L65.309 23.4031L65.309 23.4031L64.5881 22.71ZM55.4181 16.34L55.1865 15.3672L55.1812 15.3685L55.4181 16.34ZM49.9581 18.16H48.9581V19.6819L50.355 19.0779L49.9581 18.16ZM49.9581 4.09L49.5617 3.17194L48.9581 3.43256V4.09H49.9581ZM57.2381 1.99L57.4185 2.97361L57.4185 2.97361L57.2381 1.99ZM79.2881 5.28L78.605 6.01027L78.605 6.01027L79.2881 5.28ZM82.9981 20.89L83.956 21.1773L83.956 21.1773L82.9981 20.89ZM80.8981 24.88L80.1088 24.266L80.1055 24.2703L80.8981 24.88ZM77.0481 28.87L76.3851 28.1214L76.3792 28.1267L77.0481 28.87ZM73.9681 31.6L74.6083 32.3682L74.6176 32.3605L74.6266 32.3526L73.9681 31.6ZM71.5181 34.12L70.6941 33.5535L69.6171 35.12H71.5181V34.12ZM83.9781 34.12H84.9781V33.12H83.9781V34.12ZM83.9781 47V48H84.9781V47H83.9781ZM49.6281 47V39.51H47.6281V47H49.6281ZM49.4792 40.0351C50.8001 37.8942 52.2782 35.9392 53.9129 34.1683L52.4433 32.8117C50.718 34.6808 49.1628 36.7391 47.7771 38.9849L49.4792 40.0351ZM53.9214 34.159C55.5709 32.3263 57.4544 30.488 59.5743 28.6446L58.2619 27.1354C56.0885 29.0254 54.1454 30.9204 52.4348 32.821L53.9214 34.159ZM59.5689 28.6493C62.187 26.4052 64.1073 24.6528 65.309 23.4031L63.8673 22.0169C62.7356 23.1939 60.8759 24.8948 58.2673 27.1307L59.5689 28.6493ZM65.309 23.4031C66.6011 22.0593 67.3381 20.5633 67.3381 18.93H65.3381C65.3381 19.91 64.9085 20.934 63.8673 22.0169L65.309 23.4031ZM67.3381 18.93C67.3381 17.5511 66.8099 16.3964 65.6936 15.636C64.6461 14.9225 63.2004 14.64 61.5081 14.64V16.64C63.0358 16.64 64.0051 16.9058 64.5677 17.289C65.0614 17.6253 65.3381 18.1155 65.3381 18.93H67.3381ZM61.5081 14.64C59.3334 14.64 57.2255 14.8817 55.1865 15.3672L55.6497 17.3128C57.5307 16.865 59.4828 16.64 61.5081 16.64V14.64ZM55.1812 15.3685C53.2157 15.8479 51.3419 16.4721 49.5612 17.2421L50.355 19.0779C52.0276 18.3546 53.7939 17.7655 55.6551 17.3115L55.1812 15.3685ZM50.9581 18.16V4.09H48.9581V18.16H50.9581ZM50.3546 5.00806C52.3228 4.15815 54.6737 3.47682 57.4185 2.97361L57.0578 1.00639C54.2026 1.52985 51.7001 2.24851 49.5617 3.17194L50.3546 5.00806ZM57.4185 2.97361C60.1552 2.47186 63.0113 2.22 65.9881 2.22V0.219997C62.8982 0.219997 59.921 0.481466 57.0578 1.00639L57.4185 2.97361ZM65.9881 2.22C71.8335 2.22 75.9719 3.54705 78.605 6.01027L79.9713 4.54973C76.8177 1.59961 72.0894 0.219997 65.9881 0.219997V2.22ZM78.605 6.01027C81.2734 8.5065 82.6281 11.7772 82.6281 15.92H84.6281C84.6281 11.2894 83.0896 7.46683 79.9713 4.54973L78.605 6.01027ZM82.6281 15.92C82.6281 17.7642 82.4252 19.3195 82.0403 20.6027L83.956 21.1773C84.411 19.6605 84.6281 17.9024 84.6281 15.92H82.6281ZM82.0403 20.6026C81.6589 21.8739 81.0199 23.0946 80.1088 24.2661L81.6875 25.4939C82.7363 24.1454 83.4973 22.7061 83.956 21.1773L82.0403 20.6026ZM80.1055 24.2703C79.2233 25.4171 77.9892 26.7007 76.3851 28.1214L77.7112 29.6186C79.3738 28.146 80.7063 26.7695 81.6907 25.4897L80.1055 24.2703ZM76.3792 28.1267C75.4499 28.9631 74.4267 29.8699 73.3096 30.8474L74.6266 32.3526C75.7495 31.37 76.7797 30.4569 77.7171 29.6133L76.3792 28.1267ZM73.3279 30.8318C72.1748 31.7927 71.2808 32.7 70.6941 33.5535L72.3422 34.6865C72.7821 34.0467 73.5214 33.274 74.6083 32.3682L73.3279 30.8318ZM71.5181 35.12H83.9781V33.12H71.5181V35.12ZM82.9781 34.12V47H84.9781V34.12H82.9781ZM83.9781 46H48.6281V48H83.9781V46Z" fill="black" mask="url(#path-1-outside-1_1417_702)"/>
</svg>
