<svg width="787" height="280" viewBox="0 0 787 280" fill="none" xmlns="http://www.w3.org/2000/svg">
<path d="M197.402 240.9H110.624V265.673H197.402V240.9Z" fill="#F29DAA"/>
<path d="M290.287 240.9H203.509V265.673H290.287V240.9Z" fill="#3AA8CC"/>
<path d="M383.181 240.9H296.403V265.673H383.181V240.9Z" fill="#30A56E"/>
<path d="M476.075 240.9H389.297V265.673H476.075V240.9Z" fill="#E5B52E"/>
<path d="M661.855 240.9H575.077V265.673H661.855V240.9Z" fill="#EC5D25"/>
<path d="M568.969 240.9H482.191V265.673H568.969V240.9Z" fill="#55281A"/>
<path d="M754.748 240.9H667.97V265.673H754.748V240.9Z" fill="white"/>
<path d="M18.7263 241.859H103.582V264.714H18.7263V241.859ZM17.7651 265.673H104.543V240.9H17.7651V265.673Z" fill="white"/>
<path d="M72.1705 184.194H62.4046L59.9439 179.247C58.0599 175.489 54.292 173.188 50.1011 173.188C48.9477 173.188 48.0249 174.109 48.0249 175.259C48.0249 176.41 48.9477 177.33 50.1011 177.33C52.7156 177.33 55.061 178.787 56.2529 181.126L57.7908 184.233H50.1011C42.8728 184.233 36.9902 190.1 36.9902 197.309C36.9902 198.46 37.913 199.38 39.0664 199.38H83.2436C84.3971 199.38 85.3198 198.46 85.3198 197.309C85.3198 190.1 79.4372 184.233 72.209 184.233M41.3734 195.2C42.2961 191.25 45.8718 188.297 50.1011 188.297H72.209C76.4383 188.297 80.014 191.25 80.9367 195.2H41.3734ZM77.9378 202.793H82.1671C80.4754 214.949 73.2086 225.84 62.3277 232.052C61.9817 232.244 61.5203 232.359 61.0974 232.359C60.7513 232.359 60.4053 232.282 60.1362 232.129C49.1399 225.878 41.8732 214.949 40.143 202.793H44.3723C45.9872 213.147 52.062 222.427 61.1743 227.949C70.325 222.35 76.3614 213.108 77.9762 202.793" fill="white"/>
<path d="M165.06 184.194H155.294L152.834 179.247C150.95 175.489 147.182 173.188 142.991 173.188C141.837 173.188 140.915 174.109 140.915 175.259C140.915 176.41 141.837 177.33 142.991 177.33C145.605 177.33 147.951 178.787 149.143 181.126L150.68 184.233H142.991C135.762 184.233 129.88 190.1 129.88 197.309C129.88 198.46 130.803 199.38 131.956 199.38H176.133C177.287 199.38 178.209 198.46 178.209 197.309C178.209 190.1 172.327 184.233 165.099 184.233M134.225 195.2C135.147 191.25 138.723 188.297 142.952 188.297H165.06C169.289 188.297 172.865 191.25 173.788 195.2H134.225ZM170.827 202.793H175.057C173.365 214.949 166.098 225.84 155.217 232.052C154.871 232.244 154.41 232.359 153.987 232.359C153.641 232.359 153.295 232.282 153.026 232.129C142.03 225.878 134.763 214.949 133.033 202.793H137.262C138.877 213.147 144.952 222.427 154.064 227.949C163.215 222.35 169.251 213.108 170.866 202.793" fill="#F29DAA"/>
<path d="M257.953 184.194H248.187L245.688 179.247C243.804 175.489 240.036 173.188 235.845 173.188C234.692 173.188 233.769 174.109 233.769 175.259C233.769 176.41 234.692 177.33 235.845 177.33C238.46 177.33 240.805 178.787 241.997 181.126L243.535 184.233H235.845C228.617 184.233 222.734 190.1 222.734 197.309C222.734 198.46 223.657 199.38 224.811 199.38H268.988C270.141 199.38 271.064 198.46 271.064 197.309C271.064 190.1 265.181 184.233 257.953 184.233M227.117 195.2C228.04 191.25 231.616 188.297 235.845 188.297H257.953C262.182 188.297 265.758 191.25 266.681 195.2H227.117ZM263.72 202.793H267.95C266.258 214.949 258.991 225.84 248.11 232.052C247.764 232.244 247.303 232.359 246.88 232.359C246.534 232.359 246.188 232.282 245.919 232.129C234.923 225.878 227.656 214.949 225.926 202.793H230.155C231.77 213.147 237.845 222.427 246.918 227.949C256.069 222.35 262.105 213.108 263.72 202.793Z" fill="#3AA8CC"/>
<path d="M350.847 184.194H341.081L338.582 179.247C336.698 175.489 332.93 173.188 328.739 173.188C327.586 173.188 326.663 174.109 326.663 175.259C326.663 176.41 327.586 177.33 328.739 177.33C331.354 177.33 333.699 178.787 334.891 181.126L336.429 184.233H328.739C321.511 184.233 315.628 190.1 315.628 197.309C315.628 198.46 316.551 199.38 317.705 199.38H361.882C363.035 199.38 363.958 198.46 363.958 197.309C363.958 190.1 358.075 184.233 350.847 184.233M320.012 195.2C320.934 191.25 324.51 188.297 328.739 188.297H350.847C355.076 188.297 358.652 191.25 359.575 195.2H320.012ZM356.576 202.793H360.805C359.114 214.949 351.847 225.84 340.966 232.052C340.62 232.244 340.159 232.359 339.736 232.359C339.39 232.359 339.044 232.282 338.774 232.129C327.778 225.878 320.511 214.949 318.781 202.793H323.011C324.625 213.147 330.7 222.427 339.774 227.949C348.925 222.35 354.961 213.108 356.576 202.793Z" fill="#30A56E"/>
<path d="M443.741 184.194H433.975L431.476 179.247C429.592 175.489 425.824 173.188 421.633 173.188C420.479 173.188 419.557 174.109 419.557 175.259C419.557 176.41 420.479 177.33 421.633 177.33C424.247 177.33 426.593 178.787 427.785 181.126L429.323 184.233H421.633C414.405 184.233 408.522 190.1 408.522 197.309C408.522 198.46 409.445 199.38 410.598 199.38H454.775C455.929 199.38 456.852 198.46 456.852 197.309C456.852 190.1 450.969 184.233 443.741 184.233M412.905 195.238C413.828 191.289 417.404 188.336 421.633 188.336H443.741C447.97 188.336 451.546 191.289 452.468 195.238H412.905ZM449.469 202.793H453.699C452.007 214.949 444.74 225.84 433.859 232.052C433.513 232.244 433.052 232.359 432.629 232.359C432.283 232.359 431.937 232.282 431.668 232.129C420.672 225.878 413.405 214.949 411.675 202.793H415.904C417.519 213.147 423.594 222.427 432.668 227.949C441.818 222.35 447.855 213.108 449.469 202.793Z" fill="#E5B52E"/>
<path d="M536.631 184.194H526.865L524.366 179.247C522.482 175.489 518.714 173.188 514.523 173.188C513.37 173.188 512.447 174.109 512.447 175.259C512.447 176.41 513.37 177.33 514.523 177.33C517.138 177.33 519.483 178.787 520.675 181.126L522.213 184.233H514.523C507.295 184.233 501.412 190.1 501.412 197.309C501.412 198.46 502.335 199.38 503.488 199.38H547.666C548.819 199.38 549.742 198.46 549.742 197.309C549.742 190.1 543.859 184.233 536.631 184.233M505.795 195.238C506.718 191.289 510.294 188.336 514.523 188.336H536.631C540.86 188.336 544.436 191.289 545.359 195.238H505.795ZM542.36 202.793H546.589C544.897 214.949 537.63 225.84 526.75 232.052C526.404 232.244 525.942 232.359 525.519 232.359C525.173 232.359 524.827 232.282 524.558 232.129C513.562 225.878 506.295 214.949 504.565 202.793H508.794C510.409 213.147 516.484 222.427 525.558 227.949C534.708 222.35 540.745 213.108 542.36 202.793Z" fill="#55281A"/>
<path d="M629.52 180.324H619.755L617.255 175.377C615.371 171.619 611.603 169.318 607.413 169.318C606.259 169.318 605.336 170.238 605.336 171.389C605.336 172.539 606.259 173.459 607.413 173.459C610.027 173.459 612.372 174.917 613.564 177.256L615.102 180.362H607.413C600.184 180.362 594.302 186.229 594.302 193.439C594.302 194.589 595.224 195.509 596.378 195.509H640.555C641.709 195.509 642.631 194.589 642.631 193.439C642.631 186.229 636.749 180.362 629.52 180.362M598.685 191.329C599.608 187.38 603.183 184.427 607.413 184.427H629.52C633.75 184.427 637.325 187.38 638.248 191.329H598.685ZM635.249 198.922H639.479C637.787 211.079 630.52 221.969 619.639 228.182C619.293 228.373 618.832 228.488 618.409 228.488C618.063 228.488 617.717 228.412 617.448 228.258C606.451 222.008 599.185 211.079 597.454 198.922H601.684C603.299 209.276 609.374 218.556 618.447 224.078C627.598 218.48 633.634 209.238 635.249 198.922Z" fill="#EC5D25"/>
<path d="M722.409 176.55H712.643L710.144 171.603C708.26 167.845 704.492 165.544 700.301 165.544C699.148 165.544 698.225 166.464 698.225 167.615C698.225 168.765 699.148 169.686 700.301 169.686C702.916 169.686 705.261 171.143 706.453 173.482L707.991 176.588H700.301C693.073 176.588 687.19 182.455 687.19 189.665C687.19 190.815 688.113 191.735 689.267 191.735H733.444C734.597 191.735 735.52 190.815 735.52 189.665C735.52 182.455 729.637 176.588 722.409 176.588M691.574 187.556C692.496 183.606 696.072 180.653 700.301 180.653H722.409C726.638 180.653 730.214 183.606 731.137 187.556H691.574ZM728.138 195.148H732.367C730.676 207.305 723.409 218.195 712.528 224.408C712.182 224.599 711.721 224.714 711.298 224.714C710.952 224.714 710.606 224.638 710.336 224.484C699.34 218.234 692.073 207.305 690.343 195.148H694.573C696.187 205.502 702.262 214.782 711.336 220.304C720.487 214.706 726.523 205.464 728.138 195.148Z" fill="white"/>
</svg>
