<svg width="600" height="225" viewBox="0 0 600 225" fill="none" xmlns="http://www.w3.org/2000/svg">
<path d="M51.2902 118.617V97.0884H93.3974C106.031 97.0884 112.649 94.9309 112.649 82.9156C112.649 70.9003 103.222 68.3756 90.9862 68.3756H51.2773V46.8467H93.795C120.268 46.8467 140.52 57.9669 140.52 82.5598C140.52 94.403 135.902 103.917 125.68 108.576C136.107 113.063 143.123 122.576 143.123 137.105C143.123 162.765 120.858 173.885 94.3978 173.885H51.2773V152.357H94.3978C105.633 152.357 115.047 150.199 115.047 136.026C115.047 120.775 100.811 118.617 88.1773 118.617H51.2773H51.2902ZM96.2063 71.9675V73.402H51.2902V71.9675H96.2063ZM51.2902 76.994H96.2063V78.4285H51.2902V76.994ZM51.2902 83.455V82.0205H96.2063V83.455H51.2902ZM96.2063 87.0355V88.4699H51.2902V87.0355H96.2063ZM51.2902 93.4964V92.0619H96.2063V93.4964H51.2902ZM96.2063 122.209V123.644H51.2902V122.209H96.2063ZM96.2063 127.236V128.67H51.2902V127.236H96.2063ZM96.2063 132.251V133.685H51.2902V132.251H96.2063ZM51.2902 138.712V137.277H96.2063V138.712H51.2902ZM51.2902 143.738V142.304H96.2063V143.738H51.2902ZM51.2902 148.765V147.33H96.2063V148.765H51.2902Z" fill="#F29DAA"/>
<path d="M191.667 46.8467V107.141H249.422V46.8467H277.497V122.921C277.497 157.727 256.04 176.031 220.538 176.031C185.036 176.031 163.578 157.727 163.578 122.921V46.8467H191.654H191.667ZM249.422 112.156V108.564H191.667V112.156H249.422ZM249.422 117.183V113.591H191.667V117.183H249.422ZM191.667 118.617V122.209H249.422V118.617H191.667ZM191.667 123.644C191.872 124.895 191.872 126.157 192.064 127.236H249.024C249.229 126.157 249.229 124.906 249.422 123.644H191.667ZM192.257 128.67C192.462 129.921 192.654 131.183 192.86 132.262H248.203C248.408 131.183 248.601 129.933 248.806 128.67H192.257ZM246.805 137.277C247.203 136.198 247.613 134.948 247.805 133.685H193.257C193.462 134.936 193.86 136.198 194.258 137.277H246.805ZM244.201 142.304C244.804 141.225 245.599 139.974 246.202 138.712H194.86C195.463 139.963 196.258 141.225 196.861 142.304H244.189H244.201ZM197.874 143.738C199.08 145.173 200.286 146.251 201.684 147.33H239.392C240.79 146.251 241.995 145.173 243.201 143.738H197.874ZM220.538 152.357C226.758 152.357 232.568 151.461 237.186 148.765H203.89C208.507 151.45 214.317 152.357 220.538 152.357Z" fill="#F29DAA"/>
<path d="M301.957 46.8467H346.873V48.2812H330.033V51.8731H346.873V53.3076H330.033V56.8996H346.873V58.3341H330.033V61.9261H346.873V63.3606H330.033V66.9525H346.873V68.387H330.033V71.979H346.873V73.4135H330.033V77.0055H346.873V78.44H330.033V82.0319H346.873V83.4664H330.033V87.0584H346.873V88.4929H330.033V92.0849H346.873V93.5194H330.033V97.1113H346.873V98.5458H330.033V102.138H346.873V103.572H330.033V107.164H346.873V108.599H330.033V112.191H346.873V113.625H330.033V117.217H346.873V118.652H330.033V122.244H346.873V123.678H330.033V127.27H346.873V128.705H330.033V132.297H346.873V133.731H330.033V137.323H346.873V138.758H330.033V142.35H346.873V143.784H330.033V147.376H346.873V148.81H330.033V152.402H346.873V153.837H330.033V157.429H346.873V158.863H330.033V162.455H346.873V163.89H330.033V167.482H346.873V168.916H330.033V172.508H346.873V173.943H301.957V46.8467Z" fill="#F29DAA"/>
<path d="M372.539 46.8467H417.455V48.2812H400.615V51.8731H417.455V53.3076H400.615V56.8996H417.455V58.3341H400.615V61.9261H417.455V63.3606H400.615V66.9525H417.455V68.387H400.615V71.979H417.455V73.4135H400.615V77.0055H417.455V78.44H400.615V82.0319H417.455V83.4664H400.615V87.0584H417.455V88.4929H400.615V92.0849H417.455V93.5194H400.615V97.1113H417.455V98.5458H400.615V102.138H417.455V103.572H400.615V107.164H417.455V108.599H400.615V112.191H417.455V113.625H400.615V117.217H417.455V118.652H400.615V122.244H417.455V123.678H400.615V127.27H417.455V128.705H400.615V132.297H417.455V133.731H400.615V137.323H417.455V138.758H400.615V142.35H417.455V143.784H400.615V147.376H417.455V148.81H400.615V152.402H451.149V173.931H372.539V46.8467Z" fill="#F29DAA"/>
<path d="M468.001 46.8467H498.078C540.595 46.8467 567.466 71.4282 567.466 110.55C567.466 149.671 540.595 173.885 498.078 173.885H468.001V152.357H498.283C523.55 152.357 539.595 137.105 539.595 110.55C539.595 83.9943 523.55 68.387 498.283 68.387H468.001V46.8582V46.8467ZM468.001 71.9675H507.312V73.402H468.001V71.9675ZM468.001 76.994H507.312V78.4285H468.001V76.994ZM468.001 83.455V82.0205H507.312V83.455H468.001ZM507.299 87.0355V88.4699H467.988V87.0355H507.299ZM507.299 92.0619V93.4964H467.988V92.0619H507.299ZM468.001 98.5229V97.0884H507.312V98.5229H468.001ZM507.299 102.115V103.549H467.988V102.115H507.299ZM468.001 108.564V107.13H507.312V108.564H468.001ZM507.299 112.156V113.591H467.988V112.156H507.299ZM507.299 117.183V118.617H467.988V117.183H507.299ZM507.299 122.209V123.644H467.988V122.209H507.299ZM507.299 127.236V128.67H467.988V127.236H507.299ZM468.001 133.685V132.251H507.312V133.685H468.001ZM507.299 137.277V138.712H467.988V137.277H507.299ZM468.001 143.738V142.304H507.312V143.738H468.001ZM507.299 147.33V148.765H467.988V147.33H507.299Z" fill="#F29DAA"/>
</svg>
