<svg width="182" height="182" viewBox="0 0 182 182" fill="none" xmlns="http://www.w3.org/2000/svg">
<g clip-path="url(#clip0_656_2272)">
<path d="M97.2357 134.616C98.2678 135.351 98.3221 138.19 96.792 138.696L10.1853 139.043C4.65808 138.872 0.502475 135.338 0 129.791V8.80077C0.23992 4.83817 3.19139 1.4668 6.89432 0.329465L173.186 0C177.161 0.239201 180.542 3.18182 181.683 6.87363L181.995 130.229C181.307 135.13 177.704 138.596 172.734 139.048C170.076 139.287 161.498 139.454 159.144 139.016C157.107 138.637 156.329 135.897 158.022 134.76C162.684 131.632 176.378 138.389 177.428 129.286L177.487 10.6106C177.365 7.36106 175.318 4.47711 171.828 4.51773H10.1808C7.13424 4.67118 4.45437 7.01354 4.5268 10.1593V128.442C4.6445 131.059 5.98896 133.858 8.83631 134.074C36.6037 135.347 65.9374 132.346 93.5192 134.043C94.2932 134.092 96.7694 134.286 97.2357 134.62V134.616Z" fill="#3AA7CB"/>
<path d="M138.43 22.2456C139.158 24.9806 139.023 27.5396 140.127 30.252C142.649 36.4351 149.353 40.1315 155.631 41.4222C157.247 41.7562 160.516 41.0341 161.403 42.889C162.748 45.7008 160.869 57.7781 161.616 61.6099C160.729 64.6021 157.152 64.1598 156.677 61.1405C156.012 56.9206 156.912 50.8639 156.903 46.4861C146.193 45.1727 135.157 37.6447 134.469 26.1856H47.554C46.8841 37.1979 35.9473 45.6963 25.3682 46.0438L25.418 91.5867C37.07 92.9948 46.7483 100.73 48.052 112.799L84.04 113.255L84.6059 116.157L83.9631 116.874L44.7112 117.262C42.1626 116.102 43.2807 113.53 42.982 111.314C41.9317 103.605 34.4716 98.2391 27.2921 96.7182C24.4492 96.1179 20.0718 97.1921 20.3797 93.2295L20.6015 43.3088C21.5793 40.7904 24.0962 41.8375 26.0155 41.4854C34.209 39.969 41.0807 35.1895 42.9231 26.7498C43.2762 25.134 42.57 23.1934 43.9371 21.8936L138.443 22.2366L138.43 22.2456Z" fill="#3AA7CB"/>
<path d="M124.84 66.9224C131.622 65.7851 131.703 68.5156 136.474 70.0004C140.807 71.3499 143.242 69.2512 147.597 72.9024C150.055 74.9604 150.086 77.0185 151.662 78.7786C153.536 80.8773 156.75 81.0849 158.837 84.2622C161.403 88.1751 160.054 90.6484 160.919 94.3718C161.965 98.8669 165.514 98.9301 164.138 106.097C163.626 108.76 161.449 110.425 160.933 112.38C159.833 116.554 161.743 118.842 158.244 123.238C156.293 125.684 153.961 125.991 152.155 127.548C149.742 129.629 149.828 133.167 145.478 135.334C141.97 137.08 140.295 135.857 137.158 136.521C132.233 137.563 131.939 141.26 124.483 139.73C121.97 139.215 120.101 136.832 117.838 136.426C113.555 135.659 110.721 137.153 106.837 133.402C105.217 131.836 104.719 129.494 103.252 127.95C101.265 125.865 98.3225 125.527 96.3533 122.643C93.4607 118.4 95.3212 115.615 94.1533 112.199C93.1529 109.27 90.6767 107.528 90.6088 103.552C90.5273 99.0069 94.022 96.5652 94.4566 93.4556C94.7508 91.3795 94.0673 89.5923 94.8504 87.119C96.4303 82.1319 99.6715 81.9108 102.795 79.2435C105.421 76.9959 105.239 73.8141 109.264 71.7019C112.958 69.7612 114.832 71.0159 118.204 70.2351C120.368 69.7341 122.188 67.3737 124.845 66.9269L124.84 66.9224ZM148.203 82.0056C146.442 80.0333 146.266 77.2351 143.382 75.7502C140.648 74.3466 138.33 75.3711 135.7 74.8341C133.917 74.473 131.789 72.5052 130.069 71.8734C124.641 69.874 123.727 73.8818 119.553 74.7393C116.674 75.3305 113.963 74.3015 111.219 75.9082C108.825 77.3118 108.435 80.3898 106.412 82.3982C104.66 84.1313 102.216 84.5781 100.767 86.248C98.2229 89.1861 99.6805 92.2641 98.8431 95.6129C98.2818 97.865 96.1949 99.553 95.7286 101.53C94.5834 106.381 98.2093 107.83 98.9472 111.924C99.4451 114.69 98.6213 116.762 100.047 119.402C101.636 122.34 105.022 122.521 107.086 125.021C108.571 126.822 108.87 129.277 110.948 130.649C113.754 132.508 116.556 131.385 119.553 131.998C123.102 132.725 124.306 136.006 128.697 135.302C131.083 134.923 133.283 132.517 135.8 131.994C138.702 131.394 140.929 132.504 143.672 130.816C146.415 129.128 146.474 126.668 148.203 124.728C149.462 123.315 151.63 122.625 152.997 121.609C157.66 118.152 155.043 115.078 156.51 110.669C157.823 106.715 161.259 105.452 158.995 100.338C156.515 94.7238 156.664 96.7638 156.107 90.1745C155.663 84.9798 150.811 84.9121 148.203 81.992V82.0056Z" fill="#3AA7CB"/>
<path d="M97.3489 168.808C99.7663 168.794 103.686 167.662 105.936 168.596C107.869 169.399 108.417 173.357 109.454 175.005C109.743 175.469 109.431 175.794 110.468 175.578L125.478 149.243C126.271 148.065 128.018 147.524 129.068 148.693L144.885 176.029C145.451 176.417 147.587 170.198 148.112 169.548C150.014 167.183 155.278 168.772 158.008 168.803L143.613 143.642C142.771 141.007 145.695 139.215 147.624 141.029C148.244 141.611 150.018 145.028 150.675 146.106C154.201 151.879 158.094 158.491 161.254 164.444C162.585 166.948 165.147 169.869 162.779 172.437C160.321 175.099 154.975 172.901 151.711 172.897C150.217 175.325 149.557 181.341 146.438 181.869C143.903 182.298 143.201 181.639 141.789 179.784C137.194 173.736 133.332 164.371 129.104 157.674C128.788 157.173 128.113 155.417 127.452 155.72L112.478 180.958C106.461 184.794 105.185 176.999 103.664 172.888C98.5667 173.42 88.9925 176.124 92.1205 167.431C97.2539 159.763 101.02 151.112 106.036 143.394C107.987 140.393 110.554 138.19 111.64 143.083L97.3444 168.803L97.3489 168.808Z" fill="#3AA7CB"/>
<path d="M126.207 40.7453C127.266 41.8059 126.927 44.3288 125.292 44.8072L58.1781 45.1592C54.5295 45.0825 54.0949 40.6234 57.7118 40.1631H123.844C124.546 40.2263 125.704 40.2443 126.207 40.7453Z" fill="#3AA7CB"/>
<path d="M56.9245 57.4308L124.301 57.3135C127.918 57.7738 127.484 62.2329 123.835 62.3096H58.1739C55.0051 62.0975 53.9911 59.0195 56.92 57.4308H56.9245Z" fill="#3AA7CB"/>
<path d="M125.311 83.1874C152.703 80.3305 155.781 121.672 129.254 123.671C102.673 125.675 99.4407 85.8863 125.311 83.1874ZM124.397 88.1429C108.014 90.5078 108.205 116.621 124.782 118.666C149.34 121.694 148.801 84.6226 124.397 88.1429Z" fill="#3AA7CB"/>
<path d="M119.186 99.4173C122.495 96.1361 125.818 105.235 127.217 104.269C128.072 102.527 132.183 95.9376 133.862 95.7931C135.786 95.6262 136.999 97.8241 136.012 99.7061C135.103 101.435 130.377 108.074 129.032 109.455C127.122 111.418 126.452 111.404 124.492 109.482C123.577 108.584 118.711 102.13 118.639 101.308C118.593 100.78 118.82 99.7873 119.191 99.4173H119.186Z" fill="#3AA7CB"/>
</g>
<defs>
<clipPath id="clip0_656_2272">
<rect width="182" height="182" fill="white"/>
</clipPath>
</defs>
</svg>
