<svg width="54" height="54" viewBox="0 0 54 54" fill="none" xmlns="http://www.w3.org/2000/svg">
<path d="M27.0145 48.94C18.6715 48.9409 10.9782 44.1602 7.29351 36.6356C3.56497 29.0191 4.69391 19.5202 10.104 12.9988C15.5083 6.48423 24.2942 3.64163 32.4853 5.75691C33.3873 5.98979 33.9298 6.91032 33.6978 7.81313C33.4649 8.71594 32.5436 9.25763 31.6416 9.0256C24.7127 7.23601 17.2759 9.6407 12.7019 15.1546C8.12544 20.6719 7.17032 28.7086 10.3251 35.1532C13.4681 41.5724 20.4012 45.754 27.5173 45.56C34.6327 45.3659 41.0899 41.0383 43.9679 34.5355C45.658 30.7167 46.0157 26.3925 44.9737 22.3585C44.7408 21.4566 45.2833 20.536 46.1862 20.3023C47.0864 20.0686 48.0087 20.612 48.2424 21.5148C49.4726 26.2811 49.0515 31.3909 47.0552 35.9016C43.6532 43.5881 36.0198 48.7038 27.6102 48.9333C27.411 48.9375 27.2119 48.94 27.0145 48.94Z" fill="#3AA7CB"/>
<path d="M26.9998 32.265C26.5678 32.265 26.1358 32.1005 25.8067 31.7706C25.1478 31.1116 25.1478 30.0435 25.8067 29.3845L46.0567 9.13449C46.7148 8.47552 47.7847 8.47552 48.4429 9.13449C49.1018 9.79345 49.1018 10.8616 48.4429 11.5206L28.1929 31.7706C27.8638 32.0997 27.4318 32.265 26.9998 32.265Z" fill="#3AA7CB"/>
<path d="M27.0008 32.265C26.5688 32.265 26.1368 32.1004 25.8077 31.7705L18.6485 24.6113C17.9896 23.9523 17.9896 22.8842 18.6485 22.2252C19.3066 21.5662 20.3765 21.5662 21.0346 22.2252L28.1939 29.3844C28.8528 30.0434 28.8528 31.1116 28.1939 31.7705C27.8648 32.0996 27.4328 32.265 27.0008 32.265Z" fill="#3AA7CB"/>
</svg>
