<svg width="222" height="38" viewBox="0 0 222 38" fill="none" xmlns="http://www.w3.org/2000/svg">
<mask id="path-1-outside-1_656_2255" maskUnits="userSpaceOnUse" x="61.4033" y="3.71289" width="100" height="32" fill="black">
<rect fill="white" x="61.4033" y="3.71289" width="100" height="32"/>
<path d="M63.0914 12.2505V4.92683H84.616V14.528H77.5156V12.2505H73.6751V16.225H81.2667V22.8342H73.6751V27.3892H76.2652V34.7129H63.0914V27.3892H65.0563V12.2505H63.0914ZM65.4582 29.3987V32.7033H73.8984V29.3987H71.3083V20.8246H78.8999V18.2345H71.3083V10.241H79.5698V12.5185H82.2492V6.93639H65.4582V10.241H67.4231V29.3987H65.4582ZM85.0758 34.7129V27.3892H87.3533L95.0789 4.92683H103.072L110.128 27.3892H112.316V34.7129H100.304V27.3892H102.179L101.554 25.3796H95.7041L95.0789 27.3892H96.8652V34.7129H85.0758ZM87.4426 32.7033H94.811V29.3987H92.5335L94.6324 23.3701H102.671L104.591 29.3987H102.358V32.7033H109.771V29.3987H108.342L101.242 6.93639H96.8205L89.0949 29.3987H87.4426V32.7033ZM95.4362 21.0479L98.8301 11.2234L101.956 21.0479H95.4362ZM97.6244 19.4403H99.6786L98.7408 16.4036L97.6244 19.4403ZM114.29 12.2505V4.92683H127.508V12.2505H124.873V27.3892H128.446V23.7273H135.814V34.7129H114.29V27.3892H116.255V12.2505H114.29ZM116.657 29.3987V32.7033H133.447V25.7369H130.5V29.3987H122.507V10.241H125.141V6.93639H116.657V10.241H118.621V29.3987H116.657ZM138.319 12.2505V4.92683H151.537V12.2505H148.903V27.3892H152.475V23.7273H159.843V34.7129H138.319V27.3892H140.284V12.2505H138.319ZM140.686 29.3987V32.7033H157.477V25.7369H154.529V29.3987H146.536V10.241H149.17V6.93639H140.686V10.241H142.651V29.3987H140.686Z"/>
</mask>
<path d="M63.0914 12.2505V4.92683H84.616V14.528H77.5156V12.2505H73.6751V16.225H81.2667V22.8342H73.6751V27.3892H76.2652V34.7129H63.0914V27.3892H65.0563V12.2505H63.0914ZM65.4582 29.3987V32.7033H73.8984V29.3987H71.3083V20.8246H78.8999V18.2345H71.3083V10.241H79.5698V12.5185H82.2492V6.93639H65.4582V10.241H67.4231V29.3987H65.4582ZM85.0758 34.7129V27.3892H87.3533L95.0789 4.92683H103.072L110.128 27.3892H112.316V34.7129H100.304V27.3892H102.179L101.554 25.3796H95.7041L95.0789 27.3892H96.8652V34.7129H85.0758ZM87.4426 32.7033H94.811V29.3987H92.5335L94.6324 23.3701H102.671L104.591 29.3987H102.358V32.7033H109.771V29.3987H108.342L101.242 6.93639H96.8205L89.0949 29.3987H87.4426V32.7033ZM95.4362 21.0479L98.8301 11.2234L101.956 21.0479H95.4362ZM97.6244 19.4403H99.6786L98.7408 16.4036L97.6244 19.4403ZM114.29 12.2505V4.92683H127.508V12.2505H124.873V27.3892H128.446V23.7273H135.814V34.7129H114.29V27.3892H116.255V12.2505H114.29ZM116.657 29.3987V32.7033H133.447V25.7369H130.5V29.3987H122.507V10.241H125.141V6.93639H116.657V10.241H118.621V29.3987H116.657ZM138.319 12.2505V4.92683H151.537V12.2505H148.903V27.3892H152.475V23.7273H159.843V34.7129H138.319V27.3892H140.284V12.2505H138.319ZM140.686 29.3987V32.7033H157.477V25.7369H154.529V29.3987H146.536V10.241H149.17V6.93639H140.686V10.241H142.651V29.3987H140.686Z" fill="#EC5E25"/>
<path d="M63.0914 12.2505H62.0914V13.2505H63.0914V12.2505ZM63.0914 4.92683V3.92683H62.0914V4.92683H63.0914ZM84.616 4.92683H85.616V3.92683H84.616V4.92683ZM84.616 14.528V15.528H85.616V14.528H84.616ZM77.5156 14.528H76.5156V15.528H77.5156V14.528ZM77.5156 12.2505H78.5156V11.2505H77.5156V12.2505ZM73.6751 12.2505V11.2505H72.6751V12.2505H73.6751ZM73.6751 16.225H72.6751V17.225H73.6751V16.225ZM81.2667 16.225H82.2667V15.225H81.2667V16.225ZM81.2667 22.8342V23.8342H82.2667V22.8342H81.2667ZM73.6751 22.8342V21.8342H72.6751V22.8342H73.6751ZM73.6751 27.3892H72.6751V28.3892H73.6751V27.3892ZM76.2652 27.3892H77.2652V26.3892H76.2652V27.3892ZM76.2652 34.7129V35.7129H77.2652V34.7129H76.2652ZM63.0914 34.7129H62.0914V35.7129H63.0914V34.7129ZM63.0914 27.3892V26.3892H62.0914V27.3892H63.0914ZM65.0563 27.3892V28.3892H66.0563V27.3892H65.0563ZM65.0563 12.2505H66.0563V11.2505H65.0563V12.2505ZM65.4582 29.3987V28.3987H64.4582V29.3987H65.4582ZM65.4582 32.7033H64.4582V33.7033H65.4582V32.7033ZM73.8984 32.7033V33.7033H74.8984V32.7033H73.8984ZM73.8984 29.3987H74.8984V28.3987H73.8984V29.3987ZM71.3083 29.3987H70.3083V30.3987H71.3083V29.3987ZM71.3083 20.8246V19.8246H70.3083V20.8246H71.3083ZM78.8999 20.8246V21.8246H79.8999V20.8246H78.8999ZM78.8999 18.2345H79.8999V17.2345H78.8999V18.2345ZM71.3083 18.2345H70.3083V19.2345H71.3083V18.2345ZM71.3083 10.241V9.24099H70.3083V10.241H71.3083ZM79.5698 10.241H80.5698V9.24099H79.5698V10.241ZM79.5698 12.5185H78.5698V13.5185H79.5698V12.5185ZM82.2492 12.5185V13.5185H83.2492V12.5185H82.2492ZM82.2492 6.93639H83.2492V5.93639H82.2492V6.93639ZM65.4582 6.93639V5.93639H64.4582V6.93639H65.4582ZM65.4582 10.241H64.4582V11.241H65.4582V10.241ZM67.4231 10.241H68.4231V9.24099H67.4231V10.241ZM67.4231 29.3987V30.3987H68.4231V29.3987H67.4231ZM64.0914 12.2505V4.92683H62.0914V12.2505H64.0914ZM63.0914 5.92683H84.616V3.92683H63.0914V5.92683ZM83.616 4.92683V14.528H85.616V4.92683H83.616ZM84.616 13.528H77.5156V15.528H84.616V13.528ZM78.5156 14.528V12.2505H76.5156V14.528H78.5156ZM77.5156 11.2505H73.6751V13.2505H77.5156V11.2505ZM72.6751 12.2505V16.225H74.6751V12.2505H72.6751ZM73.6751 17.225H81.2667V15.225H73.6751V17.225ZM80.2667 16.225V22.8342H82.2667V16.225H80.2667ZM81.2667 21.8342H73.6751V23.8342H81.2667V21.8342ZM72.6751 22.8342V27.3892H74.6751V22.8342H72.6751ZM73.6751 28.3892H76.2652V26.3892H73.6751V28.3892ZM75.2652 27.3892V34.7129H77.2652V27.3892H75.2652ZM76.2652 33.7129H63.0914V35.7129H76.2652V33.7129ZM64.0914 34.7129V27.3892H62.0914V34.7129H64.0914ZM63.0914 28.3892H65.0563V26.3892H63.0914V28.3892ZM66.0563 27.3892V12.2505H64.0563V27.3892H66.0563ZM65.0563 11.2505H63.0914V13.2505H65.0563V11.2505ZM64.4582 29.3987V32.7033H66.4582V29.3987H64.4582ZM65.4582 33.7033H73.8984V31.7033H65.4582V33.7033ZM74.8984 32.7033V29.3987H72.8984V32.7033H74.8984ZM73.8984 28.3987H71.3083V30.3987H73.8984V28.3987ZM72.3083 29.3987V20.8246H70.3083V29.3987H72.3083ZM71.3083 21.8246H78.8999V19.8246H71.3083V21.8246ZM79.8999 20.8246V18.2345H77.8999V20.8246H79.8999ZM78.8999 17.2345H71.3083V19.2345H78.8999V17.2345ZM72.3083 18.2345V10.241H70.3083V18.2345H72.3083ZM71.3083 11.241H79.5698V9.24099H71.3083V11.241ZM78.5698 10.241V12.5185H80.5698V10.241H78.5698ZM79.5698 13.5185H82.2492V11.5185H79.5698V13.5185ZM83.2492 12.5185V6.93639H81.2492V12.5185H83.2492ZM82.2492 5.93639H65.4582V7.93639H82.2492V5.93639ZM64.4582 6.93639V10.241H66.4582V6.93639H64.4582ZM65.4582 11.241H67.4231V9.24099H65.4582V11.241ZM66.4231 10.241V29.3987H68.4231V10.241H66.4231ZM67.4231 28.3987H65.4582V30.3987H67.4231V28.3987ZM85.0758 34.7129H84.0758V35.7129H85.0758V34.7129ZM85.0758 27.3892V26.3892H84.0758V27.3892H85.0758ZM87.3533 27.3892V28.3892H88.0669L88.2989 27.7144L87.3533 27.3892ZM95.0789 4.92683V3.92683H94.3654L94.1333 4.60159L95.0789 4.92683ZM103.072 4.92683L104.027 4.62715L103.807 3.92683H103.072V4.92683ZM110.128 27.3892L109.174 27.6889L109.394 28.3892H110.128V27.3892ZM112.316 27.3892H113.316V26.3892H112.316V27.3892ZM112.316 34.7129V35.7129H113.316V34.7129H112.316ZM100.304 34.7129H99.3038V35.7129H100.304V34.7129ZM100.304 27.3892V26.3892H99.3038V27.3892H100.304ZM102.179 27.3892V28.3892H103.538L103.134 27.0921L102.179 27.3892ZM101.554 25.3796L102.509 25.0826L102.29 24.3796H101.554V25.3796ZM95.7041 25.3796V24.3796H94.9679L94.7493 25.0826L95.7041 25.3796ZM95.0789 27.3892L94.1241 27.0921L93.7205 28.3892H95.0789V27.3892ZM96.8652 27.3892H97.8652V26.3892H96.8652V27.3892ZM96.8652 34.7129V35.7129H97.8652V34.7129H96.8652ZM87.4426 32.7033H86.4426V33.7033H87.4426V32.7033ZM94.811 32.7033V33.7033H95.811V32.7033H94.811ZM94.811 29.3987H95.811V28.3987H94.811V29.3987ZM92.5335 29.3987L91.5891 29.0699L91.1265 30.3987H92.5335V29.3987ZM94.6323 23.3701V22.3701H93.9216L93.688 23.0413L94.6323 23.3701ZM102.671 23.3701L103.623 23.0666L103.402 22.3701H102.671V23.3701ZM104.591 29.3987V30.3987H105.959L105.544 29.0952L104.591 29.3987ZM102.358 29.3987V28.3987H101.358V29.3987H102.358ZM102.358 32.7033H101.358V33.7033H102.358V32.7033ZM109.771 32.7033V33.7033H110.771V32.7033H109.771ZM109.771 29.3987H110.771V28.3987H109.771V29.3987ZM108.342 29.3987L107.388 29.7001L107.609 30.3987H108.342V29.3987ZM101.242 6.93639L102.195 6.63498L101.974 5.93639H101.242V6.93639ZM96.8205 6.93639V5.93639H96.107L95.8749 6.61115L96.8205 6.93639ZM89.0949 29.3987V30.3987H89.8085L90.0405 29.724L89.0949 29.3987ZM87.4426 29.3987V28.3987H86.4426V29.3987H87.4426ZM95.4362 21.0479L94.491 20.7214L94.0327 22.0479H95.4362V21.0479ZM98.8301 11.2234L99.783 10.9202L98.8691 8.04792L97.8849 10.8969L98.8301 11.2234ZM101.956 21.0479V22.0479H103.324L102.909 20.7447L101.956 21.0479ZM97.6244 19.4403L96.6858 19.0952L96.1913 20.4403H97.6244V19.4403ZM99.6786 19.4403V20.4403H101.034L100.634 19.1452L99.6786 19.4403ZM98.7408 16.4036L99.6962 16.1085L98.8232 13.2815L97.8022 16.0586L98.7408 16.4036ZM86.0758 34.7129V27.3892H84.0758V34.7129H86.0758ZM85.0758 28.3892H87.3533V26.3892H85.0758V28.3892ZM88.2989 27.7144L96.0246 5.25207L94.1333 4.60159L86.4077 27.0639L88.2989 27.7144ZM95.0789 5.92683H103.072V3.92683H95.0789V5.92683ZM102.118 5.22651L109.174 27.6889L111.082 27.0895L104.027 4.62715L102.118 5.22651ZM110.128 28.3892H112.316V26.3892H110.128V28.3892ZM111.316 27.3892V34.7129H113.316V27.3892H111.316ZM112.316 33.7129H100.304V35.7129H112.316V33.7129ZM101.304 34.7129V27.3892H99.3038V34.7129H101.304ZM100.304 28.3892H102.179V26.3892H100.304V28.3892ZM103.134 27.0921L102.509 25.0826L100.599 25.6767L101.224 27.6862L103.134 27.0921ZM101.554 24.3796H95.7041V26.3796H101.554V24.3796ZM94.7493 25.0826L94.1241 27.0921L96.0338 27.6862L96.659 25.6767L94.7493 25.0826ZM95.0789 28.3892H96.8652V26.3892H95.0789V28.3892ZM95.8652 27.3892V34.7129H97.8652V27.3892H95.8652ZM96.8652 33.7129H85.0758V35.7129H96.8652V33.7129ZM87.4426 33.7033H94.811V31.7033H87.4426V33.7033ZM95.811 32.7033V29.3987H93.811V32.7033H95.811ZM94.811 28.3987H92.5335V30.3987H94.811V28.3987ZM93.4779 29.7275L95.5768 23.6989L93.688 23.0413L91.5891 29.0699L93.4779 29.7275ZM94.6323 24.3701H102.671V22.3701H94.6323V24.3701ZM101.718 23.6736L103.638 29.7022L105.544 29.0952L103.623 23.0666L101.718 23.6736ZM104.591 28.3987H102.358V30.3987H104.591V28.3987ZM101.358 29.3987V32.7033H103.358V29.3987H101.358ZM102.358 33.7033H109.771V31.7033H102.358V33.7033ZM110.771 32.7033V29.3987H108.771V32.7033H110.771ZM109.771 28.3987H108.342V30.3987H109.771V28.3987ZM109.295 29.0973L102.195 6.63498L100.288 7.23779L107.388 29.7001L109.295 29.0973ZM101.242 5.93639H96.8205V7.93639H101.242V5.93639ZM95.8749 6.61115L88.1493 29.0735L90.0405 29.724L97.7662 7.26162L95.8749 6.61115ZM89.0949 28.3987H87.4426V30.3987H89.0949V28.3987ZM86.4426 29.3987V32.7033H88.4426V29.3987H86.4426ZM96.3814 21.3744L99.7753 11.55L97.8849 10.8969L94.491 20.7214L96.3814 21.3744ZM97.8772 11.5266L101.003 21.3511L102.909 20.7447L99.783 10.9202L97.8772 11.5266ZM101.956 20.0479H95.4362V22.0479H101.956V20.0479ZM97.6244 20.4403H99.6786V18.4403H97.6244V20.4403ZM100.634 19.1452L99.6962 16.1085L97.7853 16.6987L98.7231 19.7354L100.634 19.1452ZM97.8022 16.0586L96.6858 19.0952L98.5629 19.7853L99.6794 16.7487L97.8022 16.0586ZM114.29 12.2505H113.29V13.2505H114.29V12.2505ZM114.29 4.92683V3.92683H113.29V4.92683H114.29ZM127.508 4.92683H128.508V3.92683H127.508V4.92683ZM127.508 12.2505V13.2505H128.508V12.2505H127.508ZM124.873 12.2505V11.2505H123.873V12.2505H124.873ZM124.873 27.3892H123.873V28.3892H124.873V27.3892ZM128.446 27.3892V28.3892H129.446V27.3892H128.446ZM128.446 23.7273V22.7273H127.446V23.7273H128.446ZM135.814 23.7273H136.814V22.7273H135.814V23.7273ZM135.814 34.7129V35.7129H136.814V34.7129H135.814ZM114.29 34.7129H113.29V35.7129H114.29V34.7129ZM114.29 27.3892V26.3892H113.29V27.3892H114.29ZM116.255 27.3892V28.3892H117.255V27.3892H116.255ZM116.255 12.2505H117.255V11.2505H116.255V12.2505ZM116.657 29.3987V28.3987H115.657V29.3987H116.657ZM116.657 32.7033H115.657V33.7033H116.657V32.7033ZM133.447 32.7033V33.7033H134.447V32.7033H133.447ZM133.447 25.7369H134.447V24.7369H133.447V25.7369ZM130.5 25.7369V24.7369H129.5V25.7369H130.5ZM130.5 29.3987V30.3987H131.5V29.3987H130.5ZM122.507 29.3987H121.507V30.3987H122.507V29.3987ZM122.507 10.241V9.24099H121.507V10.241H122.507ZM125.141 10.241V11.241H126.141V10.241H125.141ZM125.141 6.93639H126.141V5.93639H125.141V6.93639ZM116.657 6.93639V5.93639H115.657V6.93639H116.657ZM116.657 10.241H115.657V11.241H116.657V10.241ZM118.621 10.241H119.621V9.24099H118.621V10.241ZM118.621 29.3987V30.3987H119.621V29.3987H118.621ZM115.29 12.2505V4.92683H113.29V12.2505H115.29ZM114.29 5.92683H127.508V3.92683H114.29V5.92683ZM126.508 4.92683V12.2505H128.508V4.92683H126.508ZM127.508 11.2505H124.873V13.2505H127.508V11.2505ZM123.873 12.2505V27.3892H125.873V12.2505H123.873ZM124.873 28.3892H128.446V26.3892H124.873V28.3892ZM129.446 27.3892V23.7273H127.446V27.3892H129.446ZM128.446 24.7273H135.814V22.7273H128.446V24.7273ZM134.814 23.7273V34.7129H136.814V23.7273H134.814ZM135.814 33.7129H114.29V35.7129H135.814V33.7129ZM115.29 34.7129V27.3892H113.29V34.7129H115.29ZM114.29 28.3892H116.255V26.3892H114.29V28.3892ZM117.255 27.3892V12.2505H115.255V27.3892H117.255ZM116.255 11.2505H114.29V13.2505H116.255V11.2505ZM115.657 29.3987V32.7033H117.657V29.3987H115.657ZM116.657 33.7033H133.447V31.7033H116.657V33.7033ZM134.447 32.7033V25.7369H132.447V32.7033H134.447ZM133.447 24.7369H130.5V26.7369H133.447V24.7369ZM129.5 25.7369V29.3987H131.5V25.7369H129.5ZM130.5 28.3987H122.507V30.3987H130.5V28.3987ZM123.507 29.3987V10.241H121.507V29.3987H123.507ZM122.507 11.241H125.141V9.24099H122.507V11.241ZM126.141 10.241V6.93639H124.141V10.241H126.141ZM125.141 5.93639H116.657V7.93639H125.141V5.93639ZM115.657 6.93639V10.241H117.657V6.93639H115.657ZM116.657 11.241H118.621V9.24099H116.657V11.241ZM117.621 10.241V29.3987H119.621V10.241H117.621ZM118.621 28.3987H116.657V30.3987H118.621V28.3987ZM138.319 12.2505H137.319V13.2505H138.319V12.2505ZM138.319 4.92683V3.92683H137.319V4.92683H138.319ZM151.537 4.92683H152.537V3.92683H151.537V4.92683ZM151.537 12.2505V13.2505H152.537V12.2505H151.537ZM148.903 12.2505V11.2505H147.903V12.2505H148.903ZM148.903 27.3892H147.903V28.3892H148.903V27.3892ZM152.475 27.3892V28.3892H153.475V27.3892H152.475ZM152.475 23.7273V22.7273H151.475V23.7273H152.475ZM159.843 23.7273H160.843V22.7273H159.843V23.7273ZM159.843 34.7129V35.7129H160.843V34.7129H159.843ZM138.319 34.7129H137.319V35.7129H138.319V34.7129ZM138.319 27.3892V26.3892H137.319V27.3892H138.319ZM140.284 27.3892V28.3892H141.284V27.3892H140.284ZM140.284 12.2505H141.284V11.2505H140.284V12.2505ZM140.686 29.3987V28.3987H139.686V29.3987H140.686ZM140.686 32.7033H139.686V33.7033H140.686V32.7033ZM157.477 32.7033V33.7033H158.477V32.7033H157.477ZM157.477 25.7369H158.477V24.7369H157.477V25.7369ZM154.529 25.7369V24.7369H153.529V25.7369H154.529ZM154.529 29.3987V30.3987H155.529V29.3987H154.529ZM146.536 29.3987H145.536V30.3987H146.536V29.3987ZM146.536 10.241V9.24099H145.536V10.241H146.536ZM149.17 10.241V11.241H150.17V10.241H149.17ZM149.17 6.93639H150.17V5.93639H149.17V6.93639ZM140.686 6.93639V5.93639H139.686V6.93639H140.686ZM140.686 10.241H139.686V11.241H140.686V10.241ZM142.651 10.241H143.651V9.24099H142.651V10.241ZM142.651 29.3987V30.3987H143.651V29.3987H142.651ZM139.319 12.2505V4.92683H137.319V12.2505H139.319ZM138.319 5.92683H151.537V3.92683H138.319V5.92683ZM150.537 4.92683V12.2505H152.537V4.92683H150.537ZM151.537 11.2505H148.903V13.2505H151.537V11.2505ZM147.903 12.2505V27.3892H149.903V12.2505H147.903ZM148.903 28.3892H152.475V26.3892H148.903V28.3892ZM153.475 27.3892V23.7273H151.475V27.3892H153.475ZM152.475 24.7273H159.843V22.7273H152.475V24.7273ZM158.843 23.7273V34.7129H160.843V23.7273H158.843ZM159.843 33.7129H138.319V35.7129H159.843V33.7129ZM139.319 34.7129V27.3892H137.319V34.7129H139.319ZM138.319 28.3892H140.284V26.3892H138.319V28.3892ZM141.284 27.3892V12.2505H139.284V27.3892H141.284ZM140.284 11.2505H138.319V13.2505H140.284V11.2505ZM139.686 29.3987V32.7033H141.686V29.3987H139.686ZM140.686 33.7033H157.477V31.7033H140.686V33.7033ZM158.477 32.7033V25.7369H156.477V32.7033H158.477ZM157.477 24.7369H154.529V26.7369H157.477V24.7369ZM153.529 25.7369V29.3987H155.529V25.7369H153.529ZM154.529 28.3987H146.536V30.3987H154.529V28.3987ZM147.536 29.3987V10.241H145.536V29.3987H147.536ZM146.536 11.241H149.17V9.24099H146.536V11.241ZM150.17 10.241V6.93639H148.17V10.241H150.17ZM149.17 5.93639H140.686V7.93639H149.17V5.93639ZM139.686 6.93639V10.241H141.686V6.93639H139.686ZM140.686 11.241H142.651V9.24099H140.686V11.241ZM141.651 10.241V29.3987H143.651V10.241H141.651ZM142.651 28.3987H140.686V30.3987H142.651V28.3987Z" fill="#55281A" mask="url(#path-1-outside-1_656_2255)"/>
</svg>
