<svg width="1869" height="58" viewBox="0 0 1869 58" fill="none" xmlns="http://www.w3.org/2000/svg">
<g opacity="0.3">
<mask id="path-1-outside-1_656_2396" maskUnits="userSpaceOnUse" x="-1" y="0" width="2362" height="58" fill="black">
<rect fill="white" x="-1" width="2362" height="58"/>
<path d="M19.0323 47.66C16.0403 47.66 13.1583 47.418 10.3863 46.934C7.61427 46.406 5.28227 45.658 3.39027 44.69V32.744C5.45827 33.756 7.79027 34.592 10.3863 35.252C12.9823 35.912 15.2923 36.242 17.3163 36.242C18.6363 36.242 19.6703 36.088 20.4183 35.78C21.1663 35.428 21.5403 34.944 21.5403 34.328C21.5403 33.536 20.8363 32.92 19.4283 32.48C18.0203 32.04 16.1723 31.402 13.8843 30.566C11.1563 29.51 9.00027 28.41 7.41627 27.266C5.83227 26.122 4.68827 24.758 3.98427 23.174C3.32427 21.546 2.99427 19.522 2.99427 17.102C2.99427 8.258 9.22027 3.836 21.6723 3.836C23.0803 3.836 24.6423 3.946 26.3583 4.166C28.1183 4.342 29.8123 4.584 31.4403 4.892C33.1123 5.2 34.5203 5.53 35.6643 5.882V17.894C33.2443 16.882 31.1103 16.2 29.2623 15.848C27.4143 15.496 25.7863 15.32 24.3783 15.32C23.2783 15.32 22.1563 15.43 21.0123 15.65C19.8683 15.826 19.2963 16.266 19.2963 16.97C19.2963 17.542 19.8023 18.004 20.8143 18.356C21.8263 18.664 23.4323 19.126 25.6323 19.742C29.1523 20.71 31.7923 21.876 33.5523 23.24C35.3123 24.56 36.4783 26.144 37.0503 27.992C37.6663 29.796 37.9743 31.886 37.9743 34.262C37.9743 38.31 36.3903 41.566 33.2223 44.03C30.0543 46.45 25.3243 47.66 19.0323 47.66ZM57.0199 47V15.98H46.1959V4.496H83.8159V15.98H72.9919V47H57.0199ZM86.4791 47L102.847 4.496H119.413L135.781 47H119.149L116.113 39.08H106.147L103.111 47H86.4791ZM107.863 28.19H114.331L111.097 20.072L107.863 28.19ZM150.553 47V31.556L135.175 4.496H151.807L158.539 18.026L165.271 4.496H181.903L166.525 31.556V47H150.553ZM212.253 47V4.496H227.433L236.079 22.052L244.659 4.496H259.839V47H243.867V32.084L240.105 39.74H231.987L228.225 32.084V47H212.253ZM293.17 47.66C288.374 47.66 284.282 46.956 280.894 45.548C277.506 44.096 274.91 41.764 273.106 38.552C271.302 35.34 270.4 31.072 270.4 25.748C270.4 20.38 271.302 16.112 273.106 12.944C274.91 9.732 277.506 7.422 280.894 6.014C284.282 4.562 288.374 3.836 293.17 3.836C297.966 3.836 302.058 4.562 305.446 6.014C308.834 7.422 311.43 9.732 313.234 12.944C315.038 16.112 315.94 20.38 315.94 25.748C315.94 31.072 315.038 35.34 313.234 38.552C311.43 41.764 308.834 44.096 305.446 45.548C302.058 46.956 297.966 47.66 293.17 47.66ZM293.17 34.13C295.502 34.13 297.152 33.514 298.12 32.282C299.132 31.006 299.638 28.828 299.638 25.748C299.638 22.668 299.132 20.512 298.12 19.28C297.152 18.004 295.502 17.366 293.17 17.366C290.838 17.366 289.166 18.004 288.154 19.28C287.186 20.512 286.702 22.668 286.702 25.748C286.702 28.828 287.186 31.006 288.154 32.282C289.166 33.514 290.838 34.13 293.17 34.13ZM334.351 47V15.98H323.527V4.496H361.147V15.98H350.323V47H334.351ZM370.738 47V4.496H386.71V47H370.738ZM413.607 47L397.239 4.496H413.871L421.857 28.124L429.909 4.496H446.541L430.173 47H413.607ZM446.909 47L463.277 4.496H479.843L496.211 47H479.579L476.543 39.08H466.577L463.541 47H446.909ZM468.293 28.19H474.761L471.527 20.072L468.293 28.19ZM509.7 47V15.98H498.876V4.496H536.496V15.98H525.672V47H509.7ZM546.087 47V4.496H580.077V15.98H562.059V19.808H577.569V31.688H562.059V35.516H580.077V47H546.087ZM589.956 47V4.496H610.152C614.64 4.496 618.534 5.222 621.834 6.674C625.134 8.082 627.686 10.37 629.49 13.538C631.294 16.662 632.196 20.82 632.196 26.012C632.196 30.94 631.294 34.944 629.49 38.024C627.73 41.104 625.2 43.37 621.9 44.822C618.644 46.274 614.728 47 610.152 47H589.956ZM605.928 34.856H608.304C609.888 34.856 611.252 34.636 612.396 34.196C613.54 33.756 614.42 32.898 615.036 31.622C615.652 30.346 615.96 28.476 615.96 26.012C615.96 23.548 615.674 21.722 615.102 20.534C614.53 19.302 613.672 18.51 612.528 18.158C611.428 17.762 610.02 17.564 608.304 17.564H605.928V34.856ZM636.115 54.92L638.557 38.486H651.691L647.401 54.92H636.115ZM697.095 47.66C694.103 47.66 691.221 47.418 688.449 46.934C685.677 46.406 683.345 45.658 681.453 44.69V32.744C683.521 33.756 685.853 34.592 688.449 35.252C691.045 35.912 693.355 36.242 695.379 36.242C696.699 36.242 697.733 36.088 698.481 35.78C699.229 35.428 699.603 34.944 699.603 34.328C699.603 33.536 698.899 32.92 697.491 32.48C696.083 32.04 694.235 31.402 691.947 30.566C689.219 29.51 687.063 28.41 685.479 27.266C683.895 26.122 682.751 24.758 682.047 23.174C681.387 21.546 681.057 19.522 681.057 17.102C681.057 8.258 687.283 3.836 699.735 3.836C701.143 3.836 702.705 3.946 704.421 4.166C706.181 4.342 707.875 4.584 709.503 4.892C711.175 5.2 712.583 5.53 713.727 5.882V17.894C711.307 16.882 709.173 16.2 707.325 15.848C705.477 15.496 703.849 15.32 702.441 15.32C701.341 15.32 700.219 15.43 699.075 15.65C697.931 15.826 697.359 16.266 697.359 16.97C697.359 17.542 697.865 18.004 698.877 18.356C699.889 18.664 701.495 19.126 703.695 19.742C707.215 20.71 709.855 21.876 711.615 23.24C713.375 24.56 714.541 26.144 715.113 27.992C715.729 29.796 716.037 31.886 716.037 34.262C716.037 38.31 714.453 41.566 711.285 44.03C708.117 46.45 703.387 47.66 697.095 47.66ZM735.082 47V15.98H724.258V4.496H761.878V15.98H751.054V47H735.082ZM764.542 47L780.91 4.496H797.476L813.844 47H797.212L794.176 39.08H784.21L781.174 47H764.542ZM785.926 28.19H792.394L789.16 20.072L785.926 28.19ZM828.615 47V31.556L813.237 4.496H829.869L836.601 18.026L843.333 4.496H859.965L844.587 31.556V47H828.615ZM890.315 47V4.496H910.511C914.999 4.496 918.893 5.222 922.193 6.674C925.493 8.082 928.045 10.37 929.849 13.538C931.653 16.662 932.555 20.82 932.555 26.012C932.555 30.94 931.653 34.944 929.849 38.024C928.089 41.104 925.559 43.37 922.259 44.822C919.003 46.274 915.087 47 910.511 47H890.315ZM906.287 34.856H908.663C910.247 34.856 911.611 34.636 912.755 34.196C913.899 33.756 914.779 32.898 915.395 31.622C916.011 30.346 916.319 28.476 916.319 26.012C916.319 23.548 916.033 21.722 915.461 20.534C914.889 19.302 914.031 18.51 912.887 18.158C911.787 17.762 910.379 17.564 908.663 17.564H906.287V34.856ZM942.757 47V4.496H966.649C970.301 4.496 973.315 5.2 975.691 6.608C978.067 7.972 979.827 9.864 980.971 12.284C982.159 14.66 982.753 17.366 982.753 20.402C982.753 23.262 982.005 25.77 980.509 27.926C979.057 30.082 977.297 31.864 975.229 33.272C975.713 33.58 976.087 33.932 976.351 34.328C976.615 34.68 976.835 35.054 977.011 35.45L982.027 47H965.395L961.237 37.562C961.017 37.034 960.775 36.682 960.511 36.506C960.247 36.286 959.873 36.176 959.389 36.176H958.729V47H942.757ZM958.729 23.702H962.623C965.219 23.702 966.517 22.602 966.517 20.402C966.517 19.17 966.209 18.29 965.593 17.762C965.021 17.234 964.119 16.97 962.887 16.97H958.729V23.702ZM993.329 47V4.496H1009.3V47H993.329ZM1036.2 47L1019.83 4.496H1036.46L1044.45 28.124L1052.5 4.496H1069.13L1052.76 47H1036.2ZM1079.71 47V4.496H1113.7V15.98H1095.69V19.808H1111.2V31.688H1095.69V35.516H1113.7V47H1079.71ZM1123.58 47V4.496H1136.98L1148.86 21.128V4.496H1164.83V47H1151.37L1139.56 30.368V47H1123.58ZM1211.6 47.66C1208.61 47.66 1205.73 47.418 1202.96 46.934C1200.19 46.406 1197.85 45.658 1195.96 44.69V32.744C1198.03 33.756 1200.36 34.592 1202.96 35.252C1205.55 35.912 1207.86 36.242 1209.89 36.242C1211.21 36.242 1212.24 36.088 1212.99 35.78C1213.74 35.428 1214.11 34.944 1214.11 34.328C1214.11 33.536 1213.41 32.92 1212 32.48C1210.59 32.04 1208.74 31.402 1206.46 30.566C1203.73 29.51 1201.57 28.41 1199.99 27.266C1198.4 26.122 1197.26 24.758 1196.56 23.174C1195.9 21.546 1195.57 19.522 1195.57 17.102C1195.57 8.258 1201.79 3.836 1214.24 3.836C1215.65 3.836 1217.21 3.946 1218.93 4.166C1220.69 4.342 1222.38 4.584 1224.01 4.892C1225.68 5.2 1227.09 5.53 1228.24 5.882V17.894C1225.82 16.882 1223.68 16.2 1221.83 15.848C1219.99 15.496 1218.36 15.32 1216.95 15.32C1215.85 15.32 1214.73 15.43 1213.58 15.65C1212.44 15.826 1211.87 16.266 1211.87 16.97C1211.87 17.542 1212.37 18.004 1213.39 18.356C1214.4 18.664 1216 19.126 1218.2 19.742C1221.72 20.71 1224.36 21.876 1226.12 23.24C1227.88 24.56 1229.05 26.144 1229.62 27.992C1230.24 29.796 1230.55 31.886 1230.55 34.262C1230.55 38.31 1228.96 41.566 1225.79 44.03C1222.63 46.45 1217.9 47.66 1211.6 47.66ZM1249.59 47V15.98H1238.77V4.496H1276.39V15.98H1265.56V47H1249.59ZM1279.05 47L1295.42 4.496H1311.98L1328.35 47H1311.72L1308.68 39.08H1298.72L1295.68 47H1279.05ZM1300.43 28.19H1306.9L1303.67 20.072L1300.43 28.19ZM1343.12 47V31.556L1327.75 4.496H1344.38L1351.11 18.026L1357.84 4.496H1374.47L1359.1 31.556V47H1343.12ZM1404.82 47V4.496H1420L1428.65 22.052L1437.23 4.496H1452.41V47H1436.44V32.084L1432.68 39.74H1424.56L1420.8 32.084V47H1404.82ZM1485.74 47.66C1480.94 47.66 1476.85 46.956 1473.46 45.548C1470.08 44.096 1467.48 41.764 1465.68 38.552C1463.87 35.34 1462.97 31.072 1462.97 25.748C1462.97 20.38 1463.87 16.112 1465.68 12.944C1467.48 9.732 1470.08 7.422 1473.46 6.014C1476.85 4.562 1480.94 3.836 1485.74 3.836C1490.54 3.836 1494.63 4.562 1498.02 6.014C1501.4 7.422 1504 9.732 1505.8 12.944C1507.61 16.112 1508.51 20.38 1508.51 25.748C1508.51 31.072 1507.61 35.34 1505.8 38.552C1504 41.764 1501.4 44.096 1498.02 45.548C1494.63 46.956 1490.54 47.66 1485.74 47.66ZM1485.74 34.13C1488.07 34.13 1489.72 33.514 1490.69 32.282C1491.7 31.006 1492.21 28.828 1492.21 25.748C1492.21 22.668 1491.7 20.512 1490.69 19.28C1489.72 18.004 1488.07 17.366 1485.74 17.366C1483.41 17.366 1481.74 18.004 1480.72 19.28C1479.76 20.512 1479.27 22.668 1479.27 25.748C1479.27 28.828 1479.76 31.006 1480.72 32.282C1481.74 33.514 1483.41 34.13 1485.74 34.13ZM1526.92 47V15.98H1516.1V4.496H1553.72V15.98H1542.89V47H1526.92ZM1563.31 47V4.496H1579.28V47H1563.31ZM1606.18 47L1589.81 4.496H1606.44L1614.43 28.124L1622.48 4.496H1639.11L1622.74 47H1606.18ZM1639.48 47L1655.85 4.496H1672.41L1688.78 47H1672.15L1669.11 39.08H1659.15L1656.11 47H1639.48ZM1660.86 28.19H1667.33L1664.1 20.072L1660.86 28.19ZM1702.27 47V15.98H1691.45V4.496H1729.07V15.98H1718.24V47H1702.27ZM1738.66 47V4.496H1772.65V15.98H1754.63V19.808H1770.14V31.688H1754.63V35.516H1772.65V47H1738.66ZM1782.53 47V4.496H1802.72C1807.21 4.496 1811.11 5.222 1814.41 6.674C1817.71 8.082 1820.26 10.37 1822.06 13.538C1823.87 16.662 1824.77 20.82 1824.77 26.012C1824.77 30.94 1823.87 34.944 1822.06 38.024C1820.3 41.104 1817.77 43.37 1814.47 44.822C1811.22 46.274 1807.3 47 1802.72 47H1782.53ZM1798.5 34.856H1800.88C1802.46 34.856 1803.82 34.636 1804.97 34.196C1806.11 33.756 1806.99 32.898 1807.61 31.622C1808.22 30.346 1808.53 28.476 1808.53 26.012C1808.53 23.548 1808.25 21.722 1807.67 20.534C1807.1 19.302 1806.24 18.51 1805.1 18.158C1804 17.762 1802.59 17.564 1800.88 17.564H1798.5V34.856ZM1828.69 54.92L1831.13 38.486H1844.26L1839.97 54.92H1828.69ZM1889.67 47.66C1886.67 47.66 1883.79 47.418 1881.02 46.934C1878.25 46.406 1875.92 45.658 1874.02 44.69V32.744C1876.09 33.756 1878.42 34.592 1881.02 35.252C1883.62 35.912 1885.93 36.242 1887.95 36.242C1889.27 36.242 1890.3 36.088 1891.05 35.78C1891.8 35.428 1892.17 34.944 1892.17 34.328C1892.17 33.536 1891.47 32.92 1890.06 32.48C1888.65 32.04 1886.81 31.402 1884.52 30.566C1881.79 29.51 1879.63 28.41 1878.05 27.266C1876.47 26.122 1875.32 24.758 1874.62 23.174C1873.96 21.546 1873.63 19.522 1873.63 17.102C1873.63 8.258 1879.85 3.836 1892.31 3.836C1893.71 3.836 1895.28 3.946 1896.99 4.166C1898.75 4.342 1900.45 4.584 1902.07 4.892C1903.75 5.2 1905.15 5.53 1906.3 5.882V17.894C1903.88 16.882 1901.74 16.2 1899.9 15.848C1898.05 15.496 1896.42 15.32 1895.01 15.32C1893.91 15.32 1892.79 15.43 1891.65 15.65C1890.5 15.826 1889.93 16.266 1889.93 16.97C1889.93 17.542 1890.44 18.004 1891.45 18.356C1892.46 18.664 1894.07 19.126 1896.27 19.742C1899.79 20.71 1902.43 21.876 1904.19 23.24C1905.95 24.56 1907.11 26.144 1907.68 27.992C1908.3 29.796 1908.61 31.886 1908.61 34.262C1908.61 38.31 1907.02 41.566 1903.86 44.03C1900.69 46.45 1895.96 47.66 1889.67 47.66ZM1927.65 47V15.98H1916.83V4.496H1954.45V15.98H1943.63V47H1927.65ZM1957.11 47L1973.48 4.496H1990.05L2006.41 47H1989.78L1986.75 39.08H1976.78L1973.74 47H1957.11ZM1978.5 28.19H1984.96L1981.73 20.072L1978.5 28.19ZM2021.19 47V31.556L2005.81 4.496H2022.44L2029.17 18.026L2035.9 4.496H2052.54L2037.16 31.556V47H2021.19ZM2082.89 47V4.496H2103.08C2107.57 4.496 2111.46 5.222 2114.76 6.674C2118.06 8.082 2120.62 10.37 2122.42 13.538C2124.22 16.662 2125.13 20.82 2125.13 26.012C2125.13 30.94 2124.22 34.944 2122.42 38.024C2120.66 41.104 2118.13 43.37 2114.83 44.822C2111.57 46.274 2107.66 47 2103.08 47H2082.89ZM2098.86 34.856H2101.23C2102.82 34.856 2104.18 34.636 2105.33 34.196C2106.47 33.756 2107.35 32.898 2107.97 31.622C2108.58 30.346 2108.89 28.476 2108.89 26.012C2108.89 23.548 2108.6 21.722 2108.03 20.534C2107.46 19.302 2106.6 18.51 2105.46 18.158C2104.36 17.762 2102.95 17.564 2101.23 17.564H2098.86V34.856ZM2135.33 47V4.496H2159.22C2162.87 4.496 2165.89 5.2 2168.26 6.608C2170.64 7.972 2172.4 9.864 2173.54 12.284C2174.73 14.66 2175.32 17.366 2175.32 20.402C2175.32 23.262 2174.58 25.77 2173.08 27.926C2171.63 30.082 2169.87 31.864 2167.8 33.272C2168.28 33.58 2168.66 33.932 2168.92 34.328C2169.19 34.68 2169.41 35.054 2169.58 35.45L2174.6 47H2157.97L2153.81 37.562C2153.59 37.034 2153.35 36.682 2153.08 36.506C2152.82 36.286 2152.44 36.176 2151.96 36.176H2151.3V47H2135.33ZM2151.3 23.702H2155.19C2157.79 23.702 2159.09 22.602 2159.09 20.402C2159.09 19.17 2158.78 18.29 2158.16 17.762C2157.59 17.234 2156.69 16.97 2155.46 16.97H2151.3V23.702ZM2185.9 47V4.496H2201.87V47H2185.9ZM2228.77 47L2212.4 4.496H2229.03L2237.02 28.124L2245.07 4.496H2261.7L2245.34 47H2228.77ZM2272.29 47V4.496H2306.28V15.98H2288.26V19.808H2303.77V31.688H2288.26V35.516H2306.28V47H2272.29ZM2316.16 47V4.496H2329.55L2341.43 21.128V4.496H2357.41V47H2343.94L2332.13 30.368V47H2316.16Z"/>
</mask>
<path d="M10.3863 46.934L9.82495 49.881L9.8476 49.8853L9.87024 49.8893L10.3863 46.934ZM3.39026 44.69H0.390259V46.525L2.02386 47.3607L3.39026 44.69ZM3.39026 32.744L4.70892 30.0494L0.390259 27.936V32.744H3.39026ZM20.4183 35.78L21.5605 38.554L21.6288 38.5259L21.6957 38.4945L20.4183 35.78ZM19.4283 32.48L20.3231 29.6166L19.4283 32.48ZM13.8843 30.566L12.8013 33.3637L12.8279 33.374L12.8547 33.3838L13.8843 30.566ZM7.41626 27.266L9.17273 24.834V24.834L7.41626 27.266ZM3.98425 23.174L1.20404 24.3011L1.22272 24.3471L1.24286 24.3924L3.98425 23.174ZM26.3583 4.166L25.9768 7.14164L26.0182 7.14695L26.0598 7.15111L26.3583 4.166ZM31.4402 4.892L30.8826 7.83971L30.8897 7.84105L30.8968 7.84236L31.4402 4.892ZM35.6642 5.882H38.6642V3.66628L36.5465 3.01466L35.6642 5.882ZM35.6642 17.894L34.5068 20.6617L38.6642 22.4003V17.894H35.6642ZM29.2623 15.848L29.8236 12.901L29.2623 15.848ZM21.0123 15.65L21.4684 18.6151L21.5238 18.6066L21.5788 18.596L21.0123 15.65ZM20.8143 18.356L19.8287 21.1895L19.8844 21.2089L19.9408 21.226L20.8143 18.356ZM25.6323 19.742L24.8234 22.6309L24.8368 22.6346L25.6323 19.742ZM33.5522 23.24L31.7145 25.6112L31.7333 25.6258L31.7523 25.64L33.5522 23.24ZM37.0503 27.992L34.1844 28.8791L34.1972 28.9204L34.2112 28.9614L37.0503 27.992ZM33.2223 44.03L35.0434 46.414L35.0538 46.4061L35.0641 46.3981L33.2223 44.03ZM19.0323 44.66C16.2024 44.66 13.4935 44.4312 10.9023 43.9787L9.87024 49.8893C12.823 50.4048 15.8781 50.66 19.0323 50.66V44.66ZM10.9476 43.987C8.37 43.496 6.32733 42.8228 4.75671 42.0193L2.02386 47.3607C4.23718 48.4931 6.85852 49.316 9.82495 49.881L10.9476 43.987ZM6.39026 44.69V32.744H0.390259V44.69H6.39026ZM2.07159 35.4386C4.35211 36.5546 6.88269 37.4567 9.64709 38.1595L11.1255 32.3445C8.69781 31.7273 6.56445 30.9574 4.70892 30.0494L2.07159 35.4386ZM9.64709 38.1595C12.4119 38.8624 14.9777 39.242 17.3163 39.242V33.242C15.6069 33.242 13.5527 32.9616 11.1255 32.3445L9.64709 38.1595ZM17.3163 39.242C18.8115 39.242 20.2928 39.076 21.5605 38.554L19.276 33.006C19.0478 33.1 18.4611 33.242 17.3163 33.242V39.242ZM21.6957 38.4945C23.0707 37.8474 24.5403 36.5114 24.5403 34.328H18.5403C18.5403 33.9772 18.6639 33.606 18.8859 33.3187C19.0734 33.0761 19.2289 33.0241 19.1409 33.0655L21.6957 38.4945ZM24.5403 34.328C24.5403 32.9084 23.8612 31.7785 22.9878 31.0143C22.1927 30.3185 21.2208 29.8971 20.3231 29.6166L18.5334 35.3434C18.768 35.4167 18.9208 35.4814 19.0106 35.5263C19.1028 35.5724 19.0956 35.5812 19.0367 35.5297C18.9738 35.4746 18.8408 35.3401 18.725 35.1086C18.6033 34.8654 18.5403 34.5927 18.5403 34.328H24.5403ZM20.3231 29.6166C18.9799 29.1968 17.1819 28.5769 14.9139 27.7482L12.8547 33.3838C15.1627 34.2271 17.0607 34.8832 18.5334 35.3434L20.3231 29.6166ZM14.9673 27.7683C12.3725 26.7639 10.4733 25.7733 9.17273 24.834L5.65979 29.698C7.52722 31.0467 9.94006 32.2561 12.8013 33.3637L14.9673 27.7683ZM9.17273 24.834C7.96271 23.9601 7.18805 22.9959 6.72571 21.9556L1.24286 24.3924C2.18848 26.5201 3.70184 28.2839 5.65979 29.698L9.17273 24.834ZM6.76447 22.0469C6.29327 20.8846 5.99426 19.2718 5.99426 17.102H-0.0057373C-0.0057373 19.7722 0.355286 22.2074 1.20404 24.3011L6.76447 22.0469ZM5.99426 17.102C5.99426 13.4753 7.21381 11.1518 9.40094 9.59836C11.7767 7.91101 15.7104 6.836 21.6723 6.836V0.835997C15.1822 0.835997 9.77692 1.97198 5.92657 4.70663C1.88776 7.57522 -0.0057373 11.8847 -0.0057373 17.102H5.99426ZM21.6723 6.836C22.9278 6.836 24.3599 6.93435 25.9768 7.14164L26.7397 1.19035C24.9246 0.957643 23.2327 0.835997 21.6723 0.835997V6.836ZM26.0598 7.15111C27.7386 7.319 29.3459 7.54899 30.8826 7.83971L31.9979 1.94429C30.2786 1.61901 28.4979 1.365 26.6568 1.18089L26.0598 7.15111ZM30.8968 7.84236C32.4977 8.13726 33.7846 8.44244 34.782 8.74934L36.5465 3.01466C35.2559 2.61756 33.7269 2.26274 31.9838 1.94164L30.8968 7.84236ZM32.6642 5.882V17.894H38.6642V5.882H32.6642ZM36.8217 15.1263C34.2787 14.0628 31.9382 13.3038 29.8236 12.901L28.7009 18.795C30.2823 19.0962 32.2098 19.7012 34.5068 20.6617L36.8217 15.1263ZM29.8236 12.901C27.848 12.5247 26.0253 12.32 24.3783 12.32V18.32C25.5473 18.32 26.9805 18.4673 28.7009 18.795L29.8236 12.901ZM24.3783 12.32C23.0773 12.32 21.7655 12.4502 20.4457 12.704L21.5788 18.596C22.5471 18.4098 23.4792 18.32 24.3783 18.32V12.32ZM20.5561 12.6849C19.7552 12.8081 18.7552 13.0733 17.8961 13.7341C16.8936 14.5053 16.2963 15.6596 16.2963 16.97H22.2963C22.2963 17.2121 22.2439 17.5189 22.0868 17.8331C21.9309 18.145 21.7243 18.3592 21.5544 18.4899C21.2674 18.7107 21.1253 18.6679 21.4684 18.6151L20.5561 12.6849ZM16.2963 16.97C16.2963 18.2646 16.9113 19.2838 17.653 19.961C18.3274 20.5767 19.1318 20.9471 19.8287 21.1895L21.7999 15.5225C21.4847 15.4129 21.5302 15.3763 21.6986 15.53C21.7985 15.6213 21.9551 15.7927 22.0858 16.0597C22.2222 16.3383 22.2963 16.653 22.2963 16.97H16.2963ZM19.9408 21.226C20.9871 21.5445 22.6205 22.0141 24.8234 22.6309L26.4412 16.8531C24.244 16.2379 22.6654 15.7835 21.6877 15.486L19.9408 21.226ZM24.8368 22.6346C28.1899 23.5567 30.4003 24.5927 31.7145 25.6112L35.39 20.8688C33.1843 19.1593 30.1147 17.8633 26.4277 16.8494L24.8368 22.6346ZM31.7523 25.64C33.0787 26.6348 33.8245 27.716 34.1844 28.8791L39.9161 27.1049C39.1321 24.572 37.5458 22.4852 35.3523 20.84L31.7523 25.64ZM34.2112 28.9614C34.6981 30.3873 34.9742 32.1379 34.9742 34.262H40.9742C40.9742 31.6341 40.6345 29.2047 39.8893 27.0226L34.2112 28.9614ZM34.9742 34.262C34.9742 37.3936 33.8104 39.772 31.3804 41.6619L35.0641 46.3981C38.9702 43.36 40.9742 39.2264 40.9742 34.262H34.9742ZM31.4011 41.646C28.9816 43.4943 25.0213 44.66 19.0323 44.66V50.66C25.6273 50.66 31.127 49.4058 35.0434 46.414L31.4011 41.646ZM57.0199 47H54.0199V50H57.0199V47ZM57.0199 15.98H60.0199V12.98H57.0199V15.98ZM46.1959 15.98H43.1959V18.98H46.1959V15.98ZM46.1959 4.496V1.496H43.1959V4.496H46.1959ZM83.8159 4.496H86.8159V1.496H83.8159V4.496ZM83.8159 15.98V18.98H86.8159V15.98H83.8159ZM72.9919 15.98V12.98H69.9919V15.98H72.9919ZM72.9919 47V50H75.9919V47H72.9919ZM60.0199 47V15.98H54.0199V47H60.0199ZM57.0199 12.98H46.1959V18.98H57.0199V12.98ZM49.1959 15.98V4.496H43.1959V15.98H49.1959ZM46.1959 7.496H83.8159V1.496H46.1959V7.496ZM80.8159 4.496V15.98H86.8159V4.496H80.8159ZM83.8159 12.98H72.9919V18.98H83.8159V12.98ZM69.9919 15.98V47H75.9919V15.98H69.9919ZM72.9919 44H57.0199V50H72.9919V44ZM86.4791 47L83.6796 45.9219L82.1091 50H86.4791V47ZM102.847 4.496V1.496H100.788L100.048 3.41789L102.847 4.496ZM119.413 4.496L122.213 3.41789L121.473 1.496H119.413V4.496ZM135.781 47V50H140.151L138.581 45.9219L135.781 47ZM119.149 47L116.348 48.0738L117.086 50H119.149V47ZM116.113 39.08L118.914 38.0062L118.176 36.08H116.113V39.08ZM106.147 39.08V36.08H104.084L103.346 38.0062L106.147 39.08ZM103.111 47V50H105.174L105.912 48.0738L103.111 47ZM107.863 28.19L105.076 27.0797L103.439 31.19H107.863V28.19ZM114.331 28.19V31.19H118.755L117.118 27.0797L114.331 28.19ZM111.097 20.072L113.884 18.9617L111.097 11.9658L108.31 18.9617L111.097 20.072ZM89.2787 48.0781L105.647 5.5741L100.048 3.41789L83.6796 45.9219L89.2787 48.0781ZM102.847 7.496H119.413V1.496H102.847V7.496ZM116.614 5.5741L132.982 48.0781L138.581 45.9219L122.213 3.41789L116.614 5.5741ZM135.781 44H119.149V50H135.781V44ZM121.95 45.9262L118.914 38.0062L113.312 40.1538L116.348 48.0738L121.95 45.9262ZM116.113 36.08H106.147V42.08H116.113V36.08ZM103.346 38.0062L100.31 45.9262L105.912 48.0738L108.948 40.1538L103.346 38.0062ZM103.111 44H86.4791V50H103.111V44ZM107.863 31.19H114.331V25.19H107.863V31.19ZM117.118 27.0797L113.884 18.9617L108.31 21.1823L111.544 29.3003L117.118 27.0797ZM108.31 18.9617L105.076 27.0797L110.65 29.3003L113.884 21.1823L108.31 18.9617ZM150.553 47H147.553V50H150.553V47ZM150.553 31.556H153.553V30.7631L153.161 30.0738L150.553 31.556ZM135.175 4.496V1.496H130.019L132.567 5.97824L135.175 4.496ZM151.807 4.496L154.493 3.1596L153.665 1.496H151.807V4.496ZM158.539 18.026L155.853 19.3624L158.539 24.7605L161.225 19.3624L158.539 18.026ZM165.271 4.496V1.496H163.413L162.585 3.1596L165.271 4.496ZM181.903 4.496L184.511 5.97824L187.058 1.496H181.903V4.496ZM166.525 31.556L163.917 30.0738L163.525 30.7631V31.556H166.525ZM166.525 47V50H169.525V47H166.525ZM153.553 47V31.556H147.553V47H153.553ZM153.161 30.0738L137.783 3.01375L132.567 5.97824L147.945 33.0382L153.161 30.0738ZM135.175 7.496H151.807V1.496H135.175V7.496ZM149.121 5.83239L155.853 19.3624L161.225 16.6896L154.493 3.1596L149.121 5.83239ZM161.225 19.3624L167.957 5.83239L162.585 3.1596L155.853 16.6896L161.225 19.3624ZM165.271 7.496H181.903V1.496H165.271V7.496ZM179.295 3.01375L163.917 30.0738L169.133 33.0382L184.511 5.97824L179.295 3.01375ZM163.525 31.556V47H169.525V31.556H163.525ZM166.525 44H150.553V50H166.525V44ZM212.253 47H209.253V50H212.253V47ZM212.253 4.496V1.496H209.253V4.496H212.253ZM227.433 4.496L230.124 3.17057L229.3 1.496H227.433V4.496ZM236.079 22.052L233.388 23.3774L236.089 28.8632L238.774 23.3693L236.079 22.052ZM244.659 4.496V1.496H242.786L241.964 3.17873L244.659 4.496ZM259.839 4.496H262.839V1.496H259.839V4.496ZM259.839 47V50H262.839V47H259.839ZM243.867 47H240.867V50H243.867V47ZM243.867 32.084H246.867L241.174 30.761L243.867 32.084ZM240.105 39.74V42.74H241.974L242.797 41.063L240.105 39.74ZM231.987 39.74L229.294 41.063L230.119 42.74H231.987V39.74ZM228.225 32.084L230.917 30.761L225.225 32.084H228.225ZM228.225 47V50H231.225V47H228.225ZM215.253 47V4.496H209.253V47H215.253ZM212.253 7.496H227.433V1.496H212.253V7.496ZM224.742 5.82142L233.388 23.3774L238.77 20.7266L230.124 3.17057L224.742 5.82142ZM238.774 23.3693L247.354 5.81326L241.964 3.17873L233.384 20.7347L238.774 23.3693ZM244.659 7.496H259.839V1.496H244.659V7.496ZM256.839 4.496V47H262.839V4.496H256.839ZM259.839 44H243.867V50H259.839V44ZM246.867 47V32.084H240.867V47H246.867ZM241.174 30.761L237.412 38.417L242.797 41.063L246.559 33.407L241.174 30.761ZM240.105 36.74H231.987V42.74H240.105V36.74ZM234.679 38.417L230.917 30.761L225.532 33.407L229.294 41.063L234.679 38.417ZM225.225 32.084V47H231.225V32.084H225.225ZM228.225 44H212.253V50H228.225V44ZM280.894 45.548L279.712 48.3054L279.727 48.3119L279.743 48.3183L280.894 45.548ZM273.106 38.552L275.722 37.0829L273.106 38.552ZM273.106 12.944L275.713 14.4285L275.717 14.4208L275.722 14.4131L273.106 12.944ZM280.894 6.014L282.045 8.78429L282.06 8.77795L282.076 8.77143L280.894 6.014ZM305.446 6.014L304.264 8.77143L304.279 8.77795L304.295 8.78429L305.446 6.014ZM313.234 12.944L310.618 14.4131L310.623 14.4208L310.627 14.4285L313.234 12.944ZM313.234 38.552L310.618 37.0829L313.234 38.552ZM305.446 45.548L306.597 48.3183L306.612 48.3119L306.628 48.3054L305.446 45.548ZM298.12 32.282L295.769 30.4178L295.761 30.4285L298.12 32.282ZM298.12 19.28L295.73 21.0932L295.765 21.1394L295.802 21.1842L298.12 19.28ZM288.154 19.28L285.803 17.4158L285.795 17.4265L288.154 19.28ZM288.154 32.282L285.764 34.0952L285.799 34.1414L285.836 34.1862L288.154 32.282ZM293.17 44.66C288.654 44.66 284.975 43.9953 282.045 42.7777L279.743 48.3183C283.589 49.9167 288.094 50.66 293.17 50.66V44.66ZM282.076 42.7906C279.294 41.5984 277.202 39.7191 275.722 37.0829L270.49 40.0211C272.618 43.8089 275.718 46.5936 279.712 48.3054L282.076 42.7906ZM275.722 37.0829C274.257 34.4755 273.4 30.7721 273.4 25.748H267.4C267.4 31.3719 268.347 36.2045 270.49 40.0211L275.722 37.0829ZM273.4 25.748C273.4 20.6715 274.26 16.9798 275.713 14.4285L270.499 11.4595C268.344 15.2442 267.4 20.0885 267.4 25.748H273.4ZM275.722 14.4131C277.198 11.7839 279.28 9.93349 282.045 8.78429L279.743 3.2437C275.732 4.9105 272.622 7.68014 270.49 11.4749L275.722 14.4131ZM282.076 8.77143C284.996 7.51984 288.663 6.836 293.17 6.836V0.835997C288.084 0.835997 283.568 1.60416 279.712 3.25656L282.076 8.77143ZM293.17 6.836C297.676 6.836 301.344 7.51984 304.264 8.77143L306.628 3.25656C302.772 1.60416 298.255 0.835997 293.17 0.835997V6.836ZM304.295 8.78429C307.06 9.93349 309.142 11.7839 310.618 14.4131L315.85 11.4749C313.718 7.68014 310.608 4.9105 306.597 3.2437L304.295 8.78429ZM310.627 14.4285C312.08 16.9798 312.94 20.6715 312.94 25.748H318.94C318.94 20.0885 317.996 15.2442 315.841 11.4595L310.627 14.4285ZM312.94 25.748C312.94 30.7721 312.083 34.4755 310.618 37.0829L315.85 40.0211C317.993 36.2045 318.94 31.3719 318.94 25.748H312.94ZM310.618 37.0829C309.138 39.7191 307.046 41.5984 304.264 42.7906L306.628 48.3054C310.622 46.5936 313.722 43.8089 315.85 40.0211L310.618 37.0829ZM304.295 42.7777C301.365 43.9953 297.686 44.66 293.17 44.66V50.66C298.245 50.66 302.751 49.9167 306.597 48.3183L304.295 42.7777ZM293.17 37.13C295.959 37.13 298.707 36.3909 300.479 34.1355L295.761 30.4285C295.597 30.6371 295.045 31.13 293.17 31.13V37.13ZM300.47 34.1462C302.141 32.0399 302.638 28.983 302.638 25.748H296.638C296.638 28.673 296.123 29.9721 295.769 30.4178L300.47 34.1462ZM302.638 25.748C302.638 22.53 302.148 19.4569 300.438 17.3758L295.802 21.1842C296.116 21.5671 296.638 22.806 296.638 25.748H302.638ZM300.51 17.4668C298.75 15.1468 295.992 14.366 293.17 14.366V20.366C295.011 20.366 295.554 20.8612 295.73 21.0932L300.51 17.4668ZM293.17 14.366C290.336 14.366 287.6 15.1511 285.803 17.4158L290.504 21.1442C290.732 20.8569 291.34 20.366 293.17 20.366V14.366ZM285.795 17.4265C284.167 19.4991 283.702 22.5464 283.702 25.748H289.702C289.702 22.7896 290.205 21.5249 290.513 21.1335L285.795 17.4265ZM283.702 25.748C283.702 28.9668 284.173 31.9983 285.764 34.0952L290.544 30.4688C290.199 30.0137 289.702 28.6892 289.702 25.748H283.702ZM285.836 34.1862C287.643 36.386 290.368 37.13 293.17 37.13V31.13C291.308 31.13 290.689 30.642 290.472 30.3778L285.836 34.1862ZM334.351 47H331.351V50H334.351V47ZM334.351 15.98H337.351V12.98H334.351V15.98ZM323.527 15.98H320.527V18.98H323.527V15.98ZM323.527 4.496V1.496H320.527V4.496H323.527ZM361.147 4.496H364.147V1.496H361.147V4.496ZM361.147 15.98V18.98H364.147V15.98H361.147ZM350.323 15.98V12.98H347.323V15.98H350.323ZM350.323 47V50H353.323V47H350.323ZM337.351 47V15.98H331.351V47H337.351ZM334.351 12.98H323.527V18.98H334.351V12.98ZM326.527 15.98V4.496H320.527V15.98H326.527ZM323.527 7.496H361.147V1.496H323.527V7.496ZM358.147 4.496V15.98H364.147V4.496H358.147ZM361.147 12.98H350.323V18.98H361.147V12.98ZM347.323 15.98V47H353.323V15.98H347.323ZM350.323 44H334.351V50H350.323V44ZM370.738 47H367.738V50H370.738V47ZM370.738 4.496V1.496H367.738V4.496H370.738ZM386.71 4.496H389.71V1.496H386.71V4.496ZM386.71 47V50H389.71V47H386.71ZM373.738 47V4.496H367.738V47H373.738ZM370.738 7.496H386.71V1.496H370.738V7.496ZM383.71 4.496V47H389.71V4.496H383.71ZM386.71 44H370.738V50H386.71V44ZM413.607 47L410.807 48.0781L411.547 50H413.607V47ZM397.239 4.496V1.496H392.869L394.439 5.5741L397.239 4.496ZM413.87 4.496L416.713 3.53541L416.023 1.496H413.87V4.496ZM421.857 28.124L419.015 29.0846L421.845 37.4587L424.696 29.0917L421.857 28.124ZM429.909 4.496V1.496H427.761L427.069 3.5283L429.909 4.496ZM446.541 4.496L449.34 5.5741L450.911 1.496H446.541V4.496ZM430.172 47V50H432.232L432.972 48.0781L430.172 47ZM416.406 45.9219L400.038 3.41789L394.439 5.5741L410.807 48.0781L416.406 45.9219ZM397.239 7.496H413.87V1.496H397.239V7.496ZM411.028 5.45658L419.015 29.0846L424.699 27.1634L416.713 3.53541L411.028 5.45658ZM424.696 29.0917L432.748 5.4637L427.069 3.5283L419.017 27.1563L424.696 29.0917ZM429.909 7.496H446.541V1.496H429.909V7.496ZM443.741 3.41789L427.373 45.9219L432.972 48.0781L449.34 5.5741L443.741 3.41789ZM430.172 44H413.607V50H430.172V44ZM446.909 47L444.109 45.9219L442.539 50H446.909V47ZM463.277 4.496V1.496H461.217L460.477 3.41789L463.277 4.496ZM479.843 4.496L482.642 3.41789L481.902 1.496H479.843V4.496ZM496.211 47V50H500.581L499.01 45.9219L496.211 47ZM479.579 47L476.777 48.0738L477.516 50H479.579V47ZM476.543 39.08L479.344 38.0062L478.606 36.08H476.543V39.08ZM466.577 39.08V36.08H464.514L463.776 38.0062L466.577 39.08ZM463.541 47V50H465.604L466.342 48.0738L463.541 47ZM468.293 28.19L465.506 27.0797L463.868 31.19H468.293V28.19ZM474.761 28.19V31.19H479.185L477.548 27.0797L474.761 28.19ZM471.527 20.072L474.314 18.9617L471.527 11.9658L468.74 18.9617L471.527 20.072ZM449.708 48.0781L466.076 5.5741L460.477 3.41789L444.109 45.9219L449.708 48.0781ZM463.277 7.496H479.843V1.496H463.277V7.496ZM477.043 5.5741L493.411 48.0781L499.01 45.9219L482.642 3.41789L477.043 5.5741ZM496.211 44H479.579V50H496.211V44ZM482.38 45.9262L479.344 38.0062L473.741 40.1538L476.777 48.0738L482.38 45.9262ZM476.543 36.08H466.577V42.08H476.543V36.08ZM463.776 38.0062L460.74 45.9262L466.342 48.0738L469.378 40.1538L463.776 38.0062ZM463.541 44H446.909V50H463.541V44ZM468.293 31.19H474.761V25.19H468.293V31.19ZM477.548 27.0797L474.314 18.9617L468.74 21.1823L471.974 29.3003L477.548 27.0797ZM468.74 18.9617L465.506 27.0797L471.08 29.3003L474.314 21.1823L468.74 18.9617ZM509.7 47H506.7V50H509.7V47ZM509.7 15.98H512.7V12.98H509.7V15.98ZM498.876 15.98H495.876V18.98H498.876V15.98ZM498.876 4.496V1.496H495.876V4.496H498.876ZM536.496 4.496H539.496V1.496H536.496V4.496ZM536.496 15.98V18.98H539.496V15.98H536.496ZM525.672 15.98V12.98H522.672V15.98H525.672ZM525.672 47V50H528.672V47H525.672ZM512.7 47V15.98H506.7V47H512.7ZM509.7 12.98H498.876V18.98H509.7V12.98ZM501.876 15.98V4.496H495.876V15.98H501.876ZM498.876 7.496H536.496V1.496H498.876V7.496ZM533.496 4.496V15.98H539.496V4.496H533.496ZM536.496 12.98H525.672V18.98H536.496V12.98ZM522.672 15.98V47H528.672V15.98H522.672ZM525.672 44H509.7V50H525.672V44ZM546.087 47H543.087V50H546.087V47ZM546.087 4.496V1.496H543.087V4.496H546.087ZM580.077 4.496H583.077V1.496H580.077V4.496ZM580.077 15.98V18.98H583.077V15.98H580.077ZM562.059 15.98V12.98H559.059V15.98H562.059ZM562.059 19.808H559.059V22.808H562.059V19.808ZM577.569 19.808H580.569V16.808H577.569V19.808ZM577.569 31.688V34.688H580.569V31.688H577.569ZM562.059 31.688V28.688H559.059V31.688H562.059ZM562.059 35.516H559.059V38.516H562.059V35.516ZM580.077 35.516H583.077V32.516H580.077V35.516ZM580.077 47V50H583.077V47H580.077ZM549.087 47V4.496H543.087V47H549.087ZM546.087 7.496H580.077V1.496H546.087V7.496ZM577.077 4.496V15.98H583.077V4.496H577.077ZM580.077 12.98H562.059V18.98H580.077V12.98ZM559.059 15.98V19.808H565.059V15.98H559.059ZM562.059 22.808H577.569V16.808H562.059V22.808ZM574.569 19.808V31.688H580.569V19.808H574.569ZM577.569 28.688H562.059V34.688H577.569V28.688ZM559.059 31.688V35.516H565.059V31.688H559.059ZM562.059 38.516H580.077V32.516H562.059V38.516ZM577.077 35.516V47H583.077V35.516H577.077ZM580.077 44H546.087V50H580.077V44ZM589.956 47H586.956V50H589.956V47ZM589.956 4.496V1.496H586.956V4.496H589.956ZM621.834 6.674L620.626 9.41994L620.641 9.42673L620.657 9.43334L621.834 6.674ZM629.49 13.538L626.883 15.0225L626.888 15.0304L626.892 15.0382L629.49 13.538ZM629.49 38.024L626.901 36.5078L626.893 36.5216L626.885 36.5356L629.49 38.024ZM621.9 44.822L620.692 42.0761L620.685 42.0791L620.678 42.0821L621.9 44.822ZM605.928 34.856H602.928V37.856H605.928V34.856ZM612.396 34.196L613.473 36.996L612.396 34.196ZM615.036 31.622L617.738 32.9262L615.036 31.622ZM615.102 20.534L612.381 21.7973L612.39 21.8165L612.399 21.8354L615.102 20.534ZM612.528 18.158L611.512 20.9807L611.578 21.0046L611.646 21.0253L612.528 18.158ZM605.928 17.564V14.564H602.928V17.564H605.928ZM592.956 47V4.496H586.956V47H592.956ZM589.956 7.496H610.152V1.496H589.956V7.496ZM610.152 7.496C614.323 7.496 617.788 8.17116 620.626 9.41994L623.042 3.92806C619.28 2.27283 614.957 1.496 610.152 1.496V7.496ZM620.657 9.43334C623.343 10.5796 625.398 12.4143 626.883 15.0225L632.097 12.0535C629.974 8.32565 626.925 5.5844 623.011 3.91466L620.657 9.43334ZM626.892 15.0382C628.342 17.5488 629.196 21.1291 629.196 26.012H635.196C635.196 20.5109 634.246 15.7752 632.088 12.0378L626.892 15.0382ZM629.196 26.012C629.196 30.601 628.352 34.0303 626.901 36.5078L632.079 39.5402C634.235 35.8577 635.196 31.279 635.196 26.012H629.196ZM626.885 36.5356C625.45 39.0479 623.414 40.8783 620.692 42.0761L623.108 47.5679C626.986 45.8617 630.01 43.1601 632.095 39.5124L626.885 36.5356ZM620.678 42.0821C617.899 43.3213 614.422 44 610.152 44V50C615.034 50 619.389 49.2267 623.122 47.5619L620.678 42.0821ZM610.152 44H589.956V50H610.152V44ZM605.928 37.856H608.304V31.856H605.928V37.856ZM608.304 37.856C610.154 37.856 611.901 37.6006 613.473 36.996L611.319 31.396C610.603 31.6714 609.622 31.856 608.304 31.856V37.856ZM613.473 36.996C615.44 36.2395 616.845 34.7744 617.738 32.9262L612.334 30.3178C611.995 31.0216 611.64 31.2724 611.319 31.396L613.473 36.996ZM617.738 32.9262C618.645 31.0465 618.96 28.6408 618.96 26.012H612.96C612.96 28.3112 612.659 29.6455 612.334 30.3178L617.738 32.9262ZM618.96 26.012C618.96 23.423 618.677 21.0429 617.805 19.2326L612.399 21.8354C612.671 22.4011 612.96 23.673 612.96 26.012H618.96ZM617.823 19.2707C616.947 17.3828 615.481 15.9277 613.41 15.2907L611.646 21.0253C611.863 21.0923 612.114 21.2212 612.381 21.7973L617.823 19.2707ZM613.544 15.3353C612.004 14.7808 610.219 14.564 608.304 14.564V20.564C609.821 20.564 610.852 20.7432 611.512 20.9807L613.544 15.3353ZM608.304 14.564H605.928V20.564H608.304V14.564ZM602.928 17.564V34.856H608.928V17.564H602.928ZM636.115 54.92L633.147 54.4791L632.636 57.92H636.115V54.92ZM638.557 38.486V35.486H635.97L635.589 38.0451L638.557 38.486ZM651.691 38.486L654.594 39.2437L655.574 35.486H651.691V38.486ZM647.401 54.92V57.92H649.718L650.303 55.6777L647.401 54.92ZM639.082 55.3609L641.524 38.9269L635.589 38.0451L633.147 54.4791L639.082 55.3609ZM638.557 41.486H651.691V35.486H638.557V41.486ZM648.788 37.7283L644.498 54.1623L650.303 55.6777L654.594 39.2437L648.788 37.7283ZM647.401 51.92H636.115V57.92H647.401V51.92ZM688.449 46.934L687.887 49.881L687.91 49.8853L687.933 49.8893L688.449 46.934ZM681.453 44.69H678.453V46.525L680.086 47.3607L681.453 44.69ZM681.453 32.744L682.771 30.0494L678.453 27.936V32.744H681.453ZM698.481 35.78L699.623 38.554L699.691 38.5259L699.758 38.4945L698.481 35.78ZM697.491 32.48L698.385 29.6166L697.491 32.48ZM691.947 30.566L690.864 33.3637L690.89 33.374L690.917 33.3838L691.947 30.566ZM685.479 27.266L687.235 24.834V24.834L685.479 27.266ZM682.047 23.174L679.266 24.3011L679.285 24.3471L679.305 24.3924L682.047 23.174ZM704.421 4.166L704.039 7.14164L704.081 7.14695L704.122 7.15111L704.421 4.166ZM709.503 4.892L708.945 7.83971L708.952 7.84105L708.959 7.84236L709.503 4.892ZM713.727 5.882H716.727V3.66628L714.609 3.01466L713.727 5.882ZM713.727 17.894L712.569 20.6617L716.727 22.4003V17.894H713.727ZM707.325 15.848L707.886 12.901L707.325 15.848ZM699.075 15.65L699.531 18.6151L699.586 18.6066L699.641 18.596L699.075 15.65ZM698.877 18.356L697.891 21.1895L697.947 21.2089L698.003 21.226L698.877 18.356ZM703.695 19.742L702.886 22.6309L702.899 22.6346L703.695 19.742ZM711.615 23.24L709.777 25.6112L709.796 25.6258L709.815 25.64L711.615 23.24ZM715.113 27.992L712.247 28.8791L712.26 28.9204L712.274 28.9614L715.113 27.992ZM711.285 44.03L713.106 46.414L713.116 46.4061L713.126 46.3981L711.285 44.03ZM697.095 44.66C694.265 44.66 691.556 44.4312 688.965 43.9787L687.933 49.8893C690.885 50.4048 693.941 50.66 697.095 50.66V44.66ZM689.01 43.987C686.432 43.496 684.39 42.8228 682.819 42.0193L680.086 47.3607C682.3 48.4931 684.921 49.316 687.887 49.881L689.01 43.987ZM684.453 44.69V32.744H678.453V44.69H684.453ZM680.134 35.4386C682.414 36.5546 684.945 37.4567 687.709 38.1595L689.188 32.3445C686.76 31.7273 684.627 30.9574 682.771 30.0494L680.134 35.4386ZM687.709 38.1595C690.474 38.8624 693.04 39.242 695.379 39.242V33.242C693.669 33.242 691.615 32.9616 689.188 32.3445L687.709 38.1595ZM695.379 39.242C696.874 39.242 698.355 39.076 699.623 38.554L697.338 33.006C697.11 33.1 696.523 33.242 695.379 33.242V39.242ZM699.758 38.4945C701.133 37.8474 702.603 36.5114 702.603 34.328H696.603C696.603 33.9772 696.726 33.606 696.948 33.3187C697.136 33.0761 697.291 33.0241 697.203 33.0655L699.758 38.4945ZM702.603 34.328C702.603 32.9084 701.924 31.7785 701.05 31.0143C700.255 30.3185 699.283 29.8971 698.385 29.6166L696.596 35.3434C696.83 35.4167 696.983 35.4814 697.073 35.5263C697.165 35.5724 697.158 35.5812 697.099 35.5297C697.036 35.4746 696.903 35.3401 696.787 35.1086C696.666 34.8654 696.603 34.5927 696.603 34.328H702.603ZM698.385 29.6166C697.042 29.1968 695.244 28.5769 692.976 27.7482L690.917 33.3838C693.225 34.2271 695.123 34.8832 696.596 35.3434L698.385 29.6166ZM693.03 27.7683C690.435 26.7639 688.536 25.7733 687.235 24.834L683.722 29.698C685.59 31.0467 688.002 32.2561 690.864 33.3637L693.03 27.7683ZM687.235 24.834C686.025 23.9601 685.25 22.9959 684.788 21.9556L679.305 24.3924C680.251 26.5201 681.764 28.2839 683.722 29.698L687.235 24.834ZM684.827 22.0469C684.356 20.8846 684.057 19.2718 684.057 17.102H678.057C678.057 19.7722 678.418 22.2074 679.266 24.3011L684.827 22.0469ZM684.057 17.102C684.057 13.4753 685.276 11.1518 687.463 9.59836C689.839 7.91101 693.773 6.836 699.735 6.836V0.835997C693.245 0.835997 687.839 1.97198 683.989 4.70663C679.95 7.57522 678.057 11.8847 678.057 17.102H684.057ZM699.735 6.836C700.99 6.836 702.422 6.93435 704.039 7.14164L704.802 1.19035C702.987 0.957643 701.295 0.835997 699.735 0.835997V6.836ZM704.122 7.15111C705.801 7.319 707.408 7.54899 708.945 7.83971L710.06 1.94429C708.341 1.61901 706.56 1.365 704.719 1.18089L704.122 7.15111ZM708.959 7.84236C710.56 8.13726 711.847 8.44244 712.844 8.74934L714.609 3.01466C713.318 2.61756 711.789 2.26274 710.046 1.94164L708.959 7.84236ZM710.727 5.882V17.894H716.727V5.882H710.727ZM714.884 15.1263C712.341 14.0628 710.001 13.3038 707.886 12.901L706.763 18.795C708.345 19.0962 710.272 19.7012 712.569 20.6617L714.884 15.1263ZM707.886 12.901C705.91 12.5247 704.088 12.32 702.441 12.32V18.32C703.61 18.32 705.043 18.4673 706.763 18.795L707.886 12.901ZM702.441 12.32C701.14 12.32 699.828 12.4502 698.508 12.704L699.641 18.596C700.609 18.4098 701.542 18.32 702.441 18.32V12.32ZM698.619 12.6849C697.818 12.8081 696.818 13.0733 695.958 13.7341C694.956 14.5053 694.359 15.6596 694.359 16.97H700.359C700.359 17.2121 700.306 17.5189 700.149 17.8331C699.993 18.145 699.787 18.3592 699.617 18.4899C699.33 18.7107 699.188 18.6679 699.531 18.6151L698.619 12.6849ZM694.359 16.97C694.359 18.2646 694.974 19.2838 695.715 19.961C696.39 20.5767 697.194 20.9471 697.891 21.1895L699.862 15.5225C699.547 15.4129 699.593 15.3763 699.761 15.53C699.861 15.6213 700.017 15.7927 700.148 16.0597C700.285 16.3383 700.359 16.653 700.359 16.97H694.359ZM698.003 21.226C699.049 21.5445 700.683 22.0141 702.886 22.6309L704.504 16.8531C702.306 16.2379 700.728 15.7835 699.75 15.486L698.003 21.226ZM702.899 22.6346C706.252 23.5567 708.463 24.5927 709.777 25.6112L713.452 20.8688C711.247 19.1593 708.177 17.8633 704.49 16.8494L702.899 22.6346ZM709.815 25.64C711.141 26.6348 711.887 27.716 712.247 28.8791L717.979 27.1049C717.194 24.572 715.608 22.4852 713.415 20.84L709.815 25.64ZM712.274 28.9614C712.76 30.3873 713.037 32.1379 713.037 34.262H719.037C719.037 31.6341 718.697 29.2047 717.952 27.0226L712.274 28.9614ZM713.037 34.262C713.037 37.3936 711.873 39.772 709.443 41.6619L713.126 46.3981C717.033 43.36 719.037 39.2264 719.037 34.262H713.037ZM709.464 41.646C707.044 43.4943 703.084 44.66 697.095 44.66V50.66C703.69 50.66 709.189 49.4058 713.106 46.414L709.464 41.646ZM735.082 47H732.082V50H735.082V47ZM735.082 15.98H738.082V12.98H735.082V15.98ZM724.258 15.98H721.258V18.98H724.258V15.98ZM724.258 4.496V1.496H721.258V4.496H724.258ZM761.878 4.496H764.878V1.496H761.878V4.496ZM761.878 15.98V18.98H764.878V15.98H761.878ZM751.054 15.98V12.98H748.054V15.98H751.054ZM751.054 47V50H754.054V47H751.054ZM738.082 47V15.98H732.082V47H738.082ZM735.082 12.98H724.258V18.98H735.082V12.98ZM727.258 15.98V4.496H721.258V15.98H727.258ZM724.258 7.496H761.878V1.496H724.258V7.496ZM758.878 4.496V15.98H764.878V4.496H758.878ZM761.878 12.98H751.054V18.98H761.878V12.98ZM748.054 15.98V47H754.054V15.98H748.054ZM751.054 44H735.082V50H751.054V44ZM764.542 47L761.742 45.9219L760.172 50H764.542V47ZM780.91 4.496V1.496H778.85L778.11 3.41789L780.91 4.496ZM797.475 4.496L800.275 3.41789L799.535 1.496H797.475V4.496ZM813.844 47V50H818.214L816.643 45.9219L813.844 47ZM797.212 47L794.41 48.0738L795.149 50H797.212V47ZM794.176 39.08L796.977 38.0062L796.238 36.08H794.176V39.08ZM784.209 39.08V36.08H782.147L781.408 38.0062L784.209 39.08ZM781.173 47V50H783.236L783.975 48.0738L781.173 47ZM785.926 28.19L783.139 27.0797L781.501 31.19H785.926V28.19ZM792.394 28.19V31.19H796.818L795.181 27.0797L792.394 28.19ZM789.16 20.072L791.947 18.9617L789.16 11.9658L786.373 18.9617L789.16 20.072ZM767.341 48.0781L783.709 5.5741L778.11 3.41789L761.742 45.9219L767.341 48.0781ZM780.91 7.496H797.475V1.496H780.91V7.496ZM794.676 5.5741L811.044 48.0781L816.643 45.9219L800.275 3.41789L794.676 5.5741ZM813.844 44H797.212V50H813.844V44ZM800.013 45.9262L796.977 38.0062L791.374 40.1538L794.41 48.0738L800.013 45.9262ZM794.176 36.08H784.209V42.08H794.176V36.08ZM781.408 38.0062L778.372 45.9262L783.975 48.0738L787.011 40.1538L781.408 38.0062ZM781.173 44H764.542V50H781.173V44ZM785.926 31.19H792.394V25.19H785.926V31.19ZM795.181 27.0797L791.947 18.9617L786.373 21.1823L789.607 29.3003L795.181 27.0797ZM786.373 18.9617L783.139 27.0797L788.713 29.3003L791.947 21.1823L786.373 18.9617ZM828.615 47H825.615V50H828.615V47ZM828.615 31.556H831.615V30.7631L831.223 30.0738L828.615 31.556ZM813.237 4.496V1.496H808.082L810.629 5.97824L813.237 4.496ZM829.869 4.496L832.555 3.1596L831.727 1.496H829.869V4.496ZM836.601 18.026L833.915 19.3624L836.601 24.7605L839.287 19.3624L836.601 18.026ZM843.333 4.496V1.496H841.475L840.647 3.1596L843.333 4.496ZM859.965 4.496L862.573 5.97824L865.121 1.496H859.965V4.496ZM844.587 31.556L841.979 30.0738L841.587 30.7631V31.556H844.587ZM844.587 47V50H847.587V47H844.587ZM831.615 47V31.556H825.615V47H831.615ZM831.223 30.0738L815.845 3.01375L810.629 5.97824L826.007 33.0382L831.223 30.0738ZM813.237 7.496H829.869V1.496H813.237V7.496ZM827.183 5.83239L833.915 19.3624L839.287 16.6896L832.555 3.1596L827.183 5.83239ZM839.287 19.3624L846.019 5.83239L840.647 3.1596L833.915 16.6896L839.287 19.3624ZM843.333 7.496H859.965V1.496H843.333V7.496ZM857.357 3.01375L841.979 30.0738L847.195 33.0382L862.573 5.97824L857.357 3.01375ZM841.587 31.556V47H847.587V31.556H841.587ZM844.587 44H828.615V50H844.587V44ZM890.315 47H887.315V50H890.315V47ZM890.315 4.496V1.496H887.315V4.496H890.315ZM922.193 6.674L920.985 9.41994L921.001 9.42673L921.016 9.43334L922.193 6.674ZM929.849 13.538L927.242 15.0225L927.247 15.0304L927.251 15.0382L929.849 13.538ZM929.849 38.024L927.261 36.5078L927.253 36.5216L927.245 36.5356L929.849 38.024ZM922.259 44.822L921.051 42.0761L921.044 42.0791L921.037 42.0821L922.259 44.822ZM906.287 34.856H903.287V37.856H906.287V34.856ZM912.755 34.196L913.832 36.996L912.755 34.196ZM915.395 31.622L918.097 32.9262L915.395 31.622ZM915.461 20.534L912.74 21.7973L912.749 21.8165L912.758 21.8354L915.461 20.534ZM912.887 18.158L911.871 20.9807L911.938 21.0046L912.005 21.0253L912.887 18.158ZM906.287 17.564V14.564H903.287V17.564H906.287ZM893.315 47V4.496H887.315V47H893.315ZM890.315 7.496H910.511V1.496H890.315V7.496ZM910.511 7.496C914.682 7.496 918.147 8.17116 920.985 9.41994L923.402 3.92806C919.64 2.27283 915.317 1.496 910.511 1.496V7.496ZM921.016 9.43334C923.703 10.5796 925.757 12.4143 927.242 15.0225L932.456 12.0535C930.333 8.32565 927.284 5.5844 923.371 3.91466L921.016 9.43334ZM927.251 15.0382C928.701 17.5488 929.555 21.1291 929.555 26.012H935.555C935.555 20.5109 934.606 15.7752 932.447 12.0378L927.251 15.0382ZM929.555 26.012C929.555 30.601 928.712 34.0303 927.261 36.5078L932.438 39.5402C934.595 35.8577 935.555 31.279 935.555 26.012H929.555ZM927.245 36.5356C925.809 39.0479 923.773 40.8783 921.051 42.0761L923.468 47.5679C927.345 45.8617 930.37 43.1601 932.454 39.5124L927.245 36.5356ZM921.037 42.0821C918.259 43.3213 914.781 44 910.511 44V50C915.394 50 919.748 49.2267 923.481 47.5619L921.037 42.0821ZM910.511 44H890.315V50H910.511V44ZM906.287 37.856H908.663V31.856H906.287V37.856ZM908.663 37.856C910.513 37.856 912.26 37.6006 913.832 36.996L911.678 31.396C910.962 31.6714 909.982 31.856 908.663 31.856V37.856ZM913.832 36.996C915.799 36.2395 917.205 34.7744 918.097 32.9262L912.694 30.3178C912.354 31.0216 912 31.2724 911.678 31.396L913.832 36.996ZM918.097 32.9262C919.005 31.0465 919.319 28.6408 919.319 26.012H913.319C913.319 28.3112 913.018 29.6455 912.694 30.3178L918.097 32.9262ZM919.319 26.012C919.319 23.423 919.036 21.0429 918.164 19.2326L912.758 21.8354C913.031 22.4011 913.319 23.673 913.319 26.012H919.319ZM918.182 19.2707C917.306 17.3828 915.84 15.9277 913.77 15.2907L912.005 21.0253C912.223 21.0923 912.473 21.2212 912.74 21.7973L918.182 19.2707ZM913.904 15.3353C912.363 14.7808 910.579 14.564 908.663 14.564V20.564C910.18 20.564 911.212 20.7432 911.871 20.9807L913.904 15.3353ZM908.663 14.564H906.287V20.564H908.663V14.564ZM903.287 17.564V34.856H909.287V17.564H903.287ZM942.757 47H939.757V50H942.757V47ZM942.757 4.496V1.496H939.757V4.496H942.757ZM975.691 6.608L974.162 9.18887L974.179 9.19944L974.197 9.20975L975.691 6.608ZM980.971 12.284L978.259 13.5661L978.273 13.596L978.288 13.6256L980.971 12.284ZM980.509 27.926L978.044 26.2158L978.032 26.2329L978.021 26.2502L980.509 27.926ZM975.229 33.272L973.541 30.7922L969.774 33.3566L973.618 35.803L975.229 33.272ZM976.351 34.328L973.855 35.9921L973.901 36.0614L973.951 36.128L976.351 34.328ZM977.011 35.45L979.763 34.255L979.758 34.2433L979.752 34.2316L977.011 35.45ZM982.027 47V50H986.601L984.779 45.805L982.027 47ZM965.395 47L962.65 48.2095L963.438 50H965.395V47ZM961.237 37.562L958.468 38.7159L958.479 38.7438L958.492 38.7715L961.237 37.562ZM960.511 36.506L958.59 38.8107L958.714 38.9133L958.847 39.0021L960.511 36.506ZM958.729 36.176V33.176H955.729V36.176H958.729ZM958.729 47V50H961.729V47H958.729ZM958.729 23.702H955.729V26.702H958.729V23.702ZM965.593 17.762L963.558 19.9664L963.599 20.0038L963.641 20.0398L965.593 17.762ZM958.729 16.97V13.97H955.729V16.97H958.729ZM945.757 47V4.496H939.757V47H945.757ZM942.757 7.496H966.649V1.496H942.757V7.496ZM966.649 7.496C969.931 7.496 972.375 8.13002 974.162 9.18887L977.22 4.02712C974.255 2.26998 970.671 1.496 966.649 1.496V7.496ZM974.197 9.20975C976.055 10.2763 977.383 11.7139 978.259 13.5661L983.683 11.0019C982.271 8.01412 980.079 5.66768 977.185 4.00624L974.197 9.20975ZM978.288 13.6256C979.24 15.5291 979.753 17.7649 979.753 20.402H985.753C985.753 16.9671 985.078 13.7908 983.654 10.9424L978.288 13.6256ZM979.753 20.402C979.753 22.7083 979.16 24.6073 978.044 26.2158L982.974 29.6362C984.85 26.9327 985.753 23.8157 985.753 20.402H979.753ZM978.021 26.2502C976.773 28.1023 975.281 29.6073 973.541 30.7922L976.917 35.7518C979.313 34.1207 981.341 32.0617 982.997 29.6018L978.021 26.2502ZM973.618 35.803C973.821 35.932 973.865 36.0073 973.855 35.9921L978.847 32.6639C978.309 31.8567 977.605 31.228 976.84 30.741L973.618 35.803ZM973.951 36.128C974.082 36.3024 974.187 36.4816 974.27 36.6684L979.752 34.2316C979.484 33.6264 979.148 33.0576 978.751 32.528L973.951 36.128ZM974.259 36.645L979.275 48.195L984.779 45.805L979.763 34.255L974.259 36.645ZM982.027 44H965.395V50H982.027V44ZM968.14 45.7905L963.982 36.3525L958.492 38.7715L962.65 48.2095L968.14 45.7905ZM964.006 36.4081C963.717 35.7144 963.189 34.686 962.175 34.0099L958.847 39.0021C958.572 38.819 958.443 38.6377 958.418 38.6016C958.39 38.5601 958.413 38.5835 958.468 38.7159L964.006 36.4081ZM962.432 34.2013C961.445 33.3793 960.292 33.176 959.389 33.176V39.176C959.454 39.176 959.049 39.1927 958.59 38.8107L962.432 34.2013ZM959.389 33.176H958.729V39.176H959.389V33.176ZM955.729 36.176V47H961.729V36.176H955.729ZM958.729 44H942.757V50H958.729V44ZM958.729 26.702H962.623V20.702H958.729V26.702ZM962.623 26.702C964.273 26.702 966.07 26.3628 967.483 25.1657C968.991 23.888 969.517 22.1064 969.517 20.402H963.517C963.517 20.6635 963.478 20.7579 963.482 20.7476C963.493 20.7191 963.534 20.6474 963.604 20.5883C963.663 20.5382 963.662 20.5662 963.511 20.6087C963.352 20.6536 963.07 20.702 962.623 20.702V26.702ZM969.517 20.402C969.517 18.7519 969.109 16.8245 967.545 15.4842L963.641 20.0398C963.573 19.9815 963.522 19.9207 963.489 19.87C963.457 19.8212 963.45 19.7954 963.454 19.809C963.468 19.8467 963.517 20.0214 963.517 20.402H969.517ZM967.628 15.5576C966.256 14.2909 964.453 13.97 962.887 13.97V19.97C963.301 19.97 963.537 20.0157 963.645 20.0472C963.743 20.0758 963.676 20.0748 963.558 19.9664L967.628 15.5576ZM962.887 13.97H958.729V19.97H962.887V13.97ZM955.729 16.97V23.702H961.729V16.97H955.729ZM993.329 47H990.329V50H993.329V47ZM993.329 4.496V1.496H990.329V4.496H993.329ZM1009.3 4.496H1012.3V1.496H1009.3V4.496ZM1009.3 47V50H1012.3V47H1009.3ZM996.329 47V4.496H990.329V47H996.329ZM993.329 7.496H1009.3V1.496H993.329V7.496ZM1006.3 4.496V47H1012.3V4.496H1006.3ZM1009.3 44H993.329V50H1009.3V44ZM1036.2 47L1033.4 48.0781L1034.14 50H1036.2V47ZM1019.83 4.496V1.496H1015.46L1017.03 5.5741L1019.83 4.496ZM1036.46 4.496L1039.3 3.53541L1038.61 1.496H1036.46V4.496ZM1044.45 28.124L1041.61 29.0846L1044.44 37.4587L1047.29 29.0917L1044.45 28.124ZM1052.5 4.496V1.496H1050.35L1049.66 3.5283L1052.5 4.496ZM1069.13 4.496L1071.93 5.5741L1073.5 1.496H1069.13V4.496ZM1052.76 47V50H1054.82L1055.56 48.0781L1052.76 47ZM1039 45.9219L1022.63 3.41789L1017.03 5.5741L1033.4 48.0781L1039 45.9219ZM1019.83 7.496H1036.46V1.496H1019.83V7.496ZM1033.62 5.45658L1041.61 29.0846L1047.29 27.1634L1039.3 3.53541L1033.62 5.45658ZM1047.29 29.0917L1055.34 5.4637L1049.66 3.5283L1041.61 27.1563L1047.29 29.0917ZM1052.5 7.496H1069.13V1.496H1052.5V7.496ZM1066.33 3.41789L1049.96 45.9219L1055.56 48.0781L1071.93 5.5741L1066.33 3.41789ZM1052.76 44H1036.2V50H1052.76V44ZM1079.71 47H1076.71V50H1079.71V47ZM1079.71 4.496V1.496H1076.71V4.496H1079.71ZM1113.7 4.496H1116.7V1.496H1113.7V4.496ZM1113.7 15.98V18.98H1116.7V15.98H1113.7ZM1095.69 15.98V12.98H1092.69V15.98H1095.69ZM1095.69 19.808H1092.69V22.808H1095.69V19.808ZM1111.2 19.808H1114.2V16.808H1111.2V19.808ZM1111.2 31.688V34.688H1114.2V31.688H1111.2ZM1095.69 31.688V28.688H1092.69V31.688H1095.69ZM1095.69 35.516H1092.69V38.516H1095.69V35.516ZM1113.7 35.516H1116.7V32.516H1113.7V35.516ZM1113.7 47V50H1116.7V47H1113.7ZM1082.71 47V4.496H1076.71V47H1082.71ZM1079.71 7.496H1113.7V1.496H1079.71V7.496ZM1110.7 4.496V15.98H1116.7V4.496H1110.7ZM1113.7 12.98H1095.69V18.98H1113.7V12.98ZM1092.69 15.98V19.808H1098.69V15.98H1092.69ZM1095.69 22.808H1111.2V16.808H1095.69V22.808ZM1108.2 19.808V31.688H1114.2V19.808H1108.2ZM1111.2 28.688H1095.69V34.688H1111.2V28.688ZM1092.69 31.688V35.516H1098.69V31.688H1092.69ZM1095.69 38.516H1113.7V32.516H1095.69V38.516ZM1110.7 35.516V47H1116.7V35.516H1110.7ZM1113.7 44H1079.71V50H1113.7V44ZM1123.58 47H1120.58V50H1123.58V47ZM1123.58 4.496V1.496H1120.58V4.496H1123.58ZM1136.98 4.496L1139.42 2.75228L1138.53 1.496H1136.98V4.496ZM1148.86 21.128L1146.42 22.8717L1151.86 30.4894V21.128H1148.86ZM1148.86 4.496V1.496H1145.86V4.496H1148.86ZM1164.83 4.496H1167.83V1.496H1164.83V4.496ZM1164.83 47V50H1167.83V47H1164.83ZM1151.37 47L1148.92 48.7373L1149.82 50H1151.37V47ZM1139.56 30.368L1142 28.6307L1136.56 20.964V30.368H1139.56ZM1139.56 47V50H1142.56V47H1139.56ZM1126.58 47V4.496H1120.58V47H1126.58ZM1123.58 7.496H1136.98V1.496H1123.58V7.496ZM1134.54 6.23971L1146.42 22.8717L1151.3 19.3843L1139.42 2.75228L1134.54 6.23971ZM1151.86 21.128V4.496H1145.86V21.128H1151.86ZM1148.86 7.496H1164.83V1.496H1148.86V7.496ZM1161.83 4.496V47H1167.83V4.496H1161.83ZM1164.83 44H1151.37V50H1164.83V44ZM1153.82 45.2627L1142 28.6307L1137.11 32.1053L1148.92 48.7373L1153.82 45.2627ZM1136.56 30.368V47H1142.56V30.368H1136.56ZM1139.56 44H1123.58V50H1139.56V44ZM1202.96 46.934L1202.4 49.881L1202.42 49.8853L1202.44 49.8893L1202.96 46.934ZM1195.96 44.69H1192.96V46.525L1194.59 47.3607L1195.96 44.69ZM1195.96 32.744L1197.28 30.0494L1192.96 27.936V32.744H1195.96ZM1212.99 35.78L1214.13 38.554L1214.2 38.5259L1214.27 38.4945L1212.99 35.78ZM1212 32.48L1212.89 29.6166L1212 32.48ZM1206.46 30.566L1205.37 33.3637L1205.4 33.374L1205.43 33.3838L1206.46 30.566ZM1199.99 27.266L1201.74 24.834V24.834L1199.99 27.266ZM1196.56 23.174L1193.77 24.3011L1193.79 24.3471L1193.81 24.3924L1196.56 23.174ZM1218.93 4.166L1218.55 7.14164L1218.59 7.14695L1218.63 7.15111L1218.93 4.166ZM1224.01 4.892L1223.45 7.83971L1223.46 7.84105L1223.47 7.84236L1224.01 4.892ZM1228.24 5.882H1231.24V3.66628L1229.12 3.01466L1228.24 5.882ZM1228.24 17.894L1227.08 20.6617L1231.24 22.4003V17.894H1228.24ZM1221.83 15.848L1222.39 12.901L1221.83 15.848ZM1213.58 15.65L1214.04 18.6151L1214.09 18.6066L1214.15 18.596L1213.58 15.65ZM1213.39 18.356L1212.4 21.1895L1212.46 21.2089L1212.51 21.226L1213.39 18.356ZM1218.2 19.742L1217.39 22.6309L1217.41 22.6346L1218.2 19.742ZM1226.12 23.24L1224.29 25.6112L1224.3 25.6258L1224.32 25.64L1226.12 23.24ZM1229.62 27.992L1226.76 28.8791L1226.77 28.9204L1226.78 28.9614L1229.62 27.992ZM1225.79 44.03L1227.61 46.414L1227.62 46.4061L1227.64 46.3981L1225.79 44.03ZM1211.6 44.66C1208.77 44.66 1206.06 44.4312 1203.47 43.9787L1202.44 49.8893C1205.39 50.4048 1208.45 50.66 1211.6 50.66V44.66ZM1203.52 43.987C1200.94 43.496 1198.9 42.8228 1197.33 42.0193L1194.59 47.3607C1196.81 48.4931 1199.43 49.316 1202.4 49.881L1203.52 43.987ZM1198.96 44.69V32.744H1192.96V44.69H1198.96ZM1194.64 35.4386C1196.92 36.5546 1199.45 37.4567 1202.22 38.1595L1203.7 32.3445C1201.27 31.7273 1199.14 30.9574 1197.28 30.0494L1194.64 35.4386ZM1202.22 38.1595C1204.98 38.8624 1207.55 39.242 1209.89 39.242V33.242C1208.18 33.242 1206.12 32.9616 1203.7 32.3445L1202.22 38.1595ZM1209.89 39.242C1211.38 39.242 1212.86 39.076 1214.13 38.554L1211.85 33.006C1211.62 33.1 1211.03 33.242 1209.89 33.242V39.242ZM1214.27 38.4945C1215.64 37.8474 1217.11 36.5114 1217.11 34.328H1211.11C1211.11 33.9772 1211.23 33.606 1211.46 33.3187C1211.64 33.0761 1211.8 33.0241 1211.71 33.0655L1214.27 38.4945ZM1217.11 34.328C1217.11 32.9084 1216.43 31.7785 1215.56 31.0143C1214.76 30.3185 1213.79 29.8971 1212.89 29.6166L1211.1 35.3434C1211.34 35.4167 1211.49 35.4814 1211.58 35.5263C1211.67 35.5724 1211.67 35.5812 1211.61 35.5297C1211.54 35.4746 1211.41 35.3401 1211.3 35.1086C1211.17 34.8654 1211.11 34.5927 1211.11 34.328H1217.11ZM1212.89 29.6166C1211.55 29.1968 1209.75 28.5769 1207.48 27.7482L1205.43 33.3838C1207.73 34.2271 1209.63 34.8832 1211.1 35.3434L1212.89 29.6166ZM1207.54 27.7683C1204.94 26.7639 1203.04 25.7733 1201.74 24.834L1198.23 29.698C1200.1 31.0467 1202.51 32.2561 1205.37 33.3637L1207.54 27.7683ZM1201.74 24.834C1200.53 23.9601 1199.76 22.9959 1199.3 21.9556L1193.81 24.3924C1194.76 26.5201 1196.27 28.2839 1198.23 29.698L1201.74 24.834ZM1199.34 22.0469C1198.86 20.8846 1198.57 19.2718 1198.57 17.102H1192.57C1192.57 19.7722 1192.93 22.2074 1193.77 24.3011L1199.34 22.0469ZM1198.57 17.102C1198.57 13.4753 1199.78 11.1518 1201.97 9.59836C1204.35 7.91101 1208.28 6.836 1214.24 6.836V0.835997C1207.75 0.835997 1202.35 1.97198 1198.5 4.70663C1194.46 7.57522 1192.57 11.8847 1192.57 17.102H1198.57ZM1214.24 6.836C1215.5 6.836 1216.93 6.93435 1218.55 7.14164L1219.31 1.19035C1217.5 0.957643 1215.8 0.835997 1214.24 0.835997V6.836ZM1218.63 7.15111C1220.31 7.319 1221.92 7.54899 1223.45 7.83971L1224.57 1.94429C1222.85 1.61901 1221.07 1.365 1219.23 1.18089L1218.63 7.15111ZM1223.47 7.84236C1225.07 8.13726 1226.36 8.44244 1227.35 8.74934L1229.12 3.01466C1227.83 2.61756 1226.3 2.26274 1224.55 1.94164L1223.47 7.84236ZM1225.24 5.882V17.894H1231.24V5.882H1225.24ZM1229.39 15.1263C1226.85 14.0628 1224.51 13.3038 1222.39 12.901L1221.27 18.795C1222.85 19.0962 1224.78 19.7012 1227.08 20.6617L1229.39 15.1263ZM1222.39 12.901C1220.42 12.5247 1218.6 12.32 1216.95 12.32V18.32C1218.12 18.32 1219.55 18.4673 1221.27 18.795L1222.39 12.901ZM1216.95 12.32C1215.65 12.32 1214.34 12.4502 1213.02 12.704L1214.15 18.596C1215.12 18.4098 1216.05 18.32 1216.95 18.32V12.32ZM1213.13 12.6849C1212.33 12.8081 1211.33 13.0733 1210.47 13.7341C1209.46 14.5053 1208.87 15.6596 1208.87 16.97H1214.87C1214.87 17.2121 1214.81 17.5189 1214.66 17.8331C1214.5 18.145 1214.3 18.3592 1214.13 18.4899C1213.84 18.7107 1213.7 18.6679 1214.04 18.6151L1213.13 12.6849ZM1208.87 16.97C1208.87 18.2646 1209.48 19.2838 1210.22 19.961C1210.9 20.5767 1211.7 20.9471 1212.4 21.1895L1214.37 15.5225C1214.06 15.4129 1214.1 15.3763 1214.27 15.53C1214.37 15.6213 1214.53 15.7927 1214.66 16.0597C1214.79 16.3383 1214.87 16.653 1214.87 16.97H1208.87ZM1212.51 21.226C1213.56 21.5445 1215.19 22.0141 1217.39 22.6309L1219.01 16.8531C1216.81 16.2379 1215.24 15.7835 1214.26 15.486L1212.51 21.226ZM1217.41 22.6346C1220.76 23.5567 1222.97 24.5927 1224.29 25.6112L1227.96 20.8688C1225.76 19.1593 1222.69 17.8633 1219 16.8494L1217.41 22.6346ZM1224.32 25.64C1225.65 26.6348 1226.4 27.716 1226.76 28.8791L1232.49 27.1049C1231.7 24.572 1230.12 22.4852 1227.92 20.84L1224.32 25.64ZM1226.78 28.9614C1227.27 30.3873 1227.55 32.1379 1227.55 34.262H1233.55C1233.55 31.6341 1233.21 29.2047 1232.46 27.0226L1226.78 28.9614ZM1227.55 34.262C1227.55 37.3936 1226.38 39.772 1223.95 41.6619L1227.64 46.3981C1231.54 43.36 1233.55 39.2264 1233.55 34.262H1227.55ZM1223.97 41.646C1221.55 43.4943 1217.59 44.66 1211.6 44.66V50.66C1218.2 50.66 1223.7 49.4058 1227.61 46.414L1223.97 41.646ZM1249.59 47H1246.59V50H1249.59V47ZM1249.59 15.98H1252.59V12.98H1249.59V15.98ZM1238.77 15.98H1235.77V18.98H1238.77V15.98ZM1238.77 4.496V1.496H1235.77V4.496H1238.77ZM1276.39 4.496H1279.39V1.496H1276.39V4.496ZM1276.39 15.98V18.98H1279.39V15.98H1276.39ZM1265.56 15.98V12.98H1262.56V15.98H1265.56ZM1265.56 47V50H1268.56V47H1265.56ZM1252.59 47V15.98H1246.59V47H1252.59ZM1249.59 12.98H1238.77V18.98H1249.59V12.98ZM1241.77 15.98V4.496H1235.77V15.98H1241.77ZM1238.77 7.496H1276.39V1.496H1238.77V7.496ZM1273.39 4.496V15.98H1279.39V4.496H1273.39ZM1276.39 12.98H1265.56V18.98H1276.39V12.98ZM1262.56 15.98V47H1268.56V15.98H1262.56ZM1265.56 44H1249.59V50H1265.56V44ZM1279.05 47L1276.25 45.9219L1274.68 50H1279.05V47ZM1295.42 4.496V1.496H1293.36L1292.62 3.41789L1295.42 4.496ZM1311.98 4.496L1314.78 3.41789L1314.04 1.496H1311.98V4.496ZM1328.35 47V50H1332.72L1331.15 45.9219L1328.35 47ZM1311.72 47L1308.92 48.0738L1309.66 50H1311.72V47ZM1308.68 39.08L1311.49 38.0062L1310.75 36.08H1308.68V39.08ZM1298.72 39.08V36.08H1296.66L1295.92 38.0062L1298.72 39.08ZM1295.68 47V50H1297.74L1298.48 48.0738L1295.68 47ZM1300.43 28.19L1297.65 27.0797L1296.01 31.19H1300.43V28.19ZM1306.9 28.19V31.19H1311.33L1309.69 27.0797L1306.9 28.19ZM1303.67 20.072L1306.46 18.9617L1303.67 11.9658L1300.88 18.9617L1303.67 20.072ZM1281.85 48.0781L1298.22 5.5741L1292.62 3.41789L1276.25 45.9219L1281.85 48.0781ZM1295.42 7.496H1311.98V1.496H1295.42V7.496ZM1309.18 5.5741L1325.55 48.0781L1331.15 45.9219L1314.78 3.41789L1309.18 5.5741ZM1328.35 44H1311.72V50H1328.35V44ZM1314.52 45.9262L1311.49 38.0062L1305.88 40.1538L1308.92 48.0738L1314.52 45.9262ZM1308.68 36.08H1298.72V42.08H1308.68V36.08ZM1295.92 38.0062L1292.88 45.9262L1298.48 48.0738L1301.52 40.1538L1295.92 38.0062ZM1295.68 44H1279.05V50H1295.68V44ZM1300.43 31.19H1306.9V25.19H1300.43V31.19ZM1309.69 27.0797L1306.46 18.9617L1300.88 21.1823L1304.11 29.3003L1309.69 27.0797ZM1300.88 18.9617L1297.65 27.0797L1303.22 29.3003L1306.46 21.1823L1300.88 18.9617ZM1343.12 47H1340.12V50H1343.12V47ZM1343.12 31.556H1346.12V30.7631L1345.73 30.0738L1343.12 31.556ZM1327.75 4.496V1.496H1322.59L1325.14 5.97824L1327.75 4.496ZM1344.38 4.496L1347.06 3.1596L1346.24 1.496H1344.38V4.496ZM1351.11 18.026L1348.42 19.3624L1351.11 24.7605L1353.8 19.3624L1351.11 18.026ZM1357.84 4.496V1.496H1355.98L1355.16 3.1596L1357.84 4.496ZM1374.47 4.496L1377.08 5.97824L1379.63 1.496H1374.47V4.496ZM1359.1 31.556L1356.49 30.0738L1356.1 30.7631V31.556H1359.1ZM1359.1 47V50H1362.1V47H1359.1ZM1346.12 47V31.556H1340.12V47H1346.12ZM1345.73 30.0738L1330.35 3.01375L1325.14 5.97824L1340.52 33.0382L1345.73 30.0738ZM1327.75 7.496H1344.38V1.496H1327.75V7.496ZM1341.69 5.83239L1348.42 19.3624L1353.8 16.6896L1347.06 3.1596L1341.69 5.83239ZM1353.8 19.3624L1360.53 5.83239L1355.16 3.1596L1348.42 16.6896L1353.8 19.3624ZM1357.84 7.496H1374.47V1.496H1357.84V7.496ZM1371.87 3.01375L1356.49 30.0738L1361.7 33.0382L1377.08 5.97824L1371.87 3.01375ZM1356.1 31.556V47H1362.1V31.556H1356.1ZM1359.1 44H1343.12V50H1359.1V44ZM1404.82 47H1401.82V50H1404.82V47ZM1404.82 4.496V1.496H1401.82V4.496H1404.82ZM1420 4.496L1422.7 3.17057L1421.87 1.496H1420V4.496ZM1428.65 22.052L1425.96 23.3774L1428.66 28.8632L1431.35 23.3693L1428.65 22.052ZM1437.23 4.496V1.496H1435.36L1434.53 3.17873L1437.23 4.496ZM1452.41 4.496H1455.41V1.496H1452.41V4.496ZM1452.41 47V50H1455.41V47H1452.41ZM1436.44 47H1433.44V50H1436.44V47ZM1436.44 32.084H1439.44L1433.75 30.761L1436.44 32.084ZM1432.68 39.74V42.74H1434.54L1435.37 41.063L1432.68 39.74ZM1424.56 39.74L1421.87 41.063L1422.69 42.74H1424.56V39.74ZM1420.8 32.084L1423.49 30.761L1417.8 32.084H1420.8ZM1420.8 47V50H1423.8V47H1420.8ZM1407.82 47V4.496H1401.82V47H1407.82ZM1404.82 7.496H1420V1.496H1404.82V7.496ZM1417.31 5.82142L1425.96 23.3774L1431.34 20.7266L1422.7 3.17057L1417.31 5.82142ZM1431.35 23.3693L1439.93 5.81326L1434.53 3.17873L1425.95 20.7347L1431.35 23.3693ZM1437.23 7.496H1452.41V1.496H1437.23V7.496ZM1449.41 4.496V47H1455.41V4.496H1449.41ZM1452.41 44H1436.44V50H1452.41V44ZM1439.44 47V32.084H1433.44V47H1439.44ZM1433.75 30.761L1429.98 38.417L1435.37 41.063L1439.13 33.407L1433.75 30.761ZM1432.68 36.74H1424.56V42.74H1432.68V36.74ZM1427.25 38.417L1423.49 30.761L1418.1 33.407L1421.87 41.063L1427.25 38.417ZM1417.8 32.084V47H1423.8V32.084H1417.8ZM1420.8 44H1404.82V50H1420.8V44ZM1473.46 45.548L1472.28 48.3054L1472.3 48.3119L1472.31 48.3183L1473.46 45.548ZM1465.68 38.552L1468.29 37.0829L1465.68 38.552ZM1465.68 12.944L1468.28 14.4285L1468.29 14.4208L1468.29 14.4131L1465.68 12.944ZM1473.46 6.014L1474.62 8.78429L1474.63 8.77795L1474.65 8.77143L1473.46 6.014ZM1498.02 6.014L1496.84 8.77143L1496.85 8.77795L1496.87 8.78429L1498.02 6.014ZM1505.8 12.944L1503.19 14.4131L1503.19 14.4208L1503.2 14.4285L1505.8 12.944ZM1505.8 38.552L1503.19 37.0829L1505.8 38.552ZM1498.02 45.548L1499.17 48.3183L1499.18 48.3119L1499.2 48.3054L1498.02 45.548ZM1490.69 32.282L1488.34 30.4178L1488.33 30.4285L1490.69 32.282ZM1490.69 19.28L1488.3 21.0932L1488.34 21.1394L1488.37 21.1842L1490.69 19.28ZM1480.72 19.28L1478.37 17.4158L1478.37 17.4265L1480.72 19.28ZM1480.72 32.282L1478.33 34.0952L1478.37 34.1414L1478.41 34.1862L1480.72 32.282ZM1485.74 44.66C1481.22 44.66 1477.55 43.9953 1474.62 42.7777L1472.31 48.3183C1476.16 49.9167 1480.67 50.66 1485.74 50.66V44.66ZM1474.65 42.7906C1471.86 41.5984 1469.77 39.7191 1468.29 37.0829L1463.06 40.0211C1465.19 43.8089 1468.29 46.5936 1472.28 48.3054L1474.65 42.7906ZM1468.29 37.0829C1466.83 34.4755 1465.97 30.7721 1465.97 25.748H1459.97C1459.97 31.3719 1460.92 36.2045 1463.06 40.0211L1468.29 37.0829ZM1465.97 25.748C1465.97 20.6715 1466.83 16.9798 1468.28 14.4285L1463.07 11.4595C1460.91 15.2442 1459.97 20.0885 1459.97 25.748H1465.97ZM1468.29 14.4131C1469.77 11.7839 1471.85 9.93349 1474.62 8.78429L1472.31 3.2437C1468.3 4.9105 1465.19 7.68014 1463.06 11.4749L1468.29 14.4131ZM1474.65 8.77143C1477.57 7.51984 1481.23 6.836 1485.74 6.836V0.835997C1480.66 0.835997 1476.14 1.60416 1472.28 3.25656L1474.65 8.77143ZM1485.74 6.836C1490.25 6.836 1493.91 7.51984 1496.84 8.77143L1499.2 3.25656C1495.34 1.60416 1490.83 0.835997 1485.74 0.835997V6.836ZM1496.87 8.78429C1499.63 9.93349 1501.71 11.7839 1503.19 14.4131L1508.42 11.4749C1506.29 7.68014 1503.18 4.9105 1499.17 3.2437L1496.87 8.78429ZM1503.2 14.4285C1504.65 16.9798 1505.51 20.6715 1505.51 25.748H1511.51C1511.51 20.0885 1510.57 15.2442 1508.41 11.4595L1503.2 14.4285ZM1505.51 25.748C1505.51 30.7721 1504.65 34.4755 1503.19 37.0829L1508.42 40.0211C1510.56 36.2045 1511.51 31.3719 1511.51 25.748H1505.51ZM1503.19 37.0829C1501.71 39.7191 1499.62 41.5984 1496.84 42.7906L1499.2 48.3054C1503.19 46.5936 1506.29 43.8089 1508.42 40.0211L1503.19 37.0829ZM1496.87 42.7777C1493.94 43.9953 1490.26 44.66 1485.74 44.66V50.66C1490.82 50.66 1495.32 49.9167 1499.17 48.3183L1496.87 42.7777ZM1485.74 37.13C1488.53 37.13 1491.28 36.3909 1493.05 34.1355L1488.33 30.4285C1488.17 30.6371 1487.62 31.13 1485.74 31.13V37.13ZM1493.04 34.1462C1494.71 32.0399 1495.21 28.983 1495.21 25.748H1489.21C1489.21 28.673 1488.69 29.9721 1488.34 30.4178L1493.04 34.1462ZM1495.21 25.748C1495.21 22.53 1494.72 19.4569 1493.01 17.3758L1488.37 21.1842C1488.69 21.5671 1489.21 22.806 1489.21 25.748H1495.21ZM1493.08 17.4668C1491.32 15.1468 1488.56 14.366 1485.74 14.366V20.366C1487.58 20.366 1488.12 20.8612 1488.3 21.0932L1493.08 17.4668ZM1485.74 14.366C1482.91 14.366 1480.17 15.1511 1478.37 17.4158L1483.08 21.1442C1483.3 20.8569 1483.91 20.366 1485.74 20.366V14.366ZM1478.37 17.4265C1476.74 19.4991 1476.27 22.5464 1476.27 25.748H1482.27C1482.27 22.7896 1482.78 21.5249 1483.08 21.1335L1478.37 17.4265ZM1476.27 25.748C1476.27 28.9668 1476.74 31.9983 1478.33 34.0952L1483.11 30.4688C1482.77 30.0137 1482.27 28.6892 1482.27 25.748H1476.27ZM1478.41 34.1862C1480.21 36.386 1482.94 37.13 1485.74 37.13V31.13C1483.88 31.13 1483.26 30.642 1483.04 30.3778L1478.41 34.1862ZM1526.92 47H1523.92V50H1526.92V47ZM1526.92 15.98H1529.92V12.98H1526.92V15.98ZM1516.1 15.98H1513.1V18.98H1516.1V15.98ZM1516.1 4.496V1.496H1513.1V4.496H1516.1ZM1553.72 4.496H1556.72V1.496H1553.72V4.496ZM1553.72 15.98V18.98H1556.72V15.98H1553.72ZM1542.89 15.98V12.98H1539.89V15.98H1542.89ZM1542.89 47V50H1545.89V47H1542.89ZM1529.92 47V15.98H1523.92V47H1529.92ZM1526.92 12.98H1516.1V18.98H1526.92V12.98ZM1519.1 15.98V4.496H1513.1V15.98H1519.1ZM1516.1 7.496H1553.72V1.496H1516.1V7.496ZM1550.72 4.496V15.98H1556.72V4.496H1550.72ZM1553.72 12.98H1542.89V18.98H1553.72V12.98ZM1539.89 15.98V47H1545.89V15.98H1539.89ZM1542.89 44H1526.92V50H1542.89V44ZM1563.31 47H1560.31V50H1563.31V47ZM1563.31 4.496V1.496H1560.31V4.496H1563.31ZM1579.28 4.496H1582.28V1.496H1579.28V4.496ZM1579.28 47V50H1582.28V47H1579.28ZM1566.31 47V4.496H1560.31V47H1566.31ZM1563.31 7.496H1579.28V1.496H1563.31V7.496ZM1576.28 4.496V47H1582.28V4.496H1576.28ZM1579.28 44H1563.31V50H1579.28V44ZM1606.18 47L1603.38 48.0781L1604.12 50H1606.18V47ZM1589.81 4.496V1.496H1585.44L1587.01 5.5741L1589.81 4.496ZM1606.44 4.496L1609.28 3.53541L1608.59 1.496H1606.44V4.496ZM1614.43 28.124L1611.59 29.0846L1614.42 37.4587L1617.27 29.0917L1614.43 28.124ZM1622.48 4.496V1.496H1620.33L1619.64 3.5283L1622.48 4.496ZM1639.11 4.496L1641.91 5.5741L1643.48 1.496H1639.11V4.496ZM1622.74 47V50H1624.8L1625.54 48.0781L1622.74 47ZM1608.98 45.9219L1592.61 3.41789L1587.01 5.5741L1603.38 48.0781L1608.98 45.9219ZM1589.81 7.496H1606.44V1.496H1589.81V7.496ZM1603.6 5.45658L1611.59 29.0846L1617.27 27.1634L1609.28 3.53541L1603.6 5.45658ZM1617.27 29.0917L1625.32 5.4637L1619.64 3.5283L1611.59 27.1563L1617.27 29.0917ZM1622.48 7.496H1639.11V1.496H1622.48V7.496ZM1636.31 3.41789L1619.94 45.9219L1625.54 48.0781L1641.91 5.5741L1636.31 3.41789ZM1622.74 44H1606.18V50H1622.74V44ZM1639.48 47L1636.68 45.9219L1635.11 50H1639.48V47ZM1655.85 4.496V1.496H1653.79L1653.05 3.41789L1655.85 4.496ZM1672.41 4.496L1675.21 3.41789L1674.47 1.496H1672.41V4.496ZM1688.78 47V50H1693.15L1691.58 45.9219L1688.78 47ZM1672.15 47L1669.35 48.0738L1670.09 50H1672.15V47ZM1669.11 39.08L1671.92 38.0062L1671.18 36.08H1669.11V39.08ZM1659.15 39.08V36.08H1657.08L1656.35 38.0062L1659.15 39.08ZM1656.11 47V50H1658.17L1658.91 48.0738L1656.11 47ZM1660.86 28.19L1658.08 27.0797L1656.44 31.19H1660.86V28.19ZM1667.33 28.19V31.19H1671.76L1670.12 27.0797L1667.33 28.19ZM1664.1 20.072L1666.88 18.9617L1664.1 11.9658L1661.31 18.9617L1664.1 20.072ZM1642.28 48.0781L1658.65 5.5741L1653.05 3.41789L1636.68 45.9219L1642.28 48.0781ZM1655.85 7.496H1672.41V1.496H1655.85V7.496ZM1669.61 5.5741L1685.98 48.0781L1691.58 45.9219L1675.21 3.41789L1669.61 5.5741ZM1688.78 44H1672.15V50H1688.78V44ZM1674.95 45.9262L1671.92 38.0062L1666.31 40.1538L1669.35 48.0738L1674.95 45.9262ZM1669.11 36.08H1659.15V42.08H1669.11V36.08ZM1656.35 38.0062L1653.31 45.9262L1658.91 48.0738L1661.95 40.1538L1656.35 38.0062ZM1656.11 44H1639.48V50H1656.11V44ZM1660.86 31.19H1667.33V25.19H1660.86V31.19ZM1670.12 27.0797L1666.88 18.9617L1661.31 21.1823L1664.54 29.3003L1670.12 27.0797ZM1661.31 18.9617L1658.08 27.0797L1663.65 29.3003L1666.88 21.1823L1661.31 18.9617ZM1702.27 47H1699.27V50H1702.27V47ZM1702.27 15.98H1705.27V12.98H1702.27V15.98ZM1691.45 15.98H1688.45V18.98H1691.45V15.98ZM1691.45 4.496V1.496H1688.45V4.496H1691.45ZM1729.07 4.496H1732.07V1.496H1729.07V4.496ZM1729.07 15.98V18.98H1732.07V15.98H1729.07ZM1718.24 15.98V12.98H1715.24V15.98H1718.24ZM1718.24 47V50H1721.24V47H1718.24ZM1705.27 47V15.98H1699.27V47H1705.27ZM1702.27 12.98H1691.45V18.98H1702.27V12.98ZM1694.45 15.98V4.496H1688.45V15.98H1694.45ZM1691.45 7.496H1729.07V1.496H1691.45V7.496ZM1726.07 4.496V15.98H1732.07V4.496H1726.07ZM1729.07 12.98H1718.24V18.98H1729.07V12.98ZM1715.24 15.98V47H1721.24V15.98H1715.24ZM1718.24 44H1702.27V50H1718.24V44ZM1738.66 47H1735.66V50H1738.66V47ZM1738.66 4.496V1.496H1735.66V4.496H1738.66ZM1772.65 4.496H1775.65V1.496H1772.65V4.496ZM1772.65 15.98V18.98H1775.65V15.98H1772.65ZM1754.63 15.98V12.98H1751.63V15.98H1754.63ZM1754.63 19.808H1751.63V22.808H1754.63V19.808ZM1770.14 19.808H1773.14V16.808H1770.14V19.808ZM1770.14 31.688V34.688H1773.14V31.688H1770.14ZM1754.63 31.688V28.688H1751.63V31.688H1754.63ZM1754.63 35.516H1751.63V38.516H1754.63V35.516ZM1772.65 35.516H1775.65V32.516H1772.65V35.516ZM1772.65 47V50H1775.65V47H1772.65ZM1741.66 47V4.496H1735.66V47H1741.66ZM1738.66 7.496H1772.65V1.496H1738.66V7.496ZM1769.65 4.496V15.98H1775.65V4.496H1769.65ZM1772.65 12.98H1754.63V18.98H1772.65V12.98ZM1751.63 15.98V19.808H1757.63V15.98H1751.63ZM1754.63 22.808H1770.14V16.808H1754.63V22.808ZM1767.14 19.808V31.688H1773.14V19.808H1767.14ZM1770.14 28.688H1754.63V34.688H1770.14V28.688ZM1751.63 31.688V35.516H1757.63V31.688H1751.63ZM1754.63 38.516H1772.65V32.516H1754.63V38.516ZM1769.65 35.516V47H1775.65V35.516H1769.65ZM1772.65 44H1738.66V50H1772.65V44ZM1782.53 47H1779.53V50H1782.53V47ZM1782.53 4.496V1.496H1779.53V4.496H1782.53ZM1814.41 6.674L1813.2 9.41994L1813.21 9.42673L1813.23 9.43334L1814.41 6.674ZM1822.06 13.538L1819.45 15.0225L1819.46 15.0304L1819.46 15.0382L1822.06 13.538ZM1822.06 38.024L1819.47 36.5078L1819.46 36.5216L1819.46 36.5356L1822.06 38.024ZM1814.47 44.822L1813.26 42.0761L1813.26 42.0791L1813.25 42.0821L1814.47 44.822ZM1798.5 34.856H1795.5V37.856H1798.5V34.856ZM1804.97 34.196L1806.04 36.996L1804.97 34.196ZM1807.61 31.622L1810.31 32.9262L1807.61 31.622ZM1807.67 20.534L1804.95 21.7973L1804.96 21.8165L1804.97 21.8354L1807.67 20.534ZM1805.1 18.158L1804.08 20.9807L1804.15 21.0046L1804.22 21.0253L1805.1 18.158ZM1798.5 17.564V14.564H1795.5V17.564H1798.5ZM1785.53 47V4.496H1779.53V47H1785.53ZM1782.53 7.496H1802.72V1.496H1782.53V7.496ZM1802.72 7.496C1806.89 7.496 1810.36 8.17116 1813.2 9.41994L1815.61 3.92806C1811.85 2.27283 1807.53 1.496 1802.72 1.496V7.496ZM1813.23 9.43334C1815.91 10.5796 1817.97 12.4143 1819.45 15.0225L1824.67 12.0535C1822.55 8.32565 1819.5 5.5844 1815.58 3.91466L1813.23 9.43334ZM1819.46 15.0382C1820.91 17.5488 1821.77 21.1291 1821.77 26.012H1827.77C1827.77 20.5109 1826.82 15.7752 1824.66 12.0378L1819.46 15.0382ZM1821.77 26.012C1821.77 30.601 1820.92 34.0303 1819.47 36.5078L1824.65 39.5402C1826.81 35.8577 1827.77 31.279 1827.77 26.012H1821.77ZM1819.46 36.5356C1818.02 39.0479 1815.99 40.8783 1813.26 42.0761L1815.68 47.5679C1819.56 45.8617 1822.58 43.1601 1824.67 39.5124L1819.46 36.5356ZM1813.25 42.0821C1810.47 43.3213 1806.99 44 1802.72 44V50C1807.61 50 1811.96 49.2267 1815.69 47.5619L1813.25 42.0821ZM1802.72 44H1782.53V50H1802.72V44ZM1798.5 37.856H1800.88V31.856H1798.5V37.856ZM1800.88 37.856C1802.72 37.856 1804.47 37.6006 1806.04 36.996L1803.89 31.396C1803.17 31.6714 1802.19 31.856 1800.88 31.856V37.856ZM1806.04 36.996C1808.01 36.2395 1809.42 34.7744 1810.31 32.9262L1804.91 30.3178C1804.57 31.0216 1804.21 31.2724 1803.89 31.396L1806.04 36.996ZM1810.31 32.9262C1811.22 31.0465 1811.53 28.6408 1811.53 26.012H1805.53C1805.53 28.3112 1805.23 29.6455 1804.91 30.3178L1810.31 32.9262ZM1811.53 26.012C1811.53 23.423 1811.25 21.0429 1810.38 19.2326L1804.97 21.8354C1805.24 22.4011 1805.53 23.673 1805.53 26.012H1811.53ZM1810.39 19.2707C1809.52 17.3828 1808.05 15.9277 1805.98 15.2907L1804.22 21.0253C1804.43 21.0923 1804.68 21.2212 1804.95 21.7973L1810.39 19.2707ZM1806.12 15.3353C1804.57 14.7808 1802.79 14.564 1800.88 14.564V20.564C1802.39 20.564 1803.42 20.7432 1804.08 20.9807L1806.12 15.3353ZM1800.88 14.564H1798.5V20.564H1800.88V14.564ZM1795.5 17.564V34.856H1801.5V17.564H1795.5ZM1828.69 54.92L1825.72 54.4791L1825.21 57.92H1828.69V54.92ZM1831.13 38.486V35.486H1828.54L1828.16 38.0451L1831.13 38.486ZM1844.26 38.486L1847.16 39.2437L1848.15 35.486H1844.26V38.486ZM1839.97 54.92V57.92H1842.29L1842.87 55.6777L1839.97 54.92ZM1831.65 55.3609L1834.1 38.9269L1828.16 38.0451L1825.72 54.4791L1831.65 55.3609ZM1831.13 41.486H1844.26V35.486H1831.13V41.486ZM1841.36 37.7283L1837.07 54.1623L1842.87 55.6777L1847.16 39.2437L1841.36 37.7283ZM1839.97 51.92H1828.69V57.92H1839.97V51.92ZM1881.02 46.934L1880.46 49.881L1880.48 49.8853L1880.5 49.8893L1881.02 46.934ZM1874.02 44.69H1871.02V46.525L1872.66 47.3607L1874.02 44.69ZM1874.02 32.744L1875.34 30.0494L1871.02 27.936V32.744H1874.02ZM1891.05 35.78L1892.19 38.554L1892.26 38.5259L1892.33 38.4945L1891.05 35.78ZM1890.06 32.48L1890.96 29.6166L1890.06 32.48ZM1884.52 30.566L1883.43 33.3637L1883.46 33.374L1883.49 33.3838L1884.52 30.566ZM1878.05 27.266L1879.81 24.834V24.834L1878.05 27.266ZM1874.62 23.174L1871.84 24.3011L1871.86 24.3471L1871.88 24.3924L1874.62 23.174ZM1896.99 4.166L1896.61 7.14164L1896.65 7.14695L1896.69 7.15111L1896.99 4.166ZM1902.07 4.892L1901.52 7.83971L1901.52 7.84105L1901.53 7.84236L1902.07 4.892ZM1906.3 5.882H1909.3V3.66628L1907.18 3.01466L1906.3 5.882ZM1906.3 17.894L1905.14 20.6617L1909.3 22.4003V17.894H1906.3ZM1899.9 15.848L1900.46 12.901L1899.9 15.848ZM1891.65 15.65L1892.1 18.6151L1892.16 18.6066L1892.21 18.596L1891.65 15.65ZM1891.45 18.356L1890.46 21.1895L1890.52 21.2089L1890.57 21.226L1891.45 18.356ZM1896.27 19.742L1895.46 22.6309L1895.47 22.6346L1896.27 19.742ZM1904.19 23.24L1902.35 25.6112L1902.37 25.6258L1902.39 25.64L1904.19 23.24ZM1907.68 27.992L1904.82 28.8791L1904.83 28.9204L1904.84 28.9614L1907.68 27.992ZM1903.86 44.03L1905.68 46.414L1905.69 46.4061L1905.7 46.3981L1903.86 44.03ZM1889.67 44.66C1886.84 44.66 1884.13 44.4312 1881.54 43.9787L1880.5 49.8893C1883.46 50.4048 1886.51 50.66 1889.67 50.66V44.66ZM1881.58 43.987C1879 43.496 1876.96 42.8228 1875.39 42.0193L1872.66 47.3607C1874.87 48.4931 1877.49 49.316 1880.46 49.881L1881.58 43.987ZM1877.02 44.69V32.744H1871.02V44.69H1877.02ZM1872.71 35.4386C1874.99 36.5546 1877.52 37.4567 1880.28 38.1595L1881.76 32.3445C1879.33 31.7273 1877.2 30.9574 1875.34 30.0494L1872.71 35.4386ZM1880.28 38.1595C1883.05 38.8624 1885.61 39.242 1887.95 39.242V33.242C1886.24 33.242 1884.19 32.9616 1881.76 32.3445L1880.28 38.1595ZM1887.95 39.242C1889.44 39.242 1890.93 39.076 1892.19 38.554L1889.91 33.006C1889.68 33.1 1889.09 33.242 1887.95 33.242V39.242ZM1892.33 38.4945C1893.7 37.8474 1895.17 36.5114 1895.17 34.328H1889.17C1889.17 33.9772 1889.3 33.606 1889.52 33.3187C1889.71 33.0761 1889.86 33.0241 1889.77 33.0655L1892.33 38.4945ZM1895.17 34.328C1895.17 32.9084 1894.49 31.7785 1893.62 31.0143C1892.83 30.3185 1891.85 29.8971 1890.96 29.6166L1889.17 35.3434C1889.4 35.4167 1889.55 35.4814 1889.64 35.5263C1889.74 35.5724 1889.73 35.5812 1889.67 35.5297C1889.61 35.4746 1889.47 35.3401 1889.36 35.1086C1889.24 34.8654 1889.17 34.5927 1889.17 34.328H1895.17ZM1890.96 29.6166C1889.61 29.1968 1887.82 28.5769 1885.55 27.7482L1883.49 33.3838C1885.8 34.2271 1887.69 34.8832 1889.17 35.3434L1890.96 29.6166ZM1885.6 27.7683C1883.01 26.7639 1881.11 25.7733 1879.81 24.834L1876.29 29.698C1878.16 31.0467 1880.57 32.2561 1883.43 33.3637L1885.6 27.7683ZM1879.81 24.834C1878.6 23.9601 1877.82 22.9959 1877.36 21.9556L1871.88 24.3924C1872.82 26.5201 1874.34 28.2839 1876.29 29.698L1879.81 24.834ZM1877.4 22.0469C1876.93 20.8846 1876.63 19.2718 1876.63 17.102H1870.63C1870.63 19.7722 1870.99 22.2074 1871.84 24.3011L1877.4 22.0469ZM1876.63 17.102C1876.63 13.4753 1877.85 11.1518 1880.03 9.59836C1882.41 7.91101 1886.34 6.836 1892.31 6.836V0.835997C1885.82 0.835997 1880.41 1.97198 1876.56 4.70663C1872.52 7.57522 1870.63 11.8847 1870.63 17.102H1876.63ZM1892.31 6.836C1893.56 6.836 1894.99 6.93435 1896.61 7.14164L1897.37 1.19035C1895.56 0.957643 1893.87 0.835997 1892.31 0.835997V6.836ZM1896.69 7.15111C1898.37 7.319 1899.98 7.54899 1901.52 7.83971L1902.63 1.94429C1900.91 1.61901 1899.13 1.365 1897.29 1.18089L1896.69 7.15111ZM1901.53 7.84236C1903.13 8.13726 1904.42 8.44244 1905.42 8.74934L1907.18 3.01466C1905.89 2.61756 1904.36 2.26274 1902.62 1.94164L1901.53 7.84236ZM1903.3 5.882V17.894H1909.3V5.882H1903.3ZM1907.46 15.1263C1904.91 14.0628 1902.57 13.3038 1900.46 12.901L1899.33 18.795C1900.92 19.0962 1902.84 19.7012 1905.14 20.6617L1907.46 15.1263ZM1900.46 12.901C1898.48 12.5247 1896.66 12.32 1895.01 12.32V18.32C1896.18 18.32 1897.61 18.4673 1899.33 18.795L1900.46 12.901ZM1895.01 12.32C1893.71 12.32 1892.4 12.4502 1891.08 12.704L1892.21 18.596C1893.18 18.4098 1894.11 18.32 1895.01 18.32V12.32ZM1891.19 12.6849C1890.39 12.8081 1889.39 13.0733 1888.53 13.7341C1887.53 14.5053 1886.93 15.6596 1886.93 16.97H1892.93C1892.93 17.2121 1892.88 17.5189 1892.72 17.8331C1892.56 18.145 1892.36 18.3592 1892.19 18.4899C1891.9 18.7107 1891.76 18.6679 1892.1 18.6151L1891.19 12.6849ZM1886.93 16.97C1886.93 18.2646 1887.54 19.2838 1888.29 19.961C1888.96 20.5767 1889.77 20.9471 1890.46 21.1895L1892.43 15.5225C1892.12 15.4129 1892.16 15.3763 1892.33 15.53C1892.43 15.6213 1892.59 15.7927 1892.72 16.0597C1892.86 16.3383 1892.93 16.653 1892.93 16.97H1886.93ZM1890.57 21.226C1891.62 21.5445 1893.25 22.0141 1895.46 22.6309L1897.07 16.8531C1894.88 16.2379 1893.3 15.7835 1892.32 15.486L1890.57 21.226ZM1895.47 22.6346C1898.82 23.5567 1901.03 24.5927 1902.35 25.6112L1906.02 20.8688C1903.82 19.1593 1900.75 17.8633 1897.06 16.8494L1895.47 22.6346ZM1902.39 25.64C1903.71 26.6348 1904.46 27.716 1904.82 28.8791L1910.55 27.1049C1909.77 24.572 1908.18 22.4852 1905.99 20.84L1902.39 25.64ZM1904.84 28.9614C1905.33 30.3873 1905.61 32.1379 1905.61 34.262H1911.61C1911.61 31.6341 1911.27 29.2047 1910.52 27.0226L1904.84 28.9614ZM1905.61 34.262C1905.61 37.3936 1904.44 39.772 1902.01 41.6619L1905.7 46.3981C1909.6 43.36 1911.61 39.2264 1911.61 34.262H1905.61ZM1902.03 41.646C1899.61 43.4943 1895.65 44.66 1889.67 44.66V50.66C1896.26 50.66 1901.76 49.4058 1905.68 46.414L1902.03 41.646ZM1927.65 47H1924.65V50H1927.65V47ZM1927.65 15.98H1930.65V12.98H1927.65V15.98ZM1916.83 15.98H1913.83V18.98H1916.83V15.98ZM1916.83 4.496V1.496H1913.83V4.496H1916.83ZM1954.45 4.496H1957.45V1.496H1954.45V4.496ZM1954.45 15.98V18.98H1957.45V15.98H1954.45ZM1943.62 15.98V12.98H1940.62V15.98H1943.62ZM1943.62 47V50H1946.62V47H1943.62ZM1930.65 47V15.98H1924.65V47H1930.65ZM1927.65 12.98H1916.83V18.98H1927.65V12.98ZM1919.83 15.98V4.496H1913.83V15.98H1919.83ZM1916.83 7.496H1954.45V1.496H1916.83V7.496ZM1951.45 4.496V15.98H1957.45V4.496H1951.45ZM1954.45 12.98H1943.62V18.98H1954.45V12.98ZM1940.62 15.98V47H1946.62V15.98H1940.62ZM1943.62 44H1927.65V50H1943.62V44ZM1957.11 47L1954.31 45.9219L1952.74 50H1957.11V47ZM1973.48 4.496V1.496H1971.42L1970.68 3.41789L1973.48 4.496ZM1990.05 4.496L1992.85 3.41789L1992.11 1.496H1990.05V4.496ZM2006.41 47V50H2010.78L2009.21 45.9219L2006.41 47ZM1989.78 47L1986.98 48.0738L1987.72 50H1989.78V47ZM1986.75 39.08L1989.55 38.0062L1988.81 36.08H1986.75V39.08ZM1976.78 39.08V36.08H1974.72L1973.98 38.0062L1976.78 39.08ZM1973.74 47V50H1975.81L1976.55 48.0738L1973.74 47ZM1978.5 28.19L1975.71 27.0797L1974.07 31.19H1978.5V28.19ZM1984.96 28.19V31.19H1989.39L1987.75 27.0797L1984.96 28.19ZM1981.73 20.072L1984.52 18.9617L1981.73 11.9658L1978.94 18.9617L1981.73 20.072ZM1959.91 48.0781L1976.28 5.5741L1970.68 3.41789L1954.31 45.9219L1959.91 48.0781ZM1973.48 7.496H1990.05V1.496H1973.48V7.496ZM1987.25 5.5741L2003.61 48.0781L2009.21 45.9219L1992.85 3.41789L1987.25 5.5741ZM2006.41 44H1989.78V50H2006.41V44ZM1992.58 45.9262L1989.55 38.0062L1983.95 40.1538L1986.98 48.0738L1992.58 45.9262ZM1986.75 36.08H1976.78V42.08H1986.75V36.08ZM1973.98 38.0062L1970.94 45.9262L1976.55 48.0738L1979.58 40.1538L1973.98 38.0062ZM1973.74 44H1957.11V50H1973.74V44ZM1978.5 31.19H1984.96V25.19H1978.5V31.19ZM1987.75 27.0797L1984.52 18.9617L1978.94 21.1823L1982.18 29.3003L1987.75 27.0797ZM1978.94 18.9617L1975.71 27.0797L1981.28 29.3003L1984.52 21.1823L1978.94 18.9617ZM2021.19 47H2018.19V50H2021.19V47ZM2021.19 31.556H2024.19V30.7631L2023.79 30.0738L2021.19 31.556ZM2005.81 4.496V1.496H2000.65L2003.2 5.97824L2005.81 4.496ZM2022.44 4.496L2025.13 3.1596L2024.3 1.496H2022.44V4.496ZM2029.17 18.026L2026.49 19.3624L2029.17 24.7605L2031.86 19.3624L2029.17 18.026ZM2035.9 4.496V1.496H2034.05L2033.22 3.1596L2035.9 4.496ZM2052.54 4.496L2055.14 5.97824L2057.69 1.496H2052.54V4.496ZM2037.16 31.556L2034.55 30.0738L2034.16 30.7631V31.556H2037.16ZM2037.16 47V50H2040.16V47H2037.16ZM2024.19 47V31.556H2018.19V47H2024.19ZM2023.79 30.0738L2008.42 3.01375L2003.2 5.97824L2018.58 33.0382L2023.79 30.0738ZM2005.81 7.496H2022.44V1.496H2005.81V7.496ZM2019.75 5.83239L2026.49 19.3624L2031.86 16.6896L2025.13 3.1596L2019.75 5.83239ZM2031.86 19.3624L2038.59 5.83239L2033.22 3.1596L2026.49 16.6896L2031.86 19.3624ZM2035.9 7.496H2052.54V1.496H2035.9V7.496ZM2049.93 3.01375L2034.55 30.0738L2039.77 33.0382L2055.14 5.97824L2049.93 3.01375ZM2034.16 31.556V47H2040.16V31.556H2034.16ZM2037.16 44H2021.19V50H2037.16V44ZM2082.89 47H2079.89V50H2082.89V47ZM2082.89 4.496V1.496H2079.89V4.496H2082.89ZM2114.76 6.674L2113.56 9.41994L2113.57 9.42673L2113.59 9.43334L2114.76 6.674ZM2122.42 13.538L2119.81 15.0225L2119.82 15.0304L2119.82 15.0382L2122.42 13.538ZM2122.42 38.024L2119.83 36.5078L2119.82 36.5216L2119.82 36.5356L2122.42 38.024ZM2114.83 44.822L2113.62 42.0761L2113.62 42.0791L2113.61 42.0821L2114.83 44.822ZM2098.86 34.856H2095.86V37.856H2098.86V34.856ZM2105.33 34.196L2106.4 36.996L2105.33 34.196ZM2107.97 31.622L2110.67 32.9262L2107.97 31.622ZM2108.03 20.534L2105.31 21.7973L2105.32 21.8165L2105.33 21.8354L2108.03 20.534ZM2105.46 18.158L2104.44 20.9807L2104.51 21.0046L2104.58 21.0253L2105.46 18.158ZM2098.86 17.564V14.564H2095.86V17.564H2098.86ZM2085.89 47V4.496H2079.89V47H2085.89ZM2082.89 7.496H2103.08V1.496H2082.89V7.496ZM2103.08 7.496C2107.25 7.496 2110.72 8.17116 2113.56 9.41994L2115.97 3.92806C2112.21 2.27283 2107.89 1.496 2103.08 1.496V7.496ZM2113.59 9.43334C2116.27 10.5796 2118.33 12.4143 2119.81 15.0225L2125.03 12.0535C2122.9 8.32565 2119.85 5.5844 2115.94 3.91466L2113.59 9.43334ZM2119.82 15.0382C2121.27 17.5488 2122.13 21.1291 2122.13 26.012H2128.13C2128.13 20.5109 2127.18 15.7752 2125.02 12.0378L2119.82 15.0382ZM2122.13 26.012C2122.13 30.601 2121.28 34.0303 2119.83 36.5078L2125.01 39.5402C2127.17 35.8577 2128.13 31.279 2128.13 26.012H2122.13ZM2119.82 36.5356C2118.38 39.0479 2116.34 40.8783 2113.62 42.0761L2116.04 47.5679C2119.92 45.8617 2122.94 43.1601 2125.02 39.5124L2119.82 36.5356ZM2113.61 42.0821C2110.83 43.3213 2107.35 44 2103.08 44V50C2107.96 50 2112.32 49.2267 2116.05 47.5619L2113.61 42.0821ZM2103.08 44H2082.89V50H2103.08V44ZM2098.86 37.856H2101.23V31.856H2098.86V37.856ZM2101.23 37.856C2103.08 37.856 2104.83 37.6006 2106.4 36.996L2104.25 31.396C2103.53 31.6714 2102.55 31.856 2101.23 31.856V37.856ZM2106.4 36.996C2108.37 36.2395 2109.78 34.7744 2110.67 32.9262L2105.26 30.3178C2104.92 31.0216 2104.57 31.2724 2104.25 31.396L2106.4 36.996ZM2110.67 32.9262C2111.58 31.0465 2111.89 28.6408 2111.89 26.012H2105.89C2105.89 28.3112 2105.59 29.6455 2105.26 30.3178L2110.67 32.9262ZM2111.89 26.012C2111.89 23.423 2111.61 21.0429 2110.74 19.2326L2105.33 21.8354C2105.6 22.4011 2105.89 23.673 2105.89 26.012H2111.89ZM2110.75 19.2707C2109.88 17.3828 2108.41 15.9277 2106.34 15.2907L2104.58 21.0253C2104.79 21.0923 2105.04 21.2212 2105.31 21.7973L2110.75 19.2707ZM2106.47 15.3353C2104.93 14.7808 2103.15 14.564 2101.23 14.564V20.564C2102.75 20.564 2103.78 20.7432 2104.44 20.9807L2106.47 15.3353ZM2101.23 14.564H2098.86V20.564H2101.23V14.564ZM2095.86 17.564V34.856H2101.86V17.564H2095.86ZM2135.33 47H2132.33V50H2135.33V47ZM2135.33 4.496V1.496H2132.33V4.496H2135.33ZM2168.26 6.608L2166.73 9.18887L2166.75 9.19944L2166.77 9.20975L2168.26 6.608ZM2173.54 12.284L2170.83 13.5661L2170.84 13.596L2170.86 13.6256L2173.54 12.284ZM2173.08 27.926L2170.62 26.2158L2170.6 26.2329L2170.59 26.2502L2173.08 27.926ZM2167.8 33.272L2166.11 30.7922L2162.35 33.3566L2166.19 35.803L2167.8 33.272ZM2168.92 34.328L2166.43 35.9921L2166.47 36.0614L2166.52 36.128L2168.92 34.328ZM2169.58 35.45L2172.33 34.255L2172.33 34.2433L2172.32 34.2316L2169.58 35.45ZM2174.6 47V50H2179.17L2177.35 45.805L2174.6 47ZM2157.97 47L2155.22 48.2095L2156.01 50H2157.97V47ZM2153.81 37.562L2151.04 38.7159L2151.05 38.7438L2151.06 38.7715L2153.81 37.562ZM2153.08 36.506L2151.16 38.8107L2151.28 38.9133L2151.42 39.0021L2153.08 36.506ZM2151.3 36.176V33.176H2148.3V36.176H2151.3ZM2151.3 47V50H2154.3V47H2151.3ZM2151.3 23.702H2148.3V26.702H2151.3V23.702ZM2158.16 17.762L2156.13 19.9664L2156.17 20.0038L2156.21 20.0398L2158.16 17.762ZM2151.3 16.97V13.97H2148.3V16.97H2151.3ZM2138.33 47V4.496H2132.33V47H2138.33ZM2135.33 7.496H2159.22V1.496H2135.33V7.496ZM2159.22 7.496C2162.5 7.496 2164.95 8.13002 2166.73 9.18887L2169.79 4.02712C2166.83 2.26998 2163.24 1.496 2159.22 1.496V7.496ZM2166.77 9.20975C2168.63 10.2763 2169.95 11.7139 2170.83 13.5661L2176.25 11.0019C2174.84 8.01412 2172.65 5.66768 2169.76 4.00624L2166.77 9.20975ZM2170.86 13.6256C2171.81 15.5291 2172.32 17.7649 2172.32 20.402H2178.32C2178.32 16.9671 2177.65 13.7908 2176.23 10.9424L2170.86 13.6256ZM2172.32 20.402C2172.32 22.7083 2171.73 24.6073 2170.62 26.2158L2175.54 29.6362C2177.42 26.9327 2178.32 23.8157 2178.32 20.402H2172.32ZM2170.59 26.2502C2169.34 28.1023 2167.85 29.6073 2166.11 30.7922L2169.49 35.7518C2171.88 34.1207 2173.91 32.0617 2175.57 29.6018L2170.59 26.2502ZM2166.19 35.803C2166.39 35.932 2166.44 36.0073 2166.43 35.9921L2171.42 32.6639C2170.88 31.8567 2170.18 31.228 2169.41 30.741L2166.19 35.803ZM2166.52 36.128C2166.65 36.3024 2166.76 36.4816 2166.84 36.6684L2172.32 34.2316C2172.05 33.6264 2171.72 33.0576 2171.32 32.528L2166.52 36.128ZM2166.83 36.645L2171.85 48.195L2177.35 45.805L2172.33 34.255L2166.83 36.645ZM2174.6 44H2157.97V50H2174.6V44ZM2160.71 45.7905L2156.55 36.3525L2151.06 38.7715L2155.22 48.2095L2160.71 45.7905ZM2156.58 36.4081C2156.29 35.7144 2155.76 34.686 2154.75 34.0099L2151.42 39.0021C2151.14 38.819 2151.01 38.6377 2150.99 38.6016C2150.96 38.5601 2150.98 38.5835 2151.04 38.7159L2156.58 36.4081ZM2155 34.2013C2154.02 33.3793 2152.86 33.176 2151.96 33.176V39.176C2152.03 39.176 2151.62 39.1927 2151.16 38.8107L2155 34.2013ZM2151.96 33.176H2151.3V39.176H2151.96V33.176ZM2148.3 36.176V47H2154.3V36.176H2148.3ZM2151.3 44H2135.33V50H2151.3V44ZM2151.3 26.702H2155.19V20.702H2151.3V26.702ZM2155.19 26.702C2156.84 26.702 2158.64 26.3628 2160.05 25.1657C2161.56 23.888 2162.09 22.1064 2162.09 20.402H2156.09C2156.09 20.6635 2156.05 20.7579 2156.05 20.7476C2156.06 20.7191 2156.11 20.6474 2156.18 20.5883C2156.23 20.5382 2156.23 20.5662 2156.08 20.6087C2155.92 20.6536 2155.64 20.702 2155.19 20.702V26.702ZM2162.09 20.402C2162.09 18.7519 2161.68 16.8245 2160.12 15.4842L2156.21 20.0398C2156.14 19.9815 2156.09 19.9207 2156.06 19.87C2156.03 19.8212 2156.02 19.7954 2156.03 19.809C2156.04 19.8467 2156.09 20.0214 2156.09 20.402H2162.09ZM2160.2 15.5576C2158.83 14.2909 2157.02 13.97 2155.46 13.97V19.97C2155.87 19.97 2156.11 20.0157 2156.22 20.0472C2156.31 20.0758 2156.25 20.0748 2156.13 19.9664L2160.2 15.5576ZM2155.46 13.97H2151.3V19.97H2155.46V13.97ZM2148.3 16.97V23.702H2154.3V16.97H2148.3ZM2185.9 47H2182.9V50H2185.9V47ZM2185.9 4.496V1.496H2182.9V4.496H2185.9ZM2201.87 4.496H2204.87V1.496H2201.87V4.496ZM2201.87 47V50H2204.87V47H2201.87ZM2188.9 47V4.496H2182.9V47H2188.9ZM2185.9 7.496H2201.87V1.496H2185.9V7.496ZM2198.87 4.496V47H2204.87V4.496H2198.87ZM2201.87 44H2185.9V50H2201.87V44ZM2228.77 47L2225.97 48.0781L2226.71 50H2228.77V47ZM2212.4 4.496V1.496H2208.03L2209.6 5.5741L2212.4 4.496ZM2229.03 4.496L2231.88 3.53541L2231.19 1.496H2229.03V4.496ZM2237.02 28.124L2234.18 29.0846L2237.01 37.4587L2239.86 29.0917L2237.02 28.124ZM2245.07 4.496V1.496H2242.92L2242.23 3.5283L2245.07 4.496ZM2261.7 4.496L2264.5 5.5741L2266.07 1.496H2261.7V4.496ZM2245.34 47V50H2247.39L2248.13 48.0781L2245.34 47ZM2231.57 45.9219L2215.2 3.41789L2209.6 5.5741L2225.97 48.0781L2231.57 45.9219ZM2212.4 7.496H2229.03V1.496H2212.4V7.496ZM2226.19 5.45658L2234.18 29.0846L2239.86 27.1634L2231.88 3.53541L2226.19 5.45658ZM2239.86 29.0917L2247.91 5.4637L2242.23 3.5283L2234.18 27.1563L2239.86 29.0917ZM2245.07 7.496H2261.7V1.496H2245.07V7.496ZM2258.9 3.41789L2242.54 45.9219L2248.13 48.0781L2264.5 5.5741L2258.9 3.41789ZM2245.34 44H2228.77V50H2245.34V44ZM2272.29 47H2269.29V50H2272.29V47ZM2272.29 4.496V1.496H2269.29V4.496H2272.29ZM2306.28 4.496H2309.28V1.496H2306.28V4.496ZM2306.28 15.98V18.98H2309.28V15.98H2306.28ZM2288.26 15.98V12.98H2285.26V15.98H2288.26ZM2288.26 19.808H2285.26V22.808H2288.26V19.808ZM2303.77 19.808H2306.77V16.808H2303.77V19.808ZM2303.77 31.688V34.688H2306.77V31.688H2303.77ZM2288.26 31.688V28.688H2285.26V31.688H2288.26ZM2288.26 35.516H2285.26V38.516H2288.26V35.516ZM2306.28 35.516H2309.28V32.516H2306.28V35.516ZM2306.28 47V50H2309.28V47H2306.28ZM2275.29 47V4.496H2269.29V47H2275.29ZM2272.29 7.496H2306.28V1.496H2272.29V7.496ZM2303.28 4.496V15.98H2309.28V4.496H2303.28ZM2306.28 12.98H2288.26V18.98H2306.28V12.98ZM2285.26 15.98V19.808H2291.26V15.98H2285.26ZM2288.26 22.808H2303.77V16.808H2288.26V22.808ZM2300.77 19.808V31.688H2306.77V19.808H2300.77ZM2303.77 28.688H2288.26V34.688H2303.77V28.688ZM2285.26 31.688V35.516H2291.26V31.688H2285.26ZM2288.26 38.516H2306.28V32.516H2288.26V38.516ZM2303.28 35.516V47H2309.28V35.516H2303.28ZM2306.28 44H2272.29V50H2306.28V44ZM2316.16 47H2313.16V50H2316.16V47ZM2316.16 4.496V1.496H2313.16V4.496H2316.16ZM2329.55 4.496L2331.99 2.75228L2331.1 1.496H2329.55V4.496ZM2341.43 21.128L2338.99 22.8717L2344.43 30.4894V21.128H2341.43ZM2341.43 4.496V1.496H2338.43V4.496H2341.43ZM2357.41 4.496H2360.41V1.496H2357.41V4.496ZM2357.41 47V50H2360.41V47H2357.41ZM2343.94 47L2341.5 48.7373L2342.39 50H2343.94V47ZM2332.13 30.368L2334.57 28.6307L2329.13 20.964V30.368H2332.13ZM2332.13 47V50H2335.13V47H2332.13ZM2319.16 47V4.496H2313.16V47H2319.16ZM2316.16 7.496H2329.55V1.496H2316.16V7.496ZM2327.11 6.23971L2338.99 22.8717L2343.87 19.3843L2331.99 2.75228L2327.11 6.23971ZM2344.43 21.128V4.496H2338.43V21.128H2344.43ZM2341.43 7.496H2357.41V1.496H2341.43V7.496ZM2354.41 4.496V47H2360.41V4.496H2354.41ZM2357.41 44H2343.94V50H2357.41V44ZM2346.39 45.2627L2334.57 28.6307L2329.68 32.1053L2341.5 48.7373L2346.39 45.2627ZM2329.13 30.368V47H2335.13V30.368H2329.13ZM2332.13 44H2316.16V50H2332.13V44Z" fill="white" mask="url(#path-1-outside-1_656_2396)"/>
</g>
</svg>
