<svg width="86" height="87" viewBox="0 0 86 87" fill="none" xmlns="http://www.w3.org/2000/svg">
<path d="M61.0267 33.4521L70.5504 19.1667C70.9973 18.5134 71.0317 17.6539 70.6535 16.9662C70.2753 16.2614 69.5533 15.8317 68.7626 15.8317H43.1828C42.1857 10.9323 37.8365 7.23631 32.6621 7.23631H14.1821V4.22794C14.1821 3.04178 13.2194 2.0791 12.0332 2.0791C10.8471 2.0791 9.88441 3.04178 9.88441 4.22794V81.1563H3.4379C2.25174 81.1563 1.28906 82.119 1.28906 83.3052C1.28906 84.4913 2.25174 85.454 3.4379 85.454H20.6286C21.8148 85.454 22.7774 84.4913 22.7774 83.3052C22.7774 82.119 21.8148 81.1563 20.6286 81.1563H14.1821V42.4772H39.3321C40.3291 47.3766 44.6784 51.0726 49.8528 51.0726H68.7626C69.5533 51.0726 70.2753 50.6428 70.6535 49.938C71.0317 49.2332 70.9801 48.3908 70.5504 47.7376L61.0267 33.4521ZM14.1821 11.534H32.6621C36.2206 11.534 39.1086 14.422 39.1086 17.9805V38.1796H14.1821V11.534ZM49.8528 46.7749C46.2943 46.7749 43.4063 43.8869 43.4063 40.3284V20.1293H64.7399L56.6603 32.266C56.179 32.988 56.179 33.9335 56.6603 34.6555L64.7399 46.7921H49.8528V46.7749Z" fill="black"/>
</svg>

