<svg width="80" height="64" viewBox="0 0 80 64" fill="none" xmlns="http://www.w3.org/2000/svg">
<g clip-path="url(#clip0_1010_312)">
<path d="M34.7522 13.4147V7.25131C34.7522 5.45713 35.3044 3.88607 37.3071 3.85353C41.1487 3.79311 44.9996 3.85353 48.8412 3.85353H70.1081C70.4731 3.85353 70.8521 3.82564 71.2124 3.85353C72.5881 3.96509 73.2666 5.09923 73.3181 6.39605C73.4538 9.78918 73.3181 13.2102 73.3181 16.6033V31.5424C73.3181 32.6719 73.5427 34.2569 72.9858 35.2888C72.2418 36.6693 70.8662 36.4369 69.5607 36.4369H40.8211C39.5531 36.4369 38.2803 36.4834 37.0123 36.4369C34.4387 36.3393 34.7522 33.4853 34.7522 31.6447V28.8558C34.7522 27.5822 32.7542 27.5775 32.7542 28.8558C32.7542 30.9893 32.3144 33.6852 33.0958 35.7164C33.8772 37.7476 35.6132 38.4216 37.6065 38.4216H67.5205C68.7465 38.4216 69.9818 38.4635 71.2077 38.4216C73.8 38.3333 75.2693 36.1533 75.3114 33.727C75.4658 24.7933 75.3629 15.8364 75.3114 6.89805C75.2973 4.44849 74.062 2.00358 71.3107 1.87808C70.3374 1.8316 69.3548 1.87808 68.3815 1.87808H38.1914C36.5865 1.87808 35.1125 1.87343 33.924 3.2028C32.1927 5.13641 32.7542 8.46447 32.7542 10.8443V13.4194C32.7542 14.693 34.7522 14.6976 34.7522 13.4194V13.4147Z" fill="#F29DAA"/>
<path d="M21.7669 7.93875C21.678 11.1924 19.0998 13.9069 15.7588 13.9069C12.4179 13.9069 9.7648 11.1924 9.75076 7.93875C9.7414 4.68506 12.4928 1.97056 15.7588 1.97056C19.0249 1.97056 21.678 4.68506 21.7669 7.93875C21.7997 9.21234 23.7977 9.21698 23.7649 7.93875C23.676 4.64788 21.7248 1.68703 18.5851 0.501755C15.4453 -0.683516 11.7675 0.278645 9.61974 2.84441C4.94056 8.4361 9.966 17.0072 17.1626 15.7615C21.0042 15.0969 23.662 11.7363 23.7649 7.93875C23.7977 6.66052 21.8043 6.66516 21.7669 7.93875Z" fill="#F29DAA"/>
<path d="M7.08857 40.5639C3.74763 40.5639 2.0023 37.7657 2.0023 34.7677V27.3586C2.0023 25.4947 1.56713 22.8081 2.73693 21.1998C3.73827 19.824 5.13735 19.7124 6.6768 19.4382C7.91211 19.2197 9.14273 18.992 10.3734 18.7642C14.463 18.0205 18.3326 18.239 22.4597 18.3923C27.2792 18.569 32.1035 18.741 36.923 18.9176C37.7653 18.9501 38.2473 19.0059 37.667 20.0424C36.6423 21.8784 34.4384 23.0265 32.5153 23.6866C29.8809 24.5883 27.1669 24.3931 24.4249 24.3931C23.8681 24.3931 23.4517 24.8486 23.4283 25.3831C22.9042 36.1342 22.3755 46.8853 21.8514 57.6318C21.8327 58.0594 21.8514 58.5196 21.7859 58.9472C21.4864 60.8065 19.8861 60.7042 18.4403 60.7042H13.2885C11.8052 60.7042 10.0365 60.8994 9.72295 58.9612C9.47963 57.4459 9.55918 55.8004 9.47963 54.2712C9.31118 50.9664 9.13805 47.6569 8.9696 44.3521C8.67481 38.6535 8.38002 32.9596 8.08524 27.261C8.01973 25.992 6.02172 25.9827 6.08722 27.261C6.35862 32.4994 6.63001 37.7378 6.89672 42.9809C7.17279 48.2984 7.26638 53.6577 7.72026 58.9612C7.90275 61.0947 9.48431 62.6053 11.6367 62.6936C13.0452 62.754 14.4723 62.6936 15.8854 62.6936C19.0111 62.6936 23.4189 63.2421 23.7745 58.9472C24.205 53.7413 24.2846 48.4889 24.5419 43.2737C24.832 37.3149 25.1268 31.3513 25.4169 25.3924L24.4203 26.3825C27.2044 26.3825 29.9979 26.573 32.6884 25.7224C34.6724 25.0949 36.6423 24.1095 38.1303 22.6454C39.2112 21.5856 40.5213 19.7914 39.7539 18.225C38.9491 16.5796 36.4364 16.9282 34.9016 16.8724C31.907 16.7655 28.9123 16.654 25.9176 16.547C20.9951 16.3658 15.8948 15.7755 11.0144 16.6493C9.60129 16.9003 8.19286 17.1606 6.77974 17.4209C5.3292 17.6858 3.9114 17.7323 2.63399 18.5876C0.0417194 20.3213 0.00428579 23.0358 0.00428579 25.7968C0.00428579 28.8925 -0.00975176 31.9835 0.00428579 35.0791C0.0230025 39.0625 2.88198 42.5486 7.08857 42.5486C8.37067 42.5486 8.37534 40.5639 7.08857 40.5639Z" fill="#F29DAA"/>
<path d="M16.7558 61.6943V44.8495C16.7558 43.5759 14.7578 43.5713 14.7578 44.8495V61.6943C14.7578 62.9679 16.7558 62.9725 16.7558 61.6943Z" fill="#F29DAA"/>
<path d="M59.8649 63.0098C59.9631 62.0197 60.0567 61.025 60.155 60.035C60.2064 59.5004 59.659 59.0449 59.1583 59.0449C58.5734 59.0449 58.2131 59.5004 58.1616 60.035C58.0634 61.025 57.9698 62.0197 57.8715 63.0098C57.8201 63.5443 58.3675 63.9998 58.8682 63.9998C59.4531 63.9998 59.8134 63.5443 59.8649 63.0098Z" fill="#F29DAA"/>
<path d="M47.9096 60.035C48.0079 61.025 48.1015 62.0197 48.1997 63.0098C48.2512 63.5443 48.6209 63.9998 49.1964 63.9998C49.6971 63.9998 50.2445 63.5443 50.1931 63.0098C50.0948 62.0197 50.0012 61.025 49.903 60.035C49.8515 59.5004 49.4818 59.0449 48.9063 59.0449C48.4056 59.0449 47.8581 59.5004 47.9096 60.035Z" fill="#F29DAA"/>
<path d="M65.0539 63.0097C65.0539 61.2527 65.3019 59.3238 64.9697 57.59C64.3661 54.4153 61.3667 54.169 58.7511 53.6949C55.878 53.1743 53.1781 52.993 50.2771 53.5183C47.8766 53.9552 44.8211 53.9366 43.525 56.3583C42.533 58.2175 43.0103 60.9785 43.0103 63.0097C43.0103 64.2833 45.0083 64.288 45.0083 63.0097V60.1697C45.0083 58.9473 44.7837 57.511 45.8272 56.6139C46.6741 55.8842 48.4802 55.8563 49.5799 55.6564C51.0585 55.3868 52.5184 55.0893 54.0344 55.0893C55.5505 55.0893 57.0057 55.3868 58.489 55.6564C59.5886 55.8563 61.3948 55.8842 62.2417 56.6139C63.2852 57.511 63.0606 58.9473 63.0606 60.1697V63.0097C63.0606 64.2833 65.0586 64.288 65.0586 63.0097H65.0539Z" fill="#F29DAA"/>
<path d="M57.7966 46.8293C57.6094 51.6587 50.2724 51.6354 50.2724 46.8293C50.2724 42.0231 57.6094 41.9952 57.7966 46.8293C57.848 48.1029 59.8414 48.1075 59.7946 46.8293C59.6729 43.715 57.2584 41.1214 54.0345 41.1074C50.9041 41.0982 48.2744 43.7243 48.2744 46.8293C48.2744 49.9342 50.8994 52.5511 54.0345 52.5511C57.1695 52.5511 59.6729 49.9389 59.7946 46.8293C59.846 45.5511 57.848 45.5557 57.7966 46.8293Z" fill="#F29DAA"/>
<path d="M73.8507 57.5345C73.7711 58.7291 73.6869 59.9283 73.6074 61.1229C73.5185 62.3964 75.5165 62.3918 75.6054 61.1229C75.6849 59.9283 75.7692 58.7291 75.8487 57.5345C75.9376 56.2609 73.9396 56.2656 73.8507 57.5345Z" fill="#F29DAA"/>
<path d="M65.148 54.2712C66.5752 54.0109 68.0164 53.667 69.4669 53.5415C71.5257 53.3695 73.4957 53.8576 75.5077 54.2015C76.4014 54.3549 77.3373 54.3967 77.8005 55.3124C78.0766 55.8562 77.9971 56.5349 77.9971 57.1252V61.1179C77.9971 62.3915 79.9951 62.3962 79.9951 61.1179C79.9951 59.598 80.0091 58.0781 79.9951 56.5581C79.9717 54.248 78.6896 52.7048 76.3874 52.3516C74.3426 52.0355 72.3399 51.4731 70.253 51.5149C68.3626 51.5521 66.4722 52.0169 64.6193 52.3562C63.3559 52.584 63.894 54.499 65.148 54.2666V54.2712Z" fill="#F29DAA"/>
<path d="M65.4894 46.3651C65.6111 49.075 67.6933 51.3572 70.5149 51.3572C73.3364 51.3572 75.5403 49.0796 75.5403 46.3651C75.5403 43.6506 73.2475 41.373 70.5149 41.373C67.7822 41.373 65.6111 43.6553 65.4894 46.3651C65.4333 47.6387 67.4266 47.6387 67.4875 46.3651C67.6606 42.5118 73.5376 42.47 73.5423 46.3651C73.5517 50.2603 67.6606 50.2231 67.4875 46.3651C67.4313 45.0962 65.4333 45.0869 65.4894 46.3651Z" fill="#F29DAA"/>
<path d="M32.2155 57.5337C32.295 58.7283 32.3793 59.9275 32.4588 61.1221C32.5477 62.3864 34.541 62.3957 34.4568 61.1221C34.3773 59.9275 34.293 58.7283 34.2135 57.5337C34.1246 56.2694 32.1313 56.2602 32.2155 57.5337Z" fill="#F29DAA"/>
<path d="M43.4504 52.3611C41.5974 52.0264 39.7071 51.557 37.8167 51.5198C35.7297 51.478 33.7271 52.0404 31.6822 52.3565C29.3801 52.7097 28.0933 54.2575 28.0746 56.563C28.0606 58.0829 28.0746 59.6029 28.0746 61.1228C28.0746 62.3964 30.0726 62.401 30.0726 61.1228V57.2416C30.0726 56.6792 30.0024 56.0471 30.1989 55.5125C30.5967 54.4388 31.5887 54.3691 32.5666 54.2018C34.4851 53.8717 36.3801 53.393 38.3454 53.5185C39.8802 53.6207 41.415 53.9926 42.9263 54.2668C44.1803 54.4946 44.7185 52.5842 43.4551 52.3565L43.4504 52.3611Z" fill="#F29DAA"/>
<path d="M40.5822 46.3651C40.409 50.2184 34.532 50.2603 34.5273 46.3651C34.518 42.47 40.409 42.5072 40.5822 46.3651C40.6383 47.6341 42.6363 47.6434 42.5802 46.3651C42.4585 43.6553 40.3763 41.373 37.5547 41.373C34.7332 41.373 32.5293 43.6506 32.5293 46.3651C32.5293 49.0796 34.8221 51.3572 37.5547 51.3572C40.2874 51.3572 42.4585 49.075 42.5802 46.3651C42.6363 45.0915 40.643 45.0915 40.5822 46.3651Z" fill="#F29DAA"/>
<path d="M68.0685 18.4255C67.7924 17.1519 67.5163 15.8783 67.2403 14.6047C67.1701 14.2886 66.8612 13.9819 66.5431 13.9121C65.261 13.6379 63.9789 13.3637 62.6968 13.0894C61.4428 12.8198 60.9093 14.7348 62.168 14.9998C63.4501 15.274 64.7322 15.5483 66.0143 15.8225C65.7804 15.5901 65.5511 15.3623 65.3171 15.1299C65.5932 16.4035 65.8693 17.6771 66.1453 18.9507C66.4167 20.1964 68.3399 19.6712 68.0685 18.4255Z" fill="#F29DAA"/>
<path d="M65.5696 14.1675C62.3175 17.3979 59.0702 20.6237 55.8181 23.8542H57.2313C55.1069 21.7439 52.9826 19.6337 50.8629 17.5281C50.4839 17.1516 49.8335 17.1469 49.4498 17.5281C46.3194 20.6377 43.189 23.7473 40.0587 26.8569C39.1509 27.7586 40.5593 29.1623 41.4718 28.2606L50.8629 18.9318H49.4498C51.5741 21.0421 53.6985 23.1523 55.8181 25.2579C56.1972 25.6344 56.8476 25.639 57.2313 25.2579C60.4833 22.0275 63.7306 18.8017 66.9827 15.5712C67.8904 14.6695 66.482 13.2657 65.5696 14.1675Z" fill="#F29DAA"/>
</g>
<defs>
<clipPath id="clip0_1010_312">
<rect width="80" height="64" fill="#F29DAA"/>
</clipPath>
</defs>
</svg>
