<svg width="83" height="79" viewBox="0 0 83 79" fill="none" xmlns="http://www.w3.org/2000/svg">
<g clip-path="url(#clip0_1010_366)">
<path d="M51.9796 12.7984C51.9034 17.1844 49.2772 21.2003 45.1628 22.7428C41.0128 24.3008 36.2736 23.0051 33.4341 19.5806C30.62 16.1818 30.2543 11.1941 32.4842 7.38914C34.704 3.60471 39.1588 1.53252 43.4408 2.37065C48.3985 3.34247 51.8881 7.73364 51.9745 12.7984C51.9999 14.2073 54.1638 14.2124 54.1435 12.7984C54.052 7.39942 50.7757 2.59689 45.7368 0.735531C40.8299 -1.07441 35.09 0.545281 31.7782 4.61252C28.3799 8.78259 27.8923 14.8552 30.7115 19.4829C33.4493 23.982 38.6965 26.3062 43.8218 25.3806C49.8106 24.2957 54.0419 18.8607 54.1435 12.7984C54.1689 11.3844 51.9999 11.3844 51.9745 12.7984H51.9796Z" fill="white"/>
<path d="M36.1061 13.924C37.6859 14.9421 39.2656 15.9602 40.8454 16.9783C41.2263 17.2251 41.8562 17.1634 42.1559 16.8086C44.1267 14.4999 46.1027 12.1964 48.0736 9.88766C48.9828 8.82329 47.4539 7.26529 46.5395 8.33481C44.5687 10.6435 42.5927 12.9471 40.6219 15.2558C41.0587 15.1992 41.4955 15.1427 41.9324 15.0861C40.3526 14.068 38.7729 13.0499 37.1932 12.0318C36.0147 11.2708 34.9277 13.1682 36.101 13.924H36.1061Z" fill="white"/>
<path d="M17.6113 65.9543C15.5389 64.6482 17.4081 62.3652 18.2615 60.9769C19.1453 59.5423 20.4102 56.6115 22.5588 58.0152C24.5703 59.3264 22.8433 61.4705 21.9848 62.8691C21.0197 64.4374 19.9022 67.2089 17.6062 65.9543C16.377 65.2858 15.2849 67.178 16.5141 67.8465C19.0742 69.2451 21.36 68.0367 22.7722 65.7383C23.7677 64.1135 25.4694 62.1596 25.6472 60.1851C25.9316 57.0537 22.8026 54.6575 19.8971 55.7836C17.9161 56.5549 16.9103 59.0127 15.8589 60.7198C15.2646 61.6865 14.6245 62.6018 14.5179 63.7741C14.3706 65.3938 15.1427 66.9775 16.5141 67.8413C17.7028 68.5869 18.7898 66.6947 17.6062 65.9491L17.6113 65.9543Z" fill="white"/>
<path d="M22.9807 69.3329C20.5425 67.7955 23.7833 64.1088 24.7332 62.5611C25.6881 61.0082 27.6285 56.1697 30.1328 57.8048C32.5557 59.3834 29.3353 63.0238 28.3803 64.5767C27.3085 66.3198 25.617 70.7727 22.9807 69.3329C21.7515 68.6645 20.6594 70.5567 21.8886 71.2252C23.7122 72.2175 25.9269 71.9862 27.3238 70.3562C27.9231 69.6569 28.36 68.7725 28.8375 67.9961C30.1531 65.857 31.7379 63.7386 32.8198 61.4659C34.7145 57.5015 29.9397 53.4908 26.4602 56.1594C25.6272 56.797 25.1395 57.7534 24.6011 58.6327C23.7681 59.9901 22.9299 61.3476 22.0969 62.7102C21.4975 63.682 20.7965 64.6487 20.2987 65.6822C19.3539 67.6515 20.0549 70.0785 21.8886 71.2354C23.0772 71.981 24.1643 70.0888 22.9807 69.3432V69.3329Z" fill="white"/>
<path d="M28.3447 72.7107C26.1046 71.2967 28.5123 68.5201 29.4063 67.0598C30.3257 65.5635 31.8038 61.9127 34.1201 63.4244C36.3145 64.859 34.0388 67.4814 33.1347 68.9468C32.1238 70.5922 30.8032 74.0476 28.3447 72.7055C27.1154 72.0371 26.0233 73.9293 27.2525 74.5978C28.7459 75.4153 30.4882 75.4462 31.9156 74.4384C32.7537 73.8419 33.2363 72.9369 33.7645 72.0782C34.4503 70.9624 35.136 69.8467 35.8218 68.736C36.3399 67.8927 36.9443 67.0598 37.1577 66.0725C37.8841 62.6789 34.2979 59.8251 31.2146 61.3008C29.2031 62.2624 28.0551 65.1213 26.9427 66.9312C26.3789 67.8465 25.6423 68.8029 25.3731 69.8621C24.9159 71.672 25.6931 73.6105 27.2627 74.5978C28.4513 75.3433 29.5383 73.4511 28.3548 72.7055L28.3447 72.7107Z" fill="white"/>
<path d="M33.7081 76.0897C31.7931 74.8813 33.2662 72.8863 34.084 71.5597C34.9323 70.1765 36.1057 67.7393 38.107 69.0504C39.9611 70.2588 38.6251 72.1304 37.8073 73.457C36.8829 74.9585 35.872 77.2723 33.7081 76.0897C32.4789 75.4212 31.3868 77.3135 32.616 77.9819C34.1907 78.8406 36.0752 78.8252 37.4975 77.6528C38.422 76.8918 38.9858 75.6938 39.6055 74.6859C40.2404 73.6524 41.0075 72.6446 41.1751 71.4106C41.4037 69.7395 40.6367 68.0375 39.2042 67.1531C37.6905 66.2224 35.6993 66.3458 34.3228 67.4822C33.4034 68.2432 32.8344 69.4464 32.2147 70.449C31.5798 71.4825 30.8128 72.4904 30.6452 73.7244C30.4166 75.4058 31.1887 77.0821 32.616 77.9819C33.8046 78.7275 34.8917 76.8353 33.7081 76.0897Z" fill="white"/>
<path d="M60.7015 37.448C58.055 38.5587 55.5965 38.533 53.1583 36.8722C51.2332 35.561 49.9176 34.3321 47.4692 34.2755C46.2349 34.2498 44.9904 34.2755 43.7561 34.2755C42.603 34.2755 41.3433 34.1521 40.2105 34.4195C38.133 34.9131 36.4009 36.8002 34.8161 38.1371C32.708 39.9162 30.3867 41.5564 28.5631 43.6492C27.6742 44.6673 26.511 46.2612 27.4609 47.6136C28.4107 48.9607 30.5899 49.3721 32.1137 49.3001C35.131 49.1561 38.1076 47.5879 40.4594 45.7316C40.0226 45.7882 39.5858 45.8448 39.1489 45.9013C43.9796 48.9453 48.8153 51.9945 53.646 55.0385C56.6226 56.9152 59.5992 58.792 62.5758 60.6688C63.3276 61.1419 64.1048 61.5944 64.8413 62.0931C66.3652 63.1318 66.5227 65.6513 64.3639 66.0781C62.8908 66.3712 60.9047 64.5664 59.7516 63.8362C58.3801 62.9724 57.0137 62.1086 55.6423 61.2499C54.4536 60.5043 53.3666 62.3965 54.5501 63.1421C55.881 63.9802 57.2068 64.8132 58.5376 65.6513C59.8278 66.4637 61.2552 67.6824 62.7384 68.1297C65.3239 68.9113 68.1024 66.9985 68.2192 64.2373C68.2954 62.4376 67.31 61.0905 65.8826 60.1598C59.7161 56.1491 53.4276 52.3081 47.2051 48.39C44.8888 46.9297 42.5675 45.4694 40.2512 44.004C39.8042 43.7212 39.3165 43.8754 38.9407 44.1736C39.3419 43.8548 38.7375 44.3176 38.6105 44.4102C38.2143 44.693 37.8028 44.9552 37.3863 45.2072C36.1317 45.9579 34.7907 46.5955 33.3633 46.9246C32.6318 47.0891 31.8598 47.1816 31.1131 47.0839C30.7422 47.0325 29.3454 46.6726 29.2997 46.4412C29.2031 45.9167 30.3867 44.8884 30.7016 44.5644C31.5601 43.6903 32.4947 42.8882 33.4395 42.1066C35.1513 40.6823 36.8428 39.222 38.5851 37.8337C39.7128 36.9339 40.7185 36.4711 42.1459 36.4711C43.3192 36.4711 44.4875 36.4711 45.6609 36.4711C46.621 36.4711 47.7537 36.3477 48.6934 36.5945C49.9481 36.9236 50.837 37.8954 51.8732 38.6204C52.7977 39.2683 53.7933 39.8133 54.8702 40.1321C57.0594 40.7851 59.2233 40.4355 61.2958 39.5665C62.5657 39.0317 62.0069 36.9081 60.7218 37.4532L60.7015 37.448Z" fill="white"/>
<path d="M53.8184 62.6895C54.819 63.322 55.8349 63.9338 56.8255 64.5817C57.2775 64.8799 57.7144 65.1113 58.0039 65.6152C58.6846 66.8082 58.0192 68.3816 56.6934 68.7055C55.3879 69.0243 53.9555 67.7234 52.9091 67.0601C52.0558 66.5254 51.2024 65.9855 50.349 65.4456C49.1604 64.7 48.0734 66.5922 49.2569 67.3378C52.01 69.0757 56.0381 72.7779 59.1316 69.7699C61.0059 67.9445 60.8028 64.8131 58.7455 63.2294C57.5518 62.3141 56.1854 61.5891 54.9155 60.787C53.7269 60.0414 52.6399 61.9336 53.8234 62.6792L53.8184 62.6895Z" fill="white"/>
<path d="M49.2521 67.3484C50.0496 67.8523 50.8827 68.3202 51.6497 68.8601C53.265 69.9965 52.9094 72.8451 50.6439 72.804C49.5671 72.7885 48.4496 71.791 47.5708 71.2408C46.9714 70.8655 46.372 70.485 45.7777 70.1096C44.5891 69.364 43.5021 71.2563 44.6856 72.0018C47.1949 73.5804 50.3493 76.4084 53.265 74.0689C55.053 72.6343 55.4137 69.9605 54.0269 68.1146C53.138 66.9319 51.5684 66.2224 50.3443 65.4511C49.1556 64.7055 48.0686 66.5977 49.2521 67.3433V67.3484Z" fill="white"/>
<path d="M44.6855 72.0066C45.1884 72.3254 45.7472 72.6082 46.2196 72.9733C47.6723 74.1045 47.3625 76.5726 45.3408 76.8143C43.9693 76.9788 42.3185 75.4671 41.2162 74.7678C40.0276 74.0171 38.9406 75.9145 40.1241 76.66C42.4912 78.1512 45.2189 80.2954 47.8704 77.9815C49.3435 76.7012 49.7549 74.4953 48.8559 72.7522C48.1955 71.477 46.9409 70.8394 45.7827 70.1093C44.5941 69.3637 43.5071 71.2559 44.6906 72.0015L44.6855 72.0066Z" fill="white"/>
<path d="M21.5426 38.9858C23.5591 39.7057 25.6519 39.9834 27.7295 39.3201C28.8165 38.9704 29.7918 38.41 30.7061 37.7209C31.7626 36.9291 32.9513 35.1603 34.3837 36.0035C35.5926 36.7131 36.6847 34.8209 35.4758 34.1113C33.1189 32.7282 31.6001 34.2347 29.7918 35.6848C27.4145 37.5924 24.9154 37.8701 22.1115 36.8725C20.7908 36.4046 20.227 38.5231 21.5375 38.9858H21.5426Z" fill="white"/>
<path d="M69.2749 53.398C66.9993 54.1744 65.2316 56.0974 64.8049 58.5193C64.5611 59.8973 66.6488 60.4938 66.8926 59.1003C67.1872 57.4446 68.2539 56.0563 69.8489 55.5113C71.1645 55.0639 70.6007 52.9455 69.2749 53.398Z" fill="white"/>
<path d="M17.1186 55.8769C16.5599 54.2007 15.1782 52.8689 13.4309 52.5501C12.8569 52.4473 12.2626 52.7095 12.1 53.3162C11.9578 53.8459 12.2778 54.5606 12.8569 54.6634C13.8728 54.8485 14.7211 55.5324 15.0309 56.4579C15.4728 57.7897 17.5656 57.2189 17.1186 55.8769Z" fill="white"/>
<path d="M63.4594 35.9515C66.0602 34.0747 68.6609 32.2031 71.2566 30.3263C70.7638 30.1926 70.266 30.064 69.7733 29.9303C73.5119 37.3655 77.2555 44.8007 80.9941 52.2359C81.1261 51.7371 81.2531 51.2332 81.3852 50.7344C78.5762 52.0405 75.7672 53.3517 72.9582 54.6577C73.4509 54.7914 73.9487 54.9199 74.4414 55.0536C70.9112 48.184 67.3758 41.3145 63.8455 34.4501C63.2004 33.1954 61.3311 34.3061 61.9762 35.5556C65.5065 42.4251 69.0419 49.2947 72.5722 56.1591C72.8617 56.7196 73.5424 56.7916 74.0554 56.555C76.8644 55.249 79.6734 53.9378 82.4824 52.6318C83.0361 52.3747 83.1173 51.6188 82.8735 51.1304C79.135 43.6952 75.3913 36.26 71.6528 28.8248C71.4039 28.3312 70.6267 28.0998 70.1695 28.4289C67.5688 30.3057 64.9681 32.1773 62.3724 34.0541C61.2448 34.8666 62.3267 36.7691 63.4645 35.9464L63.4594 35.9515Z" fill="white"/>
<path d="M20.6335 33.6791C18.0328 31.8023 15.432 29.9307 12.8364 28.0539C12.3792 27.7248 11.6021 27.9562 11.3532 28.4498C7.6146 35.885 3.87097 43.3202 0.132413 50.7554C-0.111406 51.2438 -0.0352127 51.9945 0.523539 52.2568C3.33254 53.5628 6.14153 54.874 8.95053 56.18C9.46356 56.4166 10.1442 56.3549 10.4338 55.7841C13.9641 48.9146 17.4994 42.045 21.0297 35.1806C21.6748 33.9311 19.8055 32.8204 19.1604 34.0751C15.6302 40.9446 12.0948 47.8142 8.56448 54.6786C9.0572 54.5449 9.555 54.4164 10.0477 54.2827C7.23872 52.9766 4.42972 51.6655 1.62072 50.3594C1.75279 50.8582 1.87978 51.3621 2.01185 51.8609C5.75041 44.4257 9.49404 36.9905 13.2326 29.5553C12.7399 29.689 12.2421 29.8176 11.7494 29.9513C14.3501 31.8281 16.9508 33.6997 19.5465 35.5765C20.6843 36.3992 21.7663 34.4967 20.6386 33.6843L20.6335 33.6791Z" fill="white"/>
</g>
<defs>
<clipPath id="clip0_1010_366">
<rect width="83" height="79" fill="white"/>
</clipPath>
</defs>
</svg>
