<svg width="65" height="64" viewBox="0 0 65 64" fill="none" xmlns="http://www.w3.org/2000/svg">
<g clip-path="url(#clip0_1010_427)">
<path d="M6.79706 56.0735L10.2281 59.5048C10.5207 59.7973 11.0868 59.8391 11.3756 59.5048C13.72 56.7879 16.0605 54.0672 18.4049 51.3466C19.0812 50.56 17.9413 49.4087 17.2574 50.1991C14.913 52.9197 12.5725 55.6366 10.2281 58.3572H11.3756C10.2319 57.2135 9.08823 56.0697 7.94454 54.926C7.20742 54.1888 6.05994 55.3326 6.79706 56.0735Z" fill="white"/>
<path d="M16.6461 58.2584V63.1905L17.4554 62.3812H0.809318L1.61864 63.1905V46.5436L0.809318 47.353H15.8482C16.8893 47.353 16.8931 45.7305 15.8482 45.7305H0.809318C0.372362 45.7305 0 46.1029 0 46.5398V63.1867C0 63.6237 0.372362 63.9961 0.809318 63.9961H17.4554C17.8924 63.9961 18.2647 63.6237 18.2647 63.1867V58.2546C18.2647 57.2135 16.6423 57.2097 16.6423 58.2546L16.6461 58.2584Z" fill="white"/>
<path d="M29.9934 56.0735L33.4244 59.5048C33.717 59.7973 34.2831 59.8391 34.5719 59.5048C36.9162 56.7879 39.2568 54.0672 41.6012 51.3466C42.2775 50.56 41.1376 49.4087 40.4537 50.1991C38.1093 52.9197 35.7688 55.6366 33.4244 58.3572H34.5719C33.4282 57.2135 32.2845 56.0697 31.1408 54.926C30.4037 54.1888 29.2562 55.3326 29.9934 56.0735Z" fill="white"/>
<path d="M39.8424 58.2584V63.1905L40.6517 62.3812H24.0056L24.8149 63.1905V46.5436L24.0056 47.353H39.0445C40.0856 47.353 40.0894 45.7305 39.0445 45.7305H24.0056C23.5687 45.7305 23.1963 46.1029 23.1963 46.5398V63.1867C23.1963 63.6237 23.5687 63.9961 24.0056 63.9961H40.6517C41.0887 63.9961 41.461 63.6237 41.461 63.1867V58.2546C41.461 57.2135 39.8386 57.2097 39.8386 58.2546L39.8424 58.2584Z" fill="white"/>
<path d="M53.1867 56.0735C54.3304 57.2173 55.4741 58.361 56.6178 59.5048C56.9103 59.7973 57.4765 59.8391 57.7652 59.5048C60.1096 56.7879 62.4502 54.0672 64.7945 51.3466C65.4709 50.56 64.331 49.4087 63.647 50.1991C61.3027 52.9197 58.9621 55.6366 56.6178 58.3572H57.7652C56.6216 57.2135 55.4779 56.0697 54.3342 54.926C53.5971 54.1888 52.4496 55.3326 53.1867 56.0735Z" fill="white"/>
<path d="M63.0358 58.2584V63.1905L63.8451 62.3812H47.199L48.0083 63.1905V46.5436L47.199 47.353H62.2378C63.2789 47.353 63.2827 45.7305 62.2378 45.7305H47.199C46.762 45.7305 46.3896 46.1029 46.3896 46.5398V63.1867C46.3896 63.6237 46.762 63.9961 47.199 63.9961H63.8451C64.282 63.9961 64.6544 63.6237 64.6544 63.1867V58.2546C64.6544 57.2135 63.032 57.2097 63.032 58.2546L63.0358 58.2584Z" fill="white"/>
<path d="M41.9937 41.938C42.1685 39.7911 42.3395 37.648 42.5143 35.5012C42.5979 34.46 40.9754 34.4676 40.8918 35.5012C40.7171 37.648 40.5461 39.7911 40.3713 41.938C40.2877 42.9792 41.9101 42.9716 41.9937 41.938Z" fill="white"/>
<path d="M22.5168 35.5051C22.6916 37.6519 22.8626 39.795 23.0373 41.9419C23.1209 42.9755 24.7434 42.9831 24.6598 41.9419C24.485 39.795 24.314 37.6519 24.1392 35.5051C24.0556 34.4715 22.4332 34.4639 22.5168 35.5051Z" fill="white"/>
<path d="M15.362 41.9384C15.362 38.8719 15.3392 35.8093 15.362 32.7429C15.381 30.1172 17.106 27.7955 19.7772 27.3776C21.3844 27.1268 22.9954 26.8836 24.6027 26.591C26.7229 26.2034 28.8392 25.7512 30.9974 25.6335C33.6724 25.4853 36.2751 25.831 38.8968 26.3098C40.6257 26.6252 42.3583 27.0052 44.0985 27.2636C45.2536 27.4346 46.2757 27.503 47.294 28.1603C48.582 28.9887 49.4674 30.4022 49.6459 31.9259C49.8435 33.6244 49.6763 35.4179 49.6763 37.1202V41.9422L50.4856 41.1328H14.5489C13.5078 41.1328 13.504 42.7553 14.5489 42.7553H50.4781C50.915 42.7553 51.2874 42.383 51.2874 41.946C51.2874 38.8188 51.352 35.6801 51.2874 32.5529C51.2266 29.6194 49.4066 26.9862 46.591 26.0476C45.7247 25.7588 44.8318 25.7626 43.9465 25.5993C42.951 25.4169 41.9593 25.2345 40.9638 25.0521C38.7372 24.6455 36.5107 24.1743 34.2499 24.0299C31.3546 23.8475 28.5391 24.2313 25.7046 24.7519C23.9453 25.0749 22.1633 25.5195 20.3889 25.7246C17.4594 26.0628 14.9631 27.5599 14.0397 30.5352C13.4698 32.3629 13.7396 34.5706 13.7396 36.4553V41.9422C13.7396 42.9833 15.362 42.9871 15.362 41.9422V41.9384Z" fill="white"/>
<path d="M42.0433 11.1446C41.9825 15.104 39.5432 18.7556 35.7664 20.1046C32.0124 21.4459 27.7378 20.2983 25.1845 17.2319C22.6501 14.1883 22.2929 9.75011 24.2915 6.33409C26.3319 2.84967 30.4963 0.968774 34.4593 1.81233C38.8745 2.75088 41.9749 6.66087 42.0433 11.1446C42.0585 12.1858 43.681 12.1896 43.6658 11.1446C43.5974 6.47468 40.7325 2.3101 36.3401 0.67239C31.9364 -0.972923 26.7879 0.49 23.8508 4.13781C20.9479 7.74381 20.5641 12.9229 22.9655 16.8975C25.3668 20.8645 30.0404 22.924 34.5885 22.0957C39.8472 21.1419 43.5822 16.4112 43.662 11.1446C43.6772 10.0997 42.0585 10.0997 42.0395 11.1446H42.0433Z" fill="white"/>
</g>
<defs>
<clipPath id="clip0_1010_427">
<rect width="65" height="64" fill="white"/>
</clipPath>
</defs>
</svg>
