<svg width="73" height="67" viewBox="0 0 73 67" fill="none" xmlns="http://www.w3.org/2000/svg">
<g clip-path="url(#clip0_1010_445)">
<path d="M59.9153 8.65789C54.3323 5.20184 47.065 5.12285 41.4861 8.65394C35.8673 12.2087 32.7931 18.8088 33.6931 25.3536C34.6289 32.1551 39.7738 37.8981 46.5035 39.557C52.9585 41.1487 59.963 38.846 64.1124 33.6718C68.7834 27.838 69.0622 19.5395 64.8491 13.3858C64.2398 12.4931 62.7664 13.3344 63.3837 14.235C66.7167 19.109 67.1069 25.5037 64.1403 30.6542C61.1617 35.8244 55.3358 38.8105 49.3706 38.3325C43.0232 37.823 37.5 33.2571 35.7956 27.1823C34.1988 21.4907 36.0823 15.3093 40.5622 11.4267C45.7111 6.96739 53.3169 6.56056 59.0551 10.1154C59.9869 10.692 60.8391 9.23456 59.9113 8.66184L59.9153 8.65789Z" fill="white"/>
<path d="M55.5068 13.1999C51.8074 11.5291 47.447 11.8056 44.1458 14.2505C40.9004 16.6559 39.2279 20.6531 39.8093 24.6266C40.4385 28.9437 43.7476 32.5893 48.0284 33.636C51.9308 34.5879 56.1837 33.3398 58.8756 30.3617C61.9777 26.9293 62.5073 22.0039 60.4446 17.9238C59.9548 16.9561 58.4894 17.8053 58.9792 18.773C62.2365 25.2112 57.0638 32.9369 49.7606 32.2299C42.0711 31.4834 38.6983 21.8815 44.106 16.5019C46.8656 13.7568 51.1145 13.0538 54.6546 14.6495C55.6422 15.0958 56.5063 13.6423 55.5107 13.1959L55.5068 13.1999Z" fill="white"/>
<path d="M49.825 18.2951C46.1216 19.0613 44.5328 23.5996 47.1928 26.3724C49.9684 29.2636 54.8464 27.581 55.5035 23.7497C55.6867 22.6872 54.05 22.233 53.8668 23.3034C53.4328 25.847 50.3387 27.2374 48.3954 25.1795C46.5915 23.2718 47.8578 20.4161 50.279 19.9184C51.3501 19.6972 50.8962 18.0739 49.829 18.2951H49.825Z" fill="white"/>
<path d="M51.2979 23.6313C55.8375 18.8363 60.3771 14.0412 64.9167 9.24621C65.6653 8.45626 64.4667 7.26343 63.7141 8.05338C59.1745 12.8484 54.6349 17.6434 50.0953 22.4385C49.3466 23.2284 50.5453 24.4212 51.2979 23.6313Z" fill="white"/>
<path d="M71.5553 5.31622C69.5722 7.35826 67.5891 9.40029 65.606 11.4463C65.8808 11.3752 66.1555 11.3001 66.4343 11.229C65.2197 10.7235 64.0052 10.2139 62.7906 9.70837C62.9579 9.83871 63.1291 9.96511 63.2964 10.0954C62.7389 8.91052 62.1814 7.72559 61.6239 6.54065C61.5801 6.88033 61.5363 7.22001 61.4925 7.5597C63.4756 5.51766 65.4587 3.47563 67.4417 1.42965C66.9957 1.37435 66.5537 1.3151 66.1077 1.25981C66.4183 1.91942 66.7289 2.57903 67.0395 3.24259C67.2944 3.78766 67.5134 4.66056 67.9992 5.05159C68.493 5.45052 69.3213 5.63616 69.8987 5.87709C70.5757 6.16148 71.2526 6.44191 71.9296 6.72629C72.937 7.14497 73.3751 5.51766 72.3796 5.10294C71.165 4.59737 69.9505 4.08784 68.7359 3.58227C68.9032 3.71262 69.0744 3.83901 69.2417 3.96935C68.6842 2.78442 68.1267 1.59949 67.5692 0.414556C67.3382 -0.0791657 66.5896 -0.118663 66.2352 0.244716C64.2521 2.28675 62.269 4.32878 60.2859 6.37476C60.0032 6.66705 59.9872 7.04622 60.1545 7.3938C60.4651 8.05342 60.7757 8.71303 61.0863 9.37659C61.3411 9.92166 61.5602 10.7946 62.046 11.1856C62.5398 11.5845 63.368 11.7662 63.9454 12.0111C64.6224 12.2955 65.2994 12.5759 65.9763 12.8603C66.2431 12.9709 66.6135 12.8366 66.8046 12.6431C68.7877 10.601 70.7708 8.55899 72.7539 6.51301C73.5105 5.73095 72.3119 4.53812 71.5513 5.32017L71.5553 5.31622Z" fill="white"/>
<path d="M17.3339 22.1459C17.2583 24.7014 15.2393 26.8343 12.6072 26.8343C9.97498 26.8343 7.88835 24.7014 7.88039 22.1459C7.86844 19.5865 10.0387 17.4576 12.6072 17.4576C15.1756 17.4576 17.2622 19.5904 17.3339 22.1459C17.3658 23.2282 19.0661 23.2321 19.0343 22.1459C18.9586 19.4956 17.3897 17.1297 14.861 16.1818C12.3284 15.2299 9.37766 16.0198 7.65739 18.0935C3.91023 22.6081 8.02773 29.4688 13.8018 28.4103C16.86 27.8494 18.9467 25.1715 19.0343 22.1499C19.0661 21.0637 17.3658 21.0676 17.3339 22.1499V22.1459Z" fill="white"/>
<path d="M13.4552 66.0516V50.5251C13.4552 49.4389 11.7549 49.4389 11.7549 50.5251V66.0516C11.7549 67.1339 13.4552 67.1378 13.4552 66.0516Z" fill="white"/>
<path d="M4.8541 37.5026C5.08108 41.9105 5.30806 46.3185 5.53902 50.7225C5.78193 55.4069 5.79786 60.1664 6.26775 64.835C6.55446 67.6986 10.6003 66.8968 12.6073 66.8968C14.6142 66.8968 18.664 67.6986 18.9468 64.8389C19.3888 60.348 19.3928 55.7663 19.6118 51.2596C19.8627 46.1763 20.1096 41.0969 20.3604 36.0135L19.5122 36.8548C21.8019 36.8548 24.0837 37.0009 26.2898 36.2702C27.8109 35.7647 29.3162 34.9984 30.467 33.8648C31.359 32.988 32.4421 31.491 31.7293 30.2192C31.0165 28.9434 28.9737 29.2278 27.7273 29.1804C25.2943 29.0935 22.8612 29.0027 20.4281 28.9158C16.5177 28.7736 12.5276 28.3391 8.65303 29.0421C7.50618 29.2515 6.35535 29.4608 5.20851 29.6662C4.04175 29.8795 2.96658 29.9506 1.96309 30.6853C-0.0200023 32.1388 0.00787257 34.2795 0.00787257 36.4559C0.00787257 38.9087 -0.012038 41.3575 0.00787257 43.8103C0.0357473 46.9702 2.38917 49.7074 5.70229 49.7074C6.79338 49.7074 6.79737 48.0208 5.70229 48.0208C3.10595 48.0208 1.70823 45.8524 1.70823 43.5141V37.6922C1.70823 36.2544 1.36577 34.1492 2.1821 32.8695C3.2732 31.1671 6.33544 31.1671 8.18712 30.8314C11.4206 30.2429 14.447 30.3851 17.7083 30.5036L29.3082 30.9262C29.9175 30.9499 30.4909 30.8195 30.0409 31.6727C29.2883 33.1025 27.5919 34.007 26.1265 34.5442C23.9722 35.3302 21.7581 35.1722 19.5043 35.1722C19.0304 35.1722 18.676 35.5593 18.6561 36.0135C18.2061 45.2125 17.7521 54.4115 17.3022 63.6106C17.2862 63.9384 17.3778 64.5506 17.2424 64.8547C16.9438 65.5144 15.3908 65.2102 14.8492 65.2102H10.3574C9.78793 65.2102 8.27871 65.5223 7.96412 64.8429C7.8128 64.5111 7.91236 63.8436 7.89245 63.4881L7.74113 60.6008C7.58981 57.6977 7.44247 54.7947 7.29115 51.8916C7.04426 47.0966 6.79338 42.3015 6.54649 37.5026C6.49074 36.4243 4.79038 36.4164 4.84613 37.5026H4.8541Z" fill="white"/>
<path d="M67.56 48.333H20.9136C19.8225 48.333 19.8185 50.0196 20.9136 50.0196H67.556C68.6471 50.0196 68.6511 48.333 67.556 48.333H67.56Z" fill="white"/>
<path d="M64.7812 36.5627V49.1783C64.7812 50.2605 66.4816 50.2645 66.4816 49.1783V36.5627C66.4816 35.4765 64.7812 35.4765 64.7812 36.5627Z" fill="white"/>
<path d="M12.814 9.4595H36.3363C37.4274 9.4595 37.4313 7.77295 36.3363 7.77295H12.814C11.7229 7.77295 11.7189 9.4595 12.814 9.4595Z" fill="white"/>
<path d="M15.59 13.6543V8.61834C15.59 7.5361 13.8896 7.53215 13.8896 8.61834V13.6543C13.8896 14.7365 15.59 14.7405 15.59 13.6543Z" fill="white"/>
<path d="M47.9167 49.1784V53.5547L48.7649 52.7134H31.61L32.4582 53.5547V49.1784C32.4582 48.0962 30.7578 48.0922 30.7578 49.1784V53.5547C30.7578 54.009 31.1481 54.396 31.606 54.396H48.7609C49.2189 54.396 49.6091 54.009 49.6091 53.5547V49.1784C49.6091 48.0962 47.9088 48.0922 47.9088 49.1784H47.9167Z" fill="white"/>
<path d="M34.688 53.3294C33.7681 57.4964 32.8442 61.6634 31.9244 65.8304C31.6894 66.889 33.3261 67.3393 33.561 66.2768C34.4809 62.1098 35.4047 57.9427 36.3246 53.7757C36.5595 52.7172 34.9229 52.2669 34.688 53.3294Z" fill="white"/>
<path d="M44.0464 53.7799C44.9663 57.9469 45.8902 62.1139 46.81 66.2809C47.045 67.3395 48.6816 66.8931 48.4467 65.8346C47.5268 61.6676 46.603 57.5006 45.6831 53.3336C45.4481 52.275 43.8115 52.7213 44.0464 53.7799Z" fill="white"/>
<path d="M33.876 61.7661H46.5391C47.6302 61.7661 47.6342 60.0796 46.5391 60.0796H33.876C32.7809 60.0796 32.7809 61.7661 33.876 61.7661Z" fill="white"/>
</g>
<defs>
<clipPath id="clip0_1010_445">
<rect width="73" height="67" fill="white"/>
</clipPath>
</defs>
</svg>
