<svg width="56" height="77" viewBox="0 0 56 77" fill="none" xmlns="http://www.w3.org/2000/svg">
<g clip-path="url(#clip0_1010_388)">
<path d="M21.3409 53.7987H34.6597C35.8897 53.7987 35.8942 51.8765 34.6597 51.8765H21.3409C20.1064 51.8765 20.1064 53.7987 21.3409 53.7987Z" fill="#F29DAA"/>
<path d="M27.042 28.4634V36.7283C27.042 37.9663 28.9588 37.9663 28.9588 36.7283V28.4634C28.9588 27.2299 27.042 27.2254 27.042 28.4634Z" fill="#F29DAA"/>
<path d="M27.042 56.0315V66.8398C27.042 68.0778 28.9588 68.0778 28.9588 66.8398V56.0315C28.9588 54.7935 27.042 54.7935 27.042 56.0315Z" fill="#F29DAA"/>
<path d="M32.0654 56.0315V62.3697C32.0654 63.6077 33.9822 63.6077 33.9822 62.3697V56.0315C33.9822 54.7935 32.0654 54.7935 32.0654 56.0315Z" fill="#F29DAA"/>
<path d="M22.0234 56.0315V62.3697C22.0234 63.6077 23.9402 63.6077 23.9402 62.3697V56.0315C23.9402 54.7935 22.0234 54.7935 22.0234 56.0315Z" fill="#F29DAA"/>
<path d="M32.806 18.6588C32.7252 21.2833 30.6827 23.4801 27.9983 23.4801C25.3139 23.4801 23.1906 21.2878 23.1906 18.6588C23.1906 16.0299 25.2645 13.9411 27.8143 13.8466C30.566 13.7431 32.7207 15.9624 32.8015 18.6588C32.8419 19.8923 34.7542 19.8968 34.7183 18.6588C34.6061 14.9945 31.7421 11.9199 27.9983 11.9199C24.2545 11.9199 21.2783 14.9945 21.2783 18.6588C21.2783 22.3231 24.3443 25.3977 27.9983 25.3977C31.6523 25.3977 34.6061 22.3231 34.7183 18.6588C34.7587 17.4209 32.8419 17.4254 32.8015 18.6588H32.806Z" fill="#F29DAA"/>
<path d="M35.486 49.8281C37.331 45.5966 38.6507 41.1535 39.7057 36.6654C40.599 32.8571 41.3935 28.9452 41.6314 25.0288C41.82 21.9317 41.1601 18.803 40.2982 15.841C39.2523 12.2487 37.7978 8.66543 35.7239 5.54131C34.1528 3.17347 31.9532 0.594047 28.9994 0.0808641C26.0726 -0.427818 23.5184 1.44485 21.7318 3.57861C19.3885 6.37861 17.795 9.77283 16.565 13.1895C15.4158 16.3812 14.4956 19.7934 14.3474 23.2011C14.1768 27.0275 15.0657 31.0114 15.8647 34.7252C16.969 39.8751 18.4099 44.9889 20.5198 49.8236C20.6499 50.1252 21.0405 50.3008 21.3457 50.3008H34.66C35.89 50.3008 35.8945 48.3786 34.66 48.3786H21.3457C21.6196 48.5362 21.8979 48.6937 22.1717 48.8558C20.4524 44.9079 19.2359 40.7304 18.2394 36.5439C17.3865 32.9606 16.6323 29.3053 16.3315 25.6275C15.8333 19.5458 18.1451 12.8654 21.1931 7.68858C22.5129 5.44678 24.4566 2.57475 27.1949 1.99405C29.8254 1.43135 32.0564 3.73617 33.475 5.65385C35.5309 8.42685 36.9494 11.686 38.0223 14.9542C38.956 17.8037 39.755 20.8558 39.7595 23.8764C39.7595 27.5902 38.9291 31.3805 38.13 34.9863C37.0796 39.6995 35.7688 44.4217 33.8386 48.8558C33.3493 49.9767 35.0012 50.958 35.4905 49.8236L35.486 49.8281Z" fill="#F29DAA"/>
<path d="M38.704 36.5573C41.9361 37.03 44.2524 39.5374 44.3197 42.8416C44.3377 43.6609 44.3197 44.4801 44.3197 45.2994C44.3197 46.1187 44.5442 47.3072 44.3197 48.1039C44.1402 48.7297 43.8619 48.4055 43.3726 48.1219C42.5376 47.6403 41.6982 47.1586 40.8632 46.6724L36.7738 44.3136C35.7054 43.6969 34.7358 45.3535 35.8086 45.9702C37.1329 46.7355 38.4571 47.4962 39.7814 48.2615C40.953 48.9367 42.367 50.1252 43.7227 50.3953C46.1961 50.8859 46.232 48.2255 46.232 46.5779C46.232 44.7727 46.4206 42.8191 46.0435 41.0364C45.3432 37.7097 42.5331 35.1888 39.2113 34.7027C38.0038 34.5271 37.4875 36.3772 38.704 36.5528V36.5573Z" fill="#F29DAA"/>
<path d="M19.2311 44.3179L15.1416 46.6768C14.3066 47.1585 13.4672 47.6401 12.6323 48.1263C12.1474 48.4054 11.8602 48.725 11.6851 48.1083C11.4606 47.316 11.6851 46.1276 11.6851 45.3038C11.6851 44.48 11.6671 43.6652 11.6851 42.8459C11.7524 39.5417 14.0687 37.0343 17.3008 36.5617C18.5173 36.3861 18.0011 34.5314 16.7935 34.7115C13.8802 35.1392 11.4113 37.0839 10.3294 39.8343C9.59771 41.6935 9.77278 43.7372 9.77278 45.6954C9.77278 47.262 9.3149 49.8234 11.3125 50.3816C12.6771 50.7642 14.347 49.3552 15.4424 48.725C17.027 47.8112 18.6116 46.8974 20.1962 45.9835C21.2646 45.3668 20.2994 43.7057 19.2311 44.3269V44.3179Z" fill="#F29DAA"/>
<path d="M14.9711 72.3361C12.2284 68.0011 15.0968 62.401 20.2457 62.275C21.4756 62.2435 21.4801 60.3258 20.2457 60.3528C13.7007 60.5149 9.77737 67.7084 13.3192 73.3039C13.9791 74.3438 15.6355 73.3805 14.9711 72.3361Z" fill="#F29DAA"/>
<path d="M1.91699 76.0722C2.02472 70.2831 7.34416 66.1957 12.9509 67.4786C14.1495 67.7532 14.6612 65.9031 13.4582 65.6285C6.6349 64.0664 0.130376 69.0047 0.000195584 76.0722C-0.0222493 77.3102 1.89454 77.3102 1.91699 76.0722Z" fill="#F29DAA"/>
<path d="M42.6814 73.3084C46.2188 67.7129 42.2954 60.5194 35.755 60.3573C34.5205 60.3258 34.5205 62.248 35.755 62.2795C40.8993 62.4056 43.7723 68.0055 41.0295 72.3406C40.3696 73.3895 42.0261 74.3528 42.6814 73.3084Z" fill="#F29DAA"/>
<path d="M43.054 67.4834C48.6607 66.1959 53.9846 70.2834 54.0879 76.0769C54.1103 77.3104 56.0271 77.3149 56.0047 76.0769C55.8745 69.0094 49.37 64.0666 42.5467 65.6332C41.3437 65.9078 41.8554 67.7625 43.054 67.4834Z" fill="#F29DAA"/>
</g>
<defs>
<clipPath id="clip0_1010_388">
<rect width="56" height="77" fill="#F29DAA"/>
</clipPath>
</defs>
</svg>
