<svg width="64" height="66" viewBox="0 0 64 66" fill="none" xmlns="http://www.w3.org/2000/svg">
<g clip-path="url(#clip0_1010_332)">
<path d="M19.7066 46.9105V39.2863C19.7066 38.1774 17.9756 38.1734 17.9756 39.2863V46.9105C17.9756 48.0194 19.7066 48.0234 19.7066 46.9105Z" fill="white"/>
<path d="M24.1573 7.73331C24.0803 10.6309 21.7979 13.0306 18.8426 13.0387C15.948 13.0468 13.5197 10.6187 13.5278 7.73331C13.5359 4.83982 15.9399 2.4279 18.8426 2.4279C21.7452 2.4279 24.0844 4.84386 24.1573 7.73331C24.1857 8.84215 25.9168 8.84619 25.8884 7.73331C25.8114 4.79125 24.056 2.1608 21.2628 1.12886C18.5223 0.117147 15.3237 0.975079 13.4508 3.21298C9.33197 8.14204 13.7021 15.7299 20.0426 14.6575C23.4398 14.0828 25.7992 11.1084 25.8884 7.72926C25.9168 6.61638 24.1898 6.62043 24.1573 7.72926V7.73331Z" fill="white"/>
<path d="M11.7972 7.73365C11.8742 10.6757 13.6296 13.3062 16.4228 14.3381C19.1633 15.3498 22.3619 14.4919 24.2348 12.254C28.3536 7.32492 23.9835 -0.262919 17.643 0.809495C14.2458 1.38415 11.8864 4.35858 11.7972 7.73769C11.7688 8.85058 13.4958 8.84653 13.5283 7.73769C13.6053 4.84015 15.8877 2.44037 18.843 2.43228C21.7376 2.42419 24.1659 4.85229 24.1578 7.73769C24.1497 10.6312 21.7457 13.0431 18.843 13.0431C15.9404 13.0431 13.6012 10.6271 13.5283 7.73769C13.4999 6.62886 11.7688 6.62481 11.7972 7.73769V7.73365Z" fill="white"/>
<path d="M27.5225 45.5874C27.8954 42.3337 28.4022 39.08 28.5238 35.8061C28.617 33.2769 28.7103 30.7435 28.7995 28.2143C28.8441 27.0488 28.8846 25.8833 28.9292 24.7137C28.9454 24.2767 28.8278 23.5523 28.9859 23.1355C29.213 22.5406 30.0724 21.8971 30.4575 21.4196C31.1467 20.5617 31.7872 19.6673 32.3548 18.7244C33.4777 16.8669 34.3412 14.8313 34.9047 12.7351C35.7439 9.63115 35.7763 6.43009 35.7155 3.23713C35.6912 1.84906 35.0223 0.562168 33.575 0.201998C32.594 -0.0408124 31.0373 -0.0529529 30.1048 0.327451C27.6441 1.32297 28.3252 4.79517 28.3252 6.89143C28.3252 8.00432 28.4103 9.16576 28.1549 10.2544C27.713 12.1402 26.509 13.5647 24.8955 14.5804C23.5617 15.4181 22.2847 16.1263 20.7037 16.4096C18.4456 16.8143 15.9605 16.5067 13.9782 15.3251C12.7701 14.6047 11.5296 13.8763 10.6742 12.731C9.70122 11.4279 9.35663 9.94275 9.35258 8.3483C9.34853 7.09782 9.35258 5.8433 9.35258 4.59283C9.35258 3.6661 9.48231 2.60582 9.07286 1.74385C7.92558 -0.684261 2.92704 -0.591183 2.10003 2.09592C1.79193 3.09954 1.9703 4.33787 1.9703 5.36982C1.9703 6.89548 1.99868 8.409 2.21354 9.92657C2.82569 14.2648 4.66619 18.3602 7.47154 21.7231C8.07153 22.4435 8.69178 22.8077 8.72422 23.7304C8.75665 24.6773 8.79313 25.6202 8.82556 26.5672C8.95935 30.2782 8.858 34.0781 9.26745 37.7689C9.77419 42.3337 10.3134 46.8945 10.8363 51.4593C10.885 51.8681 10.9255 52.2728 10.9782 52.6815C11.1161 53.7701 12.8471 53.7822 12.7093 52.6815C12.2106 48.6953 11.7931 44.6971 11.339 40.7069C10.9904 37.6758 10.8566 34.7054 10.7431 31.65C10.6539 29.2138 10.5647 26.7817 10.4796 24.3455C10.4634 23.872 10.4877 23.3742 10.4066 22.9048C10.2972 22.2775 9.92419 21.8769 9.51068 21.4277C8.7607 20.6102 8.06747 19.7523 7.44722 18.8296C5.00673 15.2077 3.73378 10.9545 3.7054 6.59601C3.69729 5.53169 3.68108 4.45928 3.7054 3.39496C3.71756 2.8284 3.72567 2.23351 4.34188 1.94214C4.83646 1.71147 5.68374 1.81264 6.2067 1.84097C7.64181 1.91381 7.62964 2.87696 7.62964 3.99389V7.72104C7.62964 10.7724 8.4526 13.5728 11.0188 15.4788C13.6822 17.4577 16.7389 18.5909 20.1078 18.2347C23.0428 17.9231 26.3225 16.3611 28.1995 14.0139C30.044 11.7072 30.0603 9.10911 30.0603 6.32892C30.0603 5.2646 29.9792 4.16386 30.0603 3.09954C30.1697 1.67505 31.6616 1.73575 32.7845 1.84097C34.325 1.98666 33.9885 3.66205 33.9885 4.78303C33.9885 6.1023 34.0129 7.42562 33.8872 8.74084C33.4575 13.2895 31.5237 17.6763 28.4833 21.0878C27.8549 21.7919 27.3279 22.3221 27.2468 23.3176C27.19 24.0379 27.1941 24.7623 27.1657 25.4826C27.0725 28.0322 26.9792 30.5817 26.886 33.1312C26.7563 36.656 26.4198 40.0715 26.0184 43.5801C25.9414 44.2479 25.8644 44.9196 25.7874 45.5874C25.6617 46.6881 27.3927 46.68 27.5184 45.5874H27.5225Z" fill="white"/>
<path d="M11.7972 7.73365C11.8742 10.6757 13.6296 13.3062 16.4228 14.3381C19.1633 15.3498 22.3619 14.4919 24.2348 12.254C28.3536 7.32492 23.9835 -0.262919 17.643 0.809495C14.2458 1.38415 11.8864 4.35858 11.7972 7.73769C11.7688 8.85058 13.4958 8.84653 13.5283 7.73769C13.6053 4.84015 15.8877 2.44037 18.843 2.43228C21.7376 2.42419 24.1659 4.85229 24.1578 7.73769C24.1497 10.6312 21.7457 13.0431 18.843 13.0431C15.9404 13.0431 13.6012 10.6271 13.5283 7.73769C13.4999 6.62886 11.7688 6.62481 11.7972 7.73769V7.73365Z" fill="white"/>
<path d="M24.1573 7.73331C24.0803 10.6309 21.7979 13.0306 18.8426 13.0387C15.948 13.0468 13.5197 10.6187 13.5278 7.73331C13.5359 4.83982 15.9399 2.4279 18.8426 2.4279C21.7452 2.4279 24.0844 4.84386 24.1573 7.73331C24.1857 8.84215 25.9168 8.84619 25.8884 7.73331C25.8114 4.79125 24.056 2.1608 21.2628 1.12886C18.5223 0.117147 15.3237 0.975079 13.4508 3.21298C9.33197 8.14204 13.7021 15.7299 20.0426 14.6575C23.4398 14.0828 25.7992 11.1084 25.8884 7.72926C25.9168 6.61638 24.1898 6.62043 24.1573 7.72926V7.73331Z" fill="white"/>
<path d="M11.7972 7.73365C11.8742 10.6757 13.6296 13.3062 16.4228 14.3381C19.1633 15.3498 22.3619 14.4919 24.2348 12.254C28.3536 7.32492 23.9835 -0.262919 17.643 0.809495C14.2458 1.38415 11.8864 4.35858 11.7972 7.73769C11.7688 8.85058 13.4958 8.84653 13.5283 7.73769C13.6053 4.84015 15.8877 2.44037 18.843 2.43228C21.7376 2.42419 24.1659 4.85229 24.1578 7.73769C24.1497 10.6312 21.7457 13.0431 18.843 13.0431C15.9404 13.0431 13.6012 10.6271 13.5283 7.73769C13.4999 6.62886 11.7688 6.62481 11.7972 7.73769V7.73365Z" fill="white"/>
<path d="M0.916496 65.9998H58.5437C59.0099 65.9998 59.4072 65.6032 59.4072 65.1378C59.4072 62.127 59.6301 59.0352 59.4072 56.0324C59.3261 54.9357 57.8261 54.4501 56.9869 53.9524C55.3694 53.0013 53.7519 52.0503 52.1384 51.0993C51.4492 50.6946 50.9222 50.2778 50.679 49.4563C50.5776 49.1245 50.5209 48.7724 50.4438 48.4325C50.0222 46.6033 49.6047 44.7782 49.183 42.949C48.7979 41.2695 48.4087 39.5901 48.0236 37.9107C47.6182 36.1503 46.5155 34.6732 44.5818 34.4911C42.9967 34.3413 41.1927 34.8715 39.6359 35.0981C37.7752 35.3692 35.8739 35.4259 34.7469 37.1944C33.0401 39.8734 31.6942 42.8519 30.1943 45.6482C29.9916 46.0246 29.8091 46.4293 29.5618 46.7773C29.0227 47.5341 28.2402 47.6716 27.393 47.789C25.5403 48.048 23.6917 48.303 21.839 48.562C20.2255 48.7845 18.5553 48.821 17.4283 50.1847C17.0351 50.6623 16.7594 51.2329 16.6378 51.8399C16.504 52.4874 16.6499 53.1551 16.3337 53.7622C15.8919 54.5999 15.0811 54.8386 14.2135 54.8791C10.8447 55.0288 7.46771 55.0167 4.09886 55.1421C2.05566 55.215 0.271915 56.4654 0.0773246 58.6224C-0.0645643 60.2007 0.0611087 61.8356 0.0611087 63.422V65.1378C0.0611087 66.2467 1.79215 66.2507 1.79215 65.1378V61.2124C1.79215 59.7839 1.42324 57.6714 3.10564 57.0158C4.00967 56.6637 5.29884 56.8378 6.2353 56.8135C7.99067 56.769 9.74199 56.7244 11.4974 56.6759C12.523 56.6476 13.5527 56.6597 14.5784 56.5949C16.8526 56.4533 18.1013 54.8386 18.2999 52.6978C18.4864 50.6866 20.0188 50.5449 21.6201 50.3223C23.3066 50.0876 24.9971 49.8529 26.6835 49.6182C28.0011 49.4361 29.3835 49.3916 30.4172 48.4365C31.2199 47.6959 31.6821 46.5426 32.1888 45.5997C33.4982 43.1594 34.6739 40.5613 36.1536 38.2223C36.9928 36.8949 38.8089 36.9556 40.2157 36.7492C41.4764 36.5671 42.8386 36.2069 44.1156 36.1948C45.875 36.1827 46.1993 37.6598 46.5074 38.9993C46.8642 40.5492 47.2209 42.0951 47.5777 43.645C47.979 45.3933 48.3844 47.1456 48.7858 48.8938C49.1101 50.2981 49.5155 51.4838 50.8168 52.3215C53.1843 53.8471 55.6897 55.1907 58.118 56.6192C57.9761 56.3724 57.8342 56.1215 57.6883 55.8746V65.1378L58.5518 64.2759H0.916496C-0.194291 64.2759 -0.198345 66.0039 0.916496 66.0039V65.9998Z" fill="white"/>
<path d="M45.6922 20.2459C47.0056 21.3912 48.3232 22.5364 49.6367 23.6817C49.9691 23.9731 50.5366 24.054 50.861 23.6817C53.1555 21.0553 55.4501 18.4289 57.7446 15.8025C58.4743 14.9688 57.2541 13.7426 56.5203 14.5803C54.2258 17.2067 51.9312 19.8331 49.6367 22.4595H50.861C49.5475 21.3143 48.2299 20.169 46.9165 19.0238C46.0813 18.2953 44.853 19.5134 45.6922 20.2459Z" fill="white"/>
<path d="M62.2726 19.1335C62.2078 23.5122 59.5078 27.5307 55.3404 29.0361C51.1891 30.5334 46.4622 29.2627 43.6203 25.8958C40.7623 22.5045 40.3853 17.5228 42.6595 13.7269C44.9176 9.95524 49.4621 7.91158 53.7917 8.79784C58.7214 9.80955 62.2037 14.1437 62.2726 19.1335C62.2889 20.2423 64.0199 20.2464 64.0037 19.1335C63.9307 13.9576 60.7078 9.31989 55.8025 7.5676C50.9905 5.84769 45.4081 7.4381 42.2014 11.3959C38.9948 15.3497 38.5448 21.0355 41.1717 25.4142C43.7947 29.7888 48.9229 32.0712 53.9377 31.1971C59.7673 30.1814 63.9267 24.9609 64.0118 19.1375C64.028 18.0246 62.297 18.0246 62.2808 19.1375L62.2726 19.1335Z" fill="white"/>
</g>
<defs>
<clipPath id="clip0_1010_332">
<rect width="64" height="66" fill="white"/>
</clipPath>
</defs>
</svg>
