<svg width="59" height="67" viewBox="0 0 59 67" fill="none" xmlns="http://www.w3.org/2000/svg">
<g clip-path="url(#clip0_1010_409)">
<path d="M47.535 16.1459C47.6056 18.8245 49.7151 21.0566 52.452 21.0566C55.1889 21.0566 57.3611 18.8245 57.369 16.1459C57.3768 13.4673 55.1261 11.2351 52.452 11.2351C49.7151 11.2351 47.6095 13.4673 47.535 16.1459C47.5075 17.2189 45.8333 17.2228 45.8607 16.1459C45.9352 13.4203 47.5428 10.9689 50.1268 9.98983C52.7108 9.01082 55.7378 9.80578 57.5023 11.9283C61.3567 16.5571 57.2161 23.653 51.2914 22.6231C48.1271 22.0748 45.943 19.2944 45.8568 16.1459C45.8293 15.069 47.4997 15.0729 47.5311 16.1459H47.535Z" fill="white"/>
<path d="M47.535 35.683C47.6056 38.3616 49.7151 40.5938 52.452 40.5938C55.1889 40.5938 57.3611 38.3616 57.369 35.683C57.3768 33.0044 55.1261 30.7723 52.452 30.7723C49.7151 30.7723 47.6095 33.0044 47.535 35.683C47.5075 36.756 45.8333 36.7599 45.8607 35.683C45.9352 32.9574 47.5428 30.506 50.1268 29.5269C52.7108 28.5479 55.7378 29.3429 57.5023 31.4654C61.3567 36.0942 57.2161 43.1901 51.2914 42.1602C48.1271 41.6119 45.943 38.8315 45.8568 35.683C45.8293 34.6061 47.4997 34.61 47.5311 35.683H47.535Z" fill="white"/>
<path d="M47.535 55.2206C47.6056 57.8992 49.7151 60.1313 52.452 60.1313C55.1889 60.1313 57.3611 57.8992 57.369 55.2206C57.3768 52.542 55.1261 50.3099 52.452 50.3099C49.7151 50.3099 47.6095 52.542 47.535 55.2206C47.5075 56.2936 45.8333 56.2975 45.8607 55.2206C45.9352 52.495 47.5428 50.0436 50.1268 49.0645C52.7108 48.0855 55.7378 48.8805 57.5023 51.003C61.3567 55.6318 57.2161 62.7277 51.2914 61.6978C48.1271 61.1495 45.943 58.3691 45.8568 55.2206C45.8293 54.1437 47.4997 54.1476 47.5311 55.2206H47.535Z" fill="white"/>
<path d="M51.6162 29.9343V21.8907C51.6162 20.8177 53.2905 20.8138 53.2905 21.8907V29.9343C53.2905 31.0112 51.6162 31.0112 51.6162 29.9343Z" fill="white"/>
<path d="M51.6162 66.1933V60.9693C51.6162 59.8963 53.2905 59.8924 53.2905 60.9693V66.1933C53.2905 67.2703 51.6162 67.2703 51.6162 66.1933Z" fill="white"/>
<path d="M51.6162 49.4758C51.6162 46.7933 51.6162 44.1108 51.6162 41.4283C51.6162 40.3514 53.2905 40.3514 53.2905 41.4283C53.2905 44.1108 53.2905 46.7933 53.2905 49.4758C53.2905 50.5488 51.6162 50.5527 51.6162 49.4758Z" fill="white"/>
<path d="M51.6162 10.401C51.6162 7.21332 51.6162 4.02564 51.6162 0.837959C51.6162 -0.235043 53.2905 -0.238959 53.2905 0.837959C53.2905 4.02564 53.2905 7.21332 53.2905 10.401C53.2905 11.474 51.6162 11.4779 51.6162 10.401Z" fill="white"/>
<path d="M46.7902 3.7281C48.5351 2.52586 50.2839 1.32363 52.0288 0.117482C52.2562 -0.0391607 52.6444 -0.0391607 52.8718 0.117482C54.6166 1.31971 56.3654 2.52195 58.1103 3.7281C58.9925 4.33509 58.1534 5.78403 57.2673 5.16921C55.5224 3.96698 53.7736 2.76474 52.0288 1.55859H52.8718C51.1269 2.76083 49.3781 3.96306 47.6333 5.16921C46.7432 5.78012 45.908 4.33509 46.7902 3.7281Z" fill="white"/>
<path d="M40.8304 13.3851C36.3251 13.3851 31.8237 13.3851 27.3184 13.3851H5.77227C4.11759 13.3851 2.4629 13.3851 0.808223 13.3851C-0.266144 13.3851 -0.270065 11.7129 0.808223 11.7129C5.31351 11.7129 9.81487 11.7129 14.3202 11.7129H35.8702C37.5249 11.7129 39.1796 11.7129 40.8343 11.7129C41.9086 11.7129 41.9126 13.3851 40.8343 13.3851H40.8304Z" fill="white"/>
<path d="M40.8295 20.575H18.4756C17.409 20.575 16.3425 20.575 15.276 20.575C14.2095 20.575 14.1977 18.9028 15.276 18.9028H37.6299C38.6964 18.9028 39.7629 18.9028 40.8295 18.9028C41.896 18.9028 41.9077 20.575 40.8295 20.575Z" fill="white"/>
<path d="M40.8304 32.9222C36.3251 32.9222 31.8237 32.9222 27.3184 32.9222H5.77227C4.11759 32.9222 2.4629 32.9222 0.808223 32.9222C-0.266144 32.9222 -0.270065 31.25 0.808223 31.25C5.31351 31.25 9.81487 31.25 14.3202 31.25H35.8702C37.5249 31.25 39.1796 31.25 40.8343 31.25C41.9086 31.25 41.9126 32.9222 40.8343 32.9222H40.8304Z" fill="white"/>
<path d="M40.8295 40.1121H18.4756C17.409 40.1121 16.3425 40.1121 15.276 40.1121C14.2095 40.1121 14.1977 38.4399 15.276 38.4399H37.6299C38.6964 38.4399 39.7629 38.4399 40.8295 38.4399C41.896 38.4399 41.9077 40.1121 40.8295 40.1121Z" fill="white"/>
<path d="M40.8304 52.4598C36.3251 52.4598 31.8237 52.4598 27.3184 52.4598H5.77227C4.11759 52.4598 2.4629 52.4598 0.808223 52.4598C-0.266144 52.4598 -0.270065 50.7876 0.808223 50.7876C5.31351 50.7876 9.81487 50.7876 14.3202 50.7876H35.8702C37.5249 50.7876 39.1796 50.7876 40.8343 50.7876C41.9086 50.7876 41.9126 52.4598 40.8343 52.4598H40.8304Z" fill="white"/>
<path d="M40.8295 59.6497H18.4756C17.409 59.6497 16.3425 59.6497 15.276 59.6497C14.2095 59.6497 14.1977 57.9775 15.276 57.9775H37.6299C38.6964 57.9775 39.7629 57.9775 40.8295 57.9775C41.896 57.9775 41.9077 59.6497 40.8295 59.6497Z" fill="white"/>
</g>
<defs>
<clipPath id="clip0_1010_409">
<rect width="59" height="67" fill="white"/>
</clipPath>
</defs>
</svg>
