<svg width="73" height="73" viewBox="0 0 73 73" fill="none" xmlns="http://www.w3.org/2000/svg">
<g clip-path="url(#clip0_1010_352)">
<path d="M9.0135 31.7463C11.1155 20.1853 20.1814 11.1194 31.7424 9.0174C32.9347 8.80102 32.4268 6.98607 31.2434 7.20245C19.1039 9.41042 9.40652 19.1078 7.19854 31.2473C6.98216 32.4307 8.79712 32.943 9.0135 31.7463Z" fill="white"/>
<path d="M31.7463 63.9873C20.1853 61.8853 11.1194 52.8193 9.0174 41.2584C8.80102 40.0661 6.98607 40.5739 7.20245 41.7574C9.41042 53.8968 19.1078 63.5943 31.2473 65.8022C32.4307 66.0186 32.943 64.2037 31.7463 63.9873Z" fill="white"/>
<path d="M63.9873 41.2584C61.8853 52.8193 52.8193 61.8852 41.2584 63.9872C40.0661 64.2036 40.5739 66.0186 41.7574 65.8022C53.8968 63.5942 63.5943 53.8968 65.8022 41.7574C66.0186 40.5739 64.2037 40.0616 63.9873 41.2584Z" fill="white"/>
<path d="M41.2584 9.01299C52.7442 11.1017 61.7837 20.0705 63.9519 31.5476C64.1771 32.7354 65.9921 32.232 65.7669 31.0486C63.4882 18.993 53.8306 9.39717 41.7574 7.20245C40.5739 6.98607 40.0616 8.80102 41.2584 9.0174V9.01299Z" fill="white"/>
<path d="M35.5576 0.91011V14.4847C35.5576 15.6947 37.4432 15.6991 37.4432 14.4847V0.91011C37.4432 -0.299859 35.5576 -0.304275 35.5576 0.91011Z" fill="white"/>
<path d="M37.4432 72.0902V58.5156C37.4432 57.3056 35.5576 57.3012 35.5576 58.5156V72.0902C35.5576 73.3002 37.4432 73.3046 37.4432 72.0902Z" fill="white"/>
<path d="M72.0909 35.5576H58.5163C57.3019 35.5576 57.3019 37.4432 58.5163 37.4432H72.0909C73.3008 37.4432 73.3053 35.5576 72.0909 35.5576Z" fill="white"/>
<path d="M0.91011 37.4432H14.4847C15.6947 37.4432 15.6991 35.5576 14.4847 35.5576H0.91011C-0.299859 35.5576 -0.304275 37.4432 0.91011 37.4432Z" fill="white"/>
<path d="M52.2579 36.5024C52.1872 43.0557 48.0937 49.1143 41.8584 51.3311C35.6716 53.5303 28.6768 51.6535 24.4286 46.6414C20.1319 41.5719 19.5711 34.0869 22.9802 28.4036C26.3407 22.7997 33.053 19.7616 39.4826 21.0245C46.8705 22.4729 52.174 29.0174 52.2579 36.5024C52.2711 37.7124 54.1568 37.7168 54.1435 36.5024C54.064 29.1852 49.5509 22.5878 42.6885 19.9779C35.7423 17.3372 27.5772 19.5496 22.883 25.2947C18.2242 30.9957 17.553 39.2182 21.3595 45.5507C25.1793 51.9141 32.7173 55.2216 39.9904 53.7952C48.1908 52.1834 54.0596 44.7735 54.1479 36.498C54.1612 35.2836 52.2756 35.2836 52.2623 36.498L52.2579 36.5024Z" fill="white"/>
<path d="M29.5254 38.7543C31.6936 40.0526 33.8575 41.3553 36.0257 42.658C36.348 42.8523 36.9177 42.8302 37.165 42.5123C40.1811 38.6263 43.1972 34.7402 46.2133 30.8542C46.9463 29.9092 45.6259 28.5667 44.8797 29.5206C41.8636 33.4066 38.8475 37.2927 35.8314 41.1787C36.2112 41.1301 36.5909 41.0815 36.9707 41.033C34.8025 39.7347 32.6387 38.432 30.4704 37.1337C29.4283 36.5066 28.4788 38.1361 29.521 38.7587L29.5254 38.7543Z" fill="white"/>
</g>
<defs>
<clipPath id="clip0_1010_352">
<rect width="73" height="73" fill="white"/>
</clipPath>
</defs>
</svg>
