<svg width="427" height="324" viewBox="0 0 427 324" fill="none" xmlns="http://www.w3.org/2000/svg">
<path d="M136.775 112.619C130.448 118.535 116.068 121.649 114.008 110.779C110.45 92.0081 135.963 69.6413 132.634 51.3925C129.304 33.2064 105.705 61.9279 101.772 67.2374C80.9821 95.3109 68.2045 137.013 65.7072 171.881C64.9164 182.813 63.9175 203.863 70.348 212.58C86.0806 233.943 114.57 197.634 123.935 185.029C125.953 182.332 132.176 170.271 132.946 169.832C135.922 168.202 140.229 171.546 143.413 167.031C146.244 163.059 152.507 128.903 153.985 121.294C156.399 108.856 166.013 36.4464 175.732 33.4572C191.256 28.6912 188.135 53.3992 186.741 61.8652C183.952 78.9434 177.313 97.3385 174.691 114.709C182.891 107.916 191.777 95.9589 202.765 106.034C216.749 118.848 194.107 155.701 196.48 172.633C203.868 170.062 207.322 162.265 209.632 155.346C212.691 146.211 221.411 96.0843 226.301 93.0742C230.984 92.3007 241.118 91.4228 241.472 98.1746C241.971 107.56 223.221 156.642 227.612 161.68C230.609 162.202 232.086 159.652 233.793 157.729C243.054 147.298 249.734 116.716 253.334 102.23C256.559 89.3115 251.752 77.1248 271.272 80.9919L272.729 91.2138C277.973 79.5914 292.936 68.1362 304.715 78.6507C311.749 84.9218 310.833 101.895 310.001 110.675C309.647 114.249 304.423 121.837 308.544 124.095C311.228 109.755 326.857 93.1996 323.798 78.2744C322.112 70.1221 310.396 60.4019 321.072 51.3507C332.642 41.5678 340.446 54.4862 338.136 66.1713C344.234 67.3837 360.903 61.2171 364.732 67.1956C370.913 76.8739 348.854 111.908 353.723 125.642C364.441 126.98 368.79 104.676 378.508 114.103C377.218 129.76 352.974 154.51 338.095 142.114C323.631 130.073 337.366 102.439 341.362 87.4511L333.475 84.9218C334.099 90.0432 332.372 93.9521 330.624 98.5091C325.234 112.682 306.4 145.688 295.288 155.346C286.152 163.268 269.628 171.797 260.305 160.091L257.184 185.133C269.191 180.367 281.761 176.521 294.206 173.051C307.108 169.456 365.252 152.984 374.055 159.192C377.447 161.575 375.782 170.459 372.515 173.49C368.187 177.483 328.584 184.632 319.116 187.14C309.688 189.628 255.852 203.884 252.481 207.793C246.279 220.042 251.086 259.237 242.721 267.661C235.957 274.454 224.553 270.754 223.013 260.972C222.202 255.85 229.173 213.249 226.801 213.291C188.78 228.237 150.593 244.102 114.445 263.146C102.25 269.563 72.762 290.237 61.6284 291.47C48.7468 292.912 46.2911 282.46 52.5134 272.866C67.1432 250.269 161.331 215.485 189.425 205.452C203.472 200.435 219.392 197.32 232.024 190.359L236.935 169.498C234.542 169.393 235.166 172.403 232.898 174.013C226.197 178.695 216.271 182.604 212.816 172.633C207.676 184.402 189.654 198.407 180.164 183.524C172.402 171.337 186.428 142.365 185.596 126.457C185.471 124.095 186.699 121.879 183.244 122.527C175.711 128.422 172.298 135.613 169.281 144.497C166.346 153.088 157.169 198.951 154.422 201.564C152.611 203.278 140.479 206.497 138.96 205.389L139.647 183.566C126.474 200.748 116.859 221.213 96.6107 231.1C71.0555 243.58 43.232 238.396 38.3415 207.124C32.14 167.47 46.5825 109.588 69.0785 76.6022C82.522 56.911 126.536 7.32776 149.781 38.7249C160.561 53.2738 149.428 100.725 136.775 112.556V112.619ZM283.218 94.621C272.937 97.5475 260.43 138.393 264.592 147.235C271.501 161.951 285.548 132.227 287.567 125.705C289.544 119.308 296.869 90.7539 283.218 94.621Z" fill="white"/>
<path d="M262.471 221.912H269.796V254.334H279.431V260.814H262.471V221.912Z" fill="white"/>
<path d="M283.664 221.912H300.604V228.371H290.969V237.757H300.188V244.237H290.969V254.334H300.604V260.793H283.664L283.644 221.912H283.664Z" fill="white"/>
<path d="M318.905 253.623H310.893L309.728 260.793H302.59L310.664 221.912H319.072L327.209 260.793H320.071L318.905 253.623ZM311.767 247.143H318.031L314.889 228.601L311.746 247.143H311.767Z" fill="white"/>
<path d="M340.671 221.254C346.06 221.254 349.078 225.393 350.368 230.41L344.562 232.563C343.917 229.887 342.939 227.776 340.671 227.776C337.757 227.776 336.03 232.04 336.03 241.363C336.03 250.686 337.778 254.95 340.671 254.95C342.294 254.95 343.397 254.302 344.146 253.195V246.15H339.797V239.67H350.597V256.351C348.037 259.612 345.02 261.493 340.671 261.493C332.305 261.493 328.538 253.278 328.538 241.384C328.538 229.427 332.305 221.275 340.671 221.275V221.254Z" fill="white"/>
<path d="M356.059 221.896H363.363V249.886C363.363 253.67 364.82 255.029 367.088 255.029C369.356 255.029 370.813 253.691 370.813 249.886V221.896H378.118V249.531C378.118 257.871 372.832 261.488 367.088 261.488C361.344 261.488 356.059 257.871 356.059 249.531V221.896Z" fill="white"/>
<path d="M384.148 221.896H401.087V228.377H391.452V237.762H400.671V244.242H391.452V254.318H401.087V260.798H384.148L384.127 221.896H384.148Z" fill="white"/>
</svg>
