<svg width="112" height="85" viewBox="0 0 112 85" fill="none" xmlns="http://www.w3.org/2000/svg">
<path d="M35.7626 29.4507C34.0966 31.0094 30.3097 31.83 29.7672 28.966C28.8301 24.0201 35.5489 18.1269 34.672 13.3187C33.7952 8.52702 27.5806 16.0946 26.5448 17.4935C21.07 24.8903 17.7051 35.8782 17.0475 45.065C16.8393 47.9455 16.5762 53.4917 18.2696 55.7884C22.4127 61.4173 29.9151 51.8504 32.3813 48.5293C32.9128 47.8188 34.5514 44.6409 34.7542 44.5252C35.5379 44.0956 36.6723 44.9768 37.5108 43.7872C38.2561 42.7407 39.9057 33.7412 40.2948 31.7364C40.9305 28.4593 43.4623 9.38071 46.0216 8.59311C50.1099 7.33736 49.2879 13.8474 48.9207 16.0781C48.1863 20.5778 46.4381 25.4246 45.7476 30.0015C47.9068 28.2115 50.2469 25.0611 53.1405 27.7158C56.8232 31.092 50.8607 40.802 51.4854 45.2632C53.4309 44.5858 54.3406 42.5314 54.949 40.7084C55.7546 38.3015 58.0508 25.0941 59.3386 24.301C60.5717 24.0972 63.2406 23.8659 63.3338 25.6449C63.4653 28.1178 58.5276 41.0499 59.6839 42.3772C60.4731 42.5149 60.8622 41.843 61.3115 41.3363C63.7502 38.5879 65.5094 30.5302 66.4575 26.7134C67.3069 23.3096 66.041 20.0987 71.1815 21.1176L71.5651 23.8108C72.9461 20.7486 76.8864 17.7304 79.9883 20.5007C81.8406 22.153 81.5994 26.6253 81.3802 28.9385C81.2871 29.8803 79.9115 31.8796 80.9966 32.4744C81.7036 28.6961 85.8192 24.3341 85.0136 20.4016C84.5697 18.2536 81.4844 15.6925 84.2957 13.3077C87.3428 10.7301 89.3979 14.1338 88.7895 17.2126C90.3953 17.5321 94.7849 15.9073 95.7933 17.4825C97.4209 20.0326 91.6119 29.2634 92.8942 32.882C95.7166 33.2345 96.862 27.3578 99.4212 29.8417C99.0815 33.967 92.697 40.4881 88.7786 37.222C84.9698 34.0496 88.5868 26.7685 89.639 22.8195L87.562 22.153C87.7264 23.5024 87.2715 24.5323 86.8112 25.733C85.3918 29.4672 80.4321 38.1638 77.5057 40.7084C75.0999 42.7958 70.7485 45.0429 68.2934 41.9586L67.4713 48.5568C70.6335 47.3011 73.9435 46.2877 77.2207 45.3734C80.6185 44.4261 95.9303 40.086 98.2485 41.7218C99.1417 42.3497 98.7033 44.6904 97.8429 45.4891C96.703 46.541 86.2741 48.4247 83.7806 49.0856C81.298 49.741 67.1206 53.4972 66.2328 54.5272C64.5997 57.7547 65.8656 68.0816 63.6626 70.3012C61.8815 72.0912 58.8783 71.1163 58.4728 68.5387C58.259 67.1893 60.0949 55.9647 59.4702 55.9757C49.4577 59.9137 39.4015 64.094 29.8823 69.1115C26.6708 70.8024 18.9053 76.2495 15.9734 76.5744C12.5811 76.9544 11.9344 74.2006 13.573 71.6726C17.4256 65.7188 42.2293 56.554 49.6276 53.9103C53.3268 52.5885 57.5192 51.7678 60.8457 49.9338L62.1391 44.4371C61.5088 44.4096 61.6732 45.2027 61.0759 45.6268C59.3112 46.8605 56.6972 47.8904 55.7874 45.2632C54.4338 48.3641 49.6879 52.0542 47.1889 48.1327C45.1448 44.9218 48.8385 37.2881 48.6193 33.0968C48.5864 32.4744 48.9097 31.8906 48 32.0613C46.0161 33.6145 45.1174 35.5091 44.3227 37.8499C43.55 40.1136 41.1332 52.1974 40.4098 52.8859C39.9331 53.3375 36.7381 54.1857 36.338 53.8938L36.5189 48.1438C33.0499 52.6711 30.518 58.0631 25.1857 60.6682C18.4559 63.9563 11.1288 62.5904 9.84097 54.3509C8.20785 43.9029 12.0112 28.6521 17.9353 19.961C21.4756 14.7727 33.0663 1.70851 39.1877 9.98105C42.0265 13.8144 39.0946 26.3168 35.7626 29.4342V29.4507ZM74.3271 24.7086C71.6199 25.4797 68.3263 36.2417 69.4223 38.5714C71.2418 42.4488 74.9409 34.6169 75.4725 32.8985C75.9931 31.2132 77.9222 23.6897 74.3271 24.7086Z" fill="white"/>
<path d="M68.8643 58.2393H70.7933V66.7817H73.3307V68.489H68.8643V58.2393Z" fill="white"/>
<path d="M74.4449 58.2393H78.9059V59.9411H76.3685V62.4141H78.7962V64.1215H76.3685V66.7817H78.9059V68.4835H74.4449L74.4395 58.2393H74.4449Z" fill="white"/>
<path d="M83.7262 66.5944H81.6163L81.3094 68.4835H79.4297L81.556 58.2393H83.7701L85.9128 68.4835H84.0331L83.7262 66.5944ZM81.8465 64.887H83.496L82.6685 60.0017L81.841 64.887H81.8465Z" fill="white"/>
<path d="M89.4616 58.0664C90.881 58.0664 91.6756 59.1569 92.0154 60.4788L90.4864 61.0461C90.3165 60.3411 90.0589 59.7848 89.4616 59.7848C88.6944 59.7848 88.2395 60.9084 88.2395 63.3648C88.2395 65.8212 88.6998 66.9448 89.4616 66.9448C89.8891 66.9448 90.1795 66.7741 90.3768 66.4821V64.6261H89.2314V62.9187H92.0757V67.3138C91.4016 68.173 90.607 68.6687 89.4616 68.6687C87.2585 68.6687 86.2666 66.5042 86.2666 63.3703C86.2666 60.2199 87.2585 58.0719 89.4616 58.0719V58.0664Z" fill="white"/>
<path d="M93.5137 58.2354H95.4372V65.6101C95.4372 66.607 95.8209 66.965 96.4182 66.965C97.0155 66.965 97.3992 66.6125 97.3992 65.6101V58.2354H99.3227V65.5165C99.3227 67.7141 97.9308 68.6669 96.4182 68.6669C94.9057 68.6669 93.5137 67.7141 93.5137 65.5165V58.2354Z" fill="white"/>
<path d="M100.907 58.2354H105.368V59.9427H102.83V62.4157H105.258V64.1231H102.83V66.7778H105.368V68.4851H100.907L100.901 58.2354H100.907Z" fill="white"/>
</svg>
