<svg width="222" height="38" viewBox="0 0 222 38" fill="none" xmlns="http://www.w3.org/2000/svg">
<path d="M46.6391 12.5185H50.5689L53.7395 19.6189L57.3121 12.5185H61.3758L64.4571 19.5742L67.9404 12.5185H71.7362L64.4125 28.6396L59.143 17.1181L53.7395 28.4163L46.6391 12.5185ZM41.7269 12.5185H45.612L53.7395 30.6938L59.143 19.351L64.4125 30.8724L72.808 12.5185H76.6038L66.3327 34.7129H62.2243L59.0983 27.9251L55.8384 34.7129H51.5067L41.7269 12.5185ZM83.2688 12.2952H86.8413V34.7129H83.2688V12.2952ZM83.2688 4.65889H86.8413V10.9108H83.2688V4.65889ZM78.7138 12.2952H82.2864V34.7129H78.7138V12.2952ZM78.7138 4.65889H82.2864V10.9108H78.7138V4.65889ZM98.6503 34.7129H95.1224V23.5487C95.1224 22.7747 95.2712 21.9857 95.5689 21.1819C95.8667 20.3781 96.3132 19.6636 96.9086 19.0384C97.5041 18.3834 98.2335 17.8475 99.0968 17.4307C99.9602 17.0139 100.958 16.8055 102.089 16.8055C102.982 16.8055 103.816 16.9693 104.59 17.2968C105.393 17.6242 106.093 18.0857 106.688 18.6811C107.284 19.2765 107.76 19.991 108.117 20.8246C108.475 21.6582 108.653 22.5811 108.653 23.5934V34.7129H105.125V23.5487C105.125 23.1617 105.036 22.7895 104.858 22.4323C104.709 22.0453 104.485 21.7029 104.188 21.4052C103.89 21.1075 103.548 20.8693 103.161 20.6907C102.803 20.512 102.401 20.4227 101.955 20.4227C101.508 20.4227 101.077 20.512 100.66 20.6907C100.273 20.8693 99.9304 21.1223 99.6327 21.4498C99.335 21.7475 99.0968 22.0899 98.9182 22.4769C98.7396 22.864 98.6503 23.2808 98.6503 23.7273V34.7129ZM94.0953 34.7129H90.612V23.5934C90.612 22.0453 90.8949 20.5865 91.4605 19.217C92.0559 17.8178 92.8598 16.612 93.872 15.5998C94.914 14.5876 96.1346 13.7838 97.5338 13.1883C98.9331 12.5929 100.451 12.2952 102.089 12.2952C103.429 12.2952 104.828 12.6078 106.287 13.233C107.745 13.8284 108.996 14.6471 110.038 15.6891C111.169 16.8204 111.958 18.0113 112.405 19.2617C112.851 20.512 113.074 21.9857 113.074 23.6827V34.7129H109.68V23.638C109.68 22.5663 109.457 21.554 109.011 20.6014C108.594 19.6487 108.028 18.83 107.314 18.1452C106.599 17.4605 105.78 16.9246 104.858 16.5376C103.964 16.1208 103.056 15.9124 102.133 15.9124C100.943 15.9124 99.856 16.1357 98.8735 16.5822C97.8911 17.0288 97.0426 17.6094 96.3281 18.3239C95.6136 19.0384 95.0628 19.8571 94.6758 20.78C94.2888 21.7029 94.0953 22.6407 94.0953 23.5934V34.7129ZM128.347 16.9395V20.5567H124.686V23.0575C124.686 24.3079 124.983 25.2159 125.579 25.7815C126.204 26.3472 127.127 26.6747 128.347 26.764V30.3812C127.99 30.3812 127.648 30.3812 127.32 30.3812C126.993 30.3514 126.665 30.3068 126.338 30.2472C126.01 30.1579 125.653 30.0239 125.266 29.8453C124.879 29.6369 124.432 29.3541 123.926 28.9968C122.884 28.2823 122.125 27.4636 121.649 26.5407C121.202 25.588 120.979 24.6353 120.979 23.6827V16.9395H128.347ZM120.979 4.79286H124.686V12.4738H128.347V15.9571H120.979V4.79286ZM116.647 4.79286H120.086V22.2983C120.086 24.025 120.324 25.4987 120.8 26.7193C121.306 27.9102 122.17 28.9373 123.39 29.8006C124.343 30.4854 125.206 30.9022 125.981 31.051C126.784 31.1701 127.573 31.2445 128.347 31.2743V34.7129C126.531 34.7129 124.909 34.4598 123.48 33.9537C122.051 33.4178 120.696 32.4205 119.416 30.9617C118.761 30.2174 118.24 29.488 117.853 28.7735C117.496 28.0293 117.228 27.2999 117.049 26.5854C116.871 25.8709 116.751 25.1712 116.692 24.4865C116.662 23.8018 116.647 23.1468 116.647 22.5216V4.79286ZM153.439 26.3174C153.2 27.5976 152.754 28.7735 152.099 29.8453C151.444 30.9171 150.625 31.8549 149.643 32.6587C148.69 33.4327 147.618 34.043 146.427 34.4896C145.266 34.9064 144.061 35.1148 142.81 35.1148C141.054 35.1148 139.461 34.8171 138.032 34.2217C136.633 33.5965 135.427 32.7778 134.415 31.7655C133.403 30.7236 132.614 29.5476 132.048 28.2377C131.512 26.898 131.244 25.5136 131.244 24.0846C131.244 22.4472 131.527 20.9288 132.093 19.5296C132.688 18.1006 133.492 16.88 134.504 15.8677C135.546 14.8257 136.767 14.0219 138.166 13.4563C139.595 12.8608 141.143 12.5631 142.81 12.5631C143.763 12.5631 144.716 12.712 145.668 13.0097C146.621 13.2776 147.514 13.6796 148.348 14.2154C149.181 14.7513 149.94 15.3914 150.625 16.1357C151.34 16.8502 151.935 17.654 152.411 18.5471C152.918 19.5594 153.26 20.5716 153.439 21.5838C153.617 22.596 153.721 23.638 153.751 24.7098H138.568C138.657 25.5434 139.074 26.2579 139.818 26.8533C140.592 27.4487 141.471 27.7464 142.453 27.7464C143.227 27.7464 143.837 27.6274 144.284 27.3892C144.76 27.151 145.162 26.7938 145.49 26.3174H148.794C148.258 27.6571 147.425 28.714 146.293 29.488C145.192 30.2621 144.001 30.6491 142.721 30.6491C141.59 30.6491 140.577 30.4556 139.684 30.0686C138.821 29.6816 138.077 29.1755 137.451 28.5503C136.856 27.8953 136.395 27.1659 136.067 26.3621C135.74 25.5583 135.576 24.7395 135.576 23.906C135.576 22.9235 135.74 22.0155 136.067 21.1819C136.424 20.3483 136.916 19.6189 137.541 18.9937C138.166 18.3685 138.925 17.8773 139.818 17.52C140.711 17.1628 141.709 16.9842 142.81 16.9842C144.09 16.9842 145.266 17.3563 146.338 18.1006C147.41 18.8151 148.199 19.8571 148.705 21.2265H145.222C144.626 20.2739 143.703 19.7975 142.453 19.7975C141.679 19.7975 140.979 19.991 140.354 20.3781C139.759 20.7651 139.357 21.301 139.148 21.9857H149.821C149.553 21.033 149.181 20.1994 148.705 19.4849C148.229 18.7704 147.678 18.175 147.053 17.6987C146.457 17.1926 145.787 16.8204 145.043 16.5822C144.329 16.3143 143.599 16.1803 142.855 16.1803C141.575 16.1803 140.429 16.3887 139.416 16.8055C138.434 17.1926 137.585 17.7433 136.871 18.4578C136.186 19.1426 135.665 19.9613 135.308 20.914C134.951 21.8369 134.772 22.8342 134.772 23.906C134.772 24.8586 134.951 25.7964 135.308 26.7193C135.665 27.6125 136.171 28.4163 136.826 29.1308C137.511 29.8453 138.345 30.4258 139.327 30.8724C140.339 31.2892 141.5 31.4976 142.81 31.4976C143.525 31.4976 144.224 31.3785 144.909 31.1403C145.624 30.9022 146.279 30.5598 146.874 30.1132C147.469 29.6667 148.005 29.1308 148.482 28.5056C148.958 27.8506 149.33 27.1212 149.598 26.3174H153.439ZM165.032 34.7129H161.46V23.5934C161.46 22.6109 161.638 21.7178 161.996 20.914C162.353 20.0804 162.829 19.3659 163.425 18.7704C164.05 18.1452 164.764 17.6689 165.568 17.3414C166.372 16.9842 167.22 16.8055 168.113 16.8055C168.947 16.8055 169.766 16.9693 170.57 17.2968C171.373 17.5945 172.088 18.041 172.713 18.6365C173.338 19.2021 173.844 19.9017 174.231 20.7353C174.648 21.5689 174.901 22.5216 174.991 23.5934H171.418C171.091 21.4796 170.004 20.4227 168.158 20.4227C167.295 20.4227 166.551 20.7204 165.925 21.3159C165.33 21.8815 165.032 22.6407 165.032 23.5934V34.7129ZM160.522 34.7129H156.681V23.5934C156.681 21.8071 157.009 20.2143 157.664 18.8151C158.319 17.3861 159.167 16.1803 160.209 15.1979C161.281 14.1857 162.472 13.4265 163.782 12.9204C165.121 12.3845 166.461 12.1166 167.801 12.1166C169.438 12.1166 170.972 12.3994 172.401 12.965C173.83 13.5009 175.065 14.275 176.107 15.2872C177.179 16.2994 178.012 17.52 178.608 18.9491C179.233 20.3483 179.546 21.8964 179.546 23.5934H175.794C175.765 22.4323 175.527 21.3754 175.08 20.4227C174.663 19.47 174.098 18.6662 173.383 18.0113C172.668 17.3265 171.835 16.8055 170.882 16.4483C169.959 16.091 169.007 15.9124 168.024 15.9124C167.072 15.9124 166.149 16.1059 165.255 16.4929C164.362 16.8502 163.559 17.3712 162.844 18.0559C162.159 18.7407 161.594 19.5594 161.147 20.512C160.73 21.4349 160.522 22.4621 160.522 23.5934V34.7129Z" fill="white"/>
</svg>
