<svg viewBox="0 0 117 133" fill="none">
<path d="M57.2292 28.1778C70.8547 27.7538 82.7672 35.7136 87.3523 48.5359C91.3059 59.5845 88.65 68.5393 82.9662 78.2555C78.6233 85.679 74.5227 90.3337 74.0123 99.4702C73.9691 100.284 74.3757 101.945 73.476 102.144L44.0622 102.187C43.3701 102.187 43.05 101.919 42.9722 101.235C42.7472 99.2799 43.1452 96.84 42.6088 94.8933C39.8751 85.03 32.2275 77.6326 29.2083 67.925C23.2996 48.9512 37.3057 28.8007 57.2292 28.1778ZM56.788 33.5679C40.0222 34.4937 29.0526 51.7804 34.7017 67.5184C38.1276 77.0702 45.1177 83.3948 47.6697 93.8984C47.7649 94.2877 48.3099 96.5545 48.4224 96.6497L68.5275 96.7622C68.7438 96.6929 68.7957 96.4074 68.8476 96.2084C69.1331 95.0491 69.2629 93.6821 69.5657 92.5486C71.962 83.49 79.0905 76.3435 82.2914 67.6741C88.7019 50.3009 75.1889 32.547 56.788 33.5679Z" fill="black"/>
<path d="M70.3426 115.044C70.7406 115.009 71.0174 114.966 71.4327 115.035C73.6992 115.416 74.4605 118.548 72.4621 119.785C71.7787 120.209 69.7111 120.529 68.82 120.668C63.2747 121.533 57.6688 122.139 52.0975 122.891C50.2375 123.142 48.1352 123.731 46.2407 123.757C43.7751 123.783 42.512 120.91 44.3028 119.18C45.3669 118.159 48.81 118.124 50.3153 117.899C56.8036 116.939 63.8456 115.537 70.334 115.044H70.3426Z" fill="black"/>
<path d="M69.1764 105.708C69.7992 105.656 71.5122 105.544 72.0139 105.691C72.3427 105.786 73.4067 107.032 73.5019 107.404C74.2978 110.415 71.244 110.874 69.1244 111.194C62.2382 112.232 55.2394 113.166 48.3099 113.98C46.9344 114.144 46.571 114.672 45.1176 114.075C43.7421 113.504 43.0154 111.964 43.7162 110.562C44.5986 108.806 46.1817 109.1 47.8081 108.823C53.9504 107.785 60.1533 107.041 66.3388 106.219C67.2904 106.089 68.1382 105.786 69.1677 105.7L69.1764 105.708Z" fill="black"/>
<path d="M57.9472 0.474091C59.565 0.171271 60.8799 1.13165 61.1914 2.69766L61.1741 17.8387C60.88 19.4566 58.6999 20.6419 57.2551 19.7421C56.3727 19.1884 55.8883 18.2886 55.7931 17.2676C55.3779 12.6388 56.0959 7.40435 55.7931 2.70631C56.1997 1.63346 56.7101 0.699043 57.9299 0.474091H57.9472Z" fill="black"/>
<path d="M2.13871 56.297L17.6847 56.271C19.216 56.7988 19.8043 57.7505 19.6485 59.3771C19.4928 61.0036 18.4201 61.2545 17.1051 61.6352H2.70103C-0.309552 61.2632 -0.750759 57.1102 2.13871 56.2883V56.297Z" fill="black"/>
<path d="M99.482 56.297C104.24 56.6258 109.933 55.726 114.587 56.2711C117.675 56.6345 117.693 61.1681 114.301 61.6353H99.8972C96.7309 61.1595 96.4109 56.9892 99.4906 56.297H99.482Z" fill="black"/>
<path d="M28.5059 85.7393C29.769 85.523 30.8071 85.7739 31.5251 86.8814C32.3989 88.2138 31.7674 89.3905 30.8763 90.446C27.9176 93.976 23.7478 97.1427 20.668 100.638C17.7526 101.979 15.6244 99.6085 16.9653 96.7879L27.5197 86.2065C27.7792 85.9729 28.1685 85.7912 28.5059 85.7393Z" fill="black"/>
<path d="M18.6019 16.8002C19.64 16.5839 20.211 16.9733 21.0501 17.4924L31.4747 28.0565C32.8243 30.0205 30.8691 32.7459 28.6631 32.1748C27.5904 31.898 26.4052 30.4012 25.6439 29.6571C23.6714 27.7537 21.5692 25.781 19.6746 23.8257C19.0258 23.1508 17.5032 21.7059 17.0533 21.057C15.9719 19.517 16.6813 17.1982 18.6192 16.7916L18.6019 16.8002Z" fill="black"/>
<path d="M97.2926 16.8003C98.0712 16.6186 99.637 17.0945 100.087 17.7347C100.667 18.5567 100.727 20.339 100.018 21.1349L89.6018 31.552C88.3474 32.7719 85.9683 32.1057 85.3454 30.5743C84.9388 29.562 85.2762 28.5151 85.8991 27.7018C88.555 24.2324 93.166 21.0138 96.0122 17.5617C96.2458 17.38 97.0417 16.8522 97.2839 16.7916L97.2926 16.8003Z" fill="black"/>
<path d="M94.323 98.6223C91.7883 96.1738 88.3019 92.9466 86.0526 90.3597C83.8033 87.7727 86.1997 84.6061 89.2535 85.9991C92.1949 88.8802 95.1968 91.7353 98.069 94.6684C98.9773 95.5941 100.517 97.0131 100.552 98.3195C100.595 100.119 99.3147 101.192 97.5499 101.019C96.356 100.898 95.1795 99.4616 94.323 98.6396V98.6223Z" fill="black"/>
<path d="M51.2336 127.408L64.6255 127.373C65.0408 127.373 65.283 127.615 65.283 128.031C65.283 128.446 64.1843 130.315 63.8729 130.713C63.423 131.301 62.8261 131.881 62.1427 132.192C59.53 133.36 54.7546 133.291 52.5832 131.24C52.0641 130.756 50.1003 127.788 51.225 127.399L51.2336 127.408Z" fill="black"/>
<path d="M56.2099 37.799C57.7412 37.6951 59.4887 37.375 60.5268 38.6382C61.3746 39.6765 61.513 40.7234 60.6652 41.8222C59.4541 43.3968 57.0058 42.9815 55.1804 43.3363C48.8651 44.5648 43.8389 50.2319 42.8613 56.5133C42.671 57.7245 43.1208 58.8666 42.4287 60.0087C41.4858 61.5574 39.1499 61.8948 38.0426 60.3893C36.8315 58.7455 37.6187 56.1326 37.9994 54.2724C39.7469 45.7848 47.3339 38.4133 56.2013 37.7903L56.2099 37.799Z" fill="black"/>
</svg>
