<svg width="71" height="71" viewBox="0 0 71 71" fill="none" xmlns="http://www.w3.org/2000/svg">
<path fill-rule="evenodd" clip-rule="evenodd" d="M35.4997 17.4248C32.8307 17.4248 30.4124 17.8328 28.2386 18.4849C27.0648 18.8371 25.8279 18.1711 25.4758 16.9973C25.1236 15.8236 25.7898 14.5867 26.9634 14.2346C29.523 13.4668 32.3704 12.9873 35.4997 12.9873C49.7826 12.9873 61.3851 24.4647 61.3851 38.6656C61.3851 52.8667 49.7826 64.344 35.4997 64.344C21.2167 64.344 9.61426 52.8667 9.61426 38.6656C9.61426 33.3841 11.2353 28.4579 13.9873 24.3786C14.6726 23.3628 16.0517 23.0948 17.0675 23.7801C18.0833 24.4654 18.3513 25.8444 17.666 26.8602C15.3888 30.2358 14.0518 34.3032 14.0518 38.6656C14.0518 50.3797 23.631 59.9065 35.4997 59.9065C47.3683 59.9065 56.9476 50.3797 56.9476 38.6656C56.9476 26.9517 47.3683 17.4248 35.4997 17.4248Z" fill="#233D4D"/>
<path fill-rule="evenodd" clip-rule="evenodd" d="M33.0095 7.01381C34.0374 7.68066 34.3303 9.05464 33.6634 10.0827L29.9052 15.8768L35.7542 19.6417C36.7846 20.3049 37.0821 21.6778 36.4189 22.7082C35.7556 23.7386 34.3826 24.0363 33.3524 23.3729L25.6312 18.4029C25.1352 18.0838 24.7868 17.5802 24.6629 17.0036C24.5388 16.427 24.6496 15.8247 24.9705 15.3299L29.9405 7.66785C30.6074 6.63978 31.9814 6.34698 33.0095 7.01381Z" fill="#233D4D"/>
</svg>
