<svg width="63" height="63" viewBox="0 0 63 63" fill="none" xmlns="http://www.w3.org/2000/svg">
<g clip-path="url(#clip0_1010_231)">
<path d="M62.9262 4.70308C62.7897 2.20056 60.7995 0.210518 58.2969 0.073936C53.2473 -0.201935 43.3662 0.0664304 33.9177 4.95348C29.101 7.44494 24.0068 11.669 19.9415 16.5427C19.8914 16.6027 19.8427 16.6631 19.793 16.7233L10.5669 17.436C9.04828 17.5534 7.69563 18.3493 6.85571 19.6197L0.561371 29.1401C-0.0756431 30.1035 -0.176911 31.3093 0.290298 32.3654C0.75763 33.4216 1.71789 34.1577 2.85915 34.3345L10.6321 35.5384C10.6047 35.6895 10.5771 35.8405 10.5519 35.9916C10.2931 37.5395 10.806 39.131 11.924 40.2489L22.7512 51.0761C23.6781 52.003 24.9306 52.5141 26.2139 52.5141C26.4782 52.5141 26.744 52.4923 27.0086 52.4481C27.1597 52.4229 27.3107 52.3953 27.4618 52.3679L28.6656 60.141C28.8425 61.2823 29.5785 62.2426 30.6345 62.7098C31.0739 62.9043 31.5389 63.0002 32.0018 63.0002C32.6519 63.0001 33.2974 62.8109 33.8599 62.4389L43.3803 56.1444C44.6508 55.3044 45.4467 53.9517 45.5638 52.4332L46.2765 43.2073C46.3367 43.1576 46.3972 43.1088 46.4572 43.0588C51.331 38.9934 55.5552 33.8993 58.0465 29.0825C62.9338 19.6336 63.2017 9.75231 62.9262 4.70308ZM41.3445 53.0651L32.2377 59.0861L31.0643 51.5107C34.9132 50.3791 38.7207 48.5666 42.348 46.1385L41.8837 52.1487C41.8548 52.5237 41.6582 52.8577 41.3445 53.0651ZM25.3613 48.4659L14.5341 37.6387C14.2578 37.3623 14.1301 36.9741 14.1927 36.6002C14.5146 34.6753 15.0148 32.843 15.634 31.1169L31.8796 47.3626C29.8065 48.1052 27.9496 48.5481 26.3999 48.8073C26.0253 48.8695 25.6376 48.7422 25.3613 48.4659ZM10.8513 21.1164L16.8614 20.6522C14.4332 24.2795 12.6207 28.0869 11.489 31.9358L3.91378 30.7626L9.93496 21.6556C10.1424 21.3419 10.4765 21.1453 10.8513 21.1164ZM44.093 40.2239C41.1112 42.711 38.2168 44.51 35.5489 45.8117L17.1877 27.4505C18.8929 23.9678 20.974 21.0677 22.7761 18.9072C26.5383 14.397 31.2174 10.5061 35.6137 8.23219C44.2853 3.74676 53.4217 3.50522 58.096 3.75968C58.7147 3.7934 59.2067 4.28546 59.2405 4.90426C59.4953 9.57857 59.2533 18.7148 54.7678 27.3865C52.494 31.7827 48.6032 36.4617 44.093 40.2239Z" fill="#233D4D"/>
<path d="M43.155 29.0688C45.5178 29.0686 47.8815 28.1691 49.6803 26.3703C51.4234 24.6273 52.3832 22.3099 52.3832 19.845C52.3832 17.3801 51.4233 15.0627 49.6803 13.3197C46.0822 9.72144 40.2276 9.72168 36.6297 13.3197C34.8866 15.0627 33.9268 17.3801 33.9268 19.845C33.9268 22.3099 34.8868 24.6273 36.6297 26.3703C38.4289 28.1695 40.7914 29.0691 43.155 29.0688ZM39.2397 15.9298C40.319 14.8503 41.7369 14.3106 43.1548 14.3106C44.5728 14.3106 45.9906 14.8503 47.07 15.9298C48.1158 16.9755 48.6916 18.366 48.6916 19.8449C48.6916 21.3238 48.1158 22.7143 47.07 23.7601C44.9113 25.919 41.3984 25.9188 39.2396 23.7601C38.1938 22.7143 37.6178 21.3239 37.6178 19.845C37.6178 18.3661 38.1939 16.9755 39.2397 15.9298Z" fill="#233D4D"/>
<path d="M1.88275 51.9186C2.35513 51.9186 2.8275 51.7385 3.18779 51.3779L9.21376 45.352C9.93457 44.6312 9.93457 43.4626 9.21376 42.7418C8.49307 42.021 7.32438 42.021 6.60357 42.7418L0.577716 48.7678C-0.143093 49.4886 -0.143093 50.6571 0.577716 51.3779C0.937997 51.7384 1.41037 51.9186 1.88275 51.9186Z" fill="#233D4D"/>
<path d="M14.7362 48.2642C14.0155 47.5434 12.8468 47.5434 12.126 48.2642L0.540606 59.8497C-0.180202 60.5705 -0.180202 61.7391 0.540606 62.4599C0.901011 62.8203 1.37326 63.0005 1.84564 63.0005C2.31802 63.0005 2.7904 62.8203 3.15068 62.4598L14.736 50.8744C15.457 50.1536 15.457 48.985 14.7362 48.2642Z" fill="#233D4D"/>
<path d="M17.6486 53.7867L11.6226 59.8127C10.9018 60.5335 10.9018 61.7021 11.6226 62.4229C11.983 62.7833 12.4554 62.9635 12.9277 62.9635C13.3999 62.9635 13.8724 62.7834 14.2327 62.4229L20.2587 56.3969C20.9795 55.6761 20.9795 54.5075 20.2587 53.7867C19.538 53.0659 18.3693 53.0659 17.6486 53.7867Z" fill="#233D4D"/>
</g>
<defs>
<clipPath id="clip0_1010_231">
<rect width="63" height="63" fill="white"/>
</clipPath>
</defs>
</svg>
