<svg width="163" height="42" viewBox="0 0 163 42" fill="none" xmlns="http://www.w3.org/2000/svg">
<path d="M0.25 31.4391L5.5539 28.8077C6.0691 31.0403 7.28851 33.7722 10.2944 34.0182V23.7949C6.0691 21.9574 0.813377 20.3697 0.813377 13.62C0.813377 7.61194 4.94234 3.54199 10.8096 3.54199C15.502 3.54199 19.4456 6.12485 20.5242 10.6905L15.3166 13.2734C14.6124 11.0893 13.0631 9.30403 10.8578 9.30403C8.88598 9.30403 6.8215 10.6942 6.8215 13.0274C6.8215 19.2814 21.5583 16.7992 21.5583 28.8115C21.5583 35.5612 16.9104 39.8809 10.8096 39.8809C4.70884 39.8809 1.09507 35.7065 0.25 31.4391ZM10.6688 23.9439V34.0219C10.9986 34.0219 11.2803 33.9735 11.6065 33.9213V24.3427C11.3248 24.2421 10.9949 24.093 10.6688 23.9439ZM11.9809 24.5403V33.8728C12.3107 33.7722 12.6369 33.6753 12.9186 33.5262V25.0881C12.6369 24.8906 12.307 24.7415 11.9809 24.544V24.5403ZM13.2966 25.3341V33.325C13.6265 33.1274 13.9527 32.9262 14.2344 32.6317V26.0795C13.9527 25.8298 13.6228 25.5354 13.2966 25.3341ZM14.6124 26.5231V32.1807C15.224 31.4353 15.5501 30.4439 15.5501 29.3034C15.5501 28.163 15.2203 27.2685 14.6124 26.5231Z" fill="#3AA7CB"/>
<path d="M26.7178 20.8165H36.6214C39.5309 20.8165 42.1588 19.676 42.1588 15.457C42.1588 11.2379 39.4827 10.0974 36.6214 10.0974H26.7178V4.1416H37.2774C43.4708 4.1416 48.6821 7.56677 48.6821 15.4085C48.6821 23.2503 43.4745 26.7761 37.2774 26.7761H26.7178V20.8202V20.8165ZM26.7178 11.4839V11.0851H37.2292V11.4839H26.7178ZM37.2292 12.4753V12.8741H26.7178V12.4753H37.2292ZM37.2292 13.8655V14.2643H26.7178V13.8655H37.2292ZM26.7178 15.6545V15.2557H37.2292V15.6545H26.7178ZM37.2292 16.6459V17.0447H26.7178V16.6459H37.2292ZM37.2292 18.0361V18.4349H26.7178V18.0361H37.2292ZM26.7178 19.8214V19.4226H37.2292V19.8214H26.7178ZM37.2292 27.7637V28.1625H26.7178V27.7637H37.2292ZM37.2292 29.1539V29.5527H26.7178V29.1539H37.2292ZM26.7178 30.9429V30.5441H37.2292V30.9429H26.7178ZM26.7178 32.3294V31.9343H37.2292V32.3294H26.7178ZM26.7178 33.7196V33.3208H37.2292V33.7196H26.7178ZM26.7178 35.1098V34.711H37.2292V35.1098H26.7178ZM37.2292 36.1049V36.5037H26.7178V36.1049H37.2292ZM37.2292 37.4951V37.8902H26.7178V37.4951H37.2292ZM37.2292 38.8816V39.2803H26.7178V38.8816H37.2292Z" fill="#3AA7CB"/>
<path d="M53.7969 18.0359H63.5114C65.2016 18.0359 66.61 17.9875 67.4551 17.0445H53.8932V16.6457H67.7368C67.8776 16.3476 68.0184 16.0494 68.1111 15.6543H53.8932V15.2555H68.1593C68.2075 14.9574 68.252 14.6107 68.252 14.2641H53.8932V13.8653H68.252C68.252 13.5187 68.2038 13.1721 68.1111 12.8739H53.8932V12.4751H68.0184C67.8776 12.0763 67.6886 11.7819 67.4551 11.4837H53.8932V11.0849H67.0807C66.2838 10.3917 65.0644 10.0935 63.5151 10.0935H53.8932V4.1377H64.0785C70.272 4.1377 74.8272 7.01499 74.8272 14.1635C74.8272 20.7157 71.0244 23.9918 65.1126 23.9918L75.3905 39.2802H53.897V38.8814H67.7405L67.0844 37.89H53.897V37.4949H66.8509L66.1467 36.5035H53.897V36.1047H65.9095L65.2535 35.1133H53.897V34.7145H64.9718L64.3157 33.7231H53.897V33.3243H64.034L63.378 32.3329H53.897V31.9379H63.0963L62.4403 30.9465H53.9007V30.5477H62.1586L61.5025 29.5563H53.9007V29.1575H61.269L60.5648 28.1661H53.9007V27.7673H60.3313L59.6753 26.7759H53.9044V26.3808H59.3936L58.7375 25.3894H53.9044V24.9906H58.4559L57.7998 23.9992H53.9044V23.6004H57.5181L56.8621 22.609H53.9044V22.2102H56.5804L55.9244 21.2188H53.9081V20.82H55.6909L54.9866 19.8286H53.9081V19.4298H54.7531L53.8154 18.0396L53.7969 18.0359Z" fill="#3AA7CB"/>
<path d="M79.6084 4.1377H90.1198V4.53649H86.1762V5.52789H90.1198V5.92669H86.1762V6.91808H90.1198V7.31688H86.1762V8.30828H90.1198V8.70707H86.1762V9.69847H90.1198V10.0973H86.1762V11.0887H90.1198V11.4875H86.1762V12.4789H90.1198V12.8777H86.1762V13.8691H90.1198V14.2679H86.1762V15.2593H90.1198V15.658H86.1762V16.6494H90.1198V17.0482H86.1762V18.0396H90.1198V18.4384H86.1762V19.4298H90.1198V19.8286H86.1762V20.82H90.1198V21.2188H86.1762V22.2102H90.1198V22.609H86.1762V23.6004H90.1198V23.9992H86.1762V24.9906H90.1198V25.3894H86.1762V26.3808H90.1198V26.7759H86.1762V27.7673H90.1198V28.1661H86.1762V29.1575H90.1198V29.5563H86.1762V30.5477H90.1198V30.9465H86.1762V31.9379H90.1198V32.3329H86.1762V33.3243H90.1198V33.7231H86.1762V34.7145H90.1198V35.1133H86.1762V36.1047H90.1198V36.5035H86.1762V37.4949H90.1198V37.89H86.1762V38.8814H90.1198V39.2802H79.6084V4.1377Z" fill="#3AA7CB"/>
<path d="M96.5947 0.712891L103.166 6.42275V39.2805H96.5947V0.712891ZM104.478 7.56323V26.2768L104.104 25.9302V7.21662L104.478 7.56323ZM105.794 8.75589V27.4173L105.42 27.0707V8.40555L105.794 8.75216V8.75589ZM107.106 9.84419V28.5093L106.732 28.2112V9.49758L107.106 9.84419ZM108.422 10.9884V29.6535L108.048 29.3554V10.6902L108.422 10.9884ZM109.738 12.1289V30.794L109.363 30.4958V11.7823L109.738 12.1289ZM111.05 13.2694V31.9345L110.675 31.6363V12.9227L111.05 13.2694ZM112.366 14.4136V33.0787L111.991 32.7805V14.067L112.366 14.4136ZM113.678 15.5541V34.2192L113.303 33.8726V15.2074L113.678 15.5541ZM114.993 16.6945V35.3559L114.619 35.0578V16.3442L114.993 16.6908V16.6945ZM115.931 4.53313H122.503V41.9603L115.931 36.202V4.53313Z" fill="#3AA7CB"/>
<path d="M127.662 21.7077C127.662 11.0856 135.36 3.54199 144.745 3.54199V20.8169H161.969C162.017 21.1151 162.017 21.4133 162.017 21.7114C162.017 32.3336 154.319 39.8771 144.841 39.8771C135.364 39.8771 127.666 32.3336 127.666 21.7114L127.662 21.7077ZM134.234 21.7599C134.234 23.6458 134.563 25.3341 135.171 26.8212V16.6948C134.56 18.1856 134.234 19.8703 134.234 21.7561V21.7599ZM135.546 15.8525V27.6673C135.827 28.2114 136.157 28.7108 136.483 29.2065V14.3169C136.154 14.7642 135.827 15.3083 135.546 15.8562V15.8525ZM136.861 13.8175V29.7022C137.143 30.0489 137.473 30.347 137.799 30.6936V12.8261C137.469 13.1243 137.143 13.4709 136.861 13.8175ZM138.174 12.4758V30.9918C138.455 31.2415 138.785 31.4875 139.111 31.6888V11.7825C138.781 11.9801 138.455 12.2298 138.174 12.4758ZM139.489 11.5328V31.9348C139.771 32.1323 140.101 32.2814 140.427 32.4305V11.0371C140.097 11.1862 139.771 11.3353 139.489 11.5328ZM140.805 10.888V32.5795C141.135 32.7286 141.417 32.8292 141.743 32.9262V10.5414C141.413 10.642 141.131 10.7389 140.805 10.888ZM142.117 10.4408V33.0268C142.447 33.0752 142.729 33.1759 143.055 33.2243V10.2433C142.725 10.2917 142.443 10.3439 142.117 10.4408ZM143.433 10.1948V33.2765C143.763 33.2765 144.045 33.325 144.371 33.325V10.0942C144.041 10.0942 143.759 10.1426 143.433 10.1948ZM144.745 26.374V33.3212C145.075 33.3212 145.357 33.3212 145.683 33.2728V26.374H144.745ZM146.061 26.374V33.2243C146.391 33.1759 146.672 33.1237 146.999 33.0752V26.374H146.061ZM147.373 26.374V32.9746C147.703 32.9262 147.984 32.8255 148.311 32.7249V26.3702H147.373V26.374ZM148.689 26.374V32.5795C149.019 32.4789 149.345 32.3298 149.626 32.1807V26.374H148.689ZM150.001 26.374V31.9832C150.331 31.7857 150.657 31.5844 150.938 31.3869V26.374H150.001ZM151.317 26.374V31.0887C151.646 30.839 151.973 30.5446 152.254 30.2464V26.374H151.317ZM152.629 26.374V29.8476C152.958 29.4488 153.285 29.0537 153.566 28.6065V26.374H152.629ZM153.944 26.374V27.9617C154.226 27.466 154.46 26.9181 154.649 26.374H153.944Z" fill="#3AA7CB"/>
</svg>
