<svg width="175" height="29" viewBox="0 0 175 29" fill="none" xmlns="http://www.w3.org/2000/svg">
<path d="M9.77117 19.4557L2.70976 11.9951H15.036L19.9266 17.3098C21.1909 18.6739 21.823 20.2625 21.823 22.0757C21.823 23.3233 21.5236 24.4544 20.9247 25.4691C20.3425 26.4838 19.4692 27.2823 18.3047 27.8645C17.157 28.4301 15.8095 28.7129 14.2625 28.7129H0.214558V19.4557H9.77117ZM6.50246 0.716763H20.5504V1.2158H3.8326C4.66433 0.88311 5.55428 0.716763 6.50246 0.716763ZM2.65985 1.88951H20.5504V2.38855H2.11091C2.37706 2.12239 2.56004 1.95605 2.65985 1.88951ZM20.5504 3.6611H1.18769C1.22095 3.62783 1.27918 3.53634 1.36235 3.38663C1.44552 3.23691 1.48711 3.16206 1.48711 3.16206H20.5504V3.6611ZM20.5504 4.85879H0.713598C0.713598 4.82552 0.746867 4.74235 0.813406 4.60927C0.896579 4.4762 0.938166 4.38471 0.938166 4.3348H20.5504V4.85879ZM0.513982 6.08144L0.563886 5.55745H20.5504V6.08144H0.513982ZM0.464078 7.35399V6.83H20.5504V7.35399H0.464078ZM0.61379 8.57664L0.563886 8.0776H20.5504V8.57664H0.61379ZM20.5504 9.84919H1.08788C1.05461 9.78265 1.02134 9.7078 0.988069 9.62462C0.971435 9.54145 0.938166 9.44996 0.888262 9.35015H20.5504V9.84919ZM40.8863 11.8953H49.8191V21.6016C49.8191 23.0155 49.5114 24.2548 48.8959 25.3194C48.2804 26.384 47.4404 27.2075 46.3757 27.7897C45.3111 28.3719 44.1134 28.663 42.7826 28.663H33.0264C30.997 28.663 29.3003 28.0142 27.9362 26.7167C26.5888 25.4026 25.9151 23.6975 25.9151 21.6016V11.8953H34.8479V16.3866C34.8479 18.3994 35.7046 19.4058 37.418 19.4058H38.3911C40.0546 19.4058 40.8863 18.3994 40.8863 16.3866V11.8953ZM25.9151 6.83H34.8479V7.35399H25.9151V6.83ZM25.9151 8.0776H34.8479V8.57664H25.9151V8.0776ZM25.9151 9.35015H34.8479V9.84919H25.9151V9.35015ZM25.9151 3.11215H34.8479V3.61119H25.9151V3.11215ZM25.9151 4.3348H34.8479V4.85879H25.9151V4.3348ZM25.9151 5.55745H34.8479V6.08144H25.9151V5.55745ZM25.9151 0.716763H34.8479V1.2158H25.9151V0.716763ZM25.9151 1.93941H34.8479V2.43845H25.9151V1.93941ZM40.8863 6.83H49.8191V7.35399H40.8863V6.83ZM40.8863 8.0776H49.8191V8.57664H40.8863V8.0776ZM40.8863 9.35015H49.8191V9.84919H40.8863V9.35015ZM40.8863 3.11215H49.8191V3.61119H40.8863V3.11215ZM40.8863 4.3348H49.8191V4.85879H40.8863V4.3348ZM40.8863 5.55745H49.8191V6.08144H40.8863V5.55745ZM40.8863 0.716763H49.8191V1.2158H40.8863V0.716763ZM40.8863 1.93941H49.8191V2.43845H40.8863V1.93941ZM53.9611 28.7129V11.9452H63.2682V28.7129H53.9611ZM67.2855 28.7129V11.9452H76.393V28.7129H67.2855ZM80.535 28.7129V11.9452H89.8421V28.7129H80.535ZM53.9611 1.2158V0.716763H83.7538C84.6853 0.716763 85.567 0.88311 86.3987 1.2158H53.9611ZM53.9611 2.38855V1.88951H87.5216C87.7212 2.00595 87.9291 2.1723 88.1454 2.38855H53.9611ZM53.9611 3.16206H88.7192C88.7525 3.21196 88.7858 3.27018 88.8191 3.33672C88.8523 3.38663 88.8856 3.44485 88.9189 3.51139C88.9521 3.56129 88.9854 3.61119 89.0187 3.6611H53.9611V3.16206ZM53.9611 4.3348H89.3181C89.3347 4.35144 89.368 4.42629 89.4179 4.55937C89.4844 4.69245 89.5177 4.79225 89.5177 4.85879H53.9611V4.3348ZM53.9611 5.55745H89.6674L89.7423 6.08144H53.9611V5.55745ZM53.9611 6.83H89.8421V7.35399H53.9611V6.83ZM53.9611 8.0776H89.8421V8.57664H53.9611V8.0776ZM53.9611 9.35015H89.8421V9.84919H53.9611V9.35015ZM93.8344 28.7129V11.9452H103.141V28.7129H93.8344ZM107.159 28.7129V11.9452H116.266V28.7129H107.159ZM120.408 28.7129V11.9452H129.715V28.7129H120.408ZM93.8344 1.2158V0.716763H123.627C124.559 0.716763 125.44 0.88311 126.272 1.2158H93.8344ZM93.8344 2.38855V1.88951H127.395C127.594 2.00595 127.802 2.1723 128.019 2.38855H93.8344ZM93.8344 3.16206H128.593C128.626 3.21196 128.659 3.27018 128.692 3.33672C128.726 3.38663 128.759 3.44485 128.792 3.51139C128.825 3.56129 128.859 3.61119 128.892 3.6611H93.8344V3.16206ZM93.8344 4.3348H129.191C129.208 4.35144 129.241 4.42629 129.291 4.55937C129.358 4.69245 129.391 4.79225 129.391 4.85879H93.8344V4.3348ZM93.8344 5.55745H129.541L129.616 6.08144H93.8344V5.55745ZM93.8344 6.83H129.715V7.35399H93.8344V6.83ZM93.8344 8.0776H129.715V8.57664H93.8344V8.0776ZM93.8344 9.35015H129.715V9.84919H93.8344V9.35015ZM155.99 19.4557V28.7129H140.819C138.806 28.7129 137.118 28.0558 135.754 26.7417C134.39 25.4109 133.708 23.6975 133.708 21.6016V12.3194H153.021V17.0104H142.865C142.865 17.576 142.915 18.0334 143.015 18.3828C143.115 18.7321 143.323 18.9983 143.639 19.1812C143.955 19.3642 144.429 19.4557 145.061 19.4557H155.99ZM139.746 0.716763H155.99V1.2158H137.026C137.841 0.88311 138.748 0.716763 139.746 0.716763ZM135.903 1.88951H155.99V2.38855H135.33C135.379 2.35528 135.463 2.28874 135.579 2.18893C135.696 2.07249 135.804 1.97268 135.903 1.88951ZM155.99 3.6611H134.431C134.465 3.62783 134.523 3.53634 134.606 3.38663C134.689 3.23691 134.731 3.16206 134.731 3.16206H155.99V3.6611ZM155.99 4.85879H133.957C133.957 4.60927 134.007 4.43461 134.107 4.3348H155.99V4.85879ZM155.99 6.08144H133.708C133.708 6.04817 133.724 5.95668 133.758 5.80697C133.791 5.65726 133.807 5.57408 133.807 5.55745H155.99V6.08144ZM133.708 7.35399V6.83H155.99V7.35399H133.708ZM133.708 8.57664V8.0776H155.99V8.57664H133.708ZM133.708 9.84919V9.35015H155.99V9.84919H133.708ZM160.007 28.7129V11.9951H168.94V28.7129H160.007ZM166.095 0.716763H174.629V1.2158H163.376C164.207 0.88311 165.114 0.716763 166.095 0.716763ZM162.253 1.88951H174.629V2.38855H161.679C161.729 2.35528 161.812 2.28874 161.928 2.18893C162.045 2.07249 162.153 1.97268 162.253 1.88951ZM174.629 3.6611H160.781C160.814 3.62783 160.872 3.53634 160.955 3.38663C161.038 3.23691 161.08 3.16206 161.08 3.16206H174.629V3.6611ZM174.629 4.85879H160.307C160.307 4.60927 160.356 4.43461 160.456 4.3348H174.629V4.85879ZM174.629 6.08144H160.057C160.057 6.04817 160.074 5.95668 160.107 5.80697C160.14 5.65726 160.157 5.57408 160.157 5.55745H174.629V6.08144ZM160.007 7.35399V6.83H174.629V7.35399H160.007ZM160.007 8.57664V8.0776H174.629V8.57664H160.007ZM160.007 9.84919V9.35015H174.629V9.84919H160.007Z" fill="#E5B52E"/>
</svg>
