<svg width="74" height="75" viewBox="0 0 74 75" fill="none" xmlns="http://www.w3.org/2000/svg">
<g clip-path="url(#clip0_1168_1013)">
<path d="M0.645744 13.4791C0.824463 12.8727 1.32033 12.4124 1.93822 12.2793L9.76698 10.5919L11.4543 2.76332C11.5875 2.14529 12.0477 1.64942 12.6542 1.47085C13.2609 1.29213 13.9163 1.4592 14.3633 1.90613L24.4876 12.0305C29.2891 9.41877 34.6899 8.04327 40.1938 8.04327C48.9829 8.04327 57.2461 11.466 63.4608 17.6808C69.6759 23.8956 73.0986 32.1587 73.0986 40.9478C73.0986 49.7369 69.6759 58.0001 63.461 64.2148C57.2463 70.4297 48.9831 73.8525 40.1939 73.8525C31.4048 73.8525 23.1418 70.4298 16.9269 64.2148C10.7121 58.0001 7.28925 49.7369 7.28925 40.9478C7.28925 35.4822 8.64762 30.1132 11.2269 25.334L1.08118 15.1881C0.634094 14.741 0.467026 14.0854 0.645744 13.4791ZM33.0282 40.9478C33.0282 44.8989 36.2427 48.1134 40.1939 48.1134C44.145 48.1134 47.3595 44.8989 47.3595 40.9478C47.3595 36.9967 44.145 33.7823 40.1939 33.7823C38.8403 33.7823 37.5735 34.1597 36.4924 34.8146L41.4137 39.7256C42.0886 40.3993 42.0899 41.4925 41.4163 42.1676C41.079 42.5056 40.6366 42.6746 40.1941 42.6746C39.7529 42.6746 39.3114 42.5064 38.9743 42.1701L34.0532 37.2594C33.4031 38.3376 33.0282 39.5997 33.0282 40.9478ZM34.0017 32.3292C35.7463 31.0723 37.8843 30.3288 40.1939 30.3288C46.0492 30.3288 50.813 35.0924 50.813 40.9478C50.813 46.8031 46.0493 51.5669 40.1939 51.5669C34.3386 51.5669 29.5748 46.8032 29.5748 40.9478C29.5748 38.6462 30.3132 36.515 31.5622 34.7737L26.078 29.3009C23.4601 32.4681 21.8854 36.5275 21.8854 40.9478C21.8854 51.0431 30.0985 59.2562 40.1938 59.2562C50.2889 59.2562 58.502 51.0431 58.502 40.9478C58.502 30.8526 50.2889 22.6394 40.1938 22.6394C35.7598 22.6394 31.689 24.2243 28.5177 26.8567L34.0017 32.3292ZM40.1939 70.399C56.4334 70.399 69.6451 57.1873 69.6451 40.9478C69.6451 24.7084 56.4334 11.4968 40.1939 11.4968C35.346 11.4968 30.5881 12.6878 26.3442 14.9521C26.3413 14.9674 26.3406 14.9828 26.3373 14.9979L24.6197 22.9668L26.0657 24.4098C29.8703 21.1549 34.8062 19.186 40.1939 19.186C52.1935 19.186 61.9557 28.9482 61.9557 40.9478C61.9557 52.9474 52.1934 62.7097 40.1939 62.7097C28.1945 62.7097 18.4321 52.9473 18.4321 40.9478C18.4321 35.5765 20.3893 30.6544 23.6265 26.8546L22.2011 25.432L14.1731 27.1622C14.17 27.1628 14.167 27.1631 14.1641 27.1637C11.9222 31.3919 10.743 36.1276 10.743 40.9478C10.7427 57.1873 23.9546 70.399 40.1939 70.399ZM14.3649 23.588L19.2895 22.5266L15.18 18.4258C14.5052 17.752 14.5039 16.6589 15.1774 15.9838C15.8512 15.3087 16.9443 15.3075 17.6195 15.9813L21.7123 20.0654L22.763 15.1898L14.1624 6.58921L12.9081 12.4089C12.7652 13.0721 12.247 13.5901 11.584 13.733L5.76424 14.9874L14.3649 23.588Z" fill="black" fill-opacity="0.5"/>
</g>
<defs>
<clipPath id="clip0_1168_1013">
<rect width="73.6744" height="73.6744" fill="white" transform="matrix(-1 0 0 1 73.6748 0.790039)"/>
</clipPath>
</defs>
</svg>
