<svg width="619" height="213" viewBox="0 0 619 213" fill="none" xmlns="http://www.w3.org/2000/svg">
<path d="M128.605 106.826H115.077L110.657 138.79C110.257 142.265 110.118 143.603 110.118 144.403C110.118 148.416 112.128 150.154 115.739 150.154C118.149 150.154 120.428 149.754 123.107 148.016C121.637 158.312 117.618 162.595 106.499 162.595C95.3807 162.595 92.9707 155.644 92.9707 148.416C92.9707 145.74 93.5097 143.203 94.041 138.79L98.4606 106.826H93.3711L94.9803 94.9239H100.201L102.072 81.6834L119.08 78.877L116.801 94.9239H130.191L128.582 106.826H128.605Z" fill="white"/>
<path d="M151.503 161.787L157.532 119.26C157.802 117.391 158.202 115.115 158.202 113.108C158.202 109.495 156.462 106.688 151.372 106.688C150.171 106.688 148.831 106.957 147.353 107.626L139.723 161.787H123.114L136.504 66.8438H153.112L148.154 101.744C151.503 95.862 156.724 94.1243 161.944 94.1243C170.244 94.1243 175.334 99.076 175.334 107.495C175.334 109.502 175.203 112.447 174.533 116.853L168.104 161.787H151.495H151.503Z" fill="white"/>
<path d="M176.805 139.589C176.805 110.44 186.714 94.124 205.863 94.124C217.783 94.124 223.812 100.406 223.812 112.178C223.812 120.466 221.132 128.355 217.921 134.107H194.083V137.052C194.083 145.34 196.762 150.023 205.602 150.023C208.951 150.023 213.232 149.485 216.581 147.885C215.242 158.05 209.482 162.594 196.092 162.594C182.703 162.594 176.812 154.836 176.812 139.597L176.805 139.589ZM194.753 124.342H206.803C207.604 122.335 208.812 118.46 208.812 113.908C208.812 110.163 207.873 106.688 204.393 106.688C199.973 106.688 196.223 112.039 194.753 124.342Z" fill="white"/>
<path d="M285.447 87.4813H269.879L259.561 161.788H237.116L247.619 87.4813H240.381L242.552 71.3883H249.79L251.237 61.8078C253.594 45.1765 263.365 33.4277 281.836 33.4277C287.449 33.4277 292.154 34.1505 297.228 35.596L292.701 51.6891C289.444 50.7818 286.91 50.4204 284.554 50.4204C278.04 50.4204 274.598 54.9415 273.513 62.3537L272.242 71.396H287.634L285.463 87.489L285.447 87.4813Z" fill="white"/>
<path d="M344.643 102.49C344.643 138.644 331.068 162.872 304.088 162.872C285.078 162.872 277.655 149.493 277.655 130.693C277.655 94.5395 291.23 70.3115 318.21 70.3115C337.397 70.3115 344.643 83.6904 344.643 102.49ZM321.467 98.8761C321.467 90.918 319.657 87.3042 314.953 87.3042C307.168 87.3042 300.831 108.272 300.831 134.307C300.831 142.265 302.826 145.879 307.345 145.879C315.13 145.879 321.467 124.911 321.467 98.8761Z" fill="white"/>
<path d="M376.32 88.2037C381.386 76.0935 387.908 70.3037 395.146 70.3037C399.126 70.3037 400.397 73.7407 400.397 78.0773C400.397 84.7667 397.679 93.6244 396.416 97.0614C393.883 95.9772 389.54 95.2545 385.19 95.2545C380.839 95.2545 377.582 96.5232 374.687 99.2297L365.994 161.78H343.542L356.216 71.3879H378.668L376.312 88.2037H376.32Z" fill="white"/>
<path d="M430.086 151.846C427.006 157.451 421.94 162.872 413.432 162.872C400.396 162.872 394.421 152.384 394.421 132.5C394.421 92.5481 407.457 70.3115 427.915 70.3115C432.442 70.3115 437.147 71.7571 440.951 75.0095L441.497 71.3957H463.95L450.19 169.561C447.657 187.276 436.431 199.756 412.716 199.756C403.484 199.756 395.514 198.126 389.901 195.957L394.606 179.864C401.482 182.394 407.457 182.755 410.721 182.755C421.039 182.755 426.29 178.419 427.561 169.922L430.094 151.846H430.086ZM426.467 145.879C427.738 145.879 429.362 145.702 430.995 144.972L439.141 88.027C436.608 87.481 434.976 87.3042 433.528 87.3042C425.02 87.3042 417.597 98.1533 417.597 130.332C417.597 140.635 419.953 145.879 426.467 145.879Z" fill="white"/>
<path d="M462.672 131.777C462.672 92.3635 476.069 70.3115 501.956 70.3115C518.071 70.3115 526.218 78.8079 526.218 94.7164C526.218 105.927 522.599 116.592 518.248 124.365H486.025V128.34C486.025 139.551 489.644 145.879 501.594 145.879C506.121 145.879 511.912 145.156 516.439 142.988C514.63 156.728 506.845 162.872 488.743 162.872C470.641 162.872 462.672 152.384 462.672 131.777ZM486.934 111.171H503.226C504.312 108.457 505.944 103.213 505.944 97.0692C505.944 92.0098 504.674 87.3042 499.969 87.3042C493.994 87.3042 488.928 94.5318 486.934 111.171Z" fill="white"/>
</svg>
