<svg width="204" height="204" viewBox="0 0 204 204" fill="none" xmlns="http://www.w3.org/2000/svg">
<path d="M102.001 201.905C157.178 201.905 201.908 157.176 201.908 102C201.908 46.8242 157.178 2.09521 102.001 2.09521C46.8244 2.09521 2.09473 46.8242 2.09473 102C2.09473 157.176 46.8244 201.905 102.001 201.905Z" fill="white"/>
<path d="M102.005 204C45.7568 204 0 158.244 0 102C0 45.7561 45.7568 0 102.005 0C158.252 0 204 45.7561 204 102C204 158.244 158.243 204 102.005 204ZM102.005 4.19012C48.0723 4.19012 4.19019 48.0685 4.19019 102C4.19019 155.932 48.0723 199.81 102.005 199.81C155.937 199.81 199.81 155.932 199.81 102C199.81 48.0685 155.937 4.19012 102.005 4.19012Z" fill="#3AA7CB"/>
<path d="M77.633 178.273V162.437H86.5379C87.8974 162.437 89.0179 162.716 89.9087 163.272C90.7933 163.828 91.4482 164.579 91.8796 165.51C92.3204 166.444 92.5345 167.478 92.5345 168.607C92.5345 169.737 92.2893 170.792 91.7803 171.717C91.2806 172.645 90.576 173.378 89.6697 173.918C88.7603 174.461 87.6801 174.731 86.4355 174.731H83.58V178.269H77.6299L77.633 178.273ZM83.583 170.085H85.0388C85.5136 170.085 85.8737 169.954 86.1189 169.691C86.3641 169.427 86.4883 169.064 86.4883 168.607C86.4883 167.592 86.0382 167.087 85.1381 167.087H83.583V170.085Z" fill="#151716"/>
<path d="M93.7637 178.273V162.437H102.669C104.028 162.437 105.149 162.695 106.039 163.21C106.924 163.725 107.579 164.433 108.01 165.327C108.451 166.217 108.665 167.232 108.665 168.362C108.665 169.43 108.395 170.364 107.84 171.165C107.29 171.972 106.635 172.633 105.869 173.158C106.049 173.272 106.188 173.4 106.285 173.539C106.381 173.679 106.465 173.822 106.53 173.968L108.395 178.273H102.2L100.654 174.759C100.564 174.564 100.474 174.424 100.375 174.349C100.276 174.275 100.139 174.238 99.9589 174.238H99.7137V178.273H93.7637ZM99.7137 169.594H101.169C102.135 169.594 102.619 169.185 102.619 168.362C102.619 167.903 102.504 167.577 102.284 167.381C102.063 167.186 101.728 167.087 101.269 167.087H99.7137V169.594Z" fill="#151716"/>
<path d="M118.383 178.518C116.592 178.518 115.068 178.251 113.808 177.72C112.548 177.189 111.574 176.32 110.903 175.125C110.233 173.927 109.897 172.338 109.897 170.355C109.897 168.372 110.233 166.761 110.903 165.572C111.574 164.386 112.548 163.523 113.808 162.99C115.068 162.456 116.589 162.192 118.383 162.192C120.177 162.192 121.689 162.459 122.958 162.99C124.219 163.52 125.184 164.386 125.854 165.572C126.525 166.764 126.86 168.353 126.86 170.355C126.86 172.357 126.525 173.927 125.854 175.125C125.184 176.32 124.219 177.186 122.958 177.72C121.689 178.251 120.168 178.518 118.383 178.518ZM118.383 173.477C119.249 173.477 119.873 173.245 120.243 172.779C120.612 172.313 120.792 171.503 120.792 170.358C120.792 169.213 120.612 168.403 120.243 167.937C119.873 167.471 119.252 167.239 118.383 167.239C117.514 167.239 116.894 167.471 116.524 167.937C116.155 168.403 115.969 169.213 115.969 170.358C115.969 171.503 116.158 172.313 116.524 172.779C116.89 173.245 117.514 173.477 118.383 173.477Z" fill="#151716"/>
<path d="M67.5275 20.1281C69.5326 25.1438 70.5351 27.6486 72.5402 32.655C73.6731 32.1181 74.2442 31.8635 75.3957 31.3825C75.8489 32.6581 76.0755 33.2975 76.5286 34.5732C73.6203 35.7867 72.1926 36.4851 69.4146 38.0711C66.5156 32.0156 65.0631 28.9925 62.1641 22.9246C64.2778 21.7172 65.3517 21.1586 67.5306 20.125L67.5275 20.1281Z" fill="black"/>
<path d="M72.2021 18.0889C75.9143 16.6115 77.8077 15.9939 81.6378 14.9976C81.9327 16.3291 82.0817 16.9933 82.3765 18.3248C80.8991 18.7097 80.1635 18.9208 78.6985 19.3801C79.0306 20.6247 79.1982 21.2486 79.5303 22.4932C80.8494 22.0804 81.5106 21.888 82.8452 21.5373C83.1277 22.8005 83.2705 23.4306 83.5529 24.6938C82.271 25.0321 81.6316 25.2153 80.3652 25.6156C80.7501 27.0589 80.9426 27.779 81.3274 29.2222C82.749 28.7753 83.466 28.5736 84.9031 28.2042C85.1917 29.5357 85.3376 30.1999 85.6263 31.5315C82.3734 32.3633 80.7656 32.8816 77.6152 34.1325C75.4488 27.72 74.3686 24.5138 72.2021 18.092V18.0889Z" fill="black"/>
<path d="M97.5414 12.5329C96.6537 19.4202 96.3185 22.8716 95.8716 29.7621C92.9601 30.0228 91.5075 30.2338 88.6303 30.8329C86.3614 24.3521 85.1074 21.1397 82.3574 14.8111C84.7815 14.2058 86.0044 13.9544 88.4596 13.5385C89.8439 18.0607 90.8154 21.9374 91.4982 25.125C91.3461 21.8194 91.2841 18.8864 91.3244 16.3133C91.3337 15.0283 91.3399 14.3859 91.3617 13.1009C93.8261 12.775 95.0645 12.6632 97.5445 12.5298L97.5414 12.5329Z" fill="black"/>
<path d="M98.5195 12.4896C102.443 12.3313 104.414 12.3717 108.331 12.6976C108.235 14.0601 108.185 14.743 108.089 16.1055C106.58 15.9814 105.823 15.9348 104.311 15.8852C104.274 17.1795 104.255 17.8282 104.218 19.1224C105.581 19.169 106.264 19.2062 107.623 19.3149C107.536 20.6092 107.49 21.2578 107.403 22.5521C106.093 22.4466 105.438 22.4125 104.125 22.3659C104.082 23.865 104.06 24.6162 104.016 26.1153C105.488 26.1649 106.223 26.2084 107.688 26.3357C107.586 27.6982 107.536 28.3811 107.434 29.7436C104.11 29.455 102.44 29.4146 99.1093 29.5481C98.8734 22.7259 98.7554 19.3087 98.5195 12.4834V12.4896Z" fill="black"/>
<path d="M116.23 13.753C115.379 19.138 114.957 21.829 114.107 27.2141C115.314 27.4376 115.919 27.5617 117.118 27.8411C116.854 29.1788 116.72 29.8461 116.456 31.1839C113.424 30.4793 111.891 30.2217 108.809 29.8865C109.445 23.0954 109.758 19.6936 110.395 12.8994C112.738 13.157 113.905 13.3308 116.227 13.7561L116.23 13.753Z" fill="black"/>
<path d="M125.293 24.9668C124.967 26.0872 124.803 26.649 124.477 27.7695C121.981 26.9128 120.718 26.5435 118.173 25.9289C118.409 24.7836 118.527 24.2094 118.763 23.061C121.401 23.6973 122.711 24.0791 125.296 24.9668H125.293Z" fill="black"/>
<path d="M136.064 28.3283C136.688 28.9056 137.079 29.5202 137.209 30.1502C137.343 30.7834 137.017 31.9132 136.241 33.5334C135.664 34.7376 135.055 35.5757 134.431 36.0723C133.82 36.5596 133.047 36.7768 132.138 36.7365C131.244 36.6961 130.198 36.3858 129.012 35.8364C127.665 35.2125 126.669 34.5576 126.023 33.8189C125.377 33.0833 125.014 32.3508 124.949 31.637C124.884 30.9293 125.095 29.7933 125.567 28.26C125.725 27.7448 125.806 27.4872 125.964 26.9688C127.876 27.6641 128.823 28.0459 130.694 28.8808C130.306 29.9081 130.111 30.4234 129.726 31.4507C129.468 32.1336 129.353 32.5991 129.375 32.8195C129.397 33.043 129.564 33.223 129.884 33.372C130.222 33.5272 130.493 33.5241 130.694 33.3378C130.896 33.1516 131.197 32.5836 131.591 31.609C131.768 31.1714 131.855 30.9541 132.032 30.5165C132.271 29.9237 132.364 29.4395 132.311 29.0949C132.256 28.7442 132.1 28.4431 131.815 28.2073C131.529 27.9714 130.918 27.6424 129.996 27.2265C130.328 26.3046 130.496 25.8422 130.828 24.9203C131.998 25.4201 132.737 25.7149 133.031 25.7708C133.323 25.8235 133.587 25.7708 133.801 25.5877C134.012 25.4076 134.233 25.0631 134.434 24.5572C134.574 24.2065 134.645 24.0327 134.788 23.6819C135.009 23.1357 135.077 22.7415 135.002 22.4932C134.928 22.248 134.729 22.0555 134.416 21.9097C134.062 21.7452 133.786 21.7389 133.593 21.86C133.398 21.9841 133.168 22.3442 132.938 22.9556C132.743 23.474 132.647 23.7316 132.451 24.2499C130.468 23.3622 129.462 22.9587 127.435 22.2231C127.606 21.6707 127.69 21.3944 127.86 20.842C128.335 19.2963 129.114 18.4024 130.216 18.2255C131.331 18.0485 132.914 18.362 134.922 19.2776C137.439 20.4229 138.96 21.6831 139.491 22.8625C140.021 24.0389 139.972 25.2649 139.376 26.5188C138.972 27.3692 138.531 27.9062 138.072 28.1172C137.607 28.3314 136.927 28.3966 136.07 28.3283H136.064Z" fill="black"/>
<path d="M152.238 141.713C162.04 129.335 167.369 113.258 165.764 95.9106C163.011 66.1173 139.018 41.6377 109.28 38.3601C70.65 34.1017 37.9541 64.2333 37.9541 102.003C37.9541 117.023 43.1313 130.831 51.791 141.751C54.4821 145.146 58.604 147.108 62.9369 147.108H141.061C145.409 147.108 149.537 145.124 152.238 141.713Z" fill="#3AA7CB"/>
<path d="M134.906 128.271C116.475 122.346 87.5286 122.346 69.0979 128.271L67.8223 124.286C87.0382 118.087 116.965 118.093 136.184 124.286L134.909 128.271H134.906Z" fill="white"/>
<path d="M101.999 90.448L101.024 89.582C96.4585 85.516 93.8389 79.7026 93.8389 73.6316C93.8389 67.5606 96.4585 61.7534 101.024 57.6843L101.999 56.8184L102.973 57.6843C107.539 61.7379 110.159 67.5544 110.159 73.6316C110.159 79.7088 107.539 85.5254 102.973 89.582L101.999 90.448ZM101.999 60.8129C98.6591 64.2457 96.7689 68.8487 96.7689 73.6316C96.7689 78.4146 98.6591 83.0237 101.999 86.4565C105.339 83.0268 107.229 78.4239 107.229 73.6316C107.229 68.8393 105.339 64.2395 101.999 60.8129Z" fill="white"/>
<path d="M112.345 90.8017C111.42 90.8017 110.495 90.7335 109.57 90.5876L108.275 90.392L108.325 89.0853C108.514 83.9082 110.895 79.0508 114.865 75.7701C118.825 72.4894 124.04 71.0647 129.161 71.85L130.455 72.0455L130.406 73.3522C130.216 78.5293 127.836 83.3806 123.866 86.6644C120.616 89.3554 116.525 90.8017 112.345 90.8017ZM111.361 87.8376C115.225 88.1108 119.021 86.8692 122.001 84.4048C124.98 81.9404 126.886 78.4269 127.37 74.5999C123.549 74.3516 119.701 75.5652 116.73 78.0296C113.751 80.494 111.845 84.0106 111.361 87.8376Z" fill="white"/>
<path d="M113.995 108.04C113.07 108.04 112.145 107.972 111.23 107.826L109.936 107.63L109.985 106.324C110.165 101.147 112.555 96.2892 116.525 93.0085C120.495 89.7215 125.715 88.3062 130.821 89.0853L132.116 89.2808L132.066 90.5875C131.886 95.7646 129.496 100.622 125.526 103.903C122.27 106.591 118.186 108.04 113.995 108.04ZM113.024 105.079C116.863 105.337 120.684 104.111 123.664 101.646C126.644 99.1819 128.549 95.6653 129.033 91.8383C125.213 91.6179 121.373 92.8067 118.394 95.2711C115.423 97.7355 113.508 101.252 113.024 105.079Z" fill="white"/>
<path d="M105.615 121.445L104.24 90.7395L108.88 87.7319L110.699 90.5471L107.679 92.5087L108.97 121.299L105.615 121.445Z" fill="white"/>
<path d="M110.332 105.133L105.691 109.316L107.934 111.804L112.575 107.621L110.332 105.133Z" fill="white"/>
<path d="M91.6636 90.8016C87.4735 90.8016 83.3826 89.3583 80.1329 86.6642C76.1631 83.3773 73.7824 78.5261 73.6024 73.3521L73.5527 72.0454L74.847 71.8498C79.9622 71.0677 85.1828 72.4892 89.1433 75.7699C93.1131 79.0506 95.4938 83.9081 95.6831 89.0852L95.7328 90.3919L94.4385 90.5874C93.5135 90.7302 92.5886 90.8016 91.6636 90.8016ZM76.638 74.5998C77.1222 78.4206 79.0279 81.9403 81.9983 84.4047C84.9687 86.8722 88.7584 88.0765 92.6445 87.8375C92.1603 84.0105 90.2545 80.4939 87.2748 78.0295C84.2951 75.5651 80.465 74.3639 76.6348 74.5998H76.638Z" fill="white"/>
<path d="M89.9996 108.04C85.8094 108.04 81.7248 106.597 78.4688 103.903C74.499 100.625 72.1277 95.7678 71.9383 90.5876L71.8887 89.2809L73.183 89.0853C78.2888 88.3094 83.5126 89.7247 87.4793 93.0085C91.4553 96.2955 93.8391 101.153 94.0098 106.327L94.0501 107.627L92.7651 107.823C91.8495 107.966 90.9245 108.037 89.9996 108.037V108.04ZM74.9739 91.8353C75.4581 95.6654 77.3638 99.1851 80.3342 101.643C83.3139 104.102 87.1254 105.296 90.9742 105.076C90.4993 101.249 88.5936 97.7325 85.6139 95.2681C82.6342 92.8037 78.7792 91.5777 74.9739 91.8353Z" fill="white"/>
<path d="M99.119 121.405L95.7637 121.34L96.3535 92.5242L93.3086 90.5471L95.1243 87.7319L99.7398 90.724L99.119 121.405Z" fill="white"/>
<path d="M96.8188 112.438L91.4336 107.63L93.6591 105.125L99.0442 109.933L96.8188 112.438Z" fill="white"/>
<path d="M146.732 37.8102C146.142 37.8102 145.642 37.5557 145.226 37.2235C144.811 36.8014 144.637 36.2179 144.637 35.7151C144.637 35.1285 144.807 34.6257 145.226 34.2067C145.807 33.62 146.732 33.4524 147.486 33.7907C147.741 33.8714 147.992 34.0391 148.156 34.2067C148.572 34.6288 148.827 35.2123 148.827 35.7151C148.827 36.2179 148.572 36.8045 148.156 37.2235C147.741 37.5557 147.232 37.8102 146.732 37.8102Z" fill="#3AA7CB"/>
<path d="M157.797 159.324C156.953 158.486 156.953 157.142 157.707 156.307C158.551 155.469 159.892 155.469 160.727 156.307C161.571 157.142 161.571 158.402 160.727 159.237C160.311 159.659 159.802 159.907 159.222 159.907C158.716 159.907 158.216 159.659 157.797 159.321V159.324ZM162.822 153.877C161.897 153.206 161.816 151.862 162.487 150.944C163.241 150.106 164.582 149.938 165.507 150.689C166.342 151.359 166.512 152.703 165.761 153.622C165.336 154.125 164.756 154.379 164.166 154.379C163.666 154.379 163.241 154.212 162.825 153.877H162.822ZM167.347 148.094C166.422 147.424 166.087 146.167 166.758 145.161C167.428 144.236 168.688 143.988 169.697 144.658C170.613 145.245 170.867 146.586 170.277 147.508C169.861 148.097 169.188 148.429 168.518 148.429C168.102 148.429 167.683 148.349 167.347 148.097V148.094ZM171.283 141.893C170.277 141.39 169.948 140.046 170.448 139.044C171.038 138.038 172.289 137.619 173.297 138.206C174.303 138.792 174.722 140.046 174.142 141.055C173.806 141.812 173.046 142.144 172.292 142.144C171.957 142.144 171.621 142.064 171.286 141.896L171.283 141.893ZM174.722 135.356C173.633 134.934 173.133 133.677 173.633 132.591C174.049 131.585 175.312 131.082 176.398 131.501C177.404 132.001 177.904 133.174 177.488 134.264C177.152 135.021 176.317 135.524 175.563 135.524C175.228 135.524 174.974 135.524 174.719 135.356H174.722ZM177.488 128.568C176.398 128.146 175.728 126.976 176.147 125.884C176.482 124.794 177.661 124.211 178.748 124.546C179.837 124.881 180.508 126.051 180.089 127.227C179.834 128.066 178.993 128.652 178.074 128.652C177.904 128.652 177.658 128.652 177.485 128.571L177.488 128.568ZM179.583 121.445C178.413 121.191 177.742 120.104 177.994 118.934C178.239 117.842 179.328 117.171 180.505 117.426C181.594 117.674 182.345 118.767 182.094 119.856C181.849 120.862 181.004 121.529 179.999 121.529C179.918 121.529 179.753 121.529 179.583 121.448V121.445ZM181.007 114.238C179.918 114.07 179.083 113.065 179.248 111.889C179.418 110.715 180.427 109.961 181.597 110.129C182.687 110.216 183.521 111.302 183.438 112.478C183.273 113.481 182.348 114.238 181.343 114.238H181.007ZM181.849 106.947C180.669 106.86 179.753 105.942 179.834 104.765C179.834 103.595 180.84 102.67 182.01 102.757C183.099 102.757 184.024 103.763 184.024 104.933C183.944 106.025 183.019 106.947 181.929 106.947H181.849ZM179.753 97.5614C179.663 96.472 180.588 95.4663 181.759 95.3856C182.848 95.2987 183.854 96.2206 183.944 97.3131C184.024 98.4832 183.099 99.4889 181.929 99.5758H181.759C180.669 99.5758 179.834 98.7377 179.753 97.5614ZM178.993 90.4351C178.828 89.3457 179.583 88.2593 180.753 88.0917C181.932 87.9241 183.019 88.6784 183.183 89.8516H183.102C183.357 91.0248 182.522 92.0273 181.423 92.1949C181.259 92.2819 181.178 92.2819 181.088 92.2819C180.089 92.2819 179.164 91.5276 178.993 90.4351ZM177.658 83.3988H177.568C177.323 82.3094 177.994 81.223 179.164 80.8878C180.253 80.6333 181.423 81.3037 181.675 82.4801C181.929 83.5695 181.259 84.6558 180.169 84.991H179.663C178.748 84.991 177.904 84.4044 177.658 83.3988ZM175.563 76.527C175.228 75.4345 175.808 74.2643 176.898 73.9291C177.994 73.507 179.164 74.0967 179.583 75.1862C179.918 76.2756 179.328 77.4488 178.242 77.8678C177.997 77.9547 177.826 77.9547 177.571 77.9547C176.736 77.9547 175.902 77.4519 175.566 76.5301L175.563 76.527ZM172.962 69.9066C172.463 68.8141 172.962 67.6439 173.968 67.1411C175.057 66.6383 176.317 67.1411 176.817 68.1468C177.233 69.2362 176.817 70.4901 175.728 70.9091C175.473 71.0767 175.138 71.1636 174.893 71.1636C174.049 71.1636 173.297 70.6608 172.962 69.9066ZM169.697 63.5376C169.107 62.532 169.442 61.2749 170.532 60.6883C171.457 60.1017 172.798 60.4338 173.297 61.4426H173.378C173.884 62.4482 173.549 63.7052 172.543 64.2949C172.208 64.4625 171.873 64.5432 171.538 64.5432C170.783 64.5432 170.113 64.208 169.697 63.5376ZM165.842 57.5038C165.172 56.4982 165.426 55.2412 166.422 54.5707C167.347 53.9003 168.608 54.1486 169.278 55.0736C169.948 55.9954 169.694 57.3362 168.772 58.0066C168.437 58.255 168.018 58.3388 167.602 58.3388C166.931 58.3388 166.261 58.0905 165.842 57.5038ZM161.481 51.8053C160.727 50.8834 160.901 49.6295 161.736 48.7884C162.571 48.118 163.911 48.1987 164.666 49.0367V49.1236C165.426 49.9585 165.336 51.2993 164.42 52.0536C164.085 52.3888 163.576 52.5564 163.08 52.5564C162.49 52.5564 161.9 52.3081 161.484 51.8022L161.481 51.8053ZM156.617 46.5257C155.782 45.6877 155.782 44.3437 156.617 43.5926C157.378 42.7546 158.712 42.7546 159.557 43.5119C160.392 44.3468 160.392 45.6877 159.557 46.5288C159.141 46.9447 158.632 47.1154 158.042 47.1154C157.542 47.1154 157.043 46.9478 156.617 46.5288V46.5257ZM151.257 41.7459C150.422 40.9916 150.251 39.6508 151.003 38.8159C151.757 37.891 153.017 37.7234 153.942 38.4807C154.858 39.2349 154.948 40.4888 154.277 41.4138C153.852 41.9135 153.188 42.168 152.598 42.168C152.182 42.168 151.673 42.0811 151.257 41.7459Z" fill="#3AA7CB"/>
<path d="M153.771 165.025C153.272 165.025 152.682 164.771 152.347 164.355C151.931 164.02 151.757 163.43 151.757 162.93C151.757 162.595 151.757 162.34 151.847 162.092C152.011 161.838 152.092 161.589 152.347 161.422C153.017 160.668 154.522 160.584 155.286 161.422C155.702 161.838 155.95 162.344 155.95 162.93C155.95 163.178 155.869 163.43 155.705 163.684C155.615 163.933 155.45 164.187 155.289 164.355C154.864 164.771 154.364 165.025 153.774 165.025H153.771Z" fill="#3AA7CB"/>
<path d="M50.6927 165.355C50.103 165.355 49.6033 165.187 49.1874 164.768C48.7622 164.352 48.5977 163.846 48.5977 163.26C48.5977 162.76 48.7622 162.257 49.1874 161.835C50.0223 160.997 51.2825 160.997 52.1981 161.835C52.5333 162.257 52.7878 162.76 52.7878 163.26C52.7878 163.849 52.5333 164.352 52.1981 164.768C51.7822 165.184 51.1925 165.355 50.6927 165.355Z" fill="#3AA7CB"/>
<path d="M43.737 159.743C42.9021 158.989 42.9828 157.648 43.737 156.81C44.5719 155.975 45.9128 155.975 46.757 156.81C47.592 157.648 47.592 158.992 46.757 159.83C46.3411 160.165 45.7514 160.417 45.2424 160.417C44.7426 160.417 44.1529 160.168 43.737 159.746V159.743ZM38.7119 154.128C37.9576 153.29 38.0414 151.953 38.9571 151.195C39.882 150.441 41.1422 150.609 41.8964 151.45C42.6506 152.372 42.4768 153.713 41.6419 154.467C41.226 154.715 40.717 154.883 40.301 154.883C39.7206 154.883 39.0502 154.634 38.7119 154.128ZM34.0965 148.095C33.4322 147.089 33.6805 145.832 34.6862 145.162C35.6111 144.491 36.952 144.74 37.5355 145.748C38.2059 146.67 37.9607 148.011 37.0358 148.598C36.7006 148.852 36.2816 149.02 35.8656 149.02C35.1952 149.02 34.5248 148.684 34.0965 148.098V148.095ZM30.1608 141.642C29.5804 140.636 29.9063 139.292 31.005 138.79C32.0045 138.203 33.2646 138.541 33.8544 139.547C34.3541 140.636 34.0189 141.89 33.0101 142.396C32.6749 142.564 32.3397 142.731 32.0045 142.731C31.2502 142.731 30.4991 142.309 30.1639 141.642H30.1608ZM26.8117 134.77C26.3058 133.764 26.8117 132.507 27.9012 132.005C28.9068 131.589 30.1608 132.092 30.6667 133.097C31.0826 134.187 30.5767 135.441 29.4872 135.86C29.242 136.027 28.9875 136.027 28.733 136.027C27.8981 136.027 27.1438 135.611 26.8086 134.77H26.8117ZM24.0462 127.731C23.711 126.641 24.2914 125.468 25.3871 125.049C26.4765 124.714 27.7274 125.297 28.0626 126.387C28.3978 127.476 27.8081 128.649 26.7217 129.072C26.4765 129.152 26.3058 129.152 26.0513 129.152C25.2164 129.152 24.3814 128.566 24.0462 127.728V127.731ZM22.0318 120.44C21.7773 119.267 22.4477 118.177 23.621 117.929C24.7166 117.674 25.8868 118.345 26.1413 119.434C26.3865 120.607 25.6354 121.697 24.5459 121.951C24.3814 122.032 24.2107 122.032 24.0462 122.032C23.1213 122.032 22.2863 121.362 22.0318 120.44ZM20.691 112.898V112.978C20.5265 111.808 21.3614 110.716 22.4508 110.551C23.621 110.464 24.7166 111.219 24.8004 112.392C24.965 113.565 24.2107 114.574 23.0406 114.741H22.7861C21.6966 114.741 20.7717 113.984 20.691 112.895V112.898ZM20.0205 105.355C19.9398 104.266 20.8648 103.26 22.0349 103.173C23.2051 103.173 24.2107 104.098 24.2107 105.188V105.269C24.2914 106.361 23.3758 107.364 22.1963 107.364H22.1156C21.0262 107.364 20.1012 106.526 20.0205 105.355ZM22.0318 99.9921C20.9424 99.9921 20.0174 98.9865 20.1012 97.8163C20.1012 96.6431 21.1069 95.802 22.2863 95.802C23.4565 95.8889 24.2914 96.8914 24.2914 98.0646C24.2107 99.1541 23.292 99.9921 22.1156 99.9921H22.0349H22.0318ZM22.6216 92.6175C21.4421 92.4499 20.6072 91.3604 20.7717 90.2679C20.9424 89.0978 22.0318 88.3405 23.202 88.4274C24.2914 88.595 25.1326 89.6844 24.9618 90.8576C24.7973 91.8601 23.8724 92.6175 22.8668 92.6175H22.6216ZM23.7917 85.3267C22.6216 85.0784 21.9511 83.902 22.1963 82.8157C22.4508 81.6425 23.621 80.9689 24.7166 81.2235C25.8868 81.5556 26.5572 82.6481 26.3058 83.7344C26.0513 84.7401 25.2164 85.4136 24.2914 85.4136C24.1269 85.4136 23.9562 85.3267 23.7917 85.3267ZM25.6354 78.2035C24.5459 77.7876 23.9562 76.6112 24.2945 75.5218C24.7197 74.4323 25.8899 73.8426 26.9793 74.1809C28.0688 74.6031 28.6585 75.7732 28.3202 76.8657C27.985 77.7006 27.2308 78.2904 26.3058 78.2904C26.0513 78.2904 25.8899 78.2904 25.6354 78.2035ZM28.1464 71.1641C27.147 70.7481 26.641 69.4849 27.147 68.3986C27.5629 67.3929 28.8168 66.8901 29.9063 67.3929C30.9119 67.8958 31.4209 69.1528 30.9119 70.1584C30.5767 70.9126 29.8225 71.4155 29.0713 71.4155C28.7361 71.4155 28.4816 71.3348 28.1464 71.1671V71.1641ZM31.3371 64.5437C30.3315 63.957 29.9963 62.6969 30.5767 61.6944C31.1664 60.6887 32.4266 60.2697 33.4322 60.8563C34.4317 61.443 34.7669 62.6969 34.1865 63.7056C33.7706 64.3761 33.097 64.7951 32.3366 64.7951C32.0014 64.7951 31.6724 64.7144 31.3371 64.5468V64.5437ZM35.1021 58.1778C34.1865 57.5074 33.932 56.1634 34.6024 55.2447C35.2728 54.3198 36.5268 54.0715 37.5324 54.7419C38.4574 55.4123 38.7119 56.6693 38.0383 57.675C37.6224 58.2616 36.9489 58.5099 36.2785 58.5099C35.8625 58.5099 35.4342 58.4292 35.099 58.1778H35.1021ZM39.4661 52.1409C38.5412 51.4705 38.4605 50.1265 39.2116 49.2078C39.9658 48.286 41.226 48.2022 42.1509 48.9595C43.0666 49.7137 43.1504 51.0546 42.3961 51.8926C41.9802 52.3923 41.3905 52.6468 40.807 52.6468C40.301 52.6468 39.882 52.4792 39.4661 52.144V52.1409ZM44.3267 46.6099C43.4825 45.7719 43.4825 44.4342 44.3267 43.6768C45.1617 42.8419 46.5025 42.8419 47.3374 43.6768C48.0979 44.5149 48.0979 45.8588 47.2567 46.6099C46.9215 47.032 46.3411 47.1997 45.8321 47.1997C45.2424 47.1997 44.7426 47.032 44.3267 46.6099ZM49.6871 41.498C48.9328 40.66 49.0973 39.3222 50.0223 38.5649C50.8572 37.8107 52.1981 37.9783 52.9523 38.8194C53.6227 39.7412 53.542 41.0821 52.6264 41.8363C52.2012 42.1715 51.7821 42.2522 51.2855 42.2522C50.6958 42.2522 50.1061 42.0039 49.6902 41.498H49.6871Z" fill="#3AA7CB"/>
<path d="M57.3129 37.8105C56.7231 37.8105 56.2234 37.556 55.8075 37.2239C55.4723 36.8018 55.2178 36.299 55.2178 35.7154C55.2178 35.1319 55.4723 34.626 55.8075 34.207C56.0527 34.0394 56.2234 33.8718 56.4779 33.7911C57.3129 33.4559 58.2378 33.6235 58.8182 34.207C59.1534 34.6291 59.408 35.2126 59.408 35.7154C59.408 36.3021 59.1534 36.8049 58.8182 37.2239C58.4023 37.556 57.9026 37.8105 57.3129 37.8105Z" fill="#3AA7CB"/>
</svg>
