<svg width="208" height="208" viewBox="0 0 208 208" fill="none" xmlns="http://www.w3.org/2000/svg">
<path d="M103.998 205.864C160.257 205.864 205.864 160.258 205.864 104C205.864 47.7422 160.257 2.13623 103.998 2.13623C47.7395 2.13623 2.13281 47.7422 2.13281 104C2.13281 160.258 47.7395 205.864 103.998 205.864Z" fill="white"/>
<path d="M103.995 208C46.6509 208 0 161.347 0 104C0 46.6533 46.6509 0 103.995 0C161.34 0 208 46.6533 208 104C208 161.347 161.346 208 103.995 208ZM103.995 4.27228C49.0054 4.27228 4.27235 49.011 4.27235 104C4.27235 158.989 49.0054 203.728 103.995 203.728C158.985 203.728 203.728 158.989 203.728 104C203.728 49.011 158.985 4.27228 103.995 4.27228Z" fill="#3AA7CB"/>
<path d="M55.2461 181.224V166.727H63.3984C64.6421 166.727 65.677 166.98 66.4871 167.496C67.2973 168.005 67.8986 168.689 68.2973 169.543C68.6897 170.398 68.8891 171.341 68.8891 172.375C68.8891 173.41 68.6644 174.379 68.2055 175.224C67.7467 176.069 67.1042 176.743 66.2687 177.24C65.4333 177.736 64.449 177.983 63.3066 177.983H60.6957V181.224H55.2461ZM60.6957 173.727H62.0217C62.4648 173.727 62.7907 173.607 63.0154 173.369C63.2401 173.129 63.3572 172.796 63.3572 172.375C63.3572 171.445 62.9395 170.983 62.1135 170.983H60.6957V173.727Z" fill="#151716"/>
<path d="M70.4688 181.224V166.727H78.621C79.8648 166.727 80.8996 166.964 81.7098 167.435C82.5199 167.907 83.1212 168.553 83.52 169.372C83.9124 170.189 84.1118 171.116 84.1118 172.154C84.1118 173.125 83.8618 173.98 83.3617 174.72C82.8617 175.455 82.2509 176.065 81.5515 176.543C81.7193 176.648 81.8427 176.765 81.9345 176.888C82.0168 177.018 82.0927 177.148 82.1592 177.284L83.8713 181.224H78.1969L76.7792 178.002C76.7032 177.822 76.6209 177.702 76.5292 177.632C76.4374 177.566 76.3108 177.531 76.1462 177.531H75.9215V181.224H70.4719H70.4688ZM75.9152 173.274H77.2412C78.1337 173.274 78.5767 172.898 78.5767 172.151C78.5767 171.73 78.4754 171.429 78.2666 171.249C78.0672 171.068 77.7571 170.977 77.333 170.977H75.9152V173.271V173.274Z" fill="#151716"/>
<path d="M86.1309 181.224V166.727H97.7295V170.644H91.5805V171.951H96.8719V176.002H91.5805V177.309H97.7295V181.227H86.1309V181.224Z" fill="#151716"/>
<path d="M99.5295 181.224V166.727H104.71L107.656 172.714L110.584 166.727H115.764V181.224H110.315V176.138L109.03 178.746H106.261L104.976 176.138V181.224H99.5264H99.5295Z" fill="#151716"/>
<path d="M118.23 181.224V166.727H123.68V181.224H118.23Z" fill="#151716"/>
<path d="M126.157 181.224V166.727H137.756V170.644H131.607V171.951H136.898V176.002H131.607V177.309H137.756V181.227H126.157V181.224Z" fill="#151716"/>
<path d="M139.551 181.224V166.727H147.703C148.947 166.727 149.982 166.964 150.792 167.435C151.602 167.907 152.203 168.553 152.602 169.372C152.994 170.189 153.194 171.116 153.194 172.154C153.194 173.125 152.944 173.98 152.444 174.72C151.944 175.455 151.333 176.065 150.634 176.543C150.801 176.648 150.925 176.765 151.016 176.888C151.099 177.018 151.175 177.148 151.241 177.284L152.953 181.224H147.279L145.861 178.002C145.785 177.822 145.703 177.702 145.611 177.632C145.519 177.566 145.393 177.531 145.228 177.531H145.004V181.224H139.554H139.551ZM145 173.274H146.326C147.219 173.274 147.662 172.898 147.662 172.151C147.662 171.73 147.561 171.429 147.352 171.249C147.152 171.068 146.842 170.977 146.418 170.977H145V173.271V173.274Z" fill="#151716"/>
<path d="M155.223 144.492C165.217 131.871 170.65 115.478 169.014 97.7911C166.207 67.4136 141.744 42.454 111.423 39.1121C72.0352 34.7702 38.6982 65.4926 38.6982 104.003C38.6982 119.317 43.977 133.397 52.8065 144.53C55.5503 147.992 59.753 149.992 64.1709 149.992H143.826C148.26 149.992 152.469 147.97 155.223 144.492Z" fill="#3AA7CB"/>
<path d="M112.689 142.498H87.9888L96.7993 139.985C99.1697 139.305 99.5368 134.412 99.4766 132.751V113.285C99.4766 111.608 98.8848 110.358 98.1158 109.437C96.5651 114.811 91.7073 118.637 86.0488 118.637C79.0485 118.637 73.3489 112.966 73.2982 105.978C69.2854 103.703 66.8232 99.5697 66.8232 94.9714C66.8232 93.6961 67.1492 92.5251 67.4562 91.5504C67.146 90.5757 66.8232 89.4048 66.8232 88.1263C66.8232 82.8318 70.0955 78.2715 75.0831 76.4107C74.7983 75.4012 74.5894 74.3695 74.5894 73.2397C74.5894 65.3408 81.0138 58.9165 88.916 58.9165C92.1788 58.9165 95.2897 60.0178 97.8278 62.0464C100.249 58.9039 103.834 57.0684 107.692 57.0684C112.623 57.0684 117.038 59.9893 119.107 64.4831C120.968 63.4831 122.813 62.9894 124.706 62.9894C131.741 62.9894 137.466 68.7048 137.466 75.7366C137.466 77.5753 136.982 79.395 135.988 81.2716C139.251 83.6926 141.162 87.3509 141.162 91.2719C141.162 95.6993 138.833 99.7342 135.013 102.054C135.415 103.301 135.614 104.586 135.614 105.889C135.614 112.918 129.889 118.64 122.864 118.64C119.224 118.64 115.803 117.08 113.367 114.33C108.911 114.358 108.442 117.162 108.411 117.491L108.42 131.412C108.42 137.052 113.142 139.998 113.344 140.118L117.25 142.495H112.686L112.689 142.498ZM100.559 139.935H109.252C107.61 138.125 105.857 135.283 105.857 131.412V117.355C105.964 116.178 106.616 114.507 108.211 113.295C107.885 113.32 107.211 113.168 106.717 112.757C105.733 111.953 105.274 110.39 105.316 107.924C104.714 108.855 103.964 109.418 103.072 109.602C102.455 109.731 101.812 109.671 101.154 109.405C101.746 110.576 102.056 111.886 102.056 113.282V132.704C102.072 133.276 102.157 137.188 100.562 139.935H100.559ZM114.142 111.206L114.892 112.146C116.854 114.646 119.766 116.076 122.87 116.076C128.487 116.076 133.051 111.504 133.051 105.889C133.051 104.544 132.785 103.225 132.26 101.956L131.801 100.845L132.877 100.317C136.406 98.5633 138.602 95.1012 138.602 91.2751C138.602 87.8541 136.741 84.6705 133.63 82.759L132.529 82.0818L133.212 80.99C134.374 79.126 134.905 77.4551 134.905 75.7366C134.905 70.1194 130.332 65.5528 124.718 65.5528C122.892 65.5528 121.079 66.1699 119.186 67.4358L117.775 68.382L117.259 66.7617C115.882 62.4989 112.044 59.6317 107.705 59.6317C104.268 59.6317 101.078 61.502 99.1697 64.635L98.3278 66.0117L97.1759 64.8819C94.9479 62.6919 92.0206 61.483 88.9318 61.483C82.4474 61.483 77.175 66.7617 77.175 73.2429C77.175 74.4613 77.5263 75.6417 77.9187 76.8506L78.3364 78.1355L77.0357 78.4867C72.4722 79.702 69.4088 83.5755 69.4088 88.1294C69.4088 89.1864 69.7411 90.2371 70.0354 91.1675L70.162 91.5568L70.0354 91.946C69.7443 92.8764 69.4088 93.9271 69.4088 94.9777C69.4088 98.8924 71.6526 102.393 75.2762 104.114L76.0357 104.472L75.8933 105.937C75.8838 111.507 80.4504 116.08 86.0646 116.08C91.1471 116.08 95.4258 112.171 96.0113 106.988L96.0682 106.478L97.1379 105.731L97.0968 105.677L97.9797 104.864C98.9893 103.946 99.657 103.105 100.1 102.212L100.86 100.668L102.119 101.832C103.113 102.75 104.271 103.462 105.566 103.946L107.018 104.396C108.195 104.643 109.17 104.693 110.474 104.329C110.714 104.26 110.968 104.19 111.218 104.133L112.87 103.75L112.686 105.981C112.696 107.345 113.018 108.795 113.68 110.2L114.155 111.209L114.142 111.206ZM107.907 107.117C107.79 109.111 108.009 110.054 108.173 110.475C108.673 110.184 109.458 109.874 110.711 109.662C110.436 108.798 110.252 107.921 110.17 107.041C109.487 107.174 108.702 107.187 107.907 107.117ZM100.6 105.874C101.543 106.855 102.268 107.136 102.543 107.095C102.803 107.041 103.17 106.677 103.512 105.851C102.828 105.522 102.186 105.133 101.575 104.69C101.29 105.086 100.967 105.478 100.6 105.87V105.874Z" fill="white"/>
<path d="M122.034 142.498H97.334V139.938H108.99C107.037 137.517 106.22 134.34 106.17 134.147L108.657 133.52C109.05 135.068 110.626 139.245 113.221 139.985L122.031 142.498H122.034Z" fill="white"/>
<path d="M69.1205 20.3169C71.1491 25.4152 72.165 27.9754 74.1935 33.0768C75.3423 32.5325 75.9183 32.2761 77.0861 31.7856C77.545 33.0863 77.7728 33.735 78.2317 35.0325C75.279 36.2699 73.8296 36.982 71.0098 38.5864C68.073 32.4249 66.6077 29.3203 63.6709 23.1556C65.8166 21.9309 66.9084 21.3644 69.1205 20.3169Z" fill="black"/>
<path d="M73.8584 18.2568C77.6244 16.7567 79.5454 16.1301 83.4316 15.1206C83.7291 16.4719 83.8778 17.1491 84.1785 18.5036C82.6816 18.8929 81.9347 19.1081 80.4568 19.5701C80.7923 20.836 80.96 21.4721 81.2986 22.7379C82.6341 22.3202 83.305 22.124 84.6532 21.7695C84.9412 23.0544 85.0836 23.6968 85.3716 24.9817C84.0741 25.3234 83.4285 25.5102 82.1436 25.9121C82.5328 27.3805 82.7291 28.1147 83.1183 29.5831C84.5583 29.1305 85.283 28.9248 86.7419 28.5546C87.0362 29.909 87.1818 30.5863 87.4729 31.9376C84.1722 32.7794 82.5392 33.3079 79.3397 34.5832C77.1497 28.0609 76.0515 24.7791 73.8616 18.2568H73.8584Z" fill="black"/>
<path d="M99.5776 12.627C98.6725 19.624 98.3307 23.1494 97.8687 30.156C94.916 30.4218 93.4413 30.6402 90.5266 31.2351C88.229 24.6431 86.9536 21.3614 84.1719 14.9308C86.6308 14.3169 87.8714 14.0542 90.362 13.6365C91.764 18.2379 92.7482 22.1905 93.4318 25.4375C93.2799 22.0734 93.2229 19.0828 93.2641 16.4657C93.2736 15.1587 93.2831 14.5068 93.302 13.1998C95.8053 12.8738 97.0617 12.7599 99.5776 12.627Z" fill="black"/>
<path d="M100.562 12.5824C104.546 12.4242 106.546 12.4653 110.524 12.7945C110.426 14.1806 110.376 14.8736 110.277 16.2598C108.743 16.1332 107.973 16.0889 106.435 16.0382C106.397 17.3547 106.378 18.0161 106.341 19.3326C107.727 19.3801 108.42 19.4181 109.803 19.5289C109.714 20.8453 109.67 21.5068 109.578 22.8233C108.246 22.7157 107.578 22.6808 106.242 22.6334C106.198 24.1587 106.176 24.9246 106.135 26.4499C107.629 26.5006 108.372 26.5449 109.863 26.6746C109.758 28.0608 109.708 28.7538 109.603 30.1399C106.23 29.8425 104.533 29.8045 101.154 29.9406C100.916 23.0068 100.796 19.5194 100.559 12.5824H100.562Z" fill="black"/>
<path d="M118.541 13.8578C117.68 19.3327 117.25 22.0828 116.389 27.5608C117.614 27.7886 118.224 27.9152 119.44 28.1969C119.171 29.5577 119.038 30.2381 118.772 31.5989C115.693 30.8837 114.136 30.6178 111.009 30.2761C111.651 23.3708 111.974 19.8992 112.616 12.9907C114.996 13.2502 116.183 13.4211 118.544 13.8578H118.541Z" fill="black"/>
<path d="M127.737 25.2693C127.405 26.4117 127.24 26.9814 126.908 28.1238C124.376 27.2535 123.094 26.8801 120.509 26.2535C120.749 25.0857 120.87 24.5003 121.107 23.3325C123.784 23.9813 125.113 24.3674 127.737 25.2693Z" fill="black"/>
<path d="M142.491 22.3327C140.643 26.3993 139.719 28.4405 137.87 32.5166C138.393 32.8014 138.652 32.9438 139.171 33.2413C138.671 34.2951 138.421 34.8205 137.921 35.8743C137.421 35.5895 137.171 35.4502 136.665 35.1749C136.168 36.273 135.918 36.8205 135.421 37.9187C133.725 36.9977 132.864 36.5705 131.12 35.7825C131.551 34.6527 131.766 34.0863 132.196 32.9533C130.044 31.9786 128.949 31.5419 126.74 30.7602C127.076 29.6336 127.243 29.0671 127.582 27.9405C130.538 24.2062 132.123 22.396 135.494 18.9561C138.339 20.165 139.741 20.8422 142.488 22.3327H142.491ZM133.241 30.2127C134.279 27.4785 134.798 26.1113 135.839 23.3771C133.896 25.6999 132.956 26.8898 131.152 29.3076C131.994 29.6557 132.411 29.8361 133.241 30.2127Z" fill="black"/>
<path d="M149.55 38.5866C149.041 38.5866 148.439 38.3334 148.098 37.9061C147.674 37.4758 147.414 36.9631 147.414 36.4504C147.414 35.8523 147.674 35.3396 148.098 34.9156C148.867 34.1434 150.234 34.0611 151.085 34.9156C151.519 35.2573 151.686 35.8555 151.686 36.4504C151.686 36.9631 151.519 37.5644 151.085 37.9061C150.661 38.3302 150.152 38.5866 149.55 38.5866Z" fill="#3AA7CB"/>
<path d="M169.884 152.144C168.858 151.463 168.608 150.096 169.292 149.156C169.969 148.213 171.336 147.96 172.279 148.644C173.222 149.327 173.472 150.609 172.789 151.549C172.447 152.147 171.77 152.489 171.086 152.489C170.653 152.489 170.225 152.406 169.884 152.147V152.144ZM173.991 145.821C173.048 145.219 172.624 143.938 173.222 142.916C173.814 141.89 175.099 141.46 176.128 142.061C177.153 142.659 177.495 143.938 176.979 144.966C176.555 145.65 175.868 146.077 175.102 146.077C174.76 146.077 174.333 145.995 173.991 145.824V145.821ZM177.662 139.07C176.552 138.646 176.042 137.358 176.552 136.251C177.061 135.225 178.264 134.713 179.371 135.225C180.482 135.656 180.906 136.937 180.482 138.045C180.058 138.814 179.289 139.327 178.514 139.327C178.181 139.327 177.922 139.245 177.662 139.074V139.07ZM180.564 132.067C179.454 131.725 178.852 130.529 179.197 129.418C179.631 128.304 180.824 127.706 181.935 128.051C183.046 128.393 183.647 129.675 183.302 130.785C182.96 131.64 182.109 132.241 181.248 132.241C180.988 132.241 180.824 132.153 180.564 132.07V132.067ZM182.878 124.886C181.675 124.633 180.992 123.434 181.251 122.326C181.511 121.13 182.704 120.443 183.811 120.703C185.014 120.956 185.698 122.155 185.438 123.263C185.179 124.288 184.327 124.975 183.302 124.975C183.22 124.975 183.042 124.886 182.878 124.886ZM184.413 117.453C183.302 117.285 182.451 116.171 182.618 115.063C182.786 113.867 183.811 113.016 185.014 113.18C186.207 113.351 186.976 114.465 186.891 115.658H186.808C186.726 116.684 185.783 117.453 184.754 117.453H184.413ZM185.356 109.933C184.153 109.851 183.22 108.823 183.302 107.715C183.384 106.519 184.327 105.579 185.52 105.661C186.723 105.661 187.574 106.687 187.574 107.886C187.492 108.997 186.549 109.933 185.438 109.933H185.356ZM183.302 100.278C183.22 99.0819 184.153 98.0597 185.356 98.0597C186.549 97.9711 187.492 98.911 187.574 100.107C187.574 101.303 186.723 102.243 185.52 102.332H185.438C184.245 102.332 183.384 101.389 183.302 100.278ZM182.618 92.933C182.451 91.7367 183.302 90.7082 184.413 90.5373C185.606 90.3664 186.631 91.1386 186.808 92.3317H186.891C186.973 93.5279 186.207 94.5564 185.014 94.7273C184.922 94.7273 184.84 94.8096 184.754 94.8096C183.644 94.8096 182.786 93.9552 182.618 92.933ZM181.251 85.6669C180.992 84.5561 181.675 83.3599 182.786 83.1067C183.989 82.8472 185.182 83.5308 185.438 84.6416C185.698 85.8378 185.014 86.9486 183.811 87.2904H183.302C182.359 87.2904 181.507 86.6923 181.248 85.6669H181.251ZM179.197 78.5749C178.855 77.4641 179.457 76.2679 180.564 75.8407C181.675 75.4989 182.875 76.0939 183.302 77.2046C183.644 78.3186 183.042 79.5117 181.935 79.9421C181.675 80.0244 181.511 80.0244 181.251 80.0244C180.4 80.0244 179.539 79.4262 179.197 78.5718V78.5749ZM176.552 71.7425V71.6538C176.042 70.6285 176.552 69.3468 177.577 68.8341C178.688 68.4101 179.973 68.9227 180.482 69.9481C180.906 71.0589 180.482 72.3374 179.371 72.7646C179.112 72.9355 178.77 72.9355 178.511 72.9355C177.659 72.9355 176.89 72.5115 176.548 71.7425H176.552ZM173.222 65.0745C172.621 64.0492 173.048 62.7675 173.991 62.1694C175.017 61.6567 176.378 61.9985 176.897 63.0238C177.498 64.046 177.156 65.3309 176.128 65.929C175.786 66.0999 175.444 66.1822 175.102 66.1822C174.333 66.1822 173.65 65.8435 173.225 65.0714L173.222 65.0745ZM169.292 58.837C168.608 57.8971 168.858 56.53 169.801 55.8464C170.827 55.2483 172.105 55.4223 172.789 56.4477C173.472 57.3876 173.222 58.6661 172.279 59.3528C171.937 59.6123 171.51 59.7769 171.086 59.7769C170.403 59.7769 169.719 59.4383 169.292 58.837ZM164.76 52.9412C164.076 52.0868 164.159 50.7228 165.102 49.9507C165.953 49.1816 167.32 49.3525 168.089 50.2101C168.858 51.1501 168.69 52.5172 167.83 53.2007C167.406 53.5394 166.896 53.7103 166.469 53.7103C165.868 53.7103 165.266 53.4571 164.757 52.9412H164.76ZM159.804 47.5582C158.953 46.7037 158.953 45.3334 159.804 44.4821C160.573 43.71 161.94 43.6277 162.791 44.4821C163.652 45.3334 163.652 46.7005 162.791 47.5582C162.367 47.9822 161.858 48.1563 161.339 48.1563C160.747 48.1563 160.228 47.9854 159.804 47.5582ZM154.339 42.6023C153.395 41.8333 153.221 40.4662 153.997 39.6117C154.766 38.6718 156.133 38.5009 156.984 39.2699C157.927 40.0421 158.095 41.4061 157.326 42.2605C156.902 42.8587 156.301 43.115 155.699 43.115C155.19 43.115 154.68 42.9441 154.339 42.6023Z" fill="#3AA7CB"/>
<path d="M166.38 158.638C165.788 158.638 165.269 158.378 164.845 158.036C164.677 157.783 164.503 157.527 164.421 157.356C164.339 157.014 164.247 156.755 164.247 156.501C164.247 155.9 164.507 155.391 164.848 154.963C165.617 154.194 167.067 154.194 167.928 154.963C168.269 155.394 168.519 155.903 168.519 156.501C168.519 157.014 168.269 157.612 167.928 158.036C167.504 158.378 166.902 158.638 166.383 158.638H166.38Z" fill="#3AA7CB"/>
<path d="M42.3149 159.407C41.799 159.407 41.2041 159.236 40.78 158.809C40.4382 158.378 40.1787 157.869 40.1787 157.271C40.1787 156.758 40.4382 156.16 40.78 155.818C41.6313 155.049 43.0839 155.049 43.8498 155.818C44.2738 156.16 44.4511 156.758 44.4511 157.271C44.4511 157.872 44.277 158.467 43.8498 158.809C43.682 158.979 43.4257 159.15 43.1662 159.321C42.9162 159.404 42.5744 159.404 42.3149 159.404V159.407Z" fill="#3AA7CB"/>
<path d="M35.9059 152.485C35.2224 151.545 35.3901 150.267 36.33 149.58C37.3554 148.896 38.6402 149.067 39.327 150.093C40.0042 151.033 39.8365 152.311 38.8934 152.998C38.4693 153.257 38.0421 153.428 37.618 153.428C36.9345 153.428 36.3332 153.086 35.9059 152.485ZM31.6336 145.906C31.0323 144.884 31.3741 143.599 32.4026 143.001C33.428 142.403 34.7128 142.747 35.3078 143.77C35.9091 144.795 35.5673 146.165 34.5388 146.678C34.197 146.931 33.8552 147.02 33.5134 147.02C32.7444 147.02 31.9785 146.589 31.6368 145.906H31.6336ZM27.9625 138.985C27.529 137.874 27.9625 136.678 29.0733 136.168C30.0987 135.656 31.3772 136.168 31.8931 137.19C32.4026 138.216 31.8931 139.497 30.8677 140.01C30.5259 140.181 30.2664 140.181 29.9247 140.181C29.1556 140.181 28.3898 139.757 27.9625 138.985ZM25.051 131.725C24.7092 130.611 25.3105 129.418 26.3359 128.988C27.529 128.646 28.7316 129.158 29.0733 130.269C29.4974 131.383 28.8993 132.665 27.7885 133.007C27.529 133.089 27.279 133.178 27.1049 133.178C26.1713 133.178 25.3928 132.576 25.051 131.725ZM22.8294 124.203C22.5699 123.01 23.2535 121.896 24.3738 121.642C25.4846 121.301 26.6777 121.984 26.934 123.18C27.2758 124.291 26.5922 125.487 25.3896 125.741C25.2219 125.829 25.0478 125.829 24.8801 125.829C23.937 125.829 23.0857 125.146 22.8262 124.203H22.8294ZM21.2945 116.513C21.1205 115.316 21.8958 114.205 23.0889 114.035C24.282 113.864 25.3928 114.718 25.4846 115.829C25.6523 117.025 24.8833 118.136 23.6902 118.307H23.4307C22.3199 118.307 21.4622 117.538 21.2945 116.513ZM20.5287 108.74C20.4369 107.544 21.2977 106.515 22.4908 106.433C23.6934 106.344 24.7092 107.284 24.801 108.481C24.801 109.677 23.9402 110.617 22.7471 110.705H22.5731C21.4622 110.705 20.5287 109.851 20.5287 108.74ZM22.4876 103.098C21.2945 103.009 20.3514 102.072 20.4337 100.873C20.4337 99.6797 21.4591 98.7367 22.6617 98.8253C23.8548 98.8253 24.7061 99.8506 24.7061 101.044C24.6238 102.158 23.687 103.098 22.5699 103.098H22.4876ZM22.9148 95.4106C21.7217 95.322 20.9527 94.2144 21.0382 93.015C21.2122 91.8187 22.323 91.0497 23.5161 91.2206C24.6269 91.3915 25.4846 92.4168 25.3105 93.6162C25.1428 94.6384 24.2852 95.4106 23.2566 95.4106H22.9148ZM24.032 87.8882C22.9148 87.6351 22.1458 86.4357 22.4876 85.328C22.7471 84.2172 23.8548 83.4451 25.0478 83.7046C26.165 83.9577 26.8422 85.0717 26.5922 86.2648H26.6745C26.415 87.2901 25.5637 87.9768 24.5383 87.9768C24.3706 87.9768 24.1965 87.8882 24.0288 87.8882H24.032ZM25.9086 80.4576C24.7978 80.1158 24.1965 78.8342 24.5415 77.7202C24.9656 76.6094 26.1682 76.0144 27.279 76.4385C28.3898 76.7803 28.9816 77.9765 28.6461 79.0873C28.3043 80.0272 27.529 80.5399 26.5922 80.5399C26.4182 80.5399 26.1682 80.5399 25.9086 80.4576ZM28.4721 73.277C27.3612 72.7643 26.9372 71.4827 27.3612 70.4573C27.8708 69.3465 29.0733 68.8338 30.181 69.3465C31.2918 69.7769 31.7159 71.0586 31.2918 72.1662C30.95 72.9352 30.181 73.4479 29.3234 73.4479C29.0733 73.4479 28.7316 73.3656 28.4721 73.277ZM31.719 66.2705C30.6937 65.7578 30.2664 64.3875 30.8677 63.3653C31.4595 62.34 32.7444 61.9982 33.7729 62.5932C34.7983 63.1058 35.2255 64.4761 34.6242 65.5015C34.2002 66.1819 33.5134 66.5237 32.7476 66.5237C32.4058 66.5237 32.064 66.4414 31.7222 66.2705H31.719ZM35.5642 59.6912C34.5388 59.0076 34.2793 57.7259 34.9629 56.7006C35.6464 55.7607 37.0168 55.5043 37.9598 56.1879C38.9852 56.8715 39.2352 58.1531 38.5516 59.0962C38.1276 59.7766 37.4408 60.0361 36.7572 60.0361C36.3332 60.0361 35.9059 59.9475 35.5642 59.6943V59.6912ZM40.0042 53.4536C39.0706 52.7701 38.9852 51.3998 39.7542 50.463C40.5232 49.5231 41.7986 49.4377 42.7417 50.2099C43.6848 50.9789 43.7671 52.346 43.0012 53.2005C42.5771 53.71 41.9758 53.9695 41.3745 53.9695C40.865 53.9695 40.441 53.7986 40.0074 53.4568L40.0042 53.4536ZM45.0519 47.7288C44.1911 46.8743 44.1911 45.504 45.0519 44.6527C45.9032 43.8806 47.2704 43.8806 48.0394 44.6527C48.8907 45.504 48.8907 46.8712 48.0394 47.7288C47.6153 48.1528 47.0963 48.3269 46.5045 48.3269C45.9887 48.3269 45.4792 48.156 45.0519 47.7288ZM50.5174 42.4311C49.8338 41.4912 49.9161 40.2127 50.8592 39.4405C51.7105 38.6715 53.0776 38.8424 53.8466 39.7001C54.6157 40.64 54.4479 42.0071 53.5966 42.6875C53.1631 43.0293 52.6535 43.2002 52.2295 43.2002C51.6282 43.2002 50.9446 42.947 50.5174 42.4311Z" fill="#3AA7CB"/>
<path d="M58.4606 38.5009C57.8688 38.5009 57.3498 38.33 56.9258 37.9027C56.5017 37.4723 56.2422 36.9597 56.2422 36.447C56.2422 36.1084 56.3245 35.8489 56.4162 35.5957C56.584 35.3362 56.7485 35.083 56.9258 34.9121C57.7771 34.14 59.0619 34.14 59.9132 34.9121C60.1727 35.083 60.255 35.3362 60.4291 35.5957C60.5114 35.8489 60.5968 36.1084 60.5968 36.447C60.5968 36.9597 60.3468 37.4723 59.9132 37.9027C59.5715 38.3268 58.9797 38.5009 58.4606 38.5009Z" fill="#3AA7CB"/>
</svg>
