<svg width="204" height="204" viewBox="0 0 204 204" fill="none" xmlns="http://www.w3.org/2000/svg">
<path d="M102.005 201.905C157.182 201.905 201.912 157.176 201.912 102C201.912 46.8242 157.182 2.09521 102.005 2.09521C46.8283 2.09521 2.09863 46.8242 2.09863 102C2.09863 157.176 46.8283 201.905 102.005 201.905Z" fill="white"/>
<path d="M102.005 204C45.7568 204 0 158.244 0 102C0 45.7561 45.7568 0 102.005 0C158.252 0 204 45.7561 204 102C204 158.244 158.243 204 102.005 204ZM102.005 4.19012C48.0723 4.19012 4.19019 48.0685 4.19019 102C4.19019 155.932 48.0723 199.81 102.005 199.81C155.937 199.81 199.81 155.932 199.81 102C199.81 48.0685 155.937 4.19012 102.005 4.19012Z" fill="#3AA7CB"/>
<path d="M39.3105 170.234L44.795 156.015H50.3354L55.8106 170.234H50.2454L49.2304 167.586H45.8907L44.8757 170.234H39.3105ZM46.4711 163.939H48.6314L47.5512 161.226L46.4711 163.939Z" fill="#151716"/>
<path d="M57.3467 170.234V156.015H64.1068C65.606 156.015 66.9127 156.257 68.0177 156.732C69.1133 157.21 69.9731 157.98 70.5722 159.032C71.1774 160.084 71.4816 161.478 71.4816 163.213C71.4816 164.948 71.1867 166.199 70.5908 167.232C69.9948 168.266 69.1506 169.02 68.0549 169.507C66.9593 169.995 65.6401 170.237 64.1099 170.237H57.3498L57.3467 170.234ZM62.6915 166.171H63.4861C64.0168 166.171 64.4762 166.096 64.8611 165.95C65.2366 165.805 65.5315 165.516 65.7457 165.091C65.9505 164.662 66.0499 164.038 66.0499 163.213C66.0499 162.387 65.9598 161.776 65.7643 161.372C65.575 160.966 65.2894 160.702 64.9138 160.575C64.5445 160.45 64.0696 160.385 63.4892 160.385H62.6946V166.171H62.6915Z" fill="#151716"/>
<path d="M77.9532 170.234L72.4688 156.015H78.0339L80.7095 163.921L83.4005 156.015H88.9657L83.4905 170.234H77.9501H77.9532Z" fill="#151716"/>
<path d="M90.0674 170.234L95.5519 156.015H101.092L106.567 170.234H101.002L99.9873 167.586H96.6475L95.6326 170.234H90.0674ZM97.2279 163.939H99.3882L98.3081 161.226L97.2279 163.939Z" fill="#151716"/>
<path d="M108.111 170.234V156.015H112.596L116.572 161.58V156.015H121.916V170.234H117.407L113.452 164.669V170.234H108.107H108.111Z" fill="#151716"/>
<path d="M131.951 170.454C129.151 170.454 127.04 169.836 125.609 168.601C124.169 167.366 123.449 165.541 123.449 163.126C123.449 160.711 124.16 158.886 125.585 157.648C127 156.413 129.111 155.795 131.91 155.795C132.82 155.795 133.63 155.86 134.325 155.997C135.03 156.127 135.716 156.319 136.386 156.571V161.233C135.051 160.612 133.676 160.305 132.261 160.305C131.231 160.305 130.411 160.506 129.806 160.91C129.21 161.317 128.906 162.055 128.906 163.132C128.906 164.209 129.216 164.945 129.831 165.351C130.451 165.758 131.271 165.957 132.301 165.957C133.717 165.957 135.092 165.649 136.436 165.032V169.687C135.756 169.923 135.07 170.113 134.375 170.252C133.67 170.392 132.869 170.46 131.954 170.46L131.951 170.454Z" fill="#151716"/>
<path d="M137.981 170.234V156.015H149.357V159.858H143.326V161.14H148.516V165.112H143.326V166.394H149.357V170.237H137.981V170.234Z" fill="#151716"/>
<path d="M150.677 170.234V156.015H157.437C158.936 156.015 160.243 156.257 161.348 156.732C162.443 157.21 163.303 157.98 163.902 159.032C164.507 160.084 164.812 161.478 164.812 163.213C164.812 164.948 164.517 166.199 163.921 167.232C163.325 168.266 162.481 169.02 161.385 169.507C160.289 169.995 158.97 170.237 157.44 170.237H150.68L150.677 170.234ZM156.022 166.171H156.816C157.347 166.171 157.806 166.096 158.191 165.95C158.567 165.805 158.862 165.516 159.076 165.091C159.281 164.662 159.38 164.038 159.38 163.213C159.38 162.387 159.29 161.776 159.094 161.372C158.905 160.966 158.619 160.702 158.244 160.575C157.875 160.45 157.4 160.385 156.819 160.385H156.025V166.171H156.022Z" fill="#151716"/>
<path d="M152.032 141.713C161.834 129.335 167.164 113.257 165.559 95.9101C162.806 66.1168 138.813 41.6372 109.075 38.3596C70.4449 34.1012 37.749 64.2328 37.749 102.003C37.749 117.022 42.9262 130.831 51.586 141.75C54.277 145.146 58.3989 147.107 62.7318 147.107H140.856C145.204 147.107 149.332 145.124 152.032 141.713Z" fill="#3AA7CB"/>
<path d="M67.4217 19.6997C69.4206 24.7154 70.4169 27.2109 72.4158 32.2173C73.5425 31.6835 74.1105 31.4321 75.2527 30.9541C75.7027 32.2266 75.9262 32.8629 76.3794 34.1355C73.4835 35.3459 72.0619 36.0412 69.2933 37.621C66.4005 31.5624 64.9572 28.5517 62.0645 22.49C64.1751 21.2857 65.2459 20.7302 67.4217 19.6997Z" fill="black"/>
<path d="M72.0744 17.679C75.7742 16.2109 77.6644 15.5995 81.4821 14.6094C81.7739 15.9409 81.9198 16.6051 82.2147 17.9366C80.7434 18.3184 80.0109 18.5264 78.5552 18.9795C78.8842 20.2241 79.0518 20.8449 79.3808 22.0895C80.6907 21.6798 81.3518 21.4905 82.6771 21.146C82.9596 22.4061 83.0992 23.0362 83.3786 24.2963C82.1029 24.6284 81.4697 24.8115 80.2065 25.2057C80.5882 26.6459 80.7807 27.366 81.1624 28.8061C82.5747 28.3654 83.2886 28.1636 84.7194 27.8036C85.005 29.1289 85.1478 29.7931 85.4364 31.1185C82.196 31.9379 80.5944 32.4562 77.4565 33.7008C75.3024 27.2946 74.2285 24.1008 72.0713 17.6821L72.0744 17.679Z" fill="black"/>
<path d="M97.3556 12.1792C96.4492 19.0696 96.1078 22.5086 95.6453 29.3835C92.7495 29.638 91.3031 29.846 88.4413 30.4295C86.191 23.955 84.9464 20.755 82.2119 14.4232C84.6298 13.8211 85.8496 13.5666 88.2985 13.1569C89.6704 17.6915 90.6295 21.5651 91.2969 24.7434C91.1541 21.4502 91.1013 18.514 91.1448 15.9379C91.1572 14.656 91.1665 14.0135 91.1882 12.7317C93.6465 12.4151 94.8818 12.3034 97.3556 12.1792Z" fill="black"/>
<path d="M98.3203 12.1357C102.237 11.9867 104.202 12.0364 108.11 12.3747C108.011 13.7404 107.958 14.4232 107.858 15.7858C106.35 15.6554 105.596 15.6089 104.084 15.553C104.044 16.8473 104.022 17.496 103.982 18.7903C105.344 18.8399 106.024 18.8803 107.384 18.9951C107.29 20.2894 107.247 20.935 107.154 22.2293C105.847 22.1206 105.192 22.0803 103.882 22.0337C103.836 23.5329 103.811 24.2809 103.764 25.7769C105.229 25.8297 105.962 25.8762 107.421 26.0097C107.315 27.366 107.262 28.0458 107.157 29.4021C103.848 29.1011 102.185 29.0576 98.8666 29.1818C98.6493 22.372 98.5376 18.9703 98.3203 12.1357Z" fill="black"/>
<path d="M115.981 13.458C115.115 18.8462 114.68 21.5309 113.815 26.9036C115.016 27.1302 115.615 27.2574 116.804 27.5368C116.537 28.8683 116.4 29.5325 116.133 30.864C113.116 30.1533 111.589 29.8895 108.522 29.5418C109.177 22.7662 109.5 19.38 110.155 12.5796C112.492 12.8434 113.659 13.0203 115.975 13.458H115.981Z" fill="black"/>
<path d="M124.97 24.6967C124.638 25.8171 124.473 26.3758 124.141 27.4963C121.661 26.6303 120.401 26.2579 117.868 25.634C118.11 24.4887 118.228 23.9145 118.47 22.7661C121.096 23.4117 122.4 23.7966 124.973 24.6967H124.97Z" fill="black"/>
<path d="M134.145 34.8273C133.658 35.8609 133.416 36.3792 132.928 37.4128C129.291 35.3705 127.403 34.5045 123.555 33.0923C123.843 32.1705 123.986 31.708 124.272 30.7862C128.558 27.5768 131.519 25.9101 132.5 25.2055C133.484 24.501 134.108 23.8709 134.331 23.3184C134.505 22.8901 134.542 22.5363 134.431 22.2228C134.328 21.9373 134.08 21.6921 133.695 21.5151C133.31 21.3382 132.962 21.332 132.702 21.4748C132.432 21.6207 132.149 22.0397 131.889 22.7411C131.665 23.3402 131.553 23.6381 131.33 24.2372C129.564 23.455 128.673 23.095 126.873 22.4339C126.944 22.2011 126.981 22.0831 127.053 21.8503C127.335 20.944 127.611 20.255 127.897 19.777C128.189 19.2959 128.648 18.8893 129.278 18.5727C129.918 18.253 130.678 18.1165 131.532 18.1723C132.385 18.2282 133.366 18.5076 134.434 18.9949C136.519 19.9539 137.913 21.1551 138.593 22.4556C139.282 23.7747 139.319 25.0069 138.776 26.1429C138.363 27.0089 137.649 27.7724 136.659 28.4428C135.672 29.1132 133.115 30.2772 129.362 32.3846C131.305 33.2785 132.261 33.7658 134.145 34.8242V34.8273Z" fill="black"/>
<path d="M115.246 118.776H84.1885V122.966H115.246V118.776Z" fill="white"/>
<path d="M101.809 98.1421H97.6191V120.871H101.809V98.1421Z" fill="white"/>
<path d="M97.5039 102.323L96.9794 100.538C94.8036 93.2133 95.8496 85.308 99.8597 78.8521C103.861 72.3993 110.481 67.9516 118.011 66.6511L119.852 66.3345L120.376 68.1192C122.552 75.441 121.506 83.3464 117.505 89.8023C113.486 96.2582 106.865 100.706 99.3445 102.009L97.5039 102.326V102.323ZM116.835 71.1919C111.279 72.6476 106.458 76.1704 103.429 81.062H103.42C100.384 85.9567 99.36 91.8415 100.524 97.4655C106.08 96.0099 110.9 92.487 113.945 87.5924C116.974 82.6977 117.995 76.8191 116.835 71.1919Z" fill="white"/>
<path d="M146.748 37.801C146.168 37.801 145.578 37.5527 145.243 37.2144C144.827 36.7923 144.653 36.2895 144.653 35.7059C144.653 35.1224 144.824 34.6165 145.243 34.1975C145.997 33.4433 147.338 33.4433 148.173 34.1975C148.598 34.6196 148.763 35.1224 148.763 35.7059C148.763 36.2895 148.598 36.7954 148.173 37.2144C147.757 37.5496 147.257 37.801 146.748 37.801Z" fill="#3AA7CB"/>
<path d="M169.969 144.233C168.963 143.644 168.628 142.306 169.214 141.381C169.795 140.378 171.055 140.043 172.064 140.627C173.069 141.213 173.404 142.474 172.818 143.476C172.402 144.146 171.728 144.482 171.058 144.482C170.642 144.482 170.304 144.401 169.969 144.233ZM173.65 137.613C172.56 137.11 172.144 135.934 172.644 134.847C173.069 133.758 174.323 133.339 175.41 133.842C176.415 134.345 176.924 135.602 176.415 136.607C176.08 137.362 175.326 137.864 174.491 137.864C174.236 137.864 173.901 137.784 173.647 137.616L173.65 137.613ZM176.67 130.738C175.58 130.322 174.991 129.146 175.41 128.056C175.745 126.967 177.005 126.377 178.094 126.799C179.184 127.215 179.774 128.392 179.355 129.481C179.019 130.319 178.259 130.822 177.34 130.822C177.169 130.822 176.924 130.822 176.67 130.735V130.738ZM179.019 123.618C177.93 123.283 177.259 122.19 177.505 121.02C177.84 119.931 178.929 119.26 180.025 119.512C181.195 119.847 181.866 120.936 181.614 122.11C181.36 123.031 180.444 123.702 179.519 123.702C179.355 123.702 179.184 123.621 179.019 123.621V123.618ZM180.689 116.24C179.6 116.073 178.765 114.983 178.929 113.897C179.1 112.724 180.189 111.969 181.36 112.137C182.539 112.305 183.29 113.31 183.119 114.48C182.955 115.573 182.03 116.24 181.024 116.24H180.689ZM181.695 108.785C180.525 108.698 179.69 107.692 179.77 106.603C179.77 105.43 180.776 104.508 181.946 104.595C183.116 104.675 183.961 105.684 183.877 106.771C183.877 107.944 182.952 108.785 181.862 108.785H181.692H181.695ZM179.854 99.2283C179.774 98.0551 180.689 97.1333 181.869 97.0464C182.958 97.0464 183.964 97.8844 183.964 99.0607C184.044 100.234 183.12 101.236 181.949 101.236H181.869C180.779 101.236 179.854 100.315 179.854 99.2283ZM179.184 91.9375C179.103 90.7643 179.854 89.7618 181.024 89.5942C182.12 89.4265 183.21 90.2646 183.374 91.354C183.545 92.5272 182.704 93.6167 181.533 93.6974C181.453 93.7843 181.363 93.7843 181.279 93.7843C180.273 93.7843 179.355 92.9462 179.184 91.9375ZM177.93 84.7305C177.675 83.5573 178.346 82.4678 179.519 82.2195C180.608 81.965 181.785 82.6354 182.03 83.8118C182.285 84.9012 181.614 86.0744 180.441 86.3228H179.935C179.019 86.3228 178.175 85.6523 177.93 84.7305ZM175.999 77.6073C175.583 76.5179 176.164 75.3446 177.34 75.0094C178.43 74.6742 179.6 75.2639 179.935 76.3503C180.27 77.4397 179.69 78.6129 178.594 78.9481C178.349 79.0288 178.178 79.1157 177.93 79.1157C177.086 79.1157 176.251 78.526 175.999 77.6073ZM173.314 70.8193C172.899 69.7299 173.404 68.4759 174.404 68.0538C175.5 67.5541 176.754 68.0538 177.169 69.1464C177.675 70.2358 177.169 71.409 176.08 71.9087C175.835 71.9956 175.58 72.0763 175.245 72.0763C174.491 72.0763 173.74 71.5766 173.314 70.8193ZM170.133 64.1989C169.553 63.1964 169.879 61.9362 170.887 61.3496C171.893 60.8468 173.237 61.182 173.743 62.1876C174.323 63.1933 173.988 64.4503 172.982 65.0369C172.647 65.2045 172.312 65.2914 171.893 65.2914C171.222 65.2914 170.468 64.9562 170.133 64.1989ZM166.194 58.0006C165.605 57.0788 165.859 55.738 166.784 55.0675C167.7 54.3971 169.044 54.6516 169.714 55.6542C170.304 56.5791 170.13 57.9168 169.124 58.5065C168.789 58.7548 168.37 58.9225 167.954 58.9225C167.284 58.9225 166.613 58.5872 166.194 58.0006ZM161.833 52.1314C161.079 51.2933 161.169 49.9556 162.088 49.1983C162.932 48.444 164.264 48.6116 165.027 49.4528C165.781 50.3746 165.608 51.7154 164.773 52.4697C164.357 52.7242 163.928 52.8918 163.432 52.8918C162.842 52.8918 162.262 52.6373 161.836 52.1345L161.833 52.1314ZM156.889 46.768C156.054 45.9331 156.054 44.5922 156.808 43.838C157.643 43 158.984 43 159.828 43.7511C160.663 44.5891 160.663 45.9331 159.828 46.768C159.403 47.1901 158.903 47.3577 158.314 47.3577C157.814 47.3577 157.224 47.1901 156.889 46.768ZM151.448 41.8236C150.523 41.0694 150.358 39.7286 151.113 38.8906C151.867 37.9687 153.208 37.888 154.043 38.6423C154.968 39.3127 155.132 40.6504 154.378 41.5753C153.962 42.0782 153.372 42.3296 152.699 42.3296C152.283 42.3296 151.783 42.162 151.448 41.8267V41.8236Z" fill="#3AA7CB"/>
<path d="M166.865 150.934C166.275 150.934 165.775 150.686 165.359 150.264C164.934 149.848 164.77 149.342 164.77 148.759C164.77 148.256 164.934 147.753 165.359 147.331C166.194 146.577 167.535 146.577 168.289 147.331C168.705 147.753 168.96 148.256 168.96 148.759C168.96 149.345 168.705 149.848 168.289 150.264C167.873 150.686 167.364 150.934 166.865 150.934Z" fill="#3AA7CB"/>
<path d="M37.3881 151.189C36.8883 151.189 36.2986 151.021 35.9634 150.599C35.5475 150.183 35.293 149.677 35.293 149.175C35.293 148.839 35.3737 148.588 35.4637 148.337C35.6282 148.088 35.7089 147.834 35.9634 147.666C36.7176 146.831 38.1392 146.912 38.8934 147.666C39.3186 148.088 39.5639 148.591 39.5639 149.175C39.5639 149.677 39.3186 150.18 38.8934 150.599C38.5582 151.021 37.9778 151.189 37.3881 151.189Z" fill="#3AA7CB"/>
<path d="M31.4375 143.898C30.8478 142.892 31.183 141.635 32.1918 141.046C33.1974 140.459 34.4576 140.797 35.0411 141.803C35.6308 142.725 35.2956 144.066 34.2869 144.652C33.9517 144.82 33.6164 144.907 33.2812 144.907C32.527 144.907 31.8566 144.572 31.4407 143.901L31.4375 143.898ZM27.8371 137.023C27.3312 136.021 27.7471 134.76 28.8427 134.261C29.8422 133.758 31.1023 134.261 31.6021 135.263C32.108 136.269 31.6021 137.526 30.6026 138.029C30.3481 138.196 30.0129 138.283 29.6777 138.283C28.9234 138.283 28.1723 137.78 27.8371 137.023ZM24.8171 129.903C24.4011 128.811 24.9878 127.64 26.0772 127.218C27.1667 126.802 28.4175 127.386 28.7527 128.475C29.1779 129.568 28.5882 130.738 27.5019 131.16C27.2474 131.241 26.9959 131.241 26.7476 131.241C25.9034 131.241 25.1523 130.738 24.8171 129.903ZM22.5575 122.525C22.3029 121.355 22.9734 120.263 24.0628 119.931C25.1523 119.676 26.3224 120.346 26.5738 121.436C26.909 122.609 26.2386 123.699 25.0685 124.034H24.5625C23.6469 124.034 22.8027 123.447 22.5575 122.525ZM20.9621 114.902C20.7976 113.729 21.5518 112.72 22.722 112.472C23.8921 112.305 24.8978 113.143 25.0716 114.232C25.3168 115.405 24.5656 116.495 23.3924 116.662H23.0572C22.0515 116.662 21.1266 115.905 20.9621 114.902ZM20.1271 107.193C20.0371 106.019 20.9621 105.011 22.0515 104.93C23.2217 104.93 24.2273 105.765 24.3173 106.938C24.398 108.111 23.4731 109.12 22.3867 109.201H22.2222C21.1266 109.201 20.2078 108.279 20.1271 107.193ZM22.0515 101.575C20.8814 101.575 19.9564 100.572 20.0371 99.4797C20.0371 98.3095 21.0428 97.3846 22.1322 97.4715C23.3117 97.4715 24.2273 98.3933 24.2273 99.5666C24.1466 100.74 23.2217 101.575 22.1322 101.575H22.0515ZM22.4674 94.0325C21.2973 93.9518 20.4624 92.8593 20.6269 91.7698C20.7076 90.5997 21.797 89.7617 22.9765 89.9293C24.0659 90.01 24.9009 91.0994 24.7364 92.2726C24.6557 93.2783 23.7307 94.1194 22.722 94.1194C22.5575 94.1194 22.4674 94.1194 22.4674 94.0325ZM23.5569 86.5741C22.3867 86.3258 21.7163 85.2363 21.887 84.0631C22.2222 82.9737 23.3117 82.2225 24.398 82.4709C25.5682 82.7192 26.3224 83.8955 25.9872 84.9818C25.8227 85.9874 24.8978 86.661 23.9821 86.661C23.8114 86.661 23.6469 86.661 23.5569 86.5741ZM25.3168 79.2864C24.2273 78.8643 23.6469 77.6941 23.9821 76.6016C24.3173 75.5121 25.4875 74.9286 26.6576 75.2638C27.7471 75.599 28.3368 76.7692 27.9985 77.9455L27.9178 77.8648C27.6633 78.7866 26.8283 79.3702 25.9034 79.3702C25.7389 79.3702 25.5682 79.2895 25.3137 79.2895L25.3168 79.2864ZM27.8371 72.0762C26.7476 71.6603 26.2417 70.4033 26.7476 69.3139C27.1636 68.3082 28.4175 67.8054 29.4232 68.3082C30.5126 68.7241 31.0185 69.9812 30.6026 70.9899V71.0768C30.1774 71.831 29.4232 72.247 28.672 72.247C28.3368 72.247 28.0823 72.247 27.8371 72.0794V72.0762ZM30.9378 65.2914C29.9322 64.7016 29.597 63.4446 30.1774 62.3583C30.6833 61.4333 32.0273 61.0174 32.9429 61.6009C34.0324 62.1038 34.3676 63.4477 33.7872 64.4533C33.4519 65.1237 32.6977 65.5428 31.9373 65.5428C31.602 65.5428 31.273 65.4621 30.9378 65.2945V65.2914ZM34.7028 58.7517C33.7872 58.0812 33.5326 56.7435 34.2031 55.8186C34.8735 54.816 36.1275 54.5615 37.1331 55.232C38.058 55.9024 38.3126 57.2401 37.639 58.165H37.7197C37.3038 58.7517 36.6303 59.0869 35.9598 59.0869C35.5439 59.0869 35.1249 59.0062 34.6997 58.7517H34.7028ZM39.1475 52.5534C38.2225 51.7961 38.1418 50.4583 38.893 49.6203C39.6534 48.6985 40.9074 48.6147 41.8323 49.3658C42.7479 50.0362 42.838 51.3801 42.0775 52.2989C41.6616 52.8017 41.0781 53.0531 40.4883 53.0531C39.9824 53.0531 39.5634 52.8886 39.1475 52.5534ZM44.0888 46.8517C43.2539 46.0137 43.2539 44.6697 44.0888 43.9186C44.9331 43.0806 46.2646 43.0806 47.0281 43.9186C47.8631 44.6728 47.8631 46.0137 47.0281 46.8517C46.6929 47.2676 46.1032 47.4383 45.6035 47.4383C45.0138 47.4383 44.5078 47.2707 44.0888 46.8517ZM49.5392 41.656C48.7849 40.7341 48.9494 39.3933 49.8744 38.6391C50.7093 37.9686 52.0502 38.0525 52.8044 38.9743C53.5586 39.8961 53.3941 41.15 52.5499 41.9074C52.134 42.2426 51.6342 42.4102 51.2152 42.4102C50.5448 42.4102 49.9551 42.1557 49.5361 41.6528L49.5392 41.656Z" fill="#3AA7CB"/>
<path d="M57.3334 37.8011C56.7436 37.8011 56.2439 37.5527 55.828 37.2144C55.4121 36.7923 55.2383 36.2088 55.2383 35.706C55.2383 35.2032 55.409 34.6166 55.828 34.2814C56.5822 33.4433 58.0038 33.4433 58.758 34.2814C59.174 34.6166 59.4285 35.2032 59.4285 35.706C59.4285 36.2088 59.174 36.7954 58.758 37.2144C58.4228 37.5496 57.8424 37.8011 57.3334 37.8011Z" fill="#3AA7CB"/>
</svg>
