<svg width="214" height="214" viewBox="0 0 214 214" fill="none" xmlns="http://www.w3.org/2000/svg">
<path d="M107 211.802C164.881 211.802 211.803 164.881 211.803 107C211.803 49.1193 164.881 2.19775 107 2.19775C49.1198 2.19775 2.19824 49.1193 2.19824 107C2.19824 164.881 49.1198 211.802 107 211.802Z" fill="white"/>
<path d="M107 214C47.9991 214 0 166.001 0 107C0 47.9991 48.0023 0 107 0C165.998 0 214 47.9991 214 107C214 166.001 166.001 214 107 214ZM107 4.39552C50.4248 4.39552 4.39552 50.4248 4.39552 107C4.39552 163.575 50.4248 209.604 107 209.604C163.575 209.604 209.604 163.575 209.604 107C209.604 50.4248 163.578 4.39552 107 4.39552Z" fill="#3AA7CB"/>
<path d="M77.6035 186.444V171.529H86.4532C87.9802 171.529 89.1654 171.893 90.0087 172.62C90.8519 173.346 91.272 174.388 91.272 175.745C91.272 176.488 91.1417 177.119 90.8943 177.647C90.6371 178.171 90.3017 178.588 89.8817 178.897C90.4742 179.177 90.9366 179.532 91.272 179.975C91.6138 180.411 91.7864 181.065 91.7864 181.932C91.7864 183.335 91.3241 184.439 90.4026 185.24C89.4844 186.047 88.1951 186.444 86.5476 186.444H77.6035ZM82.8684 177.253H84.9554C85.6945 177.253 86.0624 176.921 86.0624 176.256C86.0624 175.638 85.6945 175.328 84.9554 175.328H82.8684V177.253ZM82.8684 182.648H84.9554C85.6945 182.648 86.0624 182.316 86.0624 181.652C86.0624 181.033 85.6945 180.724 84.9554 180.724H82.8684V182.648Z" fill="#151716"/>
<path d="M92.8184 186.444L98.5716 171.529H104.383L110.127 186.444H104.289L103.224 183.667H99.721L98.6563 186.444H92.8184ZM100.33 179.844H102.596L101.463 176.999L100.33 179.844Z" fill="#151716"/>
<path d="M116.915 186.679C115.867 186.679 114.854 186.587 113.884 186.412C112.904 186.236 112.09 185.975 111.429 185.633V181.443C112.149 181.795 112.966 182.091 113.884 182.322C114.792 182.553 115.6 182.664 116.313 182.664C116.775 182.664 117.137 182.609 117.404 182.491C117.661 182.374 117.798 182.208 117.798 181.993C117.798 181.713 117.55 181.498 117.052 181.345C116.564 181.192 115.909 180.968 115.112 180.671C114.151 180.303 113.396 179.916 112.836 179.516C112.279 179.112 111.882 178.63 111.641 178.063C111.4 177.5 111.279 176.797 111.279 175.947C111.279 172.844 113.467 171.291 117.837 171.291C118.335 171.291 118.885 171.327 119.494 171.395C120.103 171.467 120.695 171.555 121.278 171.665C121.855 171.773 122.343 171.89 122.747 172.007V176.224C121.897 175.872 121.151 175.631 120.497 175.507C119.852 175.384 119.279 175.322 118.787 175.322C118.4 175.322 118.006 175.358 117.602 175.426C117.199 175.498 117 175.654 117 175.901C117 176.103 117.179 176.263 117.531 176.377C117.882 176.491 118.449 176.657 119.221 176.875C120.458 177.214 121.382 177.617 122.001 178.089C122.62 178.562 123.03 179.115 123.238 179.756C123.443 180.401 123.548 181.134 123.548 181.97C123.548 183.39 122.997 184.53 121.881 185.383C120.774 186.242 119.107 186.672 116.902 186.672L116.915 186.679Z" fill="#151716"/>
<path d="M125.173 186.444V171.529H137.106V175.56H130.78V176.904H136.224V181.072H130.78V182.417H137.106V186.448H125.173V186.444Z" fill="#151716"/>
<path d="M67.4797 21.5303C69.5603 26.7723 70.5989 29.3803 72.6795 34.6061C73.8516 34.0396 74.4442 33.7694 75.6359 33.2517C76.1112 34.5801 76.3489 35.2443 76.8243 36.576C73.7995 37.8849 72.3148 38.6272 69.4105 40.2812C66.4509 33.9289 64.9694 30.7739 62.0098 24.4053C64.1685 23.1745 65.2624 22.6015 67.4797 21.5303Z" fill="black"/>
<path d="M74.4512 18.5123C78.2541 17.0503 80.1881 16.4317 84.0985 15.4126C84.4013 16.8029 84.5511 17.4997 84.8539 18.8899C83.3399 19.2839 82.5845 19.4988 81.0835 19.9644C81.4189 21.2668 81.5849 21.9212 81.9203 23.2236C83.278 22.8036 83.9618 22.6082 85.3325 22.2468C85.6223 23.5655 85.7656 24.2264 86.0553 25.5451C84.7302 25.8935 84.0725 26.0823 82.7571 26.4893C83.1445 28.0001 83.3399 28.7522 83.7273 30.2629C85.2055 29.8071 85.9479 29.5955 87.4424 29.2145C87.7387 30.6048 87.8884 31.3016 88.1847 32.6919C84.7888 33.5612 83.1087 34.0952 79.8072 35.3618C77.668 28.622 76.5936 25.2618 74.4544 18.5123H74.4512Z" fill="black"/>
<path d="M102.641 12.5894C101.703 19.772 101.338 23.373 100.805 30.5687C97.7635 30.8161 96.2462 31.018 93.2377 31.578C91.0074 24.7536 89.7799 21.3739 87.1133 14.6862C89.5976 14.1294 90.8511 13.8917 93.3614 13.514C94.7094 18.2677 95.6569 22.3311 96.3113 25.675C96.2104 22.2204 96.1811 19.1533 96.2527 16.4672C96.2788 15.1257 96.2918 14.455 96.3276 13.1168C98.8477 12.8205 100.114 12.7163 102.644 12.5959L102.641 12.5894Z" fill="black"/>
<path d="M105.987 12.4919C109.995 12.4463 112.004 12.5342 115.999 12.9314C115.882 14.3543 115.82 15.0641 115.703 16.4869C114.156 16.3339 113.378 16.2753 111.828 16.1906C111.767 17.5418 111.734 18.2191 111.672 19.5703C113.075 19.6484 113.779 19.7005 115.182 19.834C115.071 21.1852 115.019 21.8592 114.909 23.2104C113.554 23.0802 112.877 23.0281 111.516 22.9532C111.444 24.5193 111.408 25.3007 111.337 26.8669C112.867 26.9515 113.629 27.0101 115.156 27.1697C115.032 28.5925 114.97 29.3023 114.847 30.7251C111.382 30.367 109.637 30.2856 106.157 30.3214C106.091 23.1909 106.056 19.6224 105.991 12.4919H105.987Z" fill="black"/>
<path d="M126.35 14.5592C125.331 20.1594 124.823 22.9562 123.804 28.5532C125.051 28.8267 125.673 28.9732 126.91 29.2988C126.607 30.6891 126.458 31.3826 126.155 32.7729C123.01 31.9524 121.414 31.6236 118.217 31.1449C119.102 24.0763 119.542 20.5403 120.424 13.4717C122.804 13.8266 123.993 14.0415 126.35 14.5559V14.5592Z" fill="black"/>
<path d="M137.443 27.2378C137.069 28.3937 136.88 28.9732 136.505 30.1291C133.956 29.1263 132.663 28.6835 130.059 27.9053C130.352 26.7201 130.498 26.1275 130.791 24.9424C133.481 25.7466 134.812 26.2024 137.443 27.2378Z" fill="black"/>
<path d="M151.994 24.4052C149.031 30.7738 147.556 33.9321 144.593 40.2812C142.865 39.2946 141.985 38.8323 140.211 37.9694C141.614 34.4693 142.314 32.7241 143.714 29.2272C144.222 27.9574 144.489 27.1825 144.515 26.883C144.541 26.5964 144.414 26.2969 144.128 26.0104C143.835 25.7173 143.102 25.2875 141.911 24.7633C141.709 24.6754 141.608 24.6298 141.406 24.5419C141.683 23.767 141.819 23.3796 142.096 22.6079C144.789 23.2754 147.039 23.36 148.914 22.7284C150.155 23.3731 150.773 23.7084 151.994 24.4052Z" fill="black"/>
<path d="M159.703 148.661C169.985 135.676 175.576 118.81 173.893 100.613C171.004 69.359 145.836 43.6794 114.641 40.2411C74.1174 35.774 39.8193 67.3826 39.8193 107.004C39.8193 122.76 45.2502 137.245 54.3343 148.7C57.1572 152.262 61.4811 154.32 66.0264 154.32H147.978C152.54 154.32 156.87 152.239 159.703 148.661Z" fill="#3AA7CB"/>
<path d="M119.677 75.7089H108.473L105.627 70.0208C103.475 65.7132 99.148 63.04 94.3325 63.04C93.0171 63.04 91.9557 64.1015 91.9557 65.4136C91.9557 66.7258 93.0171 67.7905 94.3325 67.7905C97.3345 67.7905 100.03 69.4575 101.375 72.1436L103.156 75.7122H94.3292C86.0331 75.7122 79.2803 82.4617 79.2803 90.7579C79.2803 92.0733 80.3417 93.1347 81.6571 93.1347H132.342C133.651 93.1347 134.716 92.0733 134.716 90.7579C134.716 82.4617 127.966 75.7122 119.67 75.7122M84.314 88.381C85.3917 83.8455 89.4746 80.4593 94.3357 80.4593H119.68C124.541 80.4593 128.624 83.8455 129.702 88.381H84.3172H84.314ZM126.26 97.0907H131.108C129.152 111.091 120.81 123.617 108.356 130.734C107.946 130.969 107.434 131.099 106.936 131.099C106.539 131.099 106.148 131.014 105.826 130.829C93.2255 123.627 84.8642 111.088 82.9041 97.0874H87.7457C89.6081 108.991 96.5856 119.651 106.998 126.007C117.472 119.566 124.408 108.933 126.264 97.0874" fill="white"/>
<path d="M153.931 39.6616C153.312 39.6616 152.703 39.3946 152.352 39.043C152.173 38.7825 152 38.6067 151.821 38.343C151.736 38.076 151.736 37.7243 151.736 37.4639C151.736 36.8452 151.915 36.321 152.355 35.8815C153.146 35.0903 154.637 35.0903 155.429 35.8815C155.608 36.1485 155.78 36.3243 155.959 36.5848C156.044 36.8452 156.132 37.2001 156.132 37.4639C156.132 38.0792 155.865 38.6067 155.429 39.043C155.077 39.3946 154.468 39.6616 153.934 39.6616H153.931Z" fill="#3AA7CB"/>
<path d="M165.538 167.132C164.652 166.253 164.652 164.843 165.453 163.967C166.329 163.173 167.736 163.088 168.612 163.967C169.497 164.758 169.497 166.165 168.612 167.041C168.175 167.483 167.651 167.744 167.032 167.744C166.502 167.744 165.978 167.483 165.538 167.128V167.132ZM170.809 161.505C169.849 160.714 169.754 159.308 170.458 158.429C171.249 157.462 172.655 157.286 173.541 158.077C174.502 158.78 174.684 160.19 173.893 161.154C173.447 161.681 172.838 161.945 172.219 161.945C171.695 161.945 171.249 161.772 170.813 161.509L170.809 161.505ZM175.557 155.348C174.502 154.733 174.244 153.327 174.948 152.36C175.644 151.305 176.966 151.041 178.021 151.744C178.992 152.36 179.249 153.766 178.64 154.733C178.194 155.436 177.491 155.7 176.794 155.7C176.348 155.7 175.908 155.615 175.557 155.348ZM179.688 148.846C178.64 148.319 178.288 146.909 178.812 145.857C179.431 144.803 180.743 144.451 181.801 144.978C182.856 145.594 183.296 146.909 182.687 147.967C182.335 148.758 181.544 149.11 180.747 149.11C180.395 149.11 180.043 149.025 179.692 148.85L179.688 148.846ZM183.293 141.993C182.15 141.55 181.626 140.231 182.15 139.092C182.586 138.037 183.911 137.509 184.966 137.945C186.109 138.473 186.633 139.707 186.194 140.847C185.757 141.726 184.966 142.165 184.081 142.165C183.823 142.165 183.556 142.165 183.289 141.993H183.293ZM186.194 134.869C184.966 134.517 184.348 133.198 184.787 132.052C185.139 130.909 186.376 130.297 187.516 130.649C188.658 131.001 189.277 132.228 188.922 133.462C188.655 134.341 187.779 134.957 186.897 134.957C186.63 134.957 186.373 134.872 186.194 134.872V134.869ZM188.391 127.481C187.164 127.129 186.461 125.986 186.724 124.847C186.982 123.616 188.131 122.91 189.358 123.177C190.501 123.437 191.289 124.58 191.026 125.726C190.768 126.778 189.883 127.481 188.828 127.481H188.391ZM189.886 119.836C188.743 119.66 187.867 118.605 188.04 117.371C188.134 116.228 189.277 115.349 190.505 115.525C191.647 115.616 192.53 116.756 192.351 117.983C192.266 119.038 191.296 119.921 190.153 119.921C190.068 119.921 189.98 119.836 189.886 119.836ZM190.772 112.188C189.534 112.097 188.574 111.133 188.658 109.899C188.658 108.671 189.713 107.701 190.856 107.792C192.084 107.792 193.054 108.847 193.054 110.075C192.969 111.221 191.999 112.188 190.856 112.188H190.772ZM188.574 102.342C188.479 101.199 189.365 100.144 190.592 100.059C191.83 99.9682 192.875 100.935 192.969 102.166C192.969 103.397 192.084 104.364 190.856 104.455H190.772C189.534 104.455 188.574 103.576 188.574 102.342ZM187.783 94.8694C187.604 93.7265 188.391 92.587 189.629 92.4111C190.856 92.2353 191.911 93.0265 192.178 94.2573H192.084C192.351 95.488 191.475 96.5397 190.238 96.7155C190.153 96.8067 190.065 96.8067 189.98 96.8067C188.831 96.8067 187.955 96.0122 187.783 94.8694ZM186.376 87.4849H186.282C186.024 86.3421 186.728 85.196 187.955 84.8508C189.098 84.5839 190.332 85.2871 190.589 86.5211C190.856 87.664 190.153 88.8036 189.01 89.1552H188.479C187.519 89.1552 186.549 88.5398 186.376 87.4849ZM184.178 80.3642C183.827 79.1334 184.435 77.9059 185.585 77.551C186.728 77.1082 187.955 77.7268 188.391 78.8697C188.743 80.0125 188.134 81.3279 186.985 81.6828C186.728 81.774 186.549 81.774 186.282 81.774C185.406 81.774 184.53 81.2465 184.178 80.3674V80.3642ZM181.447 73.3313C180.922 72.1852 181.447 70.8666 182.501 70.4303C183.644 69.9028 184.966 70.4303 185.402 71.4852C185.933 72.628 185.403 73.9434 184.348 74.383C183.996 74.5588 183.739 74.65 183.472 74.65C182.586 74.65 181.798 74.1225 181.447 73.3313ZM178.021 66.6501C177.403 65.5952 177.754 64.2766 178.812 63.6612C179.867 63.0425 181.189 63.3942 181.801 64.4524C182.42 65.5073 182.068 66.9171 181.01 67.4413C180.659 67.6171 180.307 67.7083 179.955 67.7083C179.164 67.7083 178.376 67.3567 178.025 66.6534L178.021 66.6501ZM173.977 60.3206C173.274 59.2657 173.541 57.947 174.502 57.2437C175.557 56.5404 176.878 56.8009 177.585 57.7712C178.288 58.7382 178.021 60.1448 177.054 60.8448C176.703 61.1118 176.263 61.1964 175.827 61.1964C175.123 61.1964 174.42 60.936 173.981 60.3206H173.977ZM169.403 54.3427C168.612 53.3757 168.7 51.9691 169.67 51.1779C170.555 50.4746 171.952 50.5593 172.753 51.5295V51.4384C173.544 52.4054 173.45 53.812 172.486 54.6032C172.135 54.9548 171.601 55.1306 171.08 55.1306C170.461 55.1306 169.852 54.8701 169.406 54.3394L169.403 54.3427ZM164.304 48.8043C163.428 47.9252 163.428 46.5154 164.304 45.7275C165.102 44.8483 166.502 44.8483 167.387 45.6363C168.263 46.5154 168.263 47.9252 167.387 48.8043C166.951 49.2406 166.417 49.4197 165.808 49.4197C165.278 49.4197 164.753 49.2439 164.307 48.8043H164.304ZM158.678 43.7902C157.802 42.999 157.623 41.6836 158.411 40.7166C159.114 39.7463 160.524 39.5705 161.494 40.3649C162.37 41.1561 162.549 42.5627 161.761 43.4385C161.315 43.966 160.706 44.3176 160.088 44.3176C159.563 44.3176 159.117 44.1418 158.681 43.7902H158.678Z" fill="#3AA7CB"/>
<path d="M161.315 173.107C160.791 173.107 160.172 172.846 159.82 172.407C159.384 172.055 159.117 171.436 159.117 170.909C159.117 170.293 159.384 169.766 159.82 169.33C160.612 168.535 162.018 168.451 162.904 169.33C163.34 169.766 163.513 170.297 163.513 170.909C163.513 171.436 163.34 172.055 162.904 172.407C162.458 172.843 161.934 173.107 161.315 173.107Z" fill="#3AA7CB"/>
<path d="M53.186 173.458C52.5674 173.458 52.0432 173.282 51.6069 172.843C51.1706 172.403 50.9883 171.876 50.9883 171.26C50.9883 170.733 51.1674 170.209 51.6069 169.766C52.4828 168.975 53.8893 168.887 54.7652 169.766C55.1168 170.209 55.3838 170.733 55.3838 171.26C55.3838 171.879 55.1168 172.407 54.7652 172.843C54.3289 173.279 53.7168 173.458 53.186 173.458Z" fill="#3AA7CB"/>
<path d="M45.8894 167.571C45.0135 166.78 45.0135 165.374 45.8894 164.494C46.775 163.619 48.1718 163.619 49.0574 164.494C49.8486 165.374 49.8486 166.783 49.0574 167.662C48.6211 168.014 48.0025 168.278 47.4783 168.278C46.9476 168.278 46.3289 168.017 45.8894 167.575V167.571ZM40.5334 161.681C39.8301 160.802 39.9147 159.399 40.885 158.604C41.7609 157.813 43.1674 157.989 43.9586 158.871C44.7498 159.838 44.5772 161.245 43.6916 162.036C43.2553 162.388 42.7311 162.473 42.2851 162.473C41.5818 162.473 40.9729 162.212 40.5334 161.681ZM35.7862 155.349C35.0829 154.297 35.3401 152.978 36.3951 152.275C37.3653 151.572 38.7719 151.832 39.4784 152.89C40.0873 153.857 39.8301 155.264 38.8598 155.967C38.5082 156.143 38.0686 156.319 37.6323 156.319C36.929 156.319 36.2258 155.967 35.7862 155.349ZM31.6479 148.586C31.039 147.531 31.3907 146.212 32.4391 145.594C33.5884 144.978 34.9038 145.333 35.4346 146.473C36.0434 147.528 35.6918 148.846 34.6369 149.462C34.295 149.638 33.9401 149.729 33.5884 149.729C32.7907 149.729 31.9995 149.286 31.6479 148.586ZM28.138 141.462C27.6073 140.316 28.138 138.997 29.2808 138.561C30.3358 138.033 31.6512 138.561 32.0972 139.616C32.6214 140.759 32.0972 142.074 31.0423 142.514C30.6907 142.689 30.4237 142.781 30.1567 142.781C29.2808 142.781 28.4896 142.253 28.138 141.462ZM25.2337 133.99C24.8821 132.847 25.5007 131.616 26.6403 131.173C27.7831 130.825 29.0952 131.44 29.4469 132.58C29.7985 133.723 29.1897 134.953 28.0403 135.396C27.7831 135.481 27.604 135.481 27.3435 135.481C26.4579 135.481 25.5821 134.865 25.2304 133.986L25.2337 133.99ZM23.1238 126.341C22.8569 125.111 23.5601 123.968 24.7974 123.707C25.9402 123.44 27.1677 124.144 27.4315 125.378C27.6984 126.52 26.9007 127.66 25.7579 128.012H25.2337C24.2634 128.012 23.3876 127.308 23.1206 126.341H23.1238ZM21.714 118.514C21.5415 117.287 22.4173 116.14 23.5601 116.056C24.7974 115.88 25.937 116.671 26.1095 117.902C26.1942 119.133 25.4063 120.184 24.1788 120.36H23.8271C22.7722 120.36 21.8964 119.569 21.714 118.514ZM21.0107 110.517C21.0107 109.371 21.8964 108.32 23.1238 108.32C24.3513 108.229 25.3216 109.196 25.4063 110.342C25.5007 111.569 24.5304 112.624 23.3029 112.624H23.2085C21.981 112.624 21.1052 111.745 21.0107 110.517ZM23.1238 104.891C21.8964 104.891 21.0107 103.836 21.0107 102.602H21.1052C21.1052 101.375 22.1536 100.496 23.3876 100.496C24.6151 100.58 25.5007 101.639 25.4063 102.778H25.5007C25.4063 104.009 24.4458 104.891 23.2085 104.891H23.1238ZM23.6481 97.1551C22.5052 96.9793 21.6294 95.9243 21.8019 94.6903C21.981 93.4628 23.1238 92.6684 24.3513 92.8442C25.5007 93.02 26.3765 94.075 26.1975 95.309C26.0249 96.3606 25.0546 97.1551 23.9997 97.1551H23.6481ZM24.97 89.5069C23.7425 89.2464 23.0392 88.0124 23.3029 86.8728C23.5601 85.6421 24.7974 84.9355 25.937 85.1993C27.1645 85.5509 27.8678 86.697 27.604 87.9245C27.3468 88.8947 26.4612 89.5948 25.4063 89.5948C25.2337 89.5948 25.149 89.5948 24.97 89.5101V89.5069ZM26.9007 82.0345C25.7579 81.5982 25.149 80.3642 25.5007 79.2214H25.5853C25.937 78.0785 27.1645 77.4599 28.3073 77.8148C29.4501 78.2576 30.0688 79.4851 29.7139 80.6279C29.3622 81.5982 28.571 82.1256 27.6008 82.1256C27.3435 82.1256 27.1645 82.1256 26.8975 82.0345H26.9007ZM29.5446 74.7347C28.4896 74.2072 27.9557 72.8885 28.4896 71.8336C28.9259 70.6908 30.2413 70.1633 31.3907 70.6908C32.4391 71.2182 32.9698 72.4522 32.4391 73.5918C32.0972 74.383 31.2963 74.9105 30.4204 74.9105C30.1534 74.9105 29.8018 74.8258 29.5446 74.7347ZM32.8852 67.7051C31.8302 67.0897 31.4786 65.7678 31.9995 64.7161C32.6182 63.6612 34.0247 63.2184 35.0829 63.837C36.0434 64.4524 36.4895 65.7678 35.8741 66.826C35.4378 67.6172 34.7313 67.9688 33.9433 67.9688C33.5917 67.9688 33.2401 67.8842 32.8884 67.7083L32.8852 67.7051ZM36.8346 61.0206C35.7862 60.3206 35.6071 58.914 36.3104 57.947C37.0137 56.9768 38.3356 56.7163 39.384 57.4196C40.3543 58.1229 40.6213 59.4415 39.9147 60.4964C39.4784 61.1118 38.7719 61.3723 38.0686 61.3723C37.6323 61.3723 37.183 61.2876 36.8314 61.0206H36.8346ZM41.4092 54.6943C40.4389 53.9032 40.3543 52.5812 41.1422 51.6175C41.9334 50.7384 43.34 50.5626 44.2256 51.357C45.1014 52.1482 45.2805 53.5548 44.4828 54.4306C44.0465 54.9581 43.4279 55.2251 42.8158 55.2251C42.2851 55.2251 41.8455 55.0492 41.4092 54.6976V54.6943ZM46.508 48.8923C45.6224 48.0132 45.6224 46.6098 46.508 45.8154C47.3839 44.9395 48.7904 44.9395 49.5816 45.8154C50.4672 46.6945 50.4672 48.0132 49.5816 48.8923C49.1453 49.3351 48.6211 49.5109 48.0871 49.5109C47.4783 49.5109 46.9443 49.3351 46.508 48.8923ZM52.131 43.5297C51.3398 42.6506 51.5222 41.2408 52.398 40.4529C53.3683 39.6617 54.7683 39.8375 55.4716 40.8045C56.2693 41.6836 56.1749 43.0934 55.2144 43.8814C54.7683 44.233 54.3288 44.3177 53.8078 44.3177C53.1892 44.3177 52.5706 44.0572 52.1343 43.5265L52.131 43.5297Z" fill="#3AA7CB"/>
<path d="M60.1343 39.6616C59.8673 39.6616 59.5157 39.5705 59.2584 39.4858C58.9914 39.3946 58.7277 39.2188 58.5552 39.043C58.1189 38.6067 57.9365 38.076 57.9365 37.4639C57.9365 36.8518 58.1156 36.321 58.5552 35.8815C59.3463 35.0903 60.9255 35.0903 61.6288 35.8815C62.0651 36.3243 62.332 36.8485 62.332 37.4639C62.332 38.0792 62.0651 38.6067 61.6288 39.043C61.4562 39.2188 61.1925 39.3946 60.9255 39.4858C60.6683 39.5705 60.4013 39.6616 60.1343 39.6616Z" fill="#3AA7CB"/>
</svg>
