<svg width="139" height="32" viewBox="0 0 139 32" fill="none" xmlns="http://www.w3.org/2000/svg">
<path d="M5.6391 8.51848H9.56889L12.7395 15.6189L16.3121 8.51848H20.3758L23.4571 15.5742L26.9404 8.51848H30.7362L23.4125 24.6396L18.143 13.1181L12.7395 24.4163L5.6391 8.51848ZM0.726852 8.51848H4.61199L12.7395 26.6938L18.143 15.351L23.4125 26.8724L31.808 8.51848H35.6038L25.3327 30.7129H21.2243L18.0983 23.9251L14.8384 30.7129H10.5067L0.726852 8.51848ZM42.2688 8.2952H45.8413V30.7129H42.2688V8.2952ZM42.2688 0.658891H45.8413V6.91084H42.2688V0.658891ZM37.7138 8.2952H41.2864V30.7129H37.7138V8.2952ZM37.7138 0.658891H41.2864V6.91084H37.7138V0.658891ZM57.6503 30.7129H54.1224V19.5487C54.1224 18.7747 54.2712 17.9857 54.5689 17.1819C54.8667 16.3781 55.3132 15.6636 55.9086 15.0384C56.5041 14.3834 57.2335 13.8475 58.0968 13.4307C58.9602 13.0139 59.9575 12.8055 61.0888 12.8055C61.982 12.8055 62.8156 12.9693 63.5896 13.2968C64.3934 13.6242 65.0931 14.0857 65.6885 14.6811C66.2839 15.2765 66.7602 15.991 67.1175 16.8246C67.4747 17.6582 67.6534 18.5811 67.6534 19.5934V30.7129H64.1255V19.5487C64.1255 19.1617 64.0362 18.7895 63.8576 18.4323C63.7087 18.0453 63.4854 17.7029 63.1877 17.4052C62.89 17.1075 62.5476 16.8693 62.1606 16.6907C61.8033 16.512 61.4014 16.4227 60.9549 16.4227C60.5083 16.4227 60.0766 16.512 59.6598 16.6907C59.2728 16.8693 58.9304 17.1223 58.6327 17.4498C58.335 17.7475 58.0968 18.0899 57.9182 18.4769C57.7396 18.864 57.6503 19.2808 57.6503 19.7273V30.7129ZM53.0953 30.7129H49.612V19.5934C49.612 18.0453 49.8949 16.5865 50.4605 15.217C51.0559 13.8178 51.8598 12.612 52.872 11.5998C53.914 10.5876 55.1346 9.78376 56.5338 9.18833C57.9331 8.59291 59.4514 8.2952 61.0888 8.2952C62.4285 8.2952 63.8278 8.60779 65.2866 9.23299C66.7454 9.82841 67.9957 10.6471 69.0377 11.6891C70.169 12.8204 70.958 14.0113 71.4045 15.2617C71.8511 16.512 72.0744 17.9857 72.0744 19.6827V30.7129H68.6805V19.638C68.6805 18.5663 68.4572 17.554 68.0106 16.6014C67.5938 15.6487 67.0282 14.83 66.3137 14.1452C65.5992 13.4605 64.7805 12.9246 63.8576 12.5376C62.9644 12.1208 62.0564 11.9124 61.1335 11.9124C59.9426 11.9124 58.856 12.1357 57.8735 12.5822C56.8911 13.0288 56.0426 13.6094 55.3281 14.3239C54.6136 15.0384 54.0628 15.8571 53.6758 16.78C53.2888 17.7029 53.0953 18.6407 53.0953 19.5934V30.7129ZM87.3474 12.9395V16.5567H83.6855V19.0575C83.6855 20.3079 83.9832 21.2159 84.5786 21.7815C85.2038 22.3472 86.1267 22.6747 87.3474 22.764V26.3812C86.9901 26.3812 86.6477 26.3812 86.3203 26.3812C85.9928 26.3514 85.6653 26.3068 85.3378 26.2472C85.0103 26.1579 84.6531 26.0239 84.266 25.8453C83.879 25.6369 83.4324 25.3541 82.9263 24.9968C81.8843 24.2823 81.1252 23.4636 80.6488 22.5407C80.2023 21.588 79.979 20.6353 79.979 19.6827V12.9395H87.3474ZM79.979 0.792862H83.6855V8.47382H87.3474V11.9571H79.979V0.792862ZM75.6473 0.792862H79.0859V18.2983C79.0859 20.025 79.324 21.4987 79.8004 22.7193C80.3065 23.9102 81.1698 24.9373 82.3905 25.8006C83.3431 26.4854 84.2065 26.9022 84.9805 27.051C85.7844 27.1701 86.5733 27.2445 87.3474 27.2743V30.7129C85.5313 30.7129 83.9088 30.4598 82.4798 29.9537C81.0508 29.4178 79.6962 28.4205 78.416 26.9617C77.761 26.2174 77.24 25.488 76.853 24.7735C76.4958 24.0293 76.2278 23.2999 76.0492 22.5854C75.8706 21.8709 75.7515 21.1712 75.6919 20.4865C75.6622 19.8018 75.6473 19.1468 75.6473 18.5216V0.792862ZM112.439 22.3174C112.2 23.5976 111.754 24.7735 111.099 25.8453C110.444 26.9171 109.625 27.8549 108.643 28.6587C107.69 29.4327 106.618 30.043 105.427 30.4896C104.266 30.9064 103.061 31.1148 101.81 31.1148C100.054 31.1148 98.4609 30.8171 97.0319 30.2217C95.6327 29.5965 94.427 28.7778 93.4147 27.7655C92.4025 26.7236 91.6136 25.5476 91.0479 24.2377C90.512 22.898 90.2441 21.5136 90.2441 20.0846C90.2441 18.4472 90.5269 16.9288 91.0926 15.5296C91.688 14.1006 92.4918 12.88 93.504 11.8677C94.546 10.8257 95.7667 10.0219 97.1659 9.45627C98.5949 8.86085 100.143 8.56314 101.81 8.56314C102.763 8.56314 103.716 8.71199 104.668 9.00971C105.621 9.27765 106.514 9.67956 107.348 10.2154C108.181 10.7513 108.94 11.3914 109.625 12.1357C110.34 12.8502 110.935 13.654 111.411 14.5471C111.918 15.5594 112.26 16.5716 112.439 17.5838C112.617 18.596 112.721 19.638 112.751 20.7098H97.5678C97.6571 21.5434 98.0739 22.2579 98.8182 22.8533C99.5923 23.4487 100.471 23.7464 101.453 23.7464C102.227 23.7464 102.837 23.6274 103.284 23.3892C103.76 23.151 104.162 22.7938 104.49 22.3174H107.794C107.258 23.6571 106.425 24.714 105.293 25.488C104.192 26.2621 103.001 26.6491 101.721 26.6491C100.59 26.6491 99.5774 26.4556 98.6842 26.0686C97.8209 25.6816 97.0766 25.1755 96.4514 24.5503C95.856 23.8953 95.3945 23.1659 95.067 22.3621C94.7395 21.5583 94.5758 20.7395 94.5758 19.906C94.5758 18.9235 94.7395 18.0155 95.067 17.1819C95.4243 16.3483 95.9155 15.6189 96.5407 14.9937C97.1659 14.3685 97.9251 13.8773 98.8182 13.52C99.7113 13.1628 100.709 12.9842 101.81 12.9842C103.09 12.9842 104.266 13.3563 105.338 14.1006C106.41 14.8151 107.199 15.8571 107.705 17.2265H104.222C103.626 16.2739 102.703 15.7975 101.453 15.7975C100.679 15.7975 99.9793 15.991 99.3541 16.3781C98.7587 16.7651 98.3567 17.301 98.1483 17.9857H108.821C108.553 17.033 108.181 16.1994 107.705 15.4849C107.229 14.7704 106.678 14.175 106.053 13.6987C105.457 13.1926 104.787 12.8204 104.043 12.5822C103.329 12.3143 102.599 12.1803 101.855 12.1803C100.575 12.1803 99.4285 12.3887 98.4163 12.8055C97.4338 13.1926 96.5854 13.7433 95.8709 14.4578C95.1861 15.1426 94.6651 15.9613 94.3079 16.914C93.9506 17.8369 93.772 18.8342 93.772 19.906C93.772 20.8586 93.9506 21.7964 94.3079 22.7193C94.6651 23.6125 95.1712 24.4163 95.8262 25.1308C96.5109 25.8453 97.3445 26.4258 98.327 26.8724C99.3392 27.2892 100.5 27.4976 101.81 27.4976C102.525 27.4976 103.224 27.3785 103.909 27.1403C104.624 26.9022 105.279 26.5598 105.874 26.1132C106.469 25.6667 107.005 25.1308 107.482 24.5056C107.958 23.8506 108.33 23.1212 108.598 22.3174H112.439ZM124.032 30.7129H120.46V19.5934C120.46 18.6109 120.638 17.7178 120.996 16.914C121.353 16.0804 121.829 15.3659 122.425 14.7704C123.05 14.1452 123.764 13.6689 124.568 13.3414C125.372 12.9842 126.22 12.8055 127.113 12.8055C127.947 12.8055 128.766 12.9693 129.57 13.2968C130.373 13.5945 131.088 14.041 131.713 14.6365C132.338 15.2021 132.844 15.9017 133.231 16.7353C133.648 17.5689 133.901 18.5216 133.991 19.5934H130.418C130.091 17.4796 129.004 16.4227 127.158 16.4227C126.295 16.4227 125.551 16.7204 124.925 17.3159C124.33 17.8815 124.032 18.6407 124.032 19.5934V30.7129ZM119.522 30.7129H115.681V19.5934C115.681 17.8071 116.009 16.2143 116.664 14.8151C117.319 13.3861 118.167 12.1803 119.209 11.1979C120.281 10.1857 121.472 9.4265 122.782 8.92039C124.121 8.38451 125.461 8.11657 126.801 8.11657C128.438 8.11657 129.972 8.3994 131.401 8.96505C132.83 9.50093 134.065 10.275 135.107 11.2872C136.179 12.2994 137.012 13.52 137.608 14.9491C138.233 16.3483 138.546 17.8964 138.546 19.5934H134.794C134.765 18.4323 134.527 17.3754 134.08 16.4227C133.663 15.47 133.098 14.6662 132.383 14.0113C131.668 13.3265 130.835 12.8055 129.882 12.4483C128.959 12.091 128.007 11.9124 127.024 11.9124C126.072 11.9124 125.149 12.1059 124.255 12.4929C123.362 12.8502 122.559 13.3712 121.844 14.0559C121.159 14.7407 120.594 15.5594 120.147 16.512C119.73 17.4349 119.522 18.4621 119.522 19.5934V30.7129Z" fill="white"/>
</svg>
